M48
; DRILL file {KiCad 8.0.5} date 2024-09-30T08:49:02+0600
; FORMAT={-:-/ absolute / inch / decimal}
; #@! TF.CreationDate,2024-09-30T08:49:02+06:00
; #@! TF.GenerationSoftware,Kicad,Pcbnew,8.0.5
; #@! TF.FileFunction,Plated,1,2,PTH
FMAT,2
INCH
; #@! TA.AperFunction,Plated,PTH,ViaDrill
T1C0.0118
; #@! TA.AperFunction,Plated,PTH,ViaDrill
T2C0.0157
; #@! TA.AperFunction,Plated,PTH,ComponentDrill
T3C0.0394
%
G90
G05
T1
X3.8917Y-2.7717
X3.8937Y-2.8701
X3.9035Y-2.6024
X3.9232Y-2.6417
X3.9606Y-3.0965
X3.9882Y-2.9587
X4.0118Y-2.9862
X4.0354Y-3.0256
X4.0374Y-2.8701
X4.0413Y-2.6142
X4.0669Y-2.8209
X4.0689Y-2.5039
X4.0709Y-2.5846
X4.2126Y-2.5177
X4.2736Y-2.6398
X4.3169Y-2.5
X4.3169Y-2.689
X4.3484Y-2.9843
X4.3799Y-3.0079
X4.4449Y-2.5335
X4.4882Y-2.6555
X4.5177Y-2.5492
X4.5591Y-2.6673
X4.5591Y-3.0906
X4.5866Y-2.8583
X4.6142Y-2.5531
X4.6496Y-2.8681
X4.6555Y-3.1398
X4.6791Y-2.8228
X4.6791Y-3.0276
X4.7165Y-2.9232
X4.8484Y-2.4823
X4.8555Y-2.622
X4.8681Y-3.0335
X5.0138Y-2.6909
X5.0906Y-2.8209
T2
X4.2303Y-2.9724
X4.2421Y-2.7795
X4.4528Y-2.7303
X4.6772Y-2.7598
X4.8012Y-2.6299
X4.8976Y-2.7874
X4.9213Y-2.9449
X4.9764Y-2.9843
T3
X3.6417Y-2.5772
X3.6417Y-2.6772
X3.7472Y-3.2441
X3.8472Y-3.2441
X3.9472Y-3.2441
X4.0472Y-3.2441
X4.1472Y-3.2441
X4.2472Y-3.2441
X4.3472Y-3.2441
X4.4472Y-3.2441
X4.5472Y-3.2441
X4.7406Y-3.2441
X4.8406Y-3.2441
X4.9406Y-3.2441
X5.0406Y-3.2441
X5.0945Y-2.5126
X5.0945Y-2.6126
X5.0945Y-2.7126
X5.1945Y-2.5126
X5.1945Y-2.6126
X5.1945Y-2.7126
X5.1945Y-2.8559
X5.1945Y-2.9559
X5.1945Y-3.0559
X5.1945Y-3.1559
M30
