%TF.GenerationSoftware,KiCad,Pcbnew,8.0.5*%
%TF.CreationDate,2024-09-30T08:41:21+06:00*%
%TF.ProjectId,MCU Datalogger,4d435520-4461-4746-916c-6f676765722e,rev?*%
%TF.SameCoordinates,Original*%
%TF.FileFunction,Legend,Bot*%
%TF.FilePolarity,Positive*%
%FSLAX46Y46*%
G04 Gerber Fmt 4.6, Leading zero omitted, Abs format (unit mm)*
G04 Created by KiCad (PCBNEW 8.0.5) date 2024-09-30 08:41:21*
%MOMM*%
%LPD*%
G01*
G04 APERTURE LIST*
%ADD10C,0.250000*%
%ADD11C,0.010000*%
G04 APERTURE END LIST*
D10*
X105820231Y-62450219D02*
X105820231Y-61450219D01*
X105820231Y-61450219D02*
X105486898Y-62164504D01*
X105486898Y-62164504D02*
X105153565Y-61450219D01*
X105153565Y-61450219D02*
X105153565Y-62450219D01*
X104248803Y-62450219D02*
X104248803Y-61450219D01*
X104248803Y-62402600D02*
X104344041Y-62450219D01*
X104344041Y-62450219D02*
X104534517Y-62450219D01*
X104534517Y-62450219D02*
X104629755Y-62402600D01*
X104629755Y-62402600D02*
X104677374Y-62354980D01*
X104677374Y-62354980D02*
X104724993Y-62259742D01*
X104724993Y-62259742D02*
X104724993Y-61974028D01*
X104724993Y-61974028D02*
X104677374Y-61878790D01*
X104677374Y-61878790D02*
X104629755Y-61831171D01*
X104629755Y-61831171D02*
X104534517Y-61783552D01*
X104534517Y-61783552D02*
X104344041Y-61783552D01*
X104344041Y-61783552D02*
X104248803Y-61831171D01*
X103010707Y-62450219D02*
X103010707Y-61450219D01*
X103010707Y-61450219D02*
X102439279Y-62450219D01*
X102439279Y-62450219D02*
X102439279Y-61450219D01*
X101534517Y-62450219D02*
X101534517Y-61926409D01*
X101534517Y-61926409D02*
X101582136Y-61831171D01*
X101582136Y-61831171D02*
X101677374Y-61783552D01*
X101677374Y-61783552D02*
X101867850Y-61783552D01*
X101867850Y-61783552D02*
X101963088Y-61831171D01*
X101534517Y-62402600D02*
X101629755Y-62450219D01*
X101629755Y-62450219D02*
X101867850Y-62450219D01*
X101867850Y-62450219D02*
X101963088Y-62402600D01*
X101963088Y-62402600D02*
X102010707Y-62307361D01*
X102010707Y-62307361D02*
X102010707Y-62212123D01*
X102010707Y-62212123D02*
X101963088Y-62116885D01*
X101963088Y-62116885D02*
X101867850Y-62069266D01*
X101867850Y-62069266D02*
X101629755Y-62069266D01*
X101629755Y-62069266D02*
X101534517Y-62021647D01*
X101058326Y-62450219D02*
X101058326Y-61450219D01*
X100629755Y-62450219D02*
X100629755Y-61926409D01*
X100629755Y-61926409D02*
X100677374Y-61831171D01*
X100677374Y-61831171D02*
X100772612Y-61783552D01*
X100772612Y-61783552D02*
X100915469Y-61783552D01*
X100915469Y-61783552D02*
X101010707Y-61831171D01*
X101010707Y-61831171D02*
X101058326Y-61878790D01*
X100153564Y-62450219D02*
X100153564Y-61783552D01*
X100153564Y-61450219D02*
X100201183Y-61497838D01*
X100201183Y-61497838D02*
X100153564Y-61545457D01*
X100153564Y-61545457D02*
X100105945Y-61497838D01*
X100105945Y-61497838D02*
X100153564Y-61450219D01*
X100153564Y-61450219D02*
X100153564Y-61545457D01*
X99248803Y-62450219D02*
X99248803Y-61450219D01*
X99248803Y-62402600D02*
X99344041Y-62450219D01*
X99344041Y-62450219D02*
X99534517Y-62450219D01*
X99534517Y-62450219D02*
X99629755Y-62402600D01*
X99629755Y-62402600D02*
X99677374Y-62354980D01*
X99677374Y-62354980D02*
X99724993Y-62259742D01*
X99724993Y-62259742D02*
X99724993Y-61974028D01*
X99724993Y-61974028D02*
X99677374Y-61878790D01*
X99677374Y-61878790D02*
X99629755Y-61831171D01*
X99629755Y-61831171D02*
X99534517Y-61783552D01*
X99534517Y-61783552D02*
X99344041Y-61783552D01*
X99344041Y-61783552D02*
X99248803Y-61831171D01*
X98344041Y-61783552D02*
X98344041Y-62450219D01*
X98772612Y-61783552D02*
X98772612Y-62307361D01*
X98772612Y-62307361D02*
X98724993Y-62402600D01*
X98724993Y-62402600D02*
X98629755Y-62450219D01*
X98629755Y-62450219D02*
X98486898Y-62450219D01*
X98486898Y-62450219D02*
X98391660Y-62402600D01*
X98391660Y-62402600D02*
X98344041Y-62354980D01*
X97724993Y-62450219D02*
X97820231Y-62402600D01*
X97820231Y-62402600D02*
X97867850Y-62307361D01*
X97867850Y-62307361D02*
X97867850Y-61450219D01*
X96582135Y-62450219D02*
X96582135Y-61450219D01*
X96153564Y-62402600D02*
X96058326Y-62450219D01*
X96058326Y-62450219D02*
X95867850Y-62450219D01*
X95867850Y-62450219D02*
X95772612Y-62402600D01*
X95772612Y-62402600D02*
X95724993Y-62307361D01*
X95724993Y-62307361D02*
X95724993Y-62259742D01*
X95724993Y-62259742D02*
X95772612Y-62164504D01*
X95772612Y-62164504D02*
X95867850Y-62116885D01*
X95867850Y-62116885D02*
X96010707Y-62116885D01*
X96010707Y-62116885D02*
X96105945Y-62069266D01*
X96105945Y-62069266D02*
X96153564Y-61974028D01*
X96153564Y-61974028D02*
X96153564Y-61926409D01*
X96153564Y-61926409D02*
X96105945Y-61831171D01*
X96105945Y-61831171D02*
X96010707Y-61783552D01*
X96010707Y-61783552D02*
X95867850Y-61783552D01*
X95867850Y-61783552D02*
X95772612Y-61831171D01*
X95153564Y-62450219D02*
X95248802Y-62402600D01*
X95248802Y-62402600D02*
X95296421Y-62307361D01*
X95296421Y-62307361D02*
X95296421Y-61450219D01*
X94344040Y-62450219D02*
X94344040Y-61926409D01*
X94344040Y-61926409D02*
X94391659Y-61831171D01*
X94391659Y-61831171D02*
X94486897Y-61783552D01*
X94486897Y-61783552D02*
X94677373Y-61783552D01*
X94677373Y-61783552D02*
X94772611Y-61831171D01*
X94344040Y-62402600D02*
X94439278Y-62450219D01*
X94439278Y-62450219D02*
X94677373Y-62450219D01*
X94677373Y-62450219D02*
X94772611Y-62402600D01*
X94772611Y-62402600D02*
X94820230Y-62307361D01*
X94820230Y-62307361D02*
X94820230Y-62212123D01*
X94820230Y-62212123D02*
X94772611Y-62116885D01*
X94772611Y-62116885D02*
X94677373Y-62069266D01*
X94677373Y-62069266D02*
X94439278Y-62069266D01*
X94439278Y-62069266D02*
X94344040Y-62021647D01*
X93867849Y-62450219D02*
X93867849Y-61783552D01*
X93867849Y-61878790D02*
X93820230Y-61831171D01*
X93820230Y-61831171D02*
X93724992Y-61783552D01*
X93724992Y-61783552D02*
X93582135Y-61783552D01*
X93582135Y-61783552D02*
X93486897Y-61831171D01*
X93486897Y-61831171D02*
X93439278Y-61926409D01*
X93439278Y-61926409D02*
X93439278Y-62450219D01*
X93439278Y-61926409D02*
X93391659Y-61831171D01*
X93391659Y-61831171D02*
X93296421Y-61783552D01*
X93296421Y-61783552D02*
X93153564Y-61783552D01*
X93153564Y-61783552D02*
X93058325Y-61831171D01*
X93058325Y-61831171D02*
X93010706Y-61926409D01*
X93010706Y-61926409D02*
X93010706Y-62450219D01*
D11*
%TO.C,REF\u002A\u002A*%
X94264694Y-72608918D02*
X94265188Y-72621868D01*
X94271619Y-72643611D01*
X94289923Y-72662051D01*
X94325630Y-72684001D01*
X94356974Y-72704054D01*
X94404693Y-72742556D01*
X94447938Y-72785779D01*
X94481019Y-72827827D01*
X94498242Y-72862804D01*
X94502462Y-72876281D01*
X94510280Y-72885534D01*
X94512916Y-72888654D01*
X94534462Y-72893896D01*
X94574114Y-72894982D01*
X94641909Y-72894982D01*
X94641909Y-73008151D01*
X94482377Y-73008151D01*
X94467482Y-73185932D01*
X94465482Y-73210237D01*
X94460823Y-73271080D01*
X94457531Y-73320589D01*
X94455892Y-73354192D01*
X94456190Y-73367316D01*
X94460524Y-73363543D01*
X94480296Y-73343876D01*
X94514479Y-73309018D01*
X94561341Y-73260776D01*
X94619154Y-73200957D01*
X94686187Y-73131367D01*
X94760712Y-73053815D01*
X94840997Y-72970107D01*
X94925313Y-72882049D01*
X95011930Y-72791450D01*
X95099119Y-72700115D01*
X95185149Y-72609853D01*
X95268292Y-72522469D01*
X95346816Y-72439772D01*
X95418992Y-72363568D01*
X95483091Y-72295663D01*
X95537383Y-72237866D01*
X95634392Y-72134240D01*
X95634834Y-72222515D01*
X95635275Y-72310789D01*
X95034738Y-72942358D01*
X94434201Y-73573926D01*
X94422196Y-73717874D01*
X94374165Y-74293835D01*
X94365676Y-74395991D01*
X94355143Y-74523812D01*
X94345421Y-74642967D01*
X94336698Y-74751114D01*
X94329158Y-74845913D01*
X94322987Y-74925019D01*
X94318373Y-74986092D01*
X94315500Y-75026790D01*
X94314554Y-75044770D01*
X94317051Y-75053008D01*
X94328271Y-75070799D01*
X94349551Y-75097611D01*
X94359821Y-75109329D01*
X94382025Y-75134666D01*
X94426823Y-75183186D01*
X94485081Y-75244392D01*
X94557929Y-75319507D01*
X94646503Y-75409750D01*
X94751934Y-75516345D01*
X94821292Y-75586293D01*
X94917979Y-75683858D01*
X95014326Y-75781141D01*
X95107438Y-75875214D01*
X95194418Y-75963150D01*
X95272369Y-76042020D01*
X95338396Y-76108899D01*
X95389602Y-76160858D01*
X95590314Y-76364820D01*
X95553858Y-76402871D01*
X95545260Y-76411445D01*
X95519895Y-76432497D01*
X95502495Y-76440923D01*
X95488871Y-76433730D01*
X95463543Y-76412144D01*
X95433179Y-76381195D01*
X95414696Y-76361648D01*
X95380227Y-76325952D01*
X95331512Y-76275884D01*
X95270269Y-76213201D01*
X95198220Y-76139657D01*
X95117085Y-76057010D01*
X95028584Y-75967015D01*
X94934437Y-75871428D01*
X94836365Y-75772005D01*
X94293961Y-75222543D01*
X94271866Y-75507946D01*
X94267050Y-75568862D01*
X94260016Y-75650748D01*
X94253672Y-75712769D01*
X94247548Y-75758187D01*
X94241173Y-75790262D01*
X94234077Y-75812252D01*
X94225791Y-75827419D01*
X94214193Y-75848616D01*
X94204650Y-75887586D01*
X94201810Y-75943731D01*
X94201810Y-76025973D01*
X93975474Y-76025973D01*
X93975474Y-75849933D01*
X93129882Y-75849933D01*
X93081003Y-75905462D01*
X93067636Y-75919922D01*
X92995188Y-75978013D01*
X92913332Y-76013776D01*
X92824700Y-76025973D01*
X92746492Y-76019506D01*
X92658033Y-75992247D01*
X92582307Y-75943528D01*
X92567548Y-75929603D01*
X92530664Y-75884528D01*
X92498303Y-75832019D01*
X92475097Y-75780261D01*
X92465679Y-75737439D01*
X92465497Y-75731223D01*
X92464142Y-75708446D01*
X92460600Y-75692713D01*
X92453190Y-75685268D01*
X92440231Y-75687356D01*
X92420043Y-75700220D01*
X92390945Y-75725105D01*
X92351256Y-75763253D01*
X92299296Y-75815910D01*
X92233384Y-75884319D01*
X92151840Y-75969724D01*
X92108404Y-76015312D01*
X92035800Y-76091641D01*
X91967109Y-76164008D01*
X91905023Y-76229566D01*
X91852234Y-76285474D01*
X91811434Y-76328886D01*
X91785315Y-76356958D01*
X91713919Y-76434636D01*
X91625663Y-76346616D01*
X92171490Y-75774487D01*
X92205905Y-75738388D01*
X92328346Y-75609472D01*
X92433451Y-75497954D01*
X92521536Y-75403488D01*
X92592916Y-75325729D01*
X92643388Y-75269374D01*
X92850047Y-75269374D01*
X92851672Y-75282634D01*
X92851956Y-75284019D01*
X92865498Y-75315428D01*
X92892548Y-75330063D01*
X92975929Y-75361263D01*
X93050218Y-75413238D01*
X93108646Y-75481991D01*
X93148690Y-75564515D01*
X93167826Y-75657806D01*
X93174164Y-75736765D01*
X94123638Y-75736765D01*
X94130258Y-75708473D01*
X94131429Y-75701529D01*
X94135068Y-75670481D01*
X94140034Y-75620281D01*
X94145957Y-75554927D01*
X94152469Y-75478419D01*
X94159201Y-75394755D01*
X94181524Y-75109329D01*
X93880626Y-74803765D01*
X93825436Y-74747904D01*
X93757909Y-74680088D01*
X93697329Y-74619843D01*
X93645821Y-74569252D01*
X93605510Y-74530400D01*
X93578522Y-74505370D01*
X93566982Y-74496246D01*
X93559244Y-74500605D01*
X93536195Y-74520441D01*
X93501509Y-74553575D01*
X93458287Y-74597020D01*
X93409632Y-74647787D01*
X93396940Y-74661251D01*
X93340029Y-74721475D01*
X93272214Y-74793064D01*
X93198600Y-74870637D01*
X93124293Y-74948811D01*
X93054399Y-75022205D01*
X93050201Y-75026609D01*
X92985220Y-75094985D01*
X92935636Y-75147932D01*
X92899488Y-75187967D01*
X92874816Y-75217611D01*
X92859658Y-75239381D01*
X92852056Y-75255795D01*
X92850047Y-75269374D01*
X92643388Y-75269374D01*
X92647905Y-75264331D01*
X92686819Y-75218948D01*
X92709973Y-75189235D01*
X92717682Y-75174844D01*
X92717683Y-75174759D01*
X92716625Y-75156824D01*
X92713537Y-75116621D01*
X92708658Y-75056887D01*
X92702232Y-74980358D01*
X92694500Y-74889769D01*
X92685705Y-74787857D01*
X92676087Y-74677359D01*
X92665891Y-74561011D01*
X92655356Y-74441548D01*
X92644726Y-74321707D01*
X92634242Y-74204225D01*
X92624146Y-74091837D01*
X92614681Y-73987281D01*
X92606088Y-73893291D01*
X92598609Y-73812605D01*
X92592487Y-73747959D01*
X92587962Y-73702088D01*
X92585278Y-73677730D01*
X92579867Y-73636932D01*
X92709053Y-73636932D01*
X92710708Y-73667853D01*
X92714349Y-73719853D01*
X92719795Y-73790687D01*
X92726863Y-73878111D01*
X92735370Y-73979881D01*
X92745135Y-74093752D01*
X92755974Y-74217479D01*
X92767707Y-74348818D01*
X92776879Y-74450108D01*
X92788366Y-74575726D01*
X92799122Y-74691962D01*
X92808931Y-74796580D01*
X92817581Y-74887340D01*
X92824857Y-74962004D01*
X92830546Y-75018334D01*
X92834434Y-75054091D01*
X92836306Y-75067037D01*
X92841988Y-75063026D01*
X92862820Y-75043338D01*
X92896672Y-75009522D01*
X92941212Y-74964037D01*
X92994110Y-74909346D01*
X93053036Y-74847910D01*
X93115658Y-74782190D01*
X93179648Y-74714649D01*
X93242674Y-74647747D01*
X93302406Y-74583946D01*
X93356513Y-74525707D01*
X93402665Y-74475492D01*
X93438533Y-74435763D01*
X93461784Y-74408980D01*
X93468578Y-74399677D01*
X93650401Y-74399677D01*
X93926105Y-74675168D01*
X93993526Y-74742424D01*
X94057067Y-74805362D01*
X94106290Y-74853300D01*
X94142996Y-74887794D01*
X94168990Y-74910399D01*
X94186076Y-74922671D01*
X94196056Y-74926166D01*
X94200735Y-74922438D01*
X94201916Y-74913044D01*
X94202673Y-74897949D01*
X94205401Y-74859083D01*
X94209908Y-74800095D01*
X94215979Y-74723673D01*
X94223396Y-74632505D01*
X94231942Y-74529280D01*
X94241402Y-74416683D01*
X94251558Y-74297405D01*
X94260523Y-74192277D01*
X94269866Y-74081551D01*
X94278243Y-73981014D01*
X94285453Y-73893143D01*
X94291296Y-73820415D01*
X94295569Y-73765310D01*
X94298073Y-73730304D01*
X94298605Y-73717874D01*
X94298184Y-73718108D01*
X94286309Y-73729550D01*
X94259930Y-73756398D01*
X94221370Y-73796218D01*
X94172953Y-73846572D01*
X94117003Y-73905028D01*
X94055842Y-73969148D01*
X93991795Y-74036498D01*
X93927185Y-74104643D01*
X93864335Y-74171148D01*
X93805568Y-74233577D01*
X93753209Y-74289495D01*
X93652333Y-74397606D01*
X93650401Y-74399677D01*
X93468578Y-74399677D01*
X93470090Y-74397606D01*
X93461948Y-74386583D01*
X93438278Y-74360199D01*
X93401278Y-74320727D01*
X93353150Y-74270391D01*
X93296096Y-74211417D01*
X93232320Y-74146030D01*
X93164022Y-74076455D01*
X93093405Y-74004916D01*
X93022671Y-73933638D01*
X92954022Y-73864847D01*
X92889661Y-73800766D01*
X92831789Y-73743622D01*
X92782610Y-73695639D01*
X92744324Y-73659041D01*
X92719134Y-73636054D01*
X92709242Y-73628903D01*
X92709053Y-73636932D01*
X92579867Y-73636932D01*
X92578190Y-73624289D01*
X92303097Y-73624289D01*
X92302768Y-73413671D01*
X92302597Y-73304372D01*
X92403691Y-73304372D01*
X92403691Y-73523695D01*
X92485424Y-73523695D01*
X92492695Y-73523689D01*
X92533750Y-73522813D01*
X92556077Y-73519067D01*
X92565329Y-73510470D01*
X92567157Y-73495040D01*
X92559106Y-73472359D01*
X92531530Y-73434628D01*
X92485424Y-73385379D01*
X92403691Y-73304372D01*
X92302597Y-73304372D01*
X92302439Y-73203052D01*
X91850714Y-72744091D01*
X91398989Y-72285131D01*
X91398370Y-72198048D01*
X91397751Y-72110967D01*
X91939569Y-72660152D01*
X91991937Y-72713198D01*
X92100603Y-72822972D01*
X92193509Y-72916314D01*
X92271855Y-72994373D01*
X92336843Y-73058297D01*
X92389672Y-73109235D01*
X92431543Y-73148335D01*
X92463655Y-73176748D01*
X92487210Y-73195620D01*
X92503408Y-73206101D01*
X92513449Y-73209339D01*
X92530379Y-73208358D01*
X92539884Y-73201196D01*
X92541523Y-73181601D01*
X92537582Y-73143324D01*
X92534865Y-73119225D01*
X92531084Y-73078944D01*
X92529560Y-73052161D01*
X92528815Y-73042928D01*
X92521546Y-73033039D01*
X92501468Y-73029762D01*
X92462489Y-73031192D01*
X92452537Y-73031753D01*
X92412698Y-73031121D01*
X92384360Y-73022367D01*
X92364386Y-73008151D01*
X92647652Y-73008151D01*
X92651813Y-73055304D01*
X92653735Y-73076698D01*
X92659724Y-73135109D01*
X92665626Y-73173581D01*
X92672527Y-73196112D01*
X92681512Y-73206698D01*
X92693670Y-73209339D01*
X92704601Y-73211137D01*
X92711850Y-73219730D01*
X92715900Y-73239705D01*
X92717663Y-73275650D01*
X92718048Y-73332152D01*
X92718048Y-73454966D01*
X92758247Y-73495040D01*
X92856365Y-73592854D01*
X92994681Y-73730742D01*
X92994681Y-73624289D01*
X93749137Y-73624289D01*
X93749137Y-73863200D01*
X93130631Y-73863200D01*
X93340392Y-74080106D01*
X93380570Y-74121534D01*
X93436128Y-74178400D01*
X93484370Y-74227282D01*
X93522771Y-74265641D01*
X93548803Y-74290941D01*
X93559940Y-74300642D01*
X93564173Y-74297967D01*
X93584024Y-74279982D01*
X93618251Y-74246681D01*
X93665027Y-74199912D01*
X93722524Y-74141525D01*
X93788912Y-74073369D01*
X93862364Y-73997294D01*
X93941051Y-73915150D01*
X94020141Y-73832143D01*
X94097671Y-73750336D01*
X94160546Y-73683283D01*
X94210302Y-73629207D01*
X94248478Y-73586329D01*
X94276611Y-73552873D01*
X94296240Y-73527061D01*
X94308901Y-73507114D01*
X94316134Y-73491256D01*
X94319475Y-73477709D01*
X94320361Y-73471110D01*
X94324288Y-73434748D01*
X94329259Y-73381218D01*
X94334727Y-73316621D01*
X94340144Y-73247062D01*
X94341981Y-73222835D01*
X94347288Y-73157378D01*
X94352348Y-73100917D01*
X94356663Y-73058818D01*
X94359734Y-73036443D01*
X94365755Y-73008151D01*
X92647652Y-73008151D01*
X92364386Y-73008151D01*
X92356430Y-73002489D01*
X92351620Y-72998304D01*
X92312282Y-72947627D01*
X92296703Y-72894982D01*
X92637498Y-72894982D01*
X94052021Y-72894982D01*
X94049972Y-72844685D01*
X94264681Y-72844685D01*
X94264681Y-72894982D01*
X94321708Y-72894982D01*
X94338793Y-72894862D01*
X94364108Y-72892662D01*
X94371416Y-72885534D01*
X94365743Y-72870708D01*
X94364067Y-72867882D01*
X94345248Y-72846144D01*
X94317983Y-72822020D01*
X94290787Y-72802454D01*
X94272171Y-72794388D01*
X94270497Y-72795663D01*
X94266344Y-72813176D01*
X94264681Y-72844685D01*
X94049972Y-72844685D01*
X94048326Y-72804295D01*
X94044632Y-72713607D01*
X93969186Y-72698452D01*
X93931351Y-72691579D01*
X93868168Y-72681956D01*
X93808865Y-72674696D01*
X93723988Y-72666093D01*
X93723988Y-72769240D01*
X93145573Y-72769240D01*
X93145573Y-72678322D01*
X93073271Y-72686953D01*
X92962798Y-72705449D01*
X92851616Y-72738891D01*
X92759650Y-72785524D01*
X92685342Y-72845986D01*
X92637498Y-72894982D01*
X92296703Y-72894982D01*
X92294972Y-72889134D01*
X92300274Y-72827775D01*
X92328775Y-72768497D01*
X92331533Y-72764806D01*
X92369622Y-72733051D01*
X92419276Y-72714267D01*
X92472802Y-72709271D01*
X92522507Y-72718878D01*
X92560700Y-72743904D01*
X92573631Y-72756680D01*
X92586228Y-72759776D01*
X92604267Y-72750198D01*
X92634728Y-72726282D01*
X92644074Y-72718931D01*
X92716230Y-72672539D01*
X92801715Y-72631284D01*
X92871630Y-72605775D01*
X93246167Y-72605775D01*
X93246167Y-72668646D01*
X93623394Y-72668646D01*
X93623394Y-72605775D01*
X93246167Y-72605775D01*
X92871630Y-72605775D01*
X92892567Y-72598136D01*
X92980827Y-72576068D01*
X93058536Y-72568052D01*
X93066791Y-72567988D01*
X93112679Y-72563521D01*
X93137879Y-72550995D01*
X93145573Y-72528984D01*
X93146476Y-72522049D01*
X93151415Y-72516085D01*
X93163411Y-72511719D01*
X93185480Y-72508703D01*
X93220636Y-72506790D01*
X93271894Y-72505730D01*
X93342271Y-72505277D01*
X93434780Y-72505180D01*
X93521460Y-72505350D01*
X93595132Y-72506034D01*
X93649065Y-72507415D01*
X93686088Y-72509670D01*
X93709030Y-72512978D01*
X93720720Y-72517520D01*
X93723988Y-72523472D01*
X93734737Y-72538088D01*
X93764855Y-72547415D01*
X93776382Y-72549047D01*
X93815686Y-72554791D01*
X93867988Y-72562578D01*
X93925176Y-72571203D01*
X93956716Y-72575593D01*
X94002874Y-72580348D01*
X94035441Y-72581495D01*
X94048823Y-72578695D01*
X94051108Y-72576871D01*
X94072205Y-72572365D01*
X94110155Y-72569229D01*
X94158848Y-72568052D01*
X94264681Y-72568052D01*
X94264694Y-72605775D01*
X94264694Y-72608918D01*
G36*
X94264694Y-72608918D02*
G01*
X94265188Y-72621868D01*
X94271619Y-72643611D01*
X94289923Y-72662051D01*
X94325630Y-72684001D01*
X94356974Y-72704054D01*
X94404693Y-72742556D01*
X94447938Y-72785779D01*
X94481019Y-72827827D01*
X94498242Y-72862804D01*
X94502462Y-72876281D01*
X94510280Y-72885534D01*
X94512916Y-72888654D01*
X94534462Y-72893896D01*
X94574114Y-72894982D01*
X94641909Y-72894982D01*
X94641909Y-73008151D01*
X94482377Y-73008151D01*
X94467482Y-73185932D01*
X94465482Y-73210237D01*
X94460823Y-73271080D01*
X94457531Y-73320589D01*
X94455892Y-73354192D01*
X94456190Y-73367316D01*
X94460524Y-73363543D01*
X94480296Y-73343876D01*
X94514479Y-73309018D01*
X94561341Y-73260776D01*
X94619154Y-73200957D01*
X94686187Y-73131367D01*
X94760712Y-73053815D01*
X94840997Y-72970107D01*
X94925313Y-72882049D01*
X95011930Y-72791450D01*
X95099119Y-72700115D01*
X95185149Y-72609853D01*
X95268292Y-72522469D01*
X95346816Y-72439772D01*
X95418992Y-72363568D01*
X95483091Y-72295663D01*
X95537383Y-72237866D01*
X95634392Y-72134240D01*
X95634834Y-72222515D01*
X95635275Y-72310789D01*
X95034738Y-72942358D01*
X94434201Y-73573926D01*
X94422196Y-73717874D01*
X94374165Y-74293835D01*
X94365676Y-74395991D01*
X94355143Y-74523812D01*
X94345421Y-74642967D01*
X94336698Y-74751114D01*
X94329158Y-74845913D01*
X94322987Y-74925019D01*
X94318373Y-74986092D01*
X94315500Y-75026790D01*
X94314554Y-75044770D01*
X94317051Y-75053008D01*
X94328271Y-75070799D01*
X94349551Y-75097611D01*
X94359821Y-75109329D01*
X94382025Y-75134666D01*
X94426823Y-75183186D01*
X94485081Y-75244392D01*
X94557929Y-75319507D01*
X94646503Y-75409750D01*
X94751934Y-75516345D01*
X94821292Y-75586293D01*
X94917979Y-75683858D01*
X95014326Y-75781141D01*
X95107438Y-75875214D01*
X95194418Y-75963150D01*
X95272369Y-76042020D01*
X95338396Y-76108899D01*
X95389602Y-76160858D01*
X95590314Y-76364820D01*
X95553858Y-76402871D01*
X95545260Y-76411445D01*
X95519895Y-76432497D01*
X95502495Y-76440923D01*
X95488871Y-76433730D01*
X95463543Y-76412144D01*
X95433179Y-76381195D01*
X95414696Y-76361648D01*
X95380227Y-76325952D01*
X95331512Y-76275884D01*
X95270269Y-76213201D01*
X95198220Y-76139657D01*
X95117085Y-76057010D01*
X95028584Y-75967015D01*
X94934437Y-75871428D01*
X94836365Y-75772005D01*
X94293961Y-75222543D01*
X94271866Y-75507946D01*
X94267050Y-75568862D01*
X94260016Y-75650748D01*
X94253672Y-75712769D01*
X94247548Y-75758187D01*
X94241173Y-75790262D01*
X94234077Y-75812252D01*
X94225791Y-75827419D01*
X94214193Y-75848616D01*
X94204650Y-75887586D01*
X94201810Y-75943731D01*
X94201810Y-76025973D01*
X93975474Y-76025973D01*
X93975474Y-75849933D01*
X93129882Y-75849933D01*
X93081003Y-75905462D01*
X93067636Y-75919922D01*
X92995188Y-75978013D01*
X92913332Y-76013776D01*
X92824700Y-76025973D01*
X92746492Y-76019506D01*
X92658033Y-75992247D01*
X92582307Y-75943528D01*
X92567548Y-75929603D01*
X92530664Y-75884528D01*
X92498303Y-75832019D01*
X92475097Y-75780261D01*
X92465679Y-75737439D01*
X92465497Y-75731223D01*
X92464142Y-75708446D01*
X92460600Y-75692713D01*
X92453190Y-75685268D01*
X92440231Y-75687356D01*
X92420043Y-75700220D01*
X92390945Y-75725105D01*
X92351256Y-75763253D01*
X92299296Y-75815910D01*
X92233384Y-75884319D01*
X92151840Y-75969724D01*
X92108404Y-76015312D01*
X92035800Y-76091641D01*
X91967109Y-76164008D01*
X91905023Y-76229566D01*
X91852234Y-76285474D01*
X91811434Y-76328886D01*
X91785315Y-76356958D01*
X91713919Y-76434636D01*
X91625663Y-76346616D01*
X92171490Y-75774487D01*
X92205905Y-75738388D01*
X92328346Y-75609472D01*
X92433451Y-75497954D01*
X92521536Y-75403488D01*
X92592916Y-75325729D01*
X92643388Y-75269374D01*
X92850047Y-75269374D01*
X92851672Y-75282634D01*
X92851956Y-75284019D01*
X92865498Y-75315428D01*
X92892548Y-75330063D01*
X92975929Y-75361263D01*
X93050218Y-75413238D01*
X93108646Y-75481991D01*
X93148690Y-75564515D01*
X93167826Y-75657806D01*
X93174164Y-75736765D01*
X94123638Y-75736765D01*
X94130258Y-75708473D01*
X94131429Y-75701529D01*
X94135068Y-75670481D01*
X94140034Y-75620281D01*
X94145957Y-75554927D01*
X94152469Y-75478419D01*
X94159201Y-75394755D01*
X94181524Y-75109329D01*
X93880626Y-74803765D01*
X93825436Y-74747904D01*
X93757909Y-74680088D01*
X93697329Y-74619843D01*
X93645821Y-74569252D01*
X93605510Y-74530400D01*
X93578522Y-74505370D01*
X93566982Y-74496246D01*
X93559244Y-74500605D01*
X93536195Y-74520441D01*
X93501509Y-74553575D01*
X93458287Y-74597020D01*
X93409632Y-74647787D01*
X93396940Y-74661251D01*
X93340029Y-74721475D01*
X93272214Y-74793064D01*
X93198600Y-74870637D01*
X93124293Y-74948811D01*
X93054399Y-75022205D01*
X93050201Y-75026609D01*
X92985220Y-75094985D01*
X92935636Y-75147932D01*
X92899488Y-75187967D01*
X92874816Y-75217611D01*
X92859658Y-75239381D01*
X92852056Y-75255795D01*
X92850047Y-75269374D01*
X92643388Y-75269374D01*
X92647905Y-75264331D01*
X92686819Y-75218948D01*
X92709973Y-75189235D01*
X92717682Y-75174844D01*
X92717683Y-75174759D01*
X92716625Y-75156824D01*
X92713537Y-75116621D01*
X92708658Y-75056887D01*
X92702232Y-74980358D01*
X92694500Y-74889769D01*
X92685705Y-74787857D01*
X92676087Y-74677359D01*
X92665891Y-74561011D01*
X92655356Y-74441548D01*
X92644726Y-74321707D01*
X92634242Y-74204225D01*
X92624146Y-74091837D01*
X92614681Y-73987281D01*
X92606088Y-73893291D01*
X92598609Y-73812605D01*
X92592487Y-73747959D01*
X92587962Y-73702088D01*
X92585278Y-73677730D01*
X92579867Y-73636932D01*
X92709053Y-73636932D01*
X92710708Y-73667853D01*
X92714349Y-73719853D01*
X92719795Y-73790687D01*
X92726863Y-73878111D01*
X92735370Y-73979881D01*
X92745135Y-74093752D01*
X92755974Y-74217479D01*
X92767707Y-74348818D01*
X92776879Y-74450108D01*
X92788366Y-74575726D01*
X92799122Y-74691962D01*
X92808931Y-74796580D01*
X92817581Y-74887340D01*
X92824857Y-74962004D01*
X92830546Y-75018334D01*
X92834434Y-75054091D01*
X92836306Y-75067037D01*
X92841988Y-75063026D01*
X92862820Y-75043338D01*
X92896672Y-75009522D01*
X92941212Y-74964037D01*
X92994110Y-74909346D01*
X93053036Y-74847910D01*
X93115658Y-74782190D01*
X93179648Y-74714649D01*
X93242674Y-74647747D01*
X93302406Y-74583946D01*
X93356513Y-74525707D01*
X93402665Y-74475492D01*
X93438533Y-74435763D01*
X93461784Y-74408980D01*
X93468578Y-74399677D01*
X93650401Y-74399677D01*
X93926105Y-74675168D01*
X93993526Y-74742424D01*
X94057067Y-74805362D01*
X94106290Y-74853300D01*
X94142996Y-74887794D01*
X94168990Y-74910399D01*
X94186076Y-74922671D01*
X94196056Y-74926166D01*
X94200735Y-74922438D01*
X94201916Y-74913044D01*
X94202673Y-74897949D01*
X94205401Y-74859083D01*
X94209908Y-74800095D01*
X94215979Y-74723673D01*
X94223396Y-74632505D01*
X94231942Y-74529280D01*
X94241402Y-74416683D01*
X94251558Y-74297405D01*
X94260523Y-74192277D01*
X94269866Y-74081551D01*
X94278243Y-73981014D01*
X94285453Y-73893143D01*
X94291296Y-73820415D01*
X94295569Y-73765310D01*
X94298073Y-73730304D01*
X94298605Y-73717874D01*
X94298184Y-73718108D01*
X94286309Y-73729550D01*
X94259930Y-73756398D01*
X94221370Y-73796218D01*
X94172953Y-73846572D01*
X94117003Y-73905028D01*
X94055842Y-73969148D01*
X93991795Y-74036498D01*
X93927185Y-74104643D01*
X93864335Y-74171148D01*
X93805568Y-74233577D01*
X93753209Y-74289495D01*
X93652333Y-74397606D01*
X93650401Y-74399677D01*
X93468578Y-74399677D01*
X93470090Y-74397606D01*
X93461948Y-74386583D01*
X93438278Y-74360199D01*
X93401278Y-74320727D01*
X93353150Y-74270391D01*
X93296096Y-74211417D01*
X93232320Y-74146030D01*
X93164022Y-74076455D01*
X93093405Y-74004916D01*
X93022671Y-73933638D01*
X92954022Y-73864847D01*
X92889661Y-73800766D01*
X92831789Y-73743622D01*
X92782610Y-73695639D01*
X92744324Y-73659041D01*
X92719134Y-73636054D01*
X92709242Y-73628903D01*
X92709053Y-73636932D01*
X92579867Y-73636932D01*
X92578190Y-73624289D01*
X92303097Y-73624289D01*
X92302768Y-73413671D01*
X92302597Y-73304372D01*
X92403691Y-73304372D01*
X92403691Y-73523695D01*
X92485424Y-73523695D01*
X92492695Y-73523689D01*
X92533750Y-73522813D01*
X92556077Y-73519067D01*
X92565329Y-73510470D01*
X92567157Y-73495040D01*
X92559106Y-73472359D01*
X92531530Y-73434628D01*
X92485424Y-73385379D01*
X92403691Y-73304372D01*
X92302597Y-73304372D01*
X92302439Y-73203052D01*
X91850714Y-72744091D01*
X91398989Y-72285131D01*
X91398370Y-72198048D01*
X91397751Y-72110967D01*
X91939569Y-72660152D01*
X91991937Y-72713198D01*
X92100603Y-72822972D01*
X92193509Y-72916314D01*
X92271855Y-72994373D01*
X92336843Y-73058297D01*
X92389672Y-73109235D01*
X92431543Y-73148335D01*
X92463655Y-73176748D01*
X92487210Y-73195620D01*
X92503408Y-73206101D01*
X92513449Y-73209339D01*
X92530379Y-73208358D01*
X92539884Y-73201196D01*
X92541523Y-73181601D01*
X92537582Y-73143324D01*
X92534865Y-73119225D01*
X92531084Y-73078944D01*
X92529560Y-73052161D01*
X92528815Y-73042928D01*
X92521546Y-73033039D01*
X92501468Y-73029762D01*
X92462489Y-73031192D01*
X92452537Y-73031753D01*
X92412698Y-73031121D01*
X92384360Y-73022367D01*
X92364386Y-73008151D01*
X92647652Y-73008151D01*
X92651813Y-73055304D01*
X92653735Y-73076698D01*
X92659724Y-73135109D01*
X92665626Y-73173581D01*
X92672527Y-73196112D01*
X92681512Y-73206698D01*
X92693670Y-73209339D01*
X92704601Y-73211137D01*
X92711850Y-73219730D01*
X92715900Y-73239705D01*
X92717663Y-73275650D01*
X92718048Y-73332152D01*
X92718048Y-73454966D01*
X92758247Y-73495040D01*
X92856365Y-73592854D01*
X92994681Y-73730742D01*
X92994681Y-73624289D01*
X93749137Y-73624289D01*
X93749137Y-73863200D01*
X93130631Y-73863200D01*
X93340392Y-74080106D01*
X93380570Y-74121534D01*
X93436128Y-74178400D01*
X93484370Y-74227282D01*
X93522771Y-74265641D01*
X93548803Y-74290941D01*
X93559940Y-74300642D01*
X93564173Y-74297967D01*
X93584024Y-74279982D01*
X93618251Y-74246681D01*
X93665027Y-74199912D01*
X93722524Y-74141525D01*
X93788912Y-74073369D01*
X93862364Y-73997294D01*
X93941051Y-73915150D01*
X94020141Y-73832143D01*
X94097671Y-73750336D01*
X94160546Y-73683283D01*
X94210302Y-73629207D01*
X94248478Y-73586329D01*
X94276611Y-73552873D01*
X94296240Y-73527061D01*
X94308901Y-73507114D01*
X94316134Y-73491256D01*
X94319475Y-73477709D01*
X94320361Y-73471110D01*
X94324288Y-73434748D01*
X94329259Y-73381218D01*
X94334727Y-73316621D01*
X94340144Y-73247062D01*
X94341981Y-73222835D01*
X94347288Y-73157378D01*
X94352348Y-73100917D01*
X94356663Y-73058818D01*
X94359734Y-73036443D01*
X94365755Y-73008151D01*
X92647652Y-73008151D01*
X92364386Y-73008151D01*
X92356430Y-73002489D01*
X92351620Y-72998304D01*
X92312282Y-72947627D01*
X92296703Y-72894982D01*
X92637498Y-72894982D01*
X94052021Y-72894982D01*
X94049972Y-72844685D01*
X94264681Y-72844685D01*
X94264681Y-72894982D01*
X94321708Y-72894982D01*
X94338793Y-72894862D01*
X94364108Y-72892662D01*
X94371416Y-72885534D01*
X94365743Y-72870708D01*
X94364067Y-72867882D01*
X94345248Y-72846144D01*
X94317983Y-72822020D01*
X94290787Y-72802454D01*
X94272171Y-72794388D01*
X94270497Y-72795663D01*
X94266344Y-72813176D01*
X94264681Y-72844685D01*
X94049972Y-72844685D01*
X94048326Y-72804295D01*
X94044632Y-72713607D01*
X93969186Y-72698452D01*
X93931351Y-72691579D01*
X93868168Y-72681956D01*
X93808865Y-72674696D01*
X93723988Y-72666093D01*
X93723988Y-72769240D01*
X93145573Y-72769240D01*
X93145573Y-72678322D01*
X93073271Y-72686953D01*
X92962798Y-72705449D01*
X92851616Y-72738891D01*
X92759650Y-72785524D01*
X92685342Y-72845986D01*
X92637498Y-72894982D01*
X92296703Y-72894982D01*
X92294972Y-72889134D01*
X92300274Y-72827775D01*
X92328775Y-72768497D01*
X92331533Y-72764806D01*
X92369622Y-72733051D01*
X92419276Y-72714267D01*
X92472802Y-72709271D01*
X92522507Y-72718878D01*
X92560700Y-72743904D01*
X92573631Y-72756680D01*
X92586228Y-72759776D01*
X92604267Y-72750198D01*
X92634728Y-72726282D01*
X92644074Y-72718931D01*
X92716230Y-72672539D01*
X92801715Y-72631284D01*
X92871630Y-72605775D01*
X93246167Y-72605775D01*
X93246167Y-72668646D01*
X93623394Y-72668646D01*
X93623394Y-72605775D01*
X93246167Y-72605775D01*
X92871630Y-72605775D01*
X92892567Y-72598136D01*
X92980827Y-72576068D01*
X93058536Y-72568052D01*
X93066791Y-72567988D01*
X93112679Y-72563521D01*
X93137879Y-72550995D01*
X93145573Y-72528984D01*
X93146476Y-72522049D01*
X93151415Y-72516085D01*
X93163411Y-72511719D01*
X93185480Y-72508703D01*
X93220636Y-72506790D01*
X93271894Y-72505730D01*
X93342271Y-72505277D01*
X93434780Y-72505180D01*
X93521460Y-72505350D01*
X93595132Y-72506034D01*
X93649065Y-72507415D01*
X93686088Y-72509670D01*
X93709030Y-72512978D01*
X93720720Y-72517520D01*
X93723988Y-72523472D01*
X93734737Y-72538088D01*
X93764855Y-72547415D01*
X93776382Y-72549047D01*
X93815686Y-72554791D01*
X93867988Y-72562578D01*
X93925176Y-72571203D01*
X93956716Y-72575593D01*
X94002874Y-72580348D01*
X94035441Y-72581495D01*
X94048823Y-72578695D01*
X94051108Y-72576871D01*
X94072205Y-72572365D01*
X94110155Y-72569229D01*
X94158848Y-72568052D01*
X94264681Y-72568052D01*
X94264694Y-72605775D01*
X94264694Y-72608918D01*
G37*
X95295771Y-78151022D02*
X91774978Y-78151022D01*
X91774978Y-77283398D01*
X95295771Y-77283398D01*
X95295771Y-78151022D01*
G36*
X95295771Y-78151022D02*
G01*
X91774978Y-78151022D01*
X91774978Y-77283398D01*
X95295771Y-77283398D01*
X95295771Y-78151022D01*
G37*
X108733006Y-72937749D02*
X108758727Y-72953447D01*
X108785378Y-72975027D01*
X108785378Y-73622484D01*
X108758727Y-73644064D01*
X108727367Y-73661539D01*
X108691566Y-73662375D01*
X108660128Y-73641882D01*
X108656252Y-73637216D01*
X108650786Y-73627749D01*
X108646579Y-73614067D01*
X108643467Y-73593548D01*
X108641287Y-73563568D01*
X108639876Y-73521504D01*
X108639071Y-73464732D01*
X108638707Y-73390630D01*
X108638622Y-73296573D01*
X108638622Y-72975027D01*
X108665273Y-72953447D01*
X108688986Y-72938677D01*
X108712000Y-72931867D01*
X108733006Y-72937749D01*
G36*
X108733006Y-72937749D02*
G01*
X108758727Y-72953447D01*
X108785378Y-72975027D01*
X108785378Y-73622484D01*
X108758727Y-73644064D01*
X108727367Y-73661539D01*
X108691566Y-73662375D01*
X108660128Y-73641882D01*
X108656252Y-73637216D01*
X108650786Y-73627749D01*
X108646579Y-73614067D01*
X108643467Y-73593548D01*
X108641287Y-73563568D01*
X108639876Y-73521504D01*
X108639071Y-73464732D01*
X108638707Y-73390630D01*
X108638622Y-73296573D01*
X108638622Y-72975027D01*
X108665273Y-72953447D01*
X108688986Y-72938677D01*
X108712000Y-72931867D01*
X108733006Y-72937749D01*
G37*
X115863737Y-72936263D02*
X115897891Y-72959576D01*
X115925600Y-72987285D01*
X115925600Y-73300337D01*
X115925559Y-73384367D01*
X115925301Y-73458589D01*
X115924630Y-73515341D01*
X115923352Y-73557312D01*
X115921273Y-73587189D01*
X115918199Y-73607661D01*
X115913934Y-73621414D01*
X115908284Y-73631137D01*
X115901055Y-73639517D01*
X115869591Y-73660981D01*
X115834426Y-73662747D01*
X115801422Y-73643067D01*
X115796116Y-73637198D01*
X115790666Y-73628114D01*
X115786500Y-73614773D01*
X115783446Y-73594557D01*
X115781332Y-73564849D01*
X115779986Y-73523032D01*
X115779238Y-73466489D01*
X115778914Y-73392602D01*
X115778845Y-73298756D01*
X115778884Y-73223094D01*
X115779139Y-73145185D01*
X115779783Y-73085175D01*
X115780987Y-73040448D01*
X115782924Y-73008385D01*
X115785764Y-72986371D01*
X115789679Y-72971787D01*
X115794842Y-72962018D01*
X115801422Y-72954445D01*
X115830606Y-72935423D01*
X115863737Y-72936263D01*
G36*
X115863737Y-72936263D02*
G01*
X115897891Y-72959576D01*
X115925600Y-72987285D01*
X115925600Y-73300337D01*
X115925559Y-73384367D01*
X115925301Y-73458589D01*
X115924630Y-73515341D01*
X115923352Y-73557312D01*
X115921273Y-73587189D01*
X115918199Y-73607661D01*
X115913934Y-73621414D01*
X115908284Y-73631137D01*
X115901055Y-73639517D01*
X115869591Y-73660981D01*
X115834426Y-73662747D01*
X115801422Y-73643067D01*
X115796116Y-73637198D01*
X115790666Y-73628114D01*
X115786500Y-73614773D01*
X115783446Y-73594557D01*
X115781332Y-73564849D01*
X115779986Y-73523032D01*
X115779238Y-73466489D01*
X115778914Y-73392602D01*
X115778845Y-73298756D01*
X115778884Y-73223094D01*
X115779139Y-73145185D01*
X115779783Y-73085175D01*
X115780987Y-73040448D01*
X115782924Y-73008385D01*
X115785764Y-72986371D01*
X115789679Y-72971787D01*
X115794842Y-72962018D01*
X115801422Y-72954445D01*
X115830606Y-72935423D01*
X115863737Y-72936263D01*
G37*
X115332162Y-67695650D02*
X115414913Y-67722853D01*
X115490006Y-67768284D01*
X115561898Y-67834102D01*
X115600446Y-67878367D01*
X115639856Y-67936761D01*
X115665046Y-67997386D01*
X115678461Y-68066665D01*
X115682548Y-68151022D01*
X115682269Y-68197107D01*
X115680060Y-68238250D01*
X115674494Y-68270382D01*
X115664186Y-68300922D01*
X115647748Y-68337289D01*
X115633800Y-68364528D01*
X115575265Y-68450229D01*
X115503219Y-68519417D01*
X115419547Y-68570541D01*
X115326131Y-68602050D01*
X115293034Y-68609025D01*
X115252560Y-68615894D01*
X115219599Y-68617719D01*
X115185298Y-68614747D01*
X115140800Y-68607226D01*
X115089534Y-68594802D01*
X114999034Y-68556912D01*
X114919945Y-68502636D01*
X114854128Y-68434570D01*
X114803440Y-68355311D01*
X114769740Y-68267454D01*
X114754886Y-68173595D01*
X114760736Y-68076330D01*
X114786999Y-67980020D01*
X114832018Y-67891294D01*
X114892973Y-67816219D01*
X114967784Y-67756441D01*
X115054368Y-67713609D01*
X115150643Y-67689371D01*
X115254528Y-67685376D01*
X115332162Y-67695650D01*
G36*
X115332162Y-67695650D02*
G01*
X115414913Y-67722853D01*
X115490006Y-67768284D01*
X115561898Y-67834102D01*
X115600446Y-67878367D01*
X115639856Y-67936761D01*
X115665046Y-67997386D01*
X115678461Y-68066665D01*
X115682548Y-68151022D01*
X115682269Y-68197107D01*
X115680060Y-68238250D01*
X115674494Y-68270382D01*
X115664186Y-68300922D01*
X115647748Y-68337289D01*
X115633800Y-68364528D01*
X115575265Y-68450229D01*
X115503219Y-68519417D01*
X115419547Y-68570541D01*
X115326131Y-68602050D01*
X115293034Y-68609025D01*
X115252560Y-68615894D01*
X115219599Y-68617719D01*
X115185298Y-68614747D01*
X115140800Y-68607226D01*
X115089534Y-68594802D01*
X114999034Y-68556912D01*
X114919945Y-68502636D01*
X114854128Y-68434570D01*
X114803440Y-68355311D01*
X114769740Y-68267454D01*
X114754886Y-68173595D01*
X114760736Y-68076330D01*
X114786999Y-67980020D01*
X114832018Y-67891294D01*
X114892973Y-67816219D01*
X114967784Y-67756441D01*
X115054368Y-67713609D01*
X115150643Y-67689371D01*
X115254528Y-67685376D01*
X115332162Y-67695650D01*
G37*
X108033367Y-72931868D02*
X108127490Y-72931958D01*
X108202005Y-72932298D01*
X108259411Y-72933039D01*
X108302211Y-72934335D01*
X108332904Y-72936337D01*
X108353991Y-72939196D01*
X108367973Y-72943066D01*
X108377350Y-72948098D01*
X108384622Y-72954445D01*
X108403428Y-72987162D01*
X108404875Y-73024739D01*
X108388517Y-73057978D01*
X108387157Y-73059431D01*
X108375954Y-73067792D01*
X108358852Y-73073347D01*
X108331682Y-73076640D01*
X108290278Y-73078218D01*
X108230473Y-73078622D01*
X108091111Y-73078622D01*
X108091111Y-73342389D01*
X108091036Y-73418217D01*
X108090628Y-73484883D01*
X108089646Y-73534667D01*
X108087850Y-73570584D01*
X108084999Y-73595650D01*
X108080853Y-73612881D01*
X108075171Y-73625292D01*
X108067714Y-73635900D01*
X108065424Y-73638706D01*
X108034246Y-73661348D01*
X107999866Y-73662912D01*
X107966934Y-73643067D01*
X107959955Y-73634991D01*
X107954483Y-73624393D01*
X107950463Y-73608549D01*
X107947672Y-73584573D01*
X107945888Y-73549574D01*
X107944889Y-73500664D01*
X107944452Y-73434954D01*
X107944356Y-73349556D01*
X107944356Y-73078622D01*
X107798420Y-73078622D01*
X107787320Y-73078621D01*
X107730802Y-73078396D01*
X107691958Y-73077257D01*
X107666565Y-73074457D01*
X107650404Y-73069250D01*
X107639252Y-73060889D01*
X107628889Y-73048626D01*
X107613041Y-73017938D01*
X107616143Y-72984158D01*
X107641787Y-72951622D01*
X107646729Y-72947905D01*
X107656938Y-72943069D01*
X107672364Y-72939306D01*
X107695486Y-72936483D01*
X107728783Y-72934470D01*
X107774737Y-72933133D01*
X107835828Y-72932342D01*
X107914535Y-72931963D01*
X108013340Y-72931867D01*
X108033367Y-72931868D01*
G36*
X108033367Y-72931868D02*
G01*
X108127490Y-72931958D01*
X108202005Y-72932298D01*
X108259411Y-72933039D01*
X108302211Y-72934335D01*
X108332904Y-72936337D01*
X108353991Y-72939196D01*
X108367973Y-72943066D01*
X108377350Y-72948098D01*
X108384622Y-72954445D01*
X108403428Y-72987162D01*
X108404875Y-73024739D01*
X108388517Y-73057978D01*
X108387157Y-73059431D01*
X108375954Y-73067792D01*
X108358852Y-73073347D01*
X108331682Y-73076640D01*
X108290278Y-73078218D01*
X108230473Y-73078622D01*
X108091111Y-73078622D01*
X108091111Y-73342389D01*
X108091036Y-73418217D01*
X108090628Y-73484883D01*
X108089646Y-73534667D01*
X108087850Y-73570584D01*
X108084999Y-73595650D01*
X108080853Y-73612881D01*
X108075171Y-73625292D01*
X108067714Y-73635900D01*
X108065424Y-73638706D01*
X108034246Y-73661348D01*
X107999866Y-73662912D01*
X107966934Y-73643067D01*
X107959955Y-73634991D01*
X107954483Y-73624393D01*
X107950463Y-73608549D01*
X107947672Y-73584573D01*
X107945888Y-73549574D01*
X107944889Y-73500664D01*
X107944452Y-73434954D01*
X107944356Y-73349556D01*
X107944356Y-73078622D01*
X107798420Y-73078622D01*
X107787320Y-73078621D01*
X107730802Y-73078396D01*
X107691958Y-73077257D01*
X107666565Y-73074457D01*
X107650404Y-73069250D01*
X107639252Y-73060889D01*
X107628889Y-73048626D01*
X107613041Y-73017938D01*
X107616143Y-72984158D01*
X107641787Y-72951622D01*
X107646729Y-72947905D01*
X107656938Y-72943069D01*
X107672364Y-72939306D01*
X107695486Y-72936483D01*
X107728783Y-72934470D01*
X107774737Y-72933133D01*
X107835828Y-72932342D01*
X107914535Y-72931963D01*
X108013340Y-72931867D01*
X108033367Y-72931868D01*
G37*
X107357334Y-72954445D02*
X107362966Y-72960635D01*
X107368056Y-72968841D01*
X107372143Y-72980617D01*
X107375321Y-72998076D01*
X107377687Y-73023330D01*
X107379338Y-73058490D01*
X107380369Y-73105669D01*
X107380877Y-73166977D01*
X107380959Y-73244527D01*
X107380709Y-73340431D01*
X107380225Y-73456800D01*
X107380157Y-73470975D01*
X107379571Y-73532737D01*
X107378248Y-73576420D01*
X107375703Y-73605801D01*
X107371448Y-73624655D01*
X107364996Y-73636759D01*
X107355862Y-73645889D01*
X107322404Y-73663306D01*
X107287456Y-73660404D01*
X107256553Y-73635900D01*
X107247544Y-73622697D01*
X107240092Y-73604161D01*
X107235724Y-73578133D01*
X107233669Y-73539587D01*
X107233156Y-73483500D01*
X107233156Y-73360845D01*
X106736445Y-73360845D01*
X106736445Y-73495671D01*
X106736372Y-73531462D01*
X106735609Y-73577792D01*
X106733433Y-73608326D01*
X106729136Y-73627357D01*
X106722012Y-73639174D01*
X106711355Y-73648071D01*
X106679104Y-73663141D01*
X106643817Y-73660473D01*
X106613086Y-73635900D01*
X106608431Y-73629645D01*
X106602495Y-73619121D01*
X106597964Y-73605191D01*
X106594648Y-73585117D01*
X106592359Y-73556160D01*
X106590908Y-73515580D01*
X106590105Y-73460640D01*
X106589762Y-73388599D01*
X106589689Y-73296720D01*
X106589689Y-72987285D01*
X106617398Y-72959576D01*
X106648777Y-72937333D01*
X106682006Y-72934644D01*
X106713867Y-72954445D01*
X106722153Y-72964215D01*
X106729565Y-72980107D01*
X106733902Y-73004075D01*
X106735938Y-73040948D01*
X106736445Y-73095556D01*
X106736445Y-73214089D01*
X107233156Y-73214089D01*
X107233156Y-73098576D01*
X107233594Y-73046878D01*
X107235558Y-73012354D01*
X107240074Y-72989778D01*
X107248167Y-72973926D01*
X107260865Y-72959576D01*
X107292243Y-72937333D01*
X107325472Y-72934644D01*
X107357334Y-72954445D01*
G36*
X107357334Y-72954445D02*
G01*
X107362966Y-72960635D01*
X107368056Y-72968841D01*
X107372143Y-72980617D01*
X107375321Y-72998076D01*
X107377687Y-73023330D01*
X107379338Y-73058490D01*
X107380369Y-73105669D01*
X107380877Y-73166977D01*
X107380959Y-73244527D01*
X107380709Y-73340431D01*
X107380225Y-73456800D01*
X107380157Y-73470975D01*
X107379571Y-73532737D01*
X107378248Y-73576420D01*
X107375703Y-73605801D01*
X107371448Y-73624655D01*
X107364996Y-73636759D01*
X107355862Y-73645889D01*
X107322404Y-73663306D01*
X107287456Y-73660404D01*
X107256553Y-73635900D01*
X107247544Y-73622697D01*
X107240092Y-73604161D01*
X107235724Y-73578133D01*
X107233669Y-73539587D01*
X107233156Y-73483500D01*
X107233156Y-73360845D01*
X106736445Y-73360845D01*
X106736445Y-73495671D01*
X106736372Y-73531462D01*
X106735609Y-73577792D01*
X106733433Y-73608326D01*
X106729136Y-73627357D01*
X106722012Y-73639174D01*
X106711355Y-73648071D01*
X106679104Y-73663141D01*
X106643817Y-73660473D01*
X106613086Y-73635900D01*
X106608431Y-73629645D01*
X106602495Y-73619121D01*
X106597964Y-73605191D01*
X106594648Y-73585117D01*
X106592359Y-73556160D01*
X106590908Y-73515580D01*
X106590105Y-73460640D01*
X106589762Y-73388599D01*
X106589689Y-73296720D01*
X106589689Y-72987285D01*
X106617398Y-72959576D01*
X106648777Y-72937333D01*
X106682006Y-72934644D01*
X106713867Y-72954445D01*
X106722153Y-72964215D01*
X106729565Y-72980107D01*
X106733902Y-73004075D01*
X106735938Y-73040948D01*
X106736445Y-73095556D01*
X106736445Y-73214089D01*
X107233156Y-73214089D01*
X107233156Y-73098576D01*
X107233594Y-73046878D01*
X107235558Y-73012354D01*
X107240074Y-72989778D01*
X107248167Y-72973926D01*
X107260865Y-72959576D01*
X107292243Y-72937333D01*
X107325472Y-72934644D01*
X107357334Y-72954445D01*
G37*
X112062733Y-73543196D02*
X112060763Y-73575975D01*
X112057835Y-73598895D01*
X112053758Y-73614697D01*
X112048343Y-73626119D01*
X112041403Y-73635900D01*
X112018006Y-73665645D01*
X111852314Y-73665051D01*
X111817518Y-73664753D01*
X111719035Y-73661322D01*
X111638073Y-73653639D01*
X111570979Y-73641082D01*
X111514096Y-73623027D01*
X111463769Y-73598852D01*
X111460410Y-73596935D01*
X111402598Y-73560217D01*
X111360244Y-73523251D01*
X111327428Y-73479766D01*
X111298228Y-73423489D01*
X111293946Y-73413873D01*
X111271369Y-73350687D01*
X111265634Y-73305133D01*
X111414879Y-73305133D01*
X111420492Y-73329861D01*
X111426218Y-73345739D01*
X111459148Y-73405647D01*
X111506486Y-73451400D01*
X111570252Y-73484536D01*
X111652461Y-73506590D01*
X111655255Y-73507092D01*
X111701540Y-73513055D01*
X111757936Y-73517283D01*
X111812874Y-73518889D01*
X111906756Y-73518889D01*
X111906756Y-73078622D01*
X111819267Y-73079070D01*
X111752347Y-73081546D01*
X111659949Y-73092798D01*
X111580634Y-73112337D01*
X111518660Y-73139311D01*
X111487720Y-73160040D01*
X111459600Y-73189806D01*
X111436260Y-73232234D01*
X111429133Y-73248200D01*
X111417309Y-73280702D01*
X111414879Y-73305133D01*
X111265634Y-73305133D01*
X111264397Y-73295309D01*
X111272999Y-73240283D01*
X111297141Y-73178151D01*
X111297937Y-73176458D01*
X111338388Y-73107036D01*
X111389073Y-73050438D01*
X111451798Y-73005870D01*
X111528374Y-72972541D01*
X111620609Y-72949661D01*
X111730312Y-72936436D01*
X111859291Y-72932075D01*
X111862863Y-72932070D01*
X111922883Y-72932210D01*
X111964814Y-72933246D01*
X111992928Y-72935840D01*
X112011497Y-72940653D01*
X112024794Y-72948344D01*
X112037091Y-72959576D01*
X112064800Y-72987285D01*
X112064800Y-73296720D01*
X112064775Y-73358326D01*
X112064550Y-73437111D01*
X112063932Y-73497821D01*
X112063375Y-73518889D01*
X112062733Y-73543196D01*
G36*
X112062733Y-73543196D02*
G01*
X112060763Y-73575975D01*
X112057835Y-73598895D01*
X112053758Y-73614697D01*
X112048343Y-73626119D01*
X112041403Y-73635900D01*
X112018006Y-73665645D01*
X111852314Y-73665051D01*
X111817518Y-73664753D01*
X111719035Y-73661322D01*
X111638073Y-73653639D01*
X111570979Y-73641082D01*
X111514096Y-73623027D01*
X111463769Y-73598852D01*
X111460410Y-73596935D01*
X111402598Y-73560217D01*
X111360244Y-73523251D01*
X111327428Y-73479766D01*
X111298228Y-73423489D01*
X111293946Y-73413873D01*
X111271369Y-73350687D01*
X111265634Y-73305133D01*
X111414879Y-73305133D01*
X111420492Y-73329861D01*
X111426218Y-73345739D01*
X111459148Y-73405647D01*
X111506486Y-73451400D01*
X111570252Y-73484536D01*
X111652461Y-73506590D01*
X111655255Y-73507092D01*
X111701540Y-73513055D01*
X111757936Y-73517283D01*
X111812874Y-73518889D01*
X111906756Y-73518889D01*
X111906756Y-73078622D01*
X111819267Y-73079070D01*
X111752347Y-73081546D01*
X111659949Y-73092798D01*
X111580634Y-73112337D01*
X111518660Y-73139311D01*
X111487720Y-73160040D01*
X111459600Y-73189806D01*
X111436260Y-73232234D01*
X111429133Y-73248200D01*
X111417309Y-73280702D01*
X111414879Y-73305133D01*
X111265634Y-73305133D01*
X111264397Y-73295309D01*
X111272999Y-73240283D01*
X111297141Y-73178151D01*
X111297937Y-73176458D01*
X111338388Y-73107036D01*
X111389073Y-73050438D01*
X111451798Y-73005870D01*
X111528374Y-72972541D01*
X111620609Y-72949661D01*
X111730312Y-72936436D01*
X111859291Y-72932075D01*
X111862863Y-72932070D01*
X111922883Y-72932210D01*
X111964814Y-72933246D01*
X111992928Y-72935840D01*
X112011497Y-72940653D01*
X112024794Y-72948344D01*
X112037091Y-72959576D01*
X112064800Y-72987285D01*
X112064800Y-73296720D01*
X112064775Y-73358326D01*
X112064550Y-73437111D01*
X112063932Y-73497821D01*
X112063375Y-73518889D01*
X112062733Y-73543196D01*
G37*
X119154417Y-73117227D02*
X119154470Y-73197841D01*
X119154222Y-73298756D01*
X119154183Y-73374417D01*
X119153928Y-73452326D01*
X119153284Y-73512336D01*
X119152080Y-73557064D01*
X119150143Y-73589126D01*
X119147303Y-73611140D01*
X119143388Y-73625724D01*
X119138226Y-73635494D01*
X119131645Y-73643067D01*
X119124677Y-73649301D01*
X119111679Y-73656601D01*
X119092531Y-73661354D01*
X119063128Y-73664092D01*
X119019362Y-73665345D01*
X118957128Y-73665645D01*
X118908182Y-73665269D01*
X118801322Y-73660841D01*
X118712094Y-73650753D01*
X118637296Y-73634165D01*
X118573725Y-73610235D01*
X118518179Y-73578121D01*
X118467454Y-73536982D01*
X118461466Y-73531130D01*
X118424599Y-73482621D01*
X118393499Y-73421813D01*
X118372017Y-73357569D01*
X118366736Y-73318826D01*
X118513953Y-73318826D01*
X118532235Y-73369761D01*
X118561905Y-73415678D01*
X118608602Y-73458087D01*
X118669992Y-73487890D01*
X118749138Y-73507026D01*
X118750628Y-73507264D01*
X118799599Y-73513056D01*
X118858293Y-73517196D01*
X118914334Y-73518804D01*
X119007467Y-73518889D01*
X119007467Y-73078622D01*
X118931267Y-73078608D01*
X118928239Y-73078617D01*
X118877119Y-73080582D01*
X118817016Y-73085307D01*
X118760308Y-73091835D01*
X118710350Y-73101131D01*
X118635598Y-73127400D01*
X118578089Y-73166699D01*
X118536588Y-73219733D01*
X118515371Y-73271000D01*
X118513953Y-73318826D01*
X118366736Y-73318826D01*
X118364000Y-73298756D01*
X118365279Y-73277539D01*
X118377591Y-73220123D01*
X118400120Y-73160213D01*
X118429350Y-73106163D01*
X118461767Y-73066332D01*
X118481308Y-73049310D01*
X118536020Y-73010122D01*
X118596323Y-72979993D01*
X118665519Y-72958032D01*
X118746911Y-72943350D01*
X118843800Y-72935059D01*
X118959489Y-72932267D01*
X118998971Y-72931866D01*
X119044682Y-72931453D01*
X119080483Y-72933257D01*
X119107574Y-72939539D01*
X119127156Y-72952559D01*
X119140430Y-72974578D01*
X119148598Y-73007855D01*
X119152860Y-73054651D01*
X119153457Y-73078622D01*
X119154417Y-73117227D01*
G36*
X119154417Y-73117227D02*
G01*
X119154470Y-73197841D01*
X119154222Y-73298756D01*
X119154183Y-73374417D01*
X119153928Y-73452326D01*
X119153284Y-73512336D01*
X119152080Y-73557064D01*
X119150143Y-73589126D01*
X119147303Y-73611140D01*
X119143388Y-73625724D01*
X119138226Y-73635494D01*
X119131645Y-73643067D01*
X119124677Y-73649301D01*
X119111679Y-73656601D01*
X119092531Y-73661354D01*
X119063128Y-73664092D01*
X119019362Y-73665345D01*
X118957128Y-73665645D01*
X118908182Y-73665269D01*
X118801322Y-73660841D01*
X118712094Y-73650753D01*
X118637296Y-73634165D01*
X118573725Y-73610235D01*
X118518179Y-73578121D01*
X118467454Y-73536982D01*
X118461466Y-73531130D01*
X118424599Y-73482621D01*
X118393499Y-73421813D01*
X118372017Y-73357569D01*
X118366736Y-73318826D01*
X118513953Y-73318826D01*
X118532235Y-73369761D01*
X118561905Y-73415678D01*
X118608602Y-73458087D01*
X118669992Y-73487890D01*
X118749138Y-73507026D01*
X118750628Y-73507264D01*
X118799599Y-73513056D01*
X118858293Y-73517196D01*
X118914334Y-73518804D01*
X119007467Y-73518889D01*
X119007467Y-73078622D01*
X118931267Y-73078608D01*
X118928239Y-73078617D01*
X118877119Y-73080582D01*
X118817016Y-73085307D01*
X118760308Y-73091835D01*
X118710350Y-73101131D01*
X118635598Y-73127400D01*
X118578089Y-73166699D01*
X118536588Y-73219733D01*
X118515371Y-73271000D01*
X118513953Y-73318826D01*
X118366736Y-73318826D01*
X118364000Y-73298756D01*
X118365279Y-73277539D01*
X118377591Y-73220123D01*
X118400120Y-73160213D01*
X118429350Y-73106163D01*
X118461767Y-73066332D01*
X118481308Y-73049310D01*
X118536020Y-73010122D01*
X118596323Y-72979993D01*
X118665519Y-72958032D01*
X118746911Y-72943350D01*
X118843800Y-72935059D01*
X118959489Y-72932267D01*
X118998971Y-72931866D01*
X119044682Y-72931453D01*
X119080483Y-72933257D01*
X119107574Y-72939539D01*
X119127156Y-72952559D01*
X119140430Y-72974578D01*
X119148598Y-73007855D01*
X119152860Y-73054651D01*
X119153457Y-73078622D01*
X119154417Y-73117227D01*
G37*
X114209493Y-72930692D02*
X114220901Y-72936829D01*
X114231450Y-72947491D01*
X114242736Y-72961611D01*
X114247189Y-72967572D01*
X114253188Y-72978068D01*
X114257767Y-72991893D01*
X114261119Y-73011798D01*
X114263433Y-73040532D01*
X114264901Y-73080845D01*
X114265713Y-73135487D01*
X114266060Y-73207207D01*
X114266134Y-73298756D01*
X114266111Y-73357286D01*
X114265892Y-73436373D01*
X114265283Y-73497316D01*
X114264092Y-73542862D01*
X114262129Y-73575763D01*
X114259203Y-73598768D01*
X114255123Y-73614626D01*
X114249697Y-73626086D01*
X114242736Y-73635900D01*
X114212308Y-73660293D01*
X114177365Y-73663172D01*
X114140384Y-73644082D01*
X114136200Y-73640607D01*
X114128024Y-73632079D01*
X114121964Y-73620528D01*
X114117581Y-73602696D01*
X114114439Y-73575324D01*
X114112102Y-73535154D01*
X114110131Y-73478928D01*
X114108089Y-73403389D01*
X114102445Y-73184258D01*
X113837156Y-73424899D01*
X113763322Y-73491675D01*
X113698142Y-73549791D01*
X113645948Y-73594749D01*
X113604873Y-73627671D01*
X113573055Y-73649679D01*
X113548626Y-73661894D01*
X113529724Y-73665439D01*
X113514483Y-73661436D01*
X113501039Y-73651007D01*
X113487527Y-73635274D01*
X113481282Y-73626791D01*
X113475650Y-73616213D01*
X113471439Y-73602055D01*
X113468487Y-73581603D01*
X113466632Y-73552142D01*
X113465713Y-73510961D01*
X113465568Y-73455344D01*
X113466035Y-73382579D01*
X113466952Y-73289951D01*
X113470267Y-72974999D01*
X113496918Y-72953433D01*
X113522983Y-72937241D01*
X113555841Y-72934470D01*
X113590372Y-72953423D01*
X113594684Y-72957008D01*
X113602816Y-72965537D01*
X113608845Y-72977129D01*
X113613206Y-72995035D01*
X113616334Y-73022506D01*
X113618663Y-73062794D01*
X113620629Y-73119151D01*
X113622667Y-73194829D01*
X113628311Y-73414678D01*
X113808934Y-73250884D01*
X113895672Y-73172251D01*
X113971443Y-73103858D01*
X114033580Y-73048508D01*
X114083678Y-73005138D01*
X114123335Y-72972681D01*
X114154148Y-72950073D01*
X114177714Y-72936248D01*
X114195630Y-72930143D01*
X114209493Y-72930692D01*
G36*
X114209493Y-72930692D02*
G01*
X114220901Y-72936829D01*
X114231450Y-72947491D01*
X114242736Y-72961611D01*
X114247189Y-72967572D01*
X114253188Y-72978068D01*
X114257767Y-72991893D01*
X114261119Y-73011798D01*
X114263433Y-73040532D01*
X114264901Y-73080845D01*
X114265713Y-73135487D01*
X114266060Y-73207207D01*
X114266134Y-73298756D01*
X114266111Y-73357286D01*
X114265892Y-73436373D01*
X114265283Y-73497316D01*
X114264092Y-73542862D01*
X114262129Y-73575763D01*
X114259203Y-73598768D01*
X114255123Y-73614626D01*
X114249697Y-73626086D01*
X114242736Y-73635900D01*
X114212308Y-73660293D01*
X114177365Y-73663172D01*
X114140384Y-73644082D01*
X114136200Y-73640607D01*
X114128024Y-73632079D01*
X114121964Y-73620528D01*
X114117581Y-73602696D01*
X114114439Y-73575324D01*
X114112102Y-73535154D01*
X114110131Y-73478928D01*
X114108089Y-73403389D01*
X114102445Y-73184258D01*
X113837156Y-73424899D01*
X113763322Y-73491675D01*
X113698142Y-73549791D01*
X113645948Y-73594749D01*
X113604873Y-73627671D01*
X113573055Y-73649679D01*
X113548626Y-73661894D01*
X113529724Y-73665439D01*
X113514483Y-73661436D01*
X113501039Y-73651007D01*
X113487527Y-73635274D01*
X113481282Y-73626791D01*
X113475650Y-73616213D01*
X113471439Y-73602055D01*
X113468487Y-73581603D01*
X113466632Y-73552142D01*
X113465713Y-73510961D01*
X113465568Y-73455344D01*
X113466035Y-73382579D01*
X113466952Y-73289951D01*
X113470267Y-72974999D01*
X113496918Y-72953433D01*
X113522983Y-72937241D01*
X113555841Y-72934470D01*
X113590372Y-72953423D01*
X113594684Y-72957008D01*
X113602816Y-72965537D01*
X113608845Y-72977129D01*
X113613206Y-72995035D01*
X113616334Y-73022506D01*
X113618663Y-73062794D01*
X113620629Y-73119151D01*
X113622667Y-73194829D01*
X113628311Y-73414678D01*
X113808934Y-73250884D01*
X113895672Y-73172251D01*
X113971443Y-73103858D01*
X114033580Y-73048508D01*
X114083678Y-73005138D01*
X114123335Y-72972681D01*
X114154148Y-72950073D01*
X114177714Y-72936248D01*
X114195630Y-72930143D01*
X114209493Y-72930692D01*
G37*
X115006750Y-72936979D02*
X115112757Y-72953294D01*
X115206569Y-72981345D01*
X115285365Y-73020252D01*
X115346319Y-73069134D01*
X115372389Y-73101995D01*
X115401897Y-73151194D01*
X115427168Y-73205052D01*
X115444818Y-73256219D01*
X115451458Y-73297344D01*
X115449898Y-73317059D01*
X115436957Y-73368392D01*
X115413794Y-73424918D01*
X115383902Y-73478835D01*
X115350773Y-73522339D01*
X115340577Y-73532687D01*
X115273492Y-73584462D01*
X115193366Y-73624354D01*
X115107156Y-73648756D01*
X115052192Y-73656868D01*
X114958739Y-73663473D01*
X114868958Y-73661386D01*
X114786469Y-73651140D01*
X114714886Y-73633270D01*
X114657828Y-73608308D01*
X114618911Y-73576788D01*
X114617536Y-73574812D01*
X114610448Y-73549586D01*
X114606209Y-73502335D01*
X114604800Y-73432871D01*
X114605660Y-73370638D01*
X114610380Y-73323256D01*
X114622070Y-73291153D01*
X114643839Y-73271600D01*
X114678798Y-73261870D01*
X114730056Y-73259233D01*
X114800723Y-73260961D01*
X114849343Y-73263973D01*
X114899539Y-73272166D01*
X114932033Y-73286219D01*
X114949492Y-73307454D01*
X114954583Y-73337194D01*
X114954477Y-73341736D01*
X114945775Y-73376530D01*
X114921765Y-73399947D01*
X114880500Y-73413147D01*
X114820031Y-73417289D01*
X114751556Y-73417289D01*
X114751556Y-73455641D01*
X114751606Y-73464776D01*
X114753827Y-73482027D01*
X114763094Y-73492321D01*
X114784475Y-73499259D01*
X114823036Y-73506441D01*
X114828510Y-73507375D01*
X114925460Y-73517278D01*
X115015452Y-73514359D01*
X115096360Y-73499629D01*
X115166059Y-73474099D01*
X115222424Y-73438778D01*
X115263329Y-73394679D01*
X115286651Y-73342812D01*
X115290263Y-73284188D01*
X115284745Y-73255294D01*
X115258061Y-73199404D01*
X115211873Y-73153745D01*
X115146891Y-73118908D01*
X115063829Y-73095490D01*
X115039155Y-73091041D01*
X114949826Y-73080542D01*
X114870019Y-73081771D01*
X114791926Y-73094706D01*
X114756783Y-73101496D01*
X114711345Y-73102513D01*
X114680030Y-73089982D01*
X114659877Y-73063195D01*
X114653493Y-73034948D01*
X114662979Y-73003724D01*
X114672308Y-72990299D01*
X114706543Y-72966767D01*
X114759165Y-72948895D01*
X114827681Y-72937399D01*
X114909600Y-72932992D01*
X115006750Y-72936979D01*
G36*
X115006750Y-72936979D02*
G01*
X115112757Y-72953294D01*
X115206569Y-72981345D01*
X115285365Y-73020252D01*
X115346319Y-73069134D01*
X115372389Y-73101995D01*
X115401897Y-73151194D01*
X115427168Y-73205052D01*
X115444818Y-73256219D01*
X115451458Y-73297344D01*
X115449898Y-73317059D01*
X115436957Y-73368392D01*
X115413794Y-73424918D01*
X115383902Y-73478835D01*
X115350773Y-73522339D01*
X115340577Y-73532687D01*
X115273492Y-73584462D01*
X115193366Y-73624354D01*
X115107156Y-73648756D01*
X115052192Y-73656868D01*
X114958739Y-73663473D01*
X114868958Y-73661386D01*
X114786469Y-73651140D01*
X114714886Y-73633270D01*
X114657828Y-73608308D01*
X114618911Y-73576788D01*
X114617536Y-73574812D01*
X114610448Y-73549586D01*
X114606209Y-73502335D01*
X114604800Y-73432871D01*
X114605660Y-73370638D01*
X114610380Y-73323256D01*
X114622070Y-73291153D01*
X114643839Y-73271600D01*
X114678798Y-73261870D01*
X114730056Y-73259233D01*
X114800723Y-73260961D01*
X114849343Y-73263973D01*
X114899539Y-73272166D01*
X114932033Y-73286219D01*
X114949492Y-73307454D01*
X114954583Y-73337194D01*
X114954477Y-73341736D01*
X114945775Y-73376530D01*
X114921765Y-73399947D01*
X114880500Y-73413147D01*
X114820031Y-73417289D01*
X114751556Y-73417289D01*
X114751556Y-73455641D01*
X114751606Y-73464776D01*
X114753827Y-73482027D01*
X114763094Y-73492321D01*
X114784475Y-73499259D01*
X114823036Y-73506441D01*
X114828510Y-73507375D01*
X114925460Y-73517278D01*
X115015452Y-73514359D01*
X115096360Y-73499629D01*
X115166059Y-73474099D01*
X115222424Y-73438778D01*
X115263329Y-73394679D01*
X115286651Y-73342812D01*
X115290263Y-73284188D01*
X115284745Y-73255294D01*
X115258061Y-73199404D01*
X115211873Y-73153745D01*
X115146891Y-73118908D01*
X115063829Y-73095490D01*
X115039155Y-73091041D01*
X114949826Y-73080542D01*
X114870019Y-73081771D01*
X114791926Y-73094706D01*
X114756783Y-73101496D01*
X114711345Y-73102513D01*
X114680030Y-73089982D01*
X114659877Y-73063195D01*
X114653493Y-73034948D01*
X114662979Y-73003724D01*
X114672308Y-72990299D01*
X114706543Y-72966767D01*
X114759165Y-72948895D01*
X114827681Y-72937399D01*
X114909600Y-72932992D01*
X115006750Y-72936979D01*
G37*
X113057403Y-72961611D02*
X113062352Y-72968295D01*
X113068196Y-72978866D01*
X113072657Y-72992953D01*
X113075921Y-73013278D01*
X113078174Y-73042565D01*
X113079602Y-73083537D01*
X113080392Y-73138917D01*
X113080729Y-73211428D01*
X113080800Y-73303794D01*
X113080771Y-73369711D01*
X113080539Y-73448028D01*
X113079919Y-73508296D01*
X113078726Y-73553193D01*
X113076779Y-73585402D01*
X113073894Y-73607600D01*
X113069888Y-73622469D01*
X113064579Y-73632689D01*
X113057783Y-73640938D01*
X113053268Y-73645595D01*
X113045038Y-73652082D01*
X113033678Y-73656994D01*
X113016410Y-73660549D01*
X112990455Y-73662967D01*
X112953036Y-73664467D01*
X112901373Y-73665267D01*
X112832689Y-73665587D01*
X112744206Y-73665645D01*
X112724531Y-73665638D01*
X112637506Y-73665372D01*
X112569854Y-73664606D01*
X112518899Y-73663192D01*
X112481967Y-73660980D01*
X112456383Y-73657822D01*
X112439471Y-73653569D01*
X112428557Y-73648071D01*
X112418064Y-73638085D01*
X112404803Y-73606968D01*
X112405986Y-73571080D01*
X112422150Y-73539533D01*
X112424339Y-73537257D01*
X112433027Y-73530989D01*
X112446369Y-73526323D01*
X112467352Y-73523027D01*
X112498963Y-73520868D01*
X112544190Y-73519614D01*
X112606020Y-73519031D01*
X112687439Y-73518889D01*
X112934045Y-73518889D01*
X112934045Y-73360845D01*
X112771606Y-73360845D01*
X112735938Y-73360764D01*
X112680168Y-73359967D01*
X112641030Y-73357962D01*
X112614576Y-73354321D01*
X112596859Y-73348612D01*
X112583929Y-73340407D01*
X112580286Y-73337223D01*
X112561878Y-73306248D01*
X112561244Y-73269912D01*
X112578783Y-73236293D01*
X112578845Y-73236224D01*
X112588516Y-73227598D01*
X112601809Y-73221542D01*
X112622517Y-73217611D01*
X112654428Y-73215356D01*
X112701334Y-73214331D01*
X112767024Y-73214089D01*
X112935171Y-73214089D01*
X112931786Y-73149178D01*
X112928400Y-73084267D01*
X112686323Y-73081214D01*
X112661307Y-73080886D01*
X112579687Y-73079406D01*
X112517368Y-73077022D01*
X112471754Y-73073027D01*
X112440252Y-73066713D01*
X112420267Y-73057374D01*
X112409204Y-73044303D01*
X112404469Y-73026792D01*
X112403467Y-73004135D01*
X112403473Y-73001770D01*
X112404627Y-72981739D01*
X112409424Y-72965946D01*
X112420232Y-72953890D01*
X112439417Y-72945067D01*
X112469345Y-72938975D01*
X112512383Y-72935111D01*
X112570899Y-72932974D01*
X112647257Y-72932060D01*
X112743826Y-72931867D01*
X113034006Y-72931867D01*
X113057403Y-72961611D01*
G36*
X113057403Y-72961611D02*
G01*
X113062352Y-72968295D01*
X113068196Y-72978866D01*
X113072657Y-72992953D01*
X113075921Y-73013278D01*
X113078174Y-73042565D01*
X113079602Y-73083537D01*
X113080392Y-73138917D01*
X113080729Y-73211428D01*
X113080800Y-73303794D01*
X113080771Y-73369711D01*
X113080539Y-73448028D01*
X113079919Y-73508296D01*
X113078726Y-73553193D01*
X113076779Y-73585402D01*
X113073894Y-73607600D01*
X113069888Y-73622469D01*
X113064579Y-73632689D01*
X113057783Y-73640938D01*
X113053268Y-73645595D01*
X113045038Y-73652082D01*
X113033678Y-73656994D01*
X113016410Y-73660549D01*
X112990455Y-73662967D01*
X112953036Y-73664467D01*
X112901373Y-73665267D01*
X112832689Y-73665587D01*
X112744206Y-73665645D01*
X112724531Y-73665638D01*
X112637506Y-73665372D01*
X112569854Y-73664606D01*
X112518899Y-73663192D01*
X112481967Y-73660980D01*
X112456383Y-73657822D01*
X112439471Y-73653569D01*
X112428557Y-73648071D01*
X112418064Y-73638085D01*
X112404803Y-73606968D01*
X112405986Y-73571080D01*
X112422150Y-73539533D01*
X112424339Y-73537257D01*
X112433027Y-73530989D01*
X112446369Y-73526323D01*
X112467352Y-73523027D01*
X112498963Y-73520868D01*
X112544190Y-73519614D01*
X112606020Y-73519031D01*
X112687439Y-73518889D01*
X112934045Y-73518889D01*
X112934045Y-73360845D01*
X112771606Y-73360845D01*
X112735938Y-73360764D01*
X112680168Y-73359967D01*
X112641030Y-73357962D01*
X112614576Y-73354321D01*
X112596859Y-73348612D01*
X112583929Y-73340407D01*
X112580286Y-73337223D01*
X112561878Y-73306248D01*
X112561244Y-73269912D01*
X112578783Y-73236293D01*
X112578845Y-73236224D01*
X112588516Y-73227598D01*
X112601809Y-73221542D01*
X112622517Y-73217611D01*
X112654428Y-73215356D01*
X112701334Y-73214331D01*
X112767024Y-73214089D01*
X112935171Y-73214089D01*
X112931786Y-73149178D01*
X112928400Y-73084267D01*
X112686323Y-73081214D01*
X112661307Y-73080886D01*
X112579687Y-73079406D01*
X112517368Y-73077022D01*
X112471754Y-73073027D01*
X112440252Y-73066713D01*
X112420267Y-73057374D01*
X112409204Y-73044303D01*
X112404469Y-73026792D01*
X112403467Y-73004135D01*
X112403473Y-73001770D01*
X112404627Y-72981739D01*
X112409424Y-72965946D01*
X112420232Y-72953890D01*
X112439417Y-72945067D01*
X112469345Y-72938975D01*
X112512383Y-72935111D01*
X112570899Y-72932974D01*
X112647257Y-72932060D01*
X112743826Y-72931867D01*
X113034006Y-72931867D01*
X113057403Y-72961611D01*
G37*
X117734334Y-72931883D02*
X117811431Y-72932075D01*
X117870377Y-72932660D01*
X117913964Y-72933851D01*
X117944983Y-72935864D01*
X117966225Y-72938912D01*
X117980482Y-72943209D01*
X117990545Y-72948972D01*
X117999206Y-72956412D01*
X118000991Y-72958093D01*
X118008235Y-72965632D01*
X118013877Y-72974650D01*
X118018117Y-72987784D01*
X118021156Y-73007672D01*
X118023194Y-73036951D01*
X118024430Y-73078258D01*
X118025065Y-73134231D01*
X118025300Y-73207507D01*
X118025334Y-73300723D01*
X118025297Y-73373513D01*
X118025048Y-73451689D01*
X118024412Y-73511903D01*
X118023215Y-73556782D01*
X118021284Y-73588952D01*
X118018446Y-73611039D01*
X118014527Y-73625670D01*
X118009355Y-73635470D01*
X118002756Y-73643067D01*
X117999422Y-73646244D01*
X117990900Y-73652354D01*
X117978898Y-73657029D01*
X117960687Y-73660459D01*
X117933540Y-73662836D01*
X117894729Y-73664352D01*
X117841524Y-73665198D01*
X117771198Y-73665565D01*
X117681022Y-73665645D01*
X117638914Y-73665633D01*
X117557767Y-73665451D01*
X117495275Y-73664898D01*
X117448709Y-73663782D01*
X117415341Y-73661913D01*
X117392444Y-73659098D01*
X117377288Y-73655146D01*
X117367146Y-73649866D01*
X117359289Y-73643067D01*
X117344563Y-73621467D01*
X117336711Y-73592267D01*
X117342210Y-73568360D01*
X117359289Y-73541467D01*
X117364268Y-73536859D01*
X117374043Y-73530572D01*
X117388159Y-73525946D01*
X117409654Y-73522730D01*
X117441568Y-73520670D01*
X117486942Y-73519512D01*
X117548813Y-73519002D01*
X117630222Y-73518889D01*
X117878578Y-73518889D01*
X117878578Y-73360845D01*
X117717401Y-73360845D01*
X117681583Y-73360699D01*
X117615959Y-73358976D01*
X117568718Y-73354541D01*
X117536983Y-73346437D01*
X117517877Y-73333706D01*
X117508523Y-73315392D01*
X117506045Y-73290538D01*
X117506842Y-73270282D01*
X117512094Y-73248456D01*
X117524888Y-73233104D01*
X117548228Y-73223109D01*
X117585117Y-73217353D01*
X117638559Y-73214719D01*
X117711558Y-73214089D01*
X117879705Y-73214089D01*
X117876319Y-73149178D01*
X117872934Y-73084267D01*
X117625217Y-73081218D01*
X117562626Y-73080339D01*
X117494165Y-73078895D01*
X117443261Y-73076964D01*
X117407008Y-73074314D01*
X117382501Y-73070710D01*
X117366835Y-73065921D01*
X117357106Y-73059713D01*
X117351091Y-73053310D01*
X117338082Y-73021628D01*
X117341643Y-72985942D01*
X117361418Y-72954884D01*
X117364669Y-72951961D01*
X117373649Y-72945610D01*
X117385753Y-72940757D01*
X117403759Y-72937203D01*
X117430447Y-72934746D01*
X117468597Y-72933185D01*
X117520986Y-72932318D01*
X117590394Y-72931946D01*
X117679601Y-72931867D01*
X117734334Y-72931883D01*
G36*
X117734334Y-72931883D02*
G01*
X117811431Y-72932075D01*
X117870377Y-72932660D01*
X117913964Y-72933851D01*
X117944983Y-72935864D01*
X117966225Y-72938912D01*
X117980482Y-72943209D01*
X117990545Y-72948972D01*
X117999206Y-72956412D01*
X118000991Y-72958093D01*
X118008235Y-72965632D01*
X118013877Y-72974650D01*
X118018117Y-72987784D01*
X118021156Y-73007672D01*
X118023194Y-73036951D01*
X118024430Y-73078258D01*
X118025065Y-73134231D01*
X118025300Y-73207507D01*
X118025334Y-73300723D01*
X118025297Y-73373513D01*
X118025048Y-73451689D01*
X118024412Y-73511903D01*
X118023215Y-73556782D01*
X118021284Y-73588952D01*
X118018446Y-73611039D01*
X118014527Y-73625670D01*
X118009355Y-73635470D01*
X118002756Y-73643067D01*
X117999422Y-73646244D01*
X117990900Y-73652354D01*
X117978898Y-73657029D01*
X117960687Y-73660459D01*
X117933540Y-73662836D01*
X117894729Y-73664352D01*
X117841524Y-73665198D01*
X117771198Y-73665565D01*
X117681022Y-73665645D01*
X117638914Y-73665633D01*
X117557767Y-73665451D01*
X117495275Y-73664898D01*
X117448709Y-73663782D01*
X117415341Y-73661913D01*
X117392444Y-73659098D01*
X117377288Y-73655146D01*
X117367146Y-73649866D01*
X117359289Y-73643067D01*
X117344563Y-73621467D01*
X117336711Y-73592267D01*
X117342210Y-73568360D01*
X117359289Y-73541467D01*
X117364268Y-73536859D01*
X117374043Y-73530572D01*
X117388159Y-73525946D01*
X117409654Y-73522730D01*
X117441568Y-73520670D01*
X117486942Y-73519512D01*
X117548813Y-73519002D01*
X117630222Y-73518889D01*
X117878578Y-73518889D01*
X117878578Y-73360845D01*
X117717401Y-73360845D01*
X117681583Y-73360699D01*
X117615959Y-73358976D01*
X117568718Y-73354541D01*
X117536983Y-73346437D01*
X117517877Y-73333706D01*
X117508523Y-73315392D01*
X117506045Y-73290538D01*
X117506842Y-73270282D01*
X117512094Y-73248456D01*
X117524888Y-73233104D01*
X117548228Y-73223109D01*
X117585117Y-73217353D01*
X117638559Y-73214719D01*
X117711558Y-73214089D01*
X117879705Y-73214089D01*
X117876319Y-73149178D01*
X117872934Y-73084267D01*
X117625217Y-73081218D01*
X117562626Y-73080339D01*
X117494165Y-73078895D01*
X117443261Y-73076964D01*
X117407008Y-73074314D01*
X117382501Y-73070710D01*
X117366835Y-73065921D01*
X117357106Y-73059713D01*
X117351091Y-73053310D01*
X117338082Y-73021628D01*
X117341643Y-72985942D01*
X117361418Y-72954884D01*
X117364669Y-72951961D01*
X117373649Y-72945610D01*
X117385753Y-72940757D01*
X117403759Y-72937203D01*
X117430447Y-72934746D01*
X117468597Y-72933185D01*
X117520986Y-72932318D01*
X117590394Y-72931946D01*
X117679601Y-72931867D01*
X117734334Y-72931883D01*
G37*
X109167302Y-72941278D02*
X109185263Y-72959789D01*
X109205863Y-72990871D01*
X109230695Y-73036556D01*
X109261350Y-73098878D01*
X109299420Y-73179871D01*
X109314054Y-73211254D01*
X109343803Y-73274438D01*
X109369897Y-73329044D01*
X109390892Y-73372090D01*
X109405339Y-73400593D01*
X109411791Y-73411570D01*
X109413150Y-73410989D01*
X109423142Y-73397042D01*
X109440433Y-73367504D01*
X109463030Y-73325887D01*
X109488938Y-73275703D01*
X109504911Y-73244214D01*
X109533861Y-73188861D01*
X109556349Y-73149844D01*
X109574565Y-73124366D01*
X109590696Y-73109631D01*
X109606930Y-73102842D01*
X109625457Y-73101200D01*
X109635960Y-73101675D01*
X109652076Y-73105882D01*
X109667390Y-73116746D01*
X109683988Y-73137019D01*
X109703957Y-73169454D01*
X109729383Y-73216804D01*
X109762352Y-73281822D01*
X109772085Y-73301077D01*
X109796543Y-73347746D01*
X109816778Y-73383909D01*
X109830911Y-73406297D01*
X109837060Y-73411645D01*
X109838427Y-73408373D01*
X109847802Y-73387464D01*
X109864662Y-73350525D01*
X109887579Y-73300674D01*
X109915120Y-73241026D01*
X109945855Y-73174698D01*
X109972570Y-73117477D01*
X110002193Y-73055488D01*
X110025264Y-73009749D01*
X110043243Y-72977708D01*
X110057590Y-72956814D01*
X110069766Y-72944518D01*
X110081232Y-72938266D01*
X110090642Y-72935374D01*
X110115747Y-72935225D01*
X110142890Y-72950568D01*
X110144190Y-72951553D01*
X110166274Y-72974188D01*
X110177323Y-72996413D01*
X110177369Y-72997053D01*
X110172828Y-73014715D01*
X110159964Y-73049281D01*
X110140205Y-73097626D01*
X110114981Y-73156625D01*
X110085719Y-73223155D01*
X110053850Y-73294091D01*
X110020801Y-73366307D01*
X109988001Y-73436680D01*
X109956880Y-73502085D01*
X109928865Y-73559397D01*
X109905386Y-73605492D01*
X109887872Y-73637246D01*
X109877751Y-73651533D01*
X109843343Y-73664902D01*
X109801646Y-73658541D01*
X109796281Y-73653844D01*
X109780452Y-73631693D01*
X109758250Y-73594932D01*
X109731833Y-73547215D01*
X109703360Y-73492193D01*
X109623586Y-73332950D01*
X109550399Y-73479542D01*
X109540703Y-73498832D01*
X109513725Y-73551180D01*
X109489696Y-73595970D01*
X109470932Y-73628954D01*
X109459746Y-73645889D01*
X109458600Y-73647132D01*
X109430479Y-73662419D01*
X109395417Y-73664102D01*
X109364376Y-73651533D01*
X109361950Y-73648684D01*
X109349690Y-73628059D01*
X109329952Y-73590508D01*
X109304048Y-73538680D01*
X109273285Y-73475223D01*
X109238975Y-73402785D01*
X109202425Y-73324016D01*
X109182185Y-73279893D01*
X109145412Y-73199165D01*
X109116955Y-73135487D01*
X109095931Y-73086552D01*
X109081454Y-73050057D01*
X109072639Y-73023695D01*
X109068604Y-73005161D01*
X109068462Y-72992152D01*
X109071330Y-72982361D01*
X109085987Y-72961478D01*
X109112590Y-72941177D01*
X109113345Y-72940835D01*
X109132935Y-72933834D01*
X109150390Y-72933304D01*
X109167302Y-72941278D01*
G36*
X109167302Y-72941278D02*
G01*
X109185263Y-72959789D01*
X109205863Y-72990871D01*
X109230695Y-73036556D01*
X109261350Y-73098878D01*
X109299420Y-73179871D01*
X109314054Y-73211254D01*
X109343803Y-73274438D01*
X109369897Y-73329044D01*
X109390892Y-73372090D01*
X109405339Y-73400593D01*
X109411791Y-73411570D01*
X109413150Y-73410989D01*
X109423142Y-73397042D01*
X109440433Y-73367504D01*
X109463030Y-73325887D01*
X109488938Y-73275703D01*
X109504911Y-73244214D01*
X109533861Y-73188861D01*
X109556349Y-73149844D01*
X109574565Y-73124366D01*
X109590696Y-73109631D01*
X109606930Y-73102842D01*
X109625457Y-73101200D01*
X109635960Y-73101675D01*
X109652076Y-73105882D01*
X109667390Y-73116746D01*
X109683988Y-73137019D01*
X109703957Y-73169454D01*
X109729383Y-73216804D01*
X109762352Y-73281822D01*
X109772085Y-73301077D01*
X109796543Y-73347746D01*
X109816778Y-73383909D01*
X109830911Y-73406297D01*
X109837060Y-73411645D01*
X109838427Y-73408373D01*
X109847802Y-73387464D01*
X109864662Y-73350525D01*
X109887579Y-73300674D01*
X109915120Y-73241026D01*
X109945855Y-73174698D01*
X109972570Y-73117477D01*
X110002193Y-73055488D01*
X110025264Y-73009749D01*
X110043243Y-72977708D01*
X110057590Y-72956814D01*
X110069766Y-72944518D01*
X110081232Y-72938266D01*
X110090642Y-72935374D01*
X110115747Y-72935225D01*
X110142890Y-72950568D01*
X110144190Y-72951553D01*
X110166274Y-72974188D01*
X110177323Y-72996413D01*
X110177369Y-72997053D01*
X110172828Y-73014715D01*
X110159964Y-73049281D01*
X110140205Y-73097626D01*
X110114981Y-73156625D01*
X110085719Y-73223155D01*
X110053850Y-73294091D01*
X110020801Y-73366307D01*
X109988001Y-73436680D01*
X109956880Y-73502085D01*
X109928865Y-73559397D01*
X109905386Y-73605492D01*
X109887872Y-73637246D01*
X109877751Y-73651533D01*
X109843343Y-73664902D01*
X109801646Y-73658541D01*
X109796281Y-73653844D01*
X109780452Y-73631693D01*
X109758250Y-73594932D01*
X109731833Y-73547215D01*
X109703360Y-73492193D01*
X109623586Y-73332950D01*
X109550399Y-73479542D01*
X109540703Y-73498832D01*
X109513725Y-73551180D01*
X109489696Y-73595970D01*
X109470932Y-73628954D01*
X109459746Y-73645889D01*
X109458600Y-73647132D01*
X109430479Y-73662419D01*
X109395417Y-73664102D01*
X109364376Y-73651533D01*
X109361950Y-73648684D01*
X109349690Y-73628059D01*
X109329952Y-73590508D01*
X109304048Y-73538680D01*
X109273285Y-73475223D01*
X109238975Y-73402785D01*
X109202425Y-73324016D01*
X109182185Y-73279893D01*
X109145412Y-73199165D01*
X109116955Y-73135487D01*
X109095931Y-73086552D01*
X109081454Y-73050057D01*
X109072639Y-73023695D01*
X109068604Y-73005161D01*
X109068462Y-72992152D01*
X109071330Y-72982361D01*
X109085987Y-72961478D01*
X109112590Y-72941177D01*
X109113345Y-72940835D01*
X109132935Y-72933834D01*
X109150390Y-72933304D01*
X109167302Y-72941278D01*
G37*
X116718453Y-72932736D02*
X116784700Y-72938166D01*
X116840000Y-72947764D01*
X116890883Y-72962625D01*
X116962195Y-72995758D01*
X117013352Y-73038440D01*
X117044175Y-73090505D01*
X117054489Y-73151783D01*
X117053552Y-73183032D01*
X117047760Y-73207829D01*
X117032953Y-73229499D01*
X117004980Y-73256849D01*
X116997002Y-73264178D01*
X116973292Y-73285081D01*
X116950898Y-73302051D01*
X116926865Y-73316005D01*
X116898237Y-73327856D01*
X116862060Y-73338520D01*
X116815380Y-73348911D01*
X116755241Y-73359946D01*
X116678690Y-73372538D01*
X116582771Y-73387604D01*
X116564408Y-73390638D01*
X116502078Y-73404258D01*
X116456860Y-73419992D01*
X116430576Y-73437063D01*
X116425047Y-73454697D01*
X116427668Y-73458968D01*
X116445600Y-73474033D01*
X116473726Y-73490667D01*
X116486526Y-73496657D01*
X116507824Y-73503850D01*
X116534210Y-73508627D01*
X116570054Y-73511446D01*
X116619728Y-73512764D01*
X116687600Y-73513037D01*
X116705385Y-73512964D01*
X116773006Y-73511853D01*
X116837945Y-73509628D01*
X116893570Y-73506562D01*
X116933251Y-73502927D01*
X116968762Y-73498859D01*
X116998015Y-73498076D01*
X117016915Y-73502676D01*
X117032029Y-73513351D01*
X117035685Y-73516944D01*
X117052027Y-73548718D01*
X117050707Y-73584372D01*
X117031750Y-73614990D01*
X117011380Y-73626596D01*
X116975396Y-73639291D01*
X116932972Y-73649341D01*
X116929522Y-73649940D01*
X116886852Y-73655156D01*
X116829466Y-73659530D01*
X116764449Y-73662618D01*
X116698889Y-73663977D01*
X116682657Y-73664018D01*
X116584344Y-73661541D01*
X116504292Y-73653535D01*
X116439113Y-73639003D01*
X116385417Y-73616949D01*
X116339816Y-73586376D01*
X116298923Y-73546286D01*
X116278802Y-73520059D01*
X116267176Y-73490512D01*
X116264267Y-73450795D01*
X116264408Y-73438826D01*
X116268281Y-73406145D01*
X116280665Y-73379619D01*
X116305830Y-73348771D01*
X116327042Y-73326631D01*
X116353438Y-73304085D01*
X116383155Y-73285717D01*
X116419385Y-73270461D01*
X116465317Y-73257249D01*
X116524144Y-73245014D01*
X116599056Y-73232689D01*
X116693245Y-73219206D01*
X116738557Y-73212196D01*
X116806511Y-73197637D01*
X116855647Y-73181137D01*
X116885214Y-73163239D01*
X116894464Y-73144485D01*
X116882648Y-73125415D01*
X116849016Y-73106571D01*
X116845970Y-73105357D01*
X116799611Y-73093279D01*
X116736961Y-73085079D01*
X116663527Y-73080919D01*
X116584817Y-73080961D01*
X116506339Y-73085369D01*
X116433600Y-73094305D01*
X116429673Y-73094954D01*
X116380857Y-73102661D01*
X116348605Y-73106273D01*
X116327608Y-73105676D01*
X116312554Y-73100754D01*
X116298134Y-73091396D01*
X116296964Y-73090525D01*
X116272447Y-73060151D01*
X116267654Y-73024650D01*
X116283460Y-72990069D01*
X116288006Y-72985613D01*
X116317620Y-72970473D01*
X116364602Y-72957350D01*
X116424906Y-72946550D01*
X116494488Y-72938381D01*
X116569303Y-72933151D01*
X116645306Y-72931167D01*
X116718453Y-72932736D01*
G36*
X116718453Y-72932736D02*
G01*
X116784700Y-72938166D01*
X116840000Y-72947764D01*
X116890883Y-72962625D01*
X116962195Y-72995758D01*
X117013352Y-73038440D01*
X117044175Y-73090505D01*
X117054489Y-73151783D01*
X117053552Y-73183032D01*
X117047760Y-73207829D01*
X117032953Y-73229499D01*
X117004980Y-73256849D01*
X116997002Y-73264178D01*
X116973292Y-73285081D01*
X116950898Y-73302051D01*
X116926865Y-73316005D01*
X116898237Y-73327856D01*
X116862060Y-73338520D01*
X116815380Y-73348911D01*
X116755241Y-73359946D01*
X116678690Y-73372538D01*
X116582771Y-73387604D01*
X116564408Y-73390638D01*
X116502078Y-73404258D01*
X116456860Y-73419992D01*
X116430576Y-73437063D01*
X116425047Y-73454697D01*
X116427668Y-73458968D01*
X116445600Y-73474033D01*
X116473726Y-73490667D01*
X116486526Y-73496657D01*
X116507824Y-73503850D01*
X116534210Y-73508627D01*
X116570054Y-73511446D01*
X116619728Y-73512764D01*
X116687600Y-73513037D01*
X116705385Y-73512964D01*
X116773006Y-73511853D01*
X116837945Y-73509628D01*
X116893570Y-73506562D01*
X116933251Y-73502927D01*
X116968762Y-73498859D01*
X116998015Y-73498076D01*
X117016915Y-73502676D01*
X117032029Y-73513351D01*
X117035685Y-73516944D01*
X117052027Y-73548718D01*
X117050707Y-73584372D01*
X117031750Y-73614990D01*
X117011380Y-73626596D01*
X116975396Y-73639291D01*
X116932972Y-73649341D01*
X116929522Y-73649940D01*
X116886852Y-73655156D01*
X116829466Y-73659530D01*
X116764449Y-73662618D01*
X116698889Y-73663977D01*
X116682657Y-73664018D01*
X116584344Y-73661541D01*
X116504292Y-73653535D01*
X116439113Y-73639003D01*
X116385417Y-73616949D01*
X116339816Y-73586376D01*
X116298923Y-73546286D01*
X116278802Y-73520059D01*
X116267176Y-73490512D01*
X116264267Y-73450795D01*
X116264408Y-73438826D01*
X116268281Y-73406145D01*
X116280665Y-73379619D01*
X116305830Y-73348771D01*
X116327042Y-73326631D01*
X116353438Y-73304085D01*
X116383155Y-73285717D01*
X116419385Y-73270461D01*
X116465317Y-73257249D01*
X116524144Y-73245014D01*
X116599056Y-73232689D01*
X116693245Y-73219206D01*
X116738557Y-73212196D01*
X116806511Y-73197637D01*
X116855647Y-73181137D01*
X116885214Y-73163239D01*
X116894464Y-73144485D01*
X116882648Y-73125415D01*
X116849016Y-73106571D01*
X116845970Y-73105357D01*
X116799611Y-73093279D01*
X116736961Y-73085079D01*
X116663527Y-73080919D01*
X116584817Y-73080961D01*
X116506339Y-73085369D01*
X116433600Y-73094305D01*
X116429673Y-73094954D01*
X116380857Y-73102661D01*
X116348605Y-73106273D01*
X116327608Y-73105676D01*
X116312554Y-73100754D01*
X116298134Y-73091396D01*
X116296964Y-73090525D01*
X116272447Y-73060151D01*
X116267654Y-73024650D01*
X116283460Y-72990069D01*
X116288006Y-72985613D01*
X116317620Y-72970473D01*
X116364602Y-72957350D01*
X116424906Y-72946550D01*
X116494488Y-72938381D01*
X116569303Y-72933151D01*
X116645306Y-72931167D01*
X116718453Y-72932736D01*
G37*
X112866311Y-68624833D02*
X112961868Y-68642323D01*
X113126158Y-68687364D01*
X113280189Y-68750456D01*
X113426109Y-68832715D01*
X113566066Y-68935257D01*
X113702208Y-69059199D01*
X113746073Y-69104461D01*
X113858358Y-69236665D01*
X113951572Y-69374632D01*
X114028319Y-69522550D01*
X114091203Y-69684603D01*
X114095020Y-69696191D01*
X114145107Y-69882192D01*
X114178499Y-70078321D01*
X114195184Y-70280368D01*
X114195151Y-70484125D01*
X114178391Y-70685381D01*
X114144892Y-70879928D01*
X114094644Y-71063556D01*
X114050790Y-71180853D01*
X113972948Y-71343751D01*
X113879428Y-71497666D01*
X113772422Y-71639471D01*
X113654119Y-71766039D01*
X113526711Y-71874241D01*
X113449206Y-71926920D01*
X113322325Y-71996550D01*
X113184843Y-72055268D01*
X113043316Y-72100387D01*
X112904302Y-72129222D01*
X112890197Y-72130906D01*
X112846753Y-72134234D01*
X112789323Y-72137075D01*
X112723722Y-72139173D01*
X112655767Y-72140268D01*
X112528978Y-72137940D01*
X112381273Y-72124936D01*
X112243379Y-72099933D01*
X112109614Y-72062118D01*
X112086162Y-72053689D01*
X112038212Y-72034208D01*
X111981740Y-72009273D01*
X111919979Y-71980522D01*
X111856163Y-71949590D01*
X111793526Y-71918115D01*
X111735303Y-71887734D01*
X111684727Y-71860083D01*
X111645033Y-71836799D01*
X111619454Y-71819518D01*
X111611225Y-71809879D01*
X111612676Y-71806784D01*
X111623850Y-71786879D01*
X111644734Y-71751220D01*
X111673865Y-71702259D01*
X111709781Y-71642446D01*
X111751020Y-71574233D01*
X111796117Y-71500071D01*
X111977385Y-71202808D01*
X112023915Y-71247339D01*
X112115323Y-71325665D01*
X112228934Y-71400239D01*
X112346722Y-71454274D01*
X112467159Y-71487090D01*
X112588717Y-71498011D01*
X112630185Y-71496668D01*
X112747680Y-71478412D01*
X112857689Y-71439417D01*
X112959030Y-71380470D01*
X113050521Y-71302357D01*
X113130980Y-71205864D01*
X113199227Y-71091778D01*
X113215508Y-71057524D01*
X113261582Y-70934040D01*
X113296706Y-70795718D01*
X113320797Y-70646361D01*
X113333773Y-70489773D01*
X113335549Y-70329756D01*
X113326043Y-70170114D01*
X113305172Y-70014650D01*
X113272852Y-69867166D01*
X113228999Y-69731467D01*
X113191582Y-69644876D01*
X113126785Y-69531488D01*
X113051372Y-69437870D01*
X112965018Y-69363759D01*
X112867395Y-69308894D01*
X112758177Y-69273012D01*
X112637039Y-69255851D01*
X112567638Y-69254680D01*
X112444768Y-69268941D01*
X112329264Y-69304041D01*
X112222553Y-69359482D01*
X112126064Y-69434764D01*
X112110320Y-69449240D01*
X112079750Y-69475762D01*
X112057409Y-69492938D01*
X112047291Y-69497587D01*
X112045306Y-69495397D01*
X112030841Y-69476521D01*
X112007000Y-69443197D01*
X111975629Y-69398180D01*
X111938574Y-69344225D01*
X111897683Y-69284085D01*
X111854802Y-69220518D01*
X111811778Y-69156276D01*
X111770457Y-69094115D01*
X111732686Y-69036791D01*
X111700312Y-68987057D01*
X111675182Y-68947668D01*
X111659142Y-68921380D01*
X111654039Y-68910947D01*
X111658650Y-68906741D01*
X111677867Y-68901733D01*
X111687438Y-68899186D01*
X111715409Y-68888049D01*
X111757048Y-68869602D01*
X111808595Y-68845525D01*
X111866290Y-68817499D01*
X111877557Y-68811954D01*
X112055287Y-68732689D01*
X112225090Y-68673185D01*
X112389030Y-68633045D01*
X112549171Y-68611871D01*
X112707577Y-68609266D01*
X112866311Y-68624833D01*
G36*
X112866311Y-68624833D02*
G01*
X112961868Y-68642323D01*
X113126158Y-68687364D01*
X113280189Y-68750456D01*
X113426109Y-68832715D01*
X113566066Y-68935257D01*
X113702208Y-69059199D01*
X113746073Y-69104461D01*
X113858358Y-69236665D01*
X113951572Y-69374632D01*
X114028319Y-69522550D01*
X114091203Y-69684603D01*
X114095020Y-69696191D01*
X114145107Y-69882192D01*
X114178499Y-70078321D01*
X114195184Y-70280368D01*
X114195151Y-70484125D01*
X114178391Y-70685381D01*
X114144892Y-70879928D01*
X114094644Y-71063556D01*
X114050790Y-71180853D01*
X113972948Y-71343751D01*
X113879428Y-71497666D01*
X113772422Y-71639471D01*
X113654119Y-71766039D01*
X113526711Y-71874241D01*
X113449206Y-71926920D01*
X113322325Y-71996550D01*
X113184843Y-72055268D01*
X113043316Y-72100387D01*
X112904302Y-72129222D01*
X112890197Y-72130906D01*
X112846753Y-72134234D01*
X112789323Y-72137075D01*
X112723722Y-72139173D01*
X112655767Y-72140268D01*
X112528978Y-72137940D01*
X112381273Y-72124936D01*
X112243379Y-72099933D01*
X112109614Y-72062118D01*
X112086162Y-72053689D01*
X112038212Y-72034208D01*
X111981740Y-72009273D01*
X111919979Y-71980522D01*
X111856163Y-71949590D01*
X111793526Y-71918115D01*
X111735303Y-71887734D01*
X111684727Y-71860083D01*
X111645033Y-71836799D01*
X111619454Y-71819518D01*
X111611225Y-71809879D01*
X111612676Y-71806784D01*
X111623850Y-71786879D01*
X111644734Y-71751220D01*
X111673865Y-71702259D01*
X111709781Y-71642446D01*
X111751020Y-71574233D01*
X111796117Y-71500071D01*
X111977385Y-71202808D01*
X112023915Y-71247339D01*
X112115323Y-71325665D01*
X112228934Y-71400239D01*
X112346722Y-71454274D01*
X112467159Y-71487090D01*
X112588717Y-71498011D01*
X112630185Y-71496668D01*
X112747680Y-71478412D01*
X112857689Y-71439417D01*
X112959030Y-71380470D01*
X113050521Y-71302357D01*
X113130980Y-71205864D01*
X113199227Y-71091778D01*
X113215508Y-71057524D01*
X113261582Y-70934040D01*
X113296706Y-70795718D01*
X113320797Y-70646361D01*
X113333773Y-70489773D01*
X113335549Y-70329756D01*
X113326043Y-70170114D01*
X113305172Y-70014650D01*
X113272852Y-69867166D01*
X113228999Y-69731467D01*
X113191582Y-69644876D01*
X113126785Y-69531488D01*
X113051372Y-69437870D01*
X112965018Y-69363759D01*
X112867395Y-69308894D01*
X112758177Y-69273012D01*
X112637039Y-69255851D01*
X112567638Y-69254680D01*
X112444768Y-69268941D01*
X112329264Y-69304041D01*
X112222553Y-69359482D01*
X112126064Y-69434764D01*
X112110320Y-69449240D01*
X112079750Y-69475762D01*
X112057409Y-69492938D01*
X112047291Y-69497587D01*
X112045306Y-69495397D01*
X112030841Y-69476521D01*
X112007000Y-69443197D01*
X111975629Y-69398180D01*
X111938574Y-69344225D01*
X111897683Y-69284085D01*
X111854802Y-69220518D01*
X111811778Y-69156276D01*
X111770457Y-69094115D01*
X111732686Y-69036791D01*
X111700312Y-68987057D01*
X111675182Y-68947668D01*
X111659142Y-68921380D01*
X111654039Y-68910947D01*
X111658650Y-68906741D01*
X111677867Y-68901733D01*
X111687438Y-68899186D01*
X111715409Y-68888049D01*
X111757048Y-68869602D01*
X111808595Y-68845525D01*
X111866290Y-68817499D01*
X111877557Y-68811954D01*
X112055287Y-68732689D01*
X112225090Y-68673185D01*
X112389030Y-68633045D01*
X112549171Y-68611871D01*
X112707577Y-68609266D01*
X112866311Y-68624833D01*
G37*
X109063594Y-70905511D02*
X109062868Y-70982958D01*
X109054289Y-71134394D01*
X109035433Y-71271083D01*
X109005437Y-71397076D01*
X108963436Y-71516425D01*
X108908569Y-71633181D01*
X108841767Y-71743979D01*
X108750963Y-71857539D01*
X108647308Y-71953011D01*
X108531487Y-72029873D01*
X108404186Y-72087597D01*
X108266089Y-72125658D01*
X108228393Y-72131466D01*
X108149352Y-72137196D01*
X108061229Y-72137383D01*
X107971836Y-72132339D01*
X107888984Y-72122378D01*
X107820487Y-72107812D01*
X107789635Y-72098164D01*
X107712330Y-72067923D01*
X107635279Y-72030417D01*
X107565800Y-71989414D01*
X107511215Y-71948679D01*
X107488516Y-71929305D01*
X107465801Y-71911462D01*
X107454379Y-71904578D01*
X107453137Y-71906224D01*
X107450328Y-71924005D01*
X107448376Y-71957170D01*
X107447645Y-72000533D01*
X107447645Y-72096489D01*
X106589496Y-72096489D01*
X106623761Y-72035774D01*
X106628955Y-72026668D01*
X106637315Y-72012049D01*
X106644888Y-71997973D01*
X106651712Y-71983340D01*
X106657827Y-71967049D01*
X106663273Y-71947998D01*
X106668087Y-71925086D01*
X106672308Y-71897213D01*
X106675977Y-71863278D01*
X106679131Y-71822179D01*
X106681811Y-71772815D01*
X106684054Y-71714086D01*
X106685899Y-71644890D01*
X106687387Y-71564126D01*
X106688555Y-71470694D01*
X106689444Y-71363492D01*
X106690091Y-71241420D01*
X106690536Y-71103376D01*
X106690818Y-70948259D01*
X106690975Y-70774968D01*
X106691048Y-70582403D01*
X106691074Y-70369462D01*
X106691085Y-70233330D01*
X107492800Y-70233330D01*
X107492800Y-71383521D01*
X107563356Y-71429889D01*
X107604017Y-71453591D01*
X107658146Y-71479439D01*
X107707289Y-71497629D01*
X107770765Y-71513351D01*
X107866931Y-71524341D01*
X107951500Y-71516165D01*
X108024819Y-71488605D01*
X108087237Y-71441442D01*
X108139102Y-71374458D01*
X108180760Y-71287433D01*
X108212562Y-71180150D01*
X108215145Y-71167809D01*
X108223600Y-71106572D01*
X108229263Y-71029492D01*
X108232176Y-70941802D01*
X108232383Y-70848734D01*
X108229930Y-70755520D01*
X108224861Y-70667394D01*
X108217219Y-70589588D01*
X108207048Y-70527333D01*
X108205767Y-70521466D01*
X108176726Y-70410921D01*
X108142210Y-70320375D01*
X108101056Y-70247753D01*
X108052099Y-70190981D01*
X107994174Y-70147984D01*
X107962220Y-70132415D01*
X107889384Y-70113522D01*
X107808043Y-70110265D01*
X107722919Y-70122189D01*
X107638733Y-70148840D01*
X107560208Y-70189762D01*
X107492800Y-70233330D01*
X106691085Y-70233330D01*
X106691093Y-70135045D01*
X106691289Y-68450178D01*
X107596617Y-68450178D01*
X107572185Y-68486867D01*
X107565918Y-68496447D01*
X107539808Y-68542781D01*
X107522069Y-68589902D01*
X107510508Y-68645051D01*
X107502931Y-68715467D01*
X107502439Y-68722450D01*
X107500662Y-68760441D01*
X107499044Y-68814376D01*
X107497599Y-68881503D01*
X107496340Y-68959071D01*
X107495280Y-69044328D01*
X107494429Y-69134524D01*
X107493803Y-69226907D01*
X107493412Y-69318725D01*
X107493270Y-69407227D01*
X107493390Y-69489662D01*
X107493783Y-69563279D01*
X107494462Y-69625326D01*
X107495441Y-69673051D01*
X107496732Y-69703704D01*
X107498347Y-69714533D01*
X107506557Y-69710133D01*
X107528247Y-69695162D01*
X107557614Y-69673248D01*
X107606479Y-69639036D01*
X107694725Y-69592514D01*
X107793516Y-69558846D01*
X107906110Y-69537031D01*
X108035764Y-69526065D01*
X108128270Y-69525019D01*
X108249611Y-69534814D01*
X108359699Y-69558974D01*
X108462989Y-69598585D01*
X108563938Y-69654732D01*
X108609103Y-69685683D01*
X108714511Y-69776915D01*
X108806138Y-69885906D01*
X108883932Y-70012526D01*
X108947841Y-70156645D01*
X108997814Y-70318132D01*
X109033798Y-70496859D01*
X109055743Y-70692695D01*
X109061500Y-70848734D01*
X109063594Y-70905511D01*
G36*
X109063594Y-70905511D02*
G01*
X109062868Y-70982958D01*
X109054289Y-71134394D01*
X109035433Y-71271083D01*
X109005437Y-71397076D01*
X108963436Y-71516425D01*
X108908569Y-71633181D01*
X108841767Y-71743979D01*
X108750963Y-71857539D01*
X108647308Y-71953011D01*
X108531487Y-72029873D01*
X108404186Y-72087597D01*
X108266089Y-72125658D01*
X108228393Y-72131466D01*
X108149352Y-72137196D01*
X108061229Y-72137383D01*
X107971836Y-72132339D01*
X107888984Y-72122378D01*
X107820487Y-72107812D01*
X107789635Y-72098164D01*
X107712330Y-72067923D01*
X107635279Y-72030417D01*
X107565800Y-71989414D01*
X107511215Y-71948679D01*
X107488516Y-71929305D01*
X107465801Y-71911462D01*
X107454379Y-71904578D01*
X107453137Y-71906224D01*
X107450328Y-71924005D01*
X107448376Y-71957170D01*
X107447645Y-72000533D01*
X107447645Y-72096489D01*
X106589496Y-72096489D01*
X106623761Y-72035774D01*
X106628955Y-72026668D01*
X106637315Y-72012049D01*
X106644888Y-71997973D01*
X106651712Y-71983340D01*
X106657827Y-71967049D01*
X106663273Y-71947998D01*
X106668087Y-71925086D01*
X106672308Y-71897213D01*
X106675977Y-71863278D01*
X106679131Y-71822179D01*
X106681811Y-71772815D01*
X106684054Y-71714086D01*
X106685899Y-71644890D01*
X106687387Y-71564126D01*
X106688555Y-71470694D01*
X106689444Y-71363492D01*
X106690091Y-71241420D01*
X106690536Y-71103376D01*
X106690818Y-70948259D01*
X106690975Y-70774968D01*
X106691048Y-70582403D01*
X106691074Y-70369462D01*
X106691085Y-70233330D01*
X107492800Y-70233330D01*
X107492800Y-71383521D01*
X107563356Y-71429889D01*
X107604017Y-71453591D01*
X107658146Y-71479439D01*
X107707289Y-71497629D01*
X107770765Y-71513351D01*
X107866931Y-71524341D01*
X107951500Y-71516165D01*
X108024819Y-71488605D01*
X108087237Y-71441442D01*
X108139102Y-71374458D01*
X108180760Y-71287433D01*
X108212562Y-71180150D01*
X108215145Y-71167809D01*
X108223600Y-71106572D01*
X108229263Y-71029492D01*
X108232176Y-70941802D01*
X108232383Y-70848734D01*
X108229930Y-70755520D01*
X108224861Y-70667394D01*
X108217219Y-70589588D01*
X108207048Y-70527333D01*
X108205767Y-70521466D01*
X108176726Y-70410921D01*
X108142210Y-70320375D01*
X108101056Y-70247753D01*
X108052099Y-70190981D01*
X107994174Y-70147984D01*
X107962220Y-70132415D01*
X107889384Y-70113522D01*
X107808043Y-70110265D01*
X107722919Y-70122189D01*
X107638733Y-70148840D01*
X107560208Y-70189762D01*
X107492800Y-70233330D01*
X106691085Y-70233330D01*
X106691093Y-70135045D01*
X106691289Y-68450178D01*
X107596617Y-68450178D01*
X107572185Y-68486867D01*
X107565918Y-68496447D01*
X107539808Y-68542781D01*
X107522069Y-68589902D01*
X107510508Y-68645051D01*
X107502931Y-68715467D01*
X107502439Y-68722450D01*
X107500662Y-68760441D01*
X107499044Y-68814376D01*
X107497599Y-68881503D01*
X107496340Y-68959071D01*
X107495280Y-69044328D01*
X107494429Y-69134524D01*
X107493803Y-69226907D01*
X107493412Y-69318725D01*
X107493270Y-69407227D01*
X107493390Y-69489662D01*
X107493783Y-69563279D01*
X107494462Y-69625326D01*
X107495441Y-69673051D01*
X107496732Y-69703704D01*
X107498347Y-69714533D01*
X107506557Y-69710133D01*
X107528247Y-69695162D01*
X107557614Y-69673248D01*
X107606479Y-69639036D01*
X107694725Y-69592514D01*
X107793516Y-69558846D01*
X107906110Y-69537031D01*
X108035764Y-69526065D01*
X108128270Y-69525019D01*
X108249611Y-69534814D01*
X108359699Y-69558974D01*
X108462989Y-69598585D01*
X108563938Y-69654732D01*
X108609103Y-69685683D01*
X108714511Y-69776915D01*
X108806138Y-69885906D01*
X108883932Y-70012526D01*
X108947841Y-70156645D01*
X108997814Y-70318132D01*
X109033798Y-70496859D01*
X109055743Y-70692695D01*
X109061500Y-70848734D01*
X109063594Y-70905511D01*
G37*
X111605355Y-71306267D02*
X111604861Y-71340163D01*
X111601232Y-71415002D01*
X111593622Y-71477201D01*
X111581288Y-71533784D01*
X111536913Y-71659876D01*
X111474000Y-71774479D01*
X111393838Y-71875368D01*
X111297340Y-71961724D01*
X111185422Y-72032732D01*
X111058997Y-72087576D01*
X110918978Y-72125438D01*
X110882749Y-72131151D01*
X110803755Y-72137113D01*
X110715441Y-72137446D01*
X110625675Y-72132459D01*
X110542322Y-72122466D01*
X110473251Y-72107778D01*
X110386787Y-72077549D01*
X110276886Y-72022857D01*
X110179556Y-71955343D01*
X110117467Y-71904356D01*
X110114205Y-72000422D01*
X110110943Y-72096489D01*
X109688050Y-72096489D01*
X109677143Y-72096486D01*
X109582656Y-72096180D01*
X109495931Y-72095416D01*
X109419437Y-72094251D01*
X109355643Y-72092742D01*
X109307018Y-72090947D01*
X109276033Y-72088921D01*
X109265156Y-72086722D01*
X109265178Y-72086263D01*
X109272214Y-72070710D01*
X109288034Y-72047871D01*
X109292334Y-72042438D01*
X109303377Y-72028406D01*
X109312911Y-72014986D01*
X109321061Y-72000522D01*
X109327952Y-71983356D01*
X109333711Y-71961834D01*
X109338462Y-71934298D01*
X109342331Y-71899092D01*
X109345444Y-71854560D01*
X109347925Y-71799046D01*
X109349900Y-71730893D01*
X109351494Y-71648445D01*
X109352834Y-71550046D01*
X109354044Y-71434039D01*
X109355249Y-71298768D01*
X109356195Y-71187386D01*
X110156978Y-71187386D01*
X110156978Y-71383262D01*
X110201648Y-71439773D01*
X110214385Y-71455012D01*
X110261204Y-71497644D01*
X110321855Y-71533472D01*
X110332497Y-71538650D01*
X110371276Y-71555545D01*
X110406292Y-71565709D01*
X110446322Y-71571125D01*
X110500141Y-71573778D01*
X110518248Y-71574183D01*
X110593611Y-71571340D01*
X110654343Y-71559420D01*
X110706052Y-71536837D01*
X110754346Y-71502011D01*
X110759403Y-71497598D01*
X110807872Y-71441960D01*
X110836059Y-71378133D01*
X110845352Y-71303082D01*
X110838120Y-71231493D01*
X110813396Y-71168445D01*
X110768849Y-71110558D01*
X110713919Y-71063608D01*
X110641494Y-71023761D01*
X110554940Y-70996063D01*
X110452270Y-70979896D01*
X110331494Y-70974642D01*
X110322607Y-70974657D01*
X110267260Y-70975455D01*
X110220336Y-70977288D01*
X110186553Y-70979911D01*
X110170628Y-70983074D01*
X110166543Y-70989541D01*
X110162172Y-71011675D01*
X110159204Y-71050788D01*
X110157514Y-71108739D01*
X110156978Y-71187386D01*
X109356195Y-71187386D01*
X109356575Y-71142578D01*
X109357828Y-70999812D01*
X109359251Y-70854742D01*
X109360776Y-70728827D01*
X109362533Y-70620236D01*
X109364651Y-70527134D01*
X109367260Y-70447691D01*
X109370490Y-70380073D01*
X109374469Y-70322449D01*
X109379328Y-70272985D01*
X109385197Y-70229850D01*
X109392204Y-70191210D01*
X109400480Y-70155234D01*
X109410154Y-70120089D01*
X109421356Y-70083942D01*
X109434216Y-70044961D01*
X109449690Y-70001891D01*
X109492594Y-69909671D01*
X109546335Y-69829899D01*
X109615176Y-69755765D01*
X109692785Y-69692205D01*
X109797361Y-69630525D01*
X109916844Y-69583002D01*
X110052108Y-69549367D01*
X110204026Y-69529352D01*
X110373472Y-69522689D01*
X110431490Y-69523087D01*
X110496998Y-69525135D01*
X110558293Y-69529504D01*
X110619697Y-69536835D01*
X110685532Y-69547769D01*
X110760120Y-69562947D01*
X110847784Y-69583009D01*
X110952845Y-69608597D01*
X110981406Y-69615620D01*
X111056654Y-69633576D01*
X111126988Y-69649620D01*
X111188167Y-69662828D01*
X111235954Y-69672274D01*
X111266111Y-69677031D01*
X111294383Y-69680710D01*
X111320660Y-69685987D01*
X111330659Y-69690742D01*
X111327552Y-69699581D01*
X111316794Y-69726872D01*
X111299464Y-69769706D01*
X111276726Y-69825225D01*
X111249747Y-69890572D01*
X111219690Y-69962889D01*
X111213093Y-69978679D01*
X111174507Y-70069284D01*
X111143368Y-70139017D01*
X111119517Y-70188205D01*
X111102798Y-70217174D01*
X111093054Y-70226252D01*
X111085366Y-70224205D01*
X111059015Y-70214560D01*
X111020582Y-70198990D01*
X110975422Y-70179615D01*
X110880893Y-70141614D01*
X110744080Y-70100580D01*
X110602889Y-70075412D01*
X110564914Y-70071411D01*
X110461659Y-70069247D01*
X110374552Y-70082422D01*
X110302729Y-70111556D01*
X110245331Y-70157266D01*
X110201496Y-70220172D01*
X110170362Y-70300892D01*
X110151070Y-70400045D01*
X110143650Y-70459024D01*
X110305536Y-70452245D01*
X110432095Y-70450613D01*
X110583551Y-70456994D01*
X110731996Y-70471577D01*
X110868178Y-70493682D01*
X110932845Y-70508621D01*
X111065090Y-70551541D01*
X111187362Y-70608140D01*
X111297285Y-70676817D01*
X111392483Y-70755970D01*
X111470580Y-70843996D01*
X111529199Y-70939293D01*
X111553195Y-70991664D01*
X111578832Y-71062390D01*
X111595078Y-71133612D01*
X111603422Y-71212512D01*
X111605290Y-71303082D01*
X111605355Y-71306267D01*
G36*
X111605355Y-71306267D02*
G01*
X111604861Y-71340163D01*
X111601232Y-71415002D01*
X111593622Y-71477201D01*
X111581288Y-71533784D01*
X111536913Y-71659876D01*
X111474000Y-71774479D01*
X111393838Y-71875368D01*
X111297340Y-71961724D01*
X111185422Y-72032732D01*
X111058997Y-72087576D01*
X110918978Y-72125438D01*
X110882749Y-72131151D01*
X110803755Y-72137113D01*
X110715441Y-72137446D01*
X110625675Y-72132459D01*
X110542322Y-72122466D01*
X110473251Y-72107778D01*
X110386787Y-72077549D01*
X110276886Y-72022857D01*
X110179556Y-71955343D01*
X110117467Y-71904356D01*
X110114205Y-72000422D01*
X110110943Y-72096489D01*
X109688050Y-72096489D01*
X109677143Y-72096486D01*
X109582656Y-72096180D01*
X109495931Y-72095416D01*
X109419437Y-72094251D01*
X109355643Y-72092742D01*
X109307018Y-72090947D01*
X109276033Y-72088921D01*
X109265156Y-72086722D01*
X109265178Y-72086263D01*
X109272214Y-72070710D01*
X109288034Y-72047871D01*
X109292334Y-72042438D01*
X109303377Y-72028406D01*
X109312911Y-72014986D01*
X109321061Y-72000522D01*
X109327952Y-71983356D01*
X109333711Y-71961834D01*
X109338462Y-71934298D01*
X109342331Y-71899092D01*
X109345444Y-71854560D01*
X109347925Y-71799046D01*
X109349900Y-71730893D01*
X109351494Y-71648445D01*
X109352834Y-71550046D01*
X109354044Y-71434039D01*
X109355249Y-71298768D01*
X109356195Y-71187386D01*
X110156978Y-71187386D01*
X110156978Y-71383262D01*
X110201648Y-71439773D01*
X110214385Y-71455012D01*
X110261204Y-71497644D01*
X110321855Y-71533472D01*
X110332497Y-71538650D01*
X110371276Y-71555545D01*
X110406292Y-71565709D01*
X110446322Y-71571125D01*
X110500141Y-71573778D01*
X110518248Y-71574183D01*
X110593611Y-71571340D01*
X110654343Y-71559420D01*
X110706052Y-71536837D01*
X110754346Y-71502011D01*
X110759403Y-71497598D01*
X110807872Y-71441960D01*
X110836059Y-71378133D01*
X110845352Y-71303082D01*
X110838120Y-71231493D01*
X110813396Y-71168445D01*
X110768849Y-71110558D01*
X110713919Y-71063608D01*
X110641494Y-71023761D01*
X110554940Y-70996063D01*
X110452270Y-70979896D01*
X110331494Y-70974642D01*
X110322607Y-70974657D01*
X110267260Y-70975455D01*
X110220336Y-70977288D01*
X110186553Y-70979911D01*
X110170628Y-70983074D01*
X110166543Y-70989541D01*
X110162172Y-71011675D01*
X110159204Y-71050788D01*
X110157514Y-71108739D01*
X110156978Y-71187386D01*
X109356195Y-71187386D01*
X109356575Y-71142578D01*
X109357828Y-70999812D01*
X109359251Y-70854742D01*
X109360776Y-70728827D01*
X109362533Y-70620236D01*
X109364651Y-70527134D01*
X109367260Y-70447691D01*
X109370490Y-70380073D01*
X109374469Y-70322449D01*
X109379328Y-70272985D01*
X109385197Y-70229850D01*
X109392204Y-70191210D01*
X109400480Y-70155234D01*
X109410154Y-70120089D01*
X109421356Y-70083942D01*
X109434216Y-70044961D01*
X109449690Y-70001891D01*
X109492594Y-69909671D01*
X109546335Y-69829899D01*
X109615176Y-69755765D01*
X109692785Y-69692205D01*
X109797361Y-69630525D01*
X109916844Y-69583002D01*
X110052108Y-69549367D01*
X110204026Y-69529352D01*
X110373472Y-69522689D01*
X110431490Y-69523087D01*
X110496998Y-69525135D01*
X110558293Y-69529504D01*
X110619697Y-69536835D01*
X110685532Y-69547769D01*
X110760120Y-69562947D01*
X110847784Y-69583009D01*
X110952845Y-69608597D01*
X110981406Y-69615620D01*
X111056654Y-69633576D01*
X111126988Y-69649620D01*
X111188167Y-69662828D01*
X111235954Y-69672274D01*
X111266111Y-69677031D01*
X111294383Y-69680710D01*
X111320660Y-69685987D01*
X111330659Y-69690742D01*
X111327552Y-69699581D01*
X111316794Y-69726872D01*
X111299464Y-69769706D01*
X111276726Y-69825225D01*
X111249747Y-69890572D01*
X111219690Y-69962889D01*
X111213093Y-69978679D01*
X111174507Y-70069284D01*
X111143368Y-70139017D01*
X111119517Y-70188205D01*
X111102798Y-70217174D01*
X111093054Y-70226252D01*
X111085366Y-70224205D01*
X111059015Y-70214560D01*
X111020582Y-70198990D01*
X110975422Y-70179615D01*
X110880893Y-70141614D01*
X110744080Y-70100580D01*
X110602889Y-70075412D01*
X110564914Y-70071411D01*
X110461659Y-70069247D01*
X110374552Y-70082422D01*
X110302729Y-70111556D01*
X110245331Y-70157266D01*
X110201496Y-70220172D01*
X110170362Y-70300892D01*
X110151070Y-70400045D01*
X110143650Y-70459024D01*
X110305536Y-70452245D01*
X110432095Y-70450613D01*
X110583551Y-70456994D01*
X110731996Y-70471577D01*
X110868178Y-70493682D01*
X110932845Y-70508621D01*
X111065090Y-70551541D01*
X111187362Y-70608140D01*
X111297285Y-70676817D01*
X111392483Y-70755970D01*
X111470580Y-70843996D01*
X111529199Y-70939293D01*
X111553195Y-70991664D01*
X111578832Y-71062390D01*
X111595078Y-71133612D01*
X111603422Y-71212512D01*
X111605290Y-71303082D01*
X111605355Y-71306267D01*
G37*
X119153214Y-68774592D02*
X119153659Y-68905811D01*
X119153962Y-69053016D01*
X119154148Y-69217149D01*
X119154242Y-69399152D01*
X119154271Y-69599965D01*
X119154261Y-69820532D01*
X119154236Y-70061792D01*
X119154222Y-70324689D01*
X119154222Y-70366840D01*
X119154246Y-70627468D01*
X119154285Y-70866596D01*
X119154308Y-71085160D01*
X119154287Y-71284095D01*
X119154193Y-71464335D01*
X119153995Y-71626815D01*
X119153663Y-71772470D01*
X119153169Y-71902234D01*
X119152483Y-72017043D01*
X119151576Y-72117830D01*
X119150417Y-72205530D01*
X119148978Y-72281079D01*
X119147229Y-72345411D01*
X119145140Y-72399461D01*
X119142683Y-72444163D01*
X119139827Y-72480452D01*
X119136543Y-72509263D01*
X119132802Y-72531531D01*
X119128574Y-72548190D01*
X119123829Y-72560175D01*
X119118539Y-72568421D01*
X119112673Y-72573862D01*
X119106202Y-72577434D01*
X119099097Y-72580070D01*
X119091328Y-72582706D01*
X119082866Y-72586277D01*
X119078508Y-72587945D01*
X119069995Y-72589911D01*
X119057294Y-72591711D01*
X119039485Y-72593355D01*
X119015649Y-72594847D01*
X118984866Y-72596197D01*
X118946217Y-72597411D01*
X118898782Y-72598497D01*
X118841643Y-72599461D01*
X118773879Y-72600311D01*
X118694571Y-72601053D01*
X118602799Y-72601697D01*
X118497644Y-72602247D01*
X118378187Y-72602713D01*
X118243508Y-72603100D01*
X118092688Y-72603416D01*
X117924806Y-72603669D01*
X117738945Y-72603866D01*
X117534183Y-72604013D01*
X117309602Y-72604118D01*
X117064282Y-72604189D01*
X116797304Y-72604232D01*
X116758921Y-72604237D01*
X116493522Y-72604280D01*
X116249650Y-72604325D01*
X116026383Y-72604348D01*
X115822796Y-72604324D01*
X115637967Y-72604230D01*
X115470973Y-72604043D01*
X115320890Y-72603739D01*
X115186796Y-72603294D01*
X115067766Y-72602685D01*
X114962879Y-72601889D01*
X114871210Y-72600880D01*
X114791837Y-72599637D01*
X114723837Y-72598135D01*
X114666286Y-72596351D01*
X114618262Y-72594261D01*
X114578840Y-72591842D01*
X114547099Y-72589070D01*
X114522114Y-72585921D01*
X114502964Y-72582372D01*
X114488723Y-72578398D01*
X114478471Y-72573978D01*
X114471282Y-72569086D01*
X114466235Y-72563700D01*
X114462405Y-72557796D01*
X114458871Y-72551349D01*
X114454708Y-72544337D01*
X114453625Y-72542487D01*
X114451413Y-72536980D01*
X114449386Y-72528668D01*
X114447538Y-72516609D01*
X114445861Y-72499863D01*
X114444345Y-72477487D01*
X114442983Y-72448540D01*
X114441767Y-72412080D01*
X114440689Y-72367167D01*
X114439740Y-72312857D01*
X114438912Y-72248210D01*
X114438197Y-72172284D01*
X114437587Y-72084138D01*
X114437542Y-72075293D01*
X114728978Y-72075293D01*
X114732860Y-72076565D01*
X114756120Y-72078591D01*
X114798474Y-72080426D01*
X114857732Y-72082027D01*
X114931707Y-72083349D01*
X115018210Y-72084348D01*
X115115052Y-72084980D01*
X115220045Y-72085200D01*
X115918251Y-72085200D01*
X117072690Y-72085200D01*
X117072056Y-72009000D01*
X117073174Y-71966960D01*
X117078904Y-71931134D01*
X117091490Y-71893572D01*
X117113168Y-71845377D01*
X117116389Y-71838697D01*
X117141788Y-71789159D01*
X117168596Y-71741169D01*
X117191517Y-71704266D01*
X117196085Y-71697634D01*
X117218116Y-71666393D01*
X117250293Y-71621454D01*
X117291057Y-71564947D01*
X117338845Y-71499004D01*
X117392098Y-71425757D01*
X117449255Y-71347336D01*
X117508755Y-71265872D01*
X117569037Y-71183498D01*
X117628540Y-71102344D01*
X117685705Y-71024542D01*
X117738970Y-70952223D01*
X117786774Y-70887518D01*
X117827557Y-70832559D01*
X117859758Y-70789476D01*
X117881816Y-70760402D01*
X117892171Y-70747467D01*
X117896644Y-70743151D01*
X117900836Y-70741112D01*
X117904243Y-70743726D01*
X117906925Y-70752786D01*
X117908941Y-70770085D01*
X117910348Y-70797414D01*
X117911205Y-70836565D01*
X117911570Y-70889333D01*
X117911503Y-70957507D01*
X117911060Y-71042882D01*
X117910302Y-71147249D01*
X117909285Y-71272400D01*
X117908908Y-71317100D01*
X117907769Y-71438195D01*
X117906572Y-71539488D01*
X117905236Y-71623062D01*
X117903677Y-71691004D01*
X117901815Y-71745399D01*
X117899566Y-71788332D01*
X117896848Y-71821889D01*
X117893579Y-71848155D01*
X117889678Y-71869216D01*
X117885061Y-71887157D01*
X117876792Y-71913570D01*
X117853183Y-71975572D01*
X117827285Y-72028373D01*
X117802135Y-72065445D01*
X117800939Y-72066875D01*
X117798768Y-72071224D01*
X117800928Y-72074826D01*
X117809244Y-72077751D01*
X117825540Y-72080069D01*
X117851641Y-72081851D01*
X117889371Y-72083167D01*
X117940556Y-72084086D01*
X118007020Y-72084678D01*
X118090587Y-72085015D01*
X118193083Y-72085165D01*
X118316332Y-72085200D01*
X118847896Y-72085200D01*
X118809123Y-72027583D01*
X118803032Y-72018693D01*
X118792576Y-72003869D01*
X118783179Y-71990222D01*
X118774783Y-71976565D01*
X118767333Y-71961711D01*
X118760773Y-71944470D01*
X118755046Y-71923655D01*
X118750095Y-71898080D01*
X118745866Y-71866555D01*
X118742301Y-71827893D01*
X118739344Y-71780907D01*
X118736940Y-71724408D01*
X118735031Y-71657209D01*
X118733562Y-71578122D01*
X118732476Y-71485960D01*
X118731718Y-71379534D01*
X118731230Y-71257657D01*
X118730958Y-71119141D01*
X118730843Y-70962799D01*
X118730831Y-70787442D01*
X118730865Y-70591882D01*
X118730889Y-70374933D01*
X118730880Y-70252313D01*
X118730843Y-70047247D01*
X118730827Y-69862916D01*
X118730888Y-69698134D01*
X118731084Y-69551716D01*
X118731470Y-69422474D01*
X118732105Y-69309222D01*
X118733044Y-69210775D01*
X118734345Y-69125944D01*
X118736064Y-69053544D01*
X118738259Y-68992389D01*
X118740985Y-68941292D01*
X118744301Y-68899067D01*
X118748262Y-68864527D01*
X118752925Y-68836486D01*
X118758347Y-68813758D01*
X118764586Y-68795156D01*
X118771697Y-68779493D01*
X118779738Y-68765584D01*
X118788766Y-68752241D01*
X118798836Y-68738279D01*
X118810007Y-68722511D01*
X118849797Y-68664667D01*
X117789914Y-68664667D01*
X117827911Y-68727766D01*
X117842593Y-68752805D01*
X117857131Y-68780386D01*
X117869227Y-68808500D01*
X117879132Y-68839351D01*
X117887094Y-68875144D01*
X117893361Y-68918083D01*
X117898182Y-68970374D01*
X117901806Y-69034219D01*
X117904481Y-69111825D01*
X117906457Y-69205394D01*
X117907982Y-69317133D01*
X117909304Y-69449245D01*
X117910213Y-69569234D01*
X117910620Y-69685863D01*
X117910367Y-69781331D01*
X117909457Y-69855356D01*
X117907893Y-69907655D01*
X117905679Y-69937949D01*
X117902820Y-69945956D01*
X117899761Y-69942658D01*
X117881606Y-69921208D01*
X117851875Y-69884689D01*
X117812239Y-69835242D01*
X117764371Y-69775007D01*
X117709943Y-69706127D01*
X117650627Y-69630743D01*
X117588095Y-69550996D01*
X117524021Y-69469028D01*
X117460075Y-69386980D01*
X117397931Y-69306994D01*
X117339261Y-69231211D01*
X117285737Y-69161773D01*
X117239030Y-69100821D01*
X117200814Y-69050496D01*
X117172761Y-69012940D01*
X117156543Y-68990295D01*
X117111235Y-68918012D01*
X117071261Y-68838263D01*
X117049730Y-68769988D01*
X117046427Y-68712644D01*
X117051716Y-68664667D01*
X115919956Y-68664917D01*
X115959467Y-68695522D01*
X115968848Y-68702889D01*
X116031783Y-68757238D01*
X116100597Y-68825059D01*
X116177196Y-68908316D01*
X116263488Y-69008978D01*
X116280652Y-69029647D01*
X116321433Y-69079209D01*
X116371188Y-69140126D01*
X116428555Y-69210698D01*
X116492169Y-69289224D01*
X116560669Y-69374004D01*
X116632690Y-69463337D01*
X116706870Y-69555522D01*
X116722117Y-69574502D01*
X116781846Y-69648860D01*
X116856253Y-69741648D01*
X116928731Y-69832188D01*
X116997914Y-69918778D01*
X117062441Y-69999718D01*
X117120947Y-70073306D01*
X117172070Y-70137844D01*
X117214447Y-70191629D01*
X117246715Y-70232962D01*
X117267510Y-70260142D01*
X117275469Y-70271468D01*
X117273711Y-70275571D01*
X117260830Y-70296134D01*
X117236485Y-70332361D01*
X117201847Y-70382624D01*
X117158086Y-70445292D01*
X117106375Y-70518736D01*
X117047884Y-70601327D01*
X116983784Y-70691436D01*
X116915246Y-70787431D01*
X116843443Y-70887685D01*
X116769544Y-70990568D01*
X116694721Y-71094450D01*
X116620145Y-71197701D01*
X116546987Y-71298692D01*
X116476419Y-71395794D01*
X116409611Y-71487377D01*
X116347735Y-71571811D01*
X116291961Y-71647467D01*
X116243462Y-71712716D01*
X116203407Y-71765928D01*
X116172969Y-71805473D01*
X116152544Y-71830826D01*
X116106499Y-71885095D01*
X116056212Y-71941575D01*
X116009415Y-71991469D01*
X115918251Y-72085200D01*
X115220045Y-72085200D01*
X115288956Y-72085149D01*
X115387207Y-72084891D01*
X115476630Y-72084437D01*
X115554933Y-72083810D01*
X115619823Y-72083035D01*
X115669011Y-72082135D01*
X115700204Y-72081134D01*
X115711111Y-72080057D01*
X115709922Y-72076837D01*
X115699776Y-72059252D01*
X115682640Y-72032958D01*
X115674140Y-72020491D01*
X115664929Y-72006422D01*
X115656833Y-71992151D01*
X115649785Y-71976279D01*
X115643717Y-71957409D01*
X115638561Y-71934141D01*
X115634251Y-71905078D01*
X115630719Y-71868821D01*
X115627897Y-71823970D01*
X115625718Y-71769128D01*
X115624114Y-71702897D01*
X115623019Y-71623877D01*
X115622365Y-71530671D01*
X115622084Y-71421879D01*
X115622109Y-71296103D01*
X115622372Y-71151945D01*
X115622806Y-70988007D01*
X115623345Y-70802889D01*
X115623879Y-70624032D01*
X115624405Y-70465174D01*
X115624950Y-70326116D01*
X115625545Y-70205465D01*
X115626219Y-70101828D01*
X115627003Y-70013811D01*
X115627926Y-69940023D01*
X115629019Y-69879069D01*
X115630312Y-69829557D01*
X115631835Y-69790093D01*
X115633619Y-69759284D01*
X115635692Y-69735738D01*
X115638086Y-69718060D01*
X115640830Y-69704859D01*
X115643956Y-69694740D01*
X115647492Y-69686311D01*
X115651391Y-69678175D01*
X115671038Y-69641344D01*
X115689825Y-69611191D01*
X115690872Y-69609708D01*
X115705202Y-69587459D01*
X115711111Y-69574502D01*
X115710104Y-69574049D01*
X115692905Y-69572603D01*
X115656256Y-69571280D01*
X115602562Y-69570116D01*
X115534230Y-69569147D01*
X115453664Y-69568411D01*
X115363270Y-69567942D01*
X115265453Y-69567778D01*
X114819795Y-69567778D01*
X114816720Y-70744645D01*
X114813645Y-71921511D01*
X114787007Y-71980422D01*
X114775085Y-72004983D01*
X114757846Y-72035234D01*
X114744674Y-72052360D01*
X114736676Y-72060391D01*
X114728978Y-72075293D01*
X114437542Y-72075293D01*
X114437074Y-71982829D01*
X114436650Y-71867417D01*
X114436306Y-71736960D01*
X114436034Y-71590516D01*
X114435827Y-71427144D01*
X114435676Y-71245901D01*
X114435572Y-71045848D01*
X114435508Y-70826041D01*
X114435476Y-70585539D01*
X114435467Y-70323402D01*
X114435467Y-68131831D01*
X114473849Y-68093449D01*
X114500955Y-68069711D01*
X114527853Y-68057911D01*
X114564160Y-68055067D01*
X114616089Y-68055067D01*
X114616089Y-68143006D01*
X114618027Y-68192902D01*
X114636799Y-68303323D01*
X114673817Y-68404787D01*
X114726969Y-68495952D01*
X114794146Y-68575473D01*
X114873238Y-68642005D01*
X114962134Y-68694206D01*
X115058725Y-68730730D01*
X115160900Y-68750234D01*
X115266550Y-68751373D01*
X115373564Y-68732805D01*
X115479832Y-68693184D01*
X115576819Y-68635316D01*
X115661893Y-68560484D01*
X115730615Y-68472415D01*
X115781518Y-68373416D01*
X115813135Y-68265793D01*
X115824000Y-68151854D01*
X115824000Y-68055067D01*
X117444353Y-68055067D01*
X117655497Y-68055080D01*
X117859620Y-68055130D01*
X118043286Y-68055230D01*
X118207591Y-68055392D01*
X118353629Y-68055629D01*
X118482494Y-68055953D01*
X118595283Y-68056375D01*
X118693088Y-68056909D01*
X118777004Y-68057567D01*
X118848127Y-68058361D01*
X118907550Y-68059304D01*
X118956368Y-68060408D01*
X118995677Y-68061684D01*
X119026569Y-68063147D01*
X119050141Y-68064807D01*
X119067486Y-68066678D01*
X119079699Y-68068772D01*
X119087875Y-68071100D01*
X119093108Y-68073676D01*
X119099104Y-68077245D01*
X119105879Y-68080778D01*
X119112078Y-68084288D01*
X119117726Y-68088718D01*
X119122847Y-68095008D01*
X119127469Y-68104101D01*
X119131615Y-68116939D01*
X119135313Y-68134462D01*
X119138587Y-68157613D01*
X119141463Y-68187334D01*
X119143967Y-68224565D01*
X119146124Y-68270249D01*
X119147960Y-68325327D01*
X119149500Y-68390741D01*
X119150770Y-68467433D01*
X119151795Y-68556344D01*
X119152601Y-68658417D01*
X119152634Y-68664667D01*
X119153214Y-68774592D01*
G36*
X119153214Y-68774592D02*
G01*
X119153659Y-68905811D01*
X119153962Y-69053016D01*
X119154148Y-69217149D01*
X119154242Y-69399152D01*
X119154271Y-69599965D01*
X119154261Y-69820532D01*
X119154236Y-70061792D01*
X119154222Y-70324689D01*
X119154222Y-70366840D01*
X119154246Y-70627468D01*
X119154285Y-70866596D01*
X119154308Y-71085160D01*
X119154287Y-71284095D01*
X119154193Y-71464335D01*
X119153995Y-71626815D01*
X119153663Y-71772470D01*
X119153169Y-71902234D01*
X119152483Y-72017043D01*
X119151576Y-72117830D01*
X119150417Y-72205530D01*
X119148978Y-72281079D01*
X119147229Y-72345411D01*
X119145140Y-72399461D01*
X119142683Y-72444163D01*
X119139827Y-72480452D01*
X119136543Y-72509263D01*
X119132802Y-72531531D01*
X119128574Y-72548190D01*
X119123829Y-72560175D01*
X119118539Y-72568421D01*
X119112673Y-72573862D01*
X119106202Y-72577434D01*
X119099097Y-72580070D01*
X119091328Y-72582706D01*
X119082866Y-72586277D01*
X119078508Y-72587945D01*
X119069995Y-72589911D01*
X119057294Y-72591711D01*
X119039485Y-72593355D01*
X119015649Y-72594847D01*
X118984866Y-72596197D01*
X118946217Y-72597411D01*
X118898782Y-72598497D01*
X118841643Y-72599461D01*
X118773879Y-72600311D01*
X118694571Y-72601053D01*
X118602799Y-72601697D01*
X118497644Y-72602247D01*
X118378187Y-72602713D01*
X118243508Y-72603100D01*
X118092688Y-72603416D01*
X117924806Y-72603669D01*
X117738945Y-72603866D01*
X117534183Y-72604013D01*
X117309602Y-72604118D01*
X117064282Y-72604189D01*
X116797304Y-72604232D01*
X116758921Y-72604237D01*
X116493522Y-72604280D01*
X116249650Y-72604325D01*
X116026383Y-72604348D01*
X115822796Y-72604324D01*
X115637967Y-72604230D01*
X115470973Y-72604043D01*
X115320890Y-72603739D01*
X115186796Y-72603294D01*
X115067766Y-72602685D01*
X114962879Y-72601889D01*
X114871210Y-72600880D01*
X114791837Y-72599637D01*
X114723837Y-72598135D01*
X114666286Y-72596351D01*
X114618262Y-72594261D01*
X114578840Y-72591842D01*
X114547099Y-72589070D01*
X114522114Y-72585921D01*
X114502964Y-72582372D01*
X114488723Y-72578398D01*
X114478471Y-72573978D01*
X114471282Y-72569086D01*
X114466235Y-72563700D01*
X114462405Y-72557796D01*
X114458871Y-72551349D01*
X114454708Y-72544337D01*
X114453625Y-72542487D01*
X114451413Y-72536980D01*
X114449386Y-72528668D01*
X114447538Y-72516609D01*
X114445861Y-72499863D01*
X114444345Y-72477487D01*
X114442983Y-72448540D01*
X114441767Y-72412080D01*
X114440689Y-72367167D01*
X114439740Y-72312857D01*
X114438912Y-72248210D01*
X114438197Y-72172284D01*
X114437587Y-72084138D01*
X114437542Y-72075293D01*
X114728978Y-72075293D01*
X114732860Y-72076565D01*
X114756120Y-72078591D01*
X114798474Y-72080426D01*
X114857732Y-72082027D01*
X114931707Y-72083349D01*
X115018210Y-72084348D01*
X115115052Y-72084980D01*
X115220045Y-72085200D01*
X115918251Y-72085200D01*
X117072690Y-72085200D01*
X117072056Y-72009000D01*
X117073174Y-71966960D01*
X117078904Y-71931134D01*
X117091490Y-71893572D01*
X117113168Y-71845377D01*
X117116389Y-71838697D01*
X117141788Y-71789159D01*
X117168596Y-71741169D01*
X117191517Y-71704266D01*
X117196085Y-71697634D01*
X117218116Y-71666393D01*
X117250293Y-71621454D01*
X117291057Y-71564947D01*
X117338845Y-71499004D01*
X117392098Y-71425757D01*
X117449255Y-71347336D01*
X117508755Y-71265872D01*
X117569037Y-71183498D01*
X117628540Y-71102344D01*
X117685705Y-71024542D01*
X117738970Y-70952223D01*
X117786774Y-70887518D01*
X117827557Y-70832559D01*
X117859758Y-70789476D01*
X117881816Y-70760402D01*
X117892171Y-70747467D01*
X117896644Y-70743151D01*
X117900836Y-70741112D01*
X117904243Y-70743726D01*
X117906925Y-70752786D01*
X117908941Y-70770085D01*
X117910348Y-70797414D01*
X117911205Y-70836565D01*
X117911570Y-70889333D01*
X117911503Y-70957507D01*
X117911060Y-71042882D01*
X117910302Y-71147249D01*
X117909285Y-71272400D01*
X117908908Y-71317100D01*
X117907769Y-71438195D01*
X117906572Y-71539488D01*
X117905236Y-71623062D01*
X117903677Y-71691004D01*
X117901815Y-71745399D01*
X117899566Y-71788332D01*
X117896848Y-71821889D01*
X117893579Y-71848155D01*
X117889678Y-71869216D01*
X117885061Y-71887157D01*
X117876792Y-71913570D01*
X117853183Y-71975572D01*
X117827285Y-72028373D01*
X117802135Y-72065445D01*
X117800939Y-72066875D01*
X117798768Y-72071224D01*
X117800928Y-72074826D01*
X117809244Y-72077751D01*
X117825540Y-72080069D01*
X117851641Y-72081851D01*
X117889371Y-72083167D01*
X117940556Y-72084086D01*
X118007020Y-72084678D01*
X118090587Y-72085015D01*
X118193083Y-72085165D01*
X118316332Y-72085200D01*
X118847896Y-72085200D01*
X118809123Y-72027583D01*
X118803032Y-72018693D01*
X118792576Y-72003869D01*
X118783179Y-71990222D01*
X118774783Y-71976565D01*
X118767333Y-71961711D01*
X118760773Y-71944470D01*
X118755046Y-71923655D01*
X118750095Y-71898080D01*
X118745866Y-71866555D01*
X118742301Y-71827893D01*
X118739344Y-71780907D01*
X118736940Y-71724408D01*
X118735031Y-71657209D01*
X118733562Y-71578122D01*
X118732476Y-71485960D01*
X118731718Y-71379534D01*
X118731230Y-71257657D01*
X118730958Y-71119141D01*
X118730843Y-70962799D01*
X118730831Y-70787442D01*
X118730865Y-70591882D01*
X118730889Y-70374933D01*
X118730880Y-70252313D01*
X118730843Y-70047247D01*
X118730827Y-69862916D01*
X118730888Y-69698134D01*
X118731084Y-69551716D01*
X118731470Y-69422474D01*
X118732105Y-69309222D01*
X118733044Y-69210775D01*
X118734345Y-69125944D01*
X118736064Y-69053544D01*
X118738259Y-68992389D01*
X118740985Y-68941292D01*
X118744301Y-68899067D01*
X118748262Y-68864527D01*
X118752925Y-68836486D01*
X118758347Y-68813758D01*
X118764586Y-68795156D01*
X118771697Y-68779493D01*
X118779738Y-68765584D01*
X118788766Y-68752241D01*
X118798836Y-68738279D01*
X118810007Y-68722511D01*
X118849797Y-68664667D01*
X117789914Y-68664667D01*
X117827911Y-68727766D01*
X117842593Y-68752805D01*
X117857131Y-68780386D01*
X117869227Y-68808500D01*
X117879132Y-68839351D01*
X117887094Y-68875144D01*
X117893361Y-68918083D01*
X117898182Y-68970374D01*
X117901806Y-69034219D01*
X117904481Y-69111825D01*
X117906457Y-69205394D01*
X117907982Y-69317133D01*
X117909304Y-69449245D01*
X117910213Y-69569234D01*
X117910620Y-69685863D01*
X117910367Y-69781331D01*
X117909457Y-69855356D01*
X117907893Y-69907655D01*
X117905679Y-69937949D01*
X117902820Y-69945956D01*
X117899761Y-69942658D01*
X117881606Y-69921208D01*
X117851875Y-69884689D01*
X117812239Y-69835242D01*
X117764371Y-69775007D01*
X117709943Y-69706127D01*
X117650627Y-69630743D01*
X117588095Y-69550996D01*
X117524021Y-69469028D01*
X117460075Y-69386980D01*
X117397931Y-69306994D01*
X117339261Y-69231211D01*
X117285737Y-69161773D01*
X117239030Y-69100821D01*
X117200814Y-69050496D01*
X117172761Y-69012940D01*
X117156543Y-68990295D01*
X117111235Y-68918012D01*
X117071261Y-68838263D01*
X117049730Y-68769988D01*
X117046427Y-68712644D01*
X117051716Y-68664667D01*
X115919956Y-68664917D01*
X115959467Y-68695522D01*
X115968848Y-68702889D01*
X116031783Y-68757238D01*
X116100597Y-68825059D01*
X116177196Y-68908316D01*
X116263488Y-69008978D01*
X116280652Y-69029647D01*
X116321433Y-69079209D01*
X116371188Y-69140126D01*
X116428555Y-69210698D01*
X116492169Y-69289224D01*
X116560669Y-69374004D01*
X116632690Y-69463337D01*
X116706870Y-69555522D01*
X116722117Y-69574502D01*
X116781846Y-69648860D01*
X116856253Y-69741648D01*
X116928731Y-69832188D01*
X116997914Y-69918778D01*
X117062441Y-69999718D01*
X117120947Y-70073306D01*
X117172070Y-70137844D01*
X117214447Y-70191629D01*
X117246715Y-70232962D01*
X117267510Y-70260142D01*
X117275469Y-70271468D01*
X117273711Y-70275571D01*
X117260830Y-70296134D01*
X117236485Y-70332361D01*
X117201847Y-70382624D01*
X117158086Y-70445292D01*
X117106375Y-70518736D01*
X117047884Y-70601327D01*
X116983784Y-70691436D01*
X116915246Y-70787431D01*
X116843443Y-70887685D01*
X116769544Y-70990568D01*
X116694721Y-71094450D01*
X116620145Y-71197701D01*
X116546987Y-71298692D01*
X116476419Y-71395794D01*
X116409611Y-71487377D01*
X116347735Y-71571811D01*
X116291961Y-71647467D01*
X116243462Y-71712716D01*
X116203407Y-71765928D01*
X116172969Y-71805473D01*
X116152544Y-71830826D01*
X116106499Y-71885095D01*
X116056212Y-71941575D01*
X116009415Y-71991469D01*
X115918251Y-72085200D01*
X115220045Y-72085200D01*
X115288956Y-72085149D01*
X115387207Y-72084891D01*
X115476630Y-72084437D01*
X115554933Y-72083810D01*
X115619823Y-72083035D01*
X115669011Y-72082135D01*
X115700204Y-72081134D01*
X115711111Y-72080057D01*
X115709922Y-72076837D01*
X115699776Y-72059252D01*
X115682640Y-72032958D01*
X115674140Y-72020491D01*
X115664929Y-72006422D01*
X115656833Y-71992151D01*
X115649785Y-71976279D01*
X115643717Y-71957409D01*
X115638561Y-71934141D01*
X115634251Y-71905078D01*
X115630719Y-71868821D01*
X115627897Y-71823970D01*
X115625718Y-71769128D01*
X115624114Y-71702897D01*
X115623019Y-71623877D01*
X115622365Y-71530671D01*
X115622084Y-71421879D01*
X115622109Y-71296103D01*
X115622372Y-71151945D01*
X115622806Y-70988007D01*
X115623345Y-70802889D01*
X115623879Y-70624032D01*
X115624405Y-70465174D01*
X115624950Y-70326116D01*
X115625545Y-70205465D01*
X115626219Y-70101828D01*
X115627003Y-70013811D01*
X115627926Y-69940023D01*
X115629019Y-69879069D01*
X115630312Y-69829557D01*
X115631835Y-69790093D01*
X115633619Y-69759284D01*
X115635692Y-69735738D01*
X115638086Y-69718060D01*
X115640830Y-69704859D01*
X115643956Y-69694740D01*
X115647492Y-69686311D01*
X115651391Y-69678175D01*
X115671038Y-69641344D01*
X115689825Y-69611191D01*
X115690872Y-69609708D01*
X115705202Y-69587459D01*
X115711111Y-69574502D01*
X115710104Y-69574049D01*
X115692905Y-69572603D01*
X115656256Y-69571280D01*
X115602562Y-69570116D01*
X115534230Y-69569147D01*
X115453664Y-69568411D01*
X115363270Y-69567942D01*
X115265453Y-69567778D01*
X114819795Y-69567778D01*
X114816720Y-70744645D01*
X114813645Y-71921511D01*
X114787007Y-71980422D01*
X114775085Y-72004983D01*
X114757846Y-72035234D01*
X114744674Y-72052360D01*
X114736676Y-72060391D01*
X114728978Y-72075293D01*
X114437542Y-72075293D01*
X114437074Y-71982829D01*
X114436650Y-71867417D01*
X114436306Y-71736960D01*
X114436034Y-71590516D01*
X114435827Y-71427144D01*
X114435676Y-71245901D01*
X114435572Y-71045848D01*
X114435508Y-70826041D01*
X114435476Y-70585539D01*
X114435467Y-70323402D01*
X114435467Y-68131831D01*
X114473849Y-68093449D01*
X114500955Y-68069711D01*
X114527853Y-68057911D01*
X114564160Y-68055067D01*
X114616089Y-68055067D01*
X114616089Y-68143006D01*
X114618027Y-68192902D01*
X114636799Y-68303323D01*
X114673817Y-68404787D01*
X114726969Y-68495952D01*
X114794146Y-68575473D01*
X114873238Y-68642005D01*
X114962134Y-68694206D01*
X115058725Y-68730730D01*
X115160900Y-68750234D01*
X115266550Y-68751373D01*
X115373564Y-68732805D01*
X115479832Y-68693184D01*
X115576819Y-68635316D01*
X115661893Y-68560484D01*
X115730615Y-68472415D01*
X115781518Y-68373416D01*
X115813135Y-68265793D01*
X115824000Y-68151854D01*
X115824000Y-68055067D01*
X117444353Y-68055067D01*
X117655497Y-68055080D01*
X117859620Y-68055130D01*
X118043286Y-68055230D01*
X118207591Y-68055392D01*
X118353629Y-68055629D01*
X118482494Y-68055953D01*
X118595283Y-68056375D01*
X118693088Y-68056909D01*
X118777004Y-68057567D01*
X118848127Y-68058361D01*
X118907550Y-68059304D01*
X118956368Y-68060408D01*
X118995677Y-68061684D01*
X119026569Y-68063147D01*
X119050141Y-68064807D01*
X119067486Y-68066678D01*
X119079699Y-68068772D01*
X119087875Y-68071100D01*
X119093108Y-68073676D01*
X119099104Y-68077245D01*
X119105879Y-68080778D01*
X119112078Y-68084288D01*
X119117726Y-68088718D01*
X119122847Y-68095008D01*
X119127469Y-68104101D01*
X119131615Y-68116939D01*
X119135313Y-68134462D01*
X119138587Y-68157613D01*
X119141463Y-68187334D01*
X119143967Y-68224565D01*
X119146124Y-68270249D01*
X119147960Y-68325327D01*
X119149500Y-68390741D01*
X119150770Y-68467433D01*
X119151795Y-68556344D01*
X119152601Y-68658417D01*
X119152634Y-68664667D01*
X119153214Y-68774592D01*
G37*
%TD*%
M02*
