%TF.GenerationSoftware,KiCad,Pcbnew,8.0.5*%
%TF.CreationDate,2024-09-30T08:41:21+06:00*%
%TF.ProjectId,MCU Datalogger,4d435520-4461-4746-916c-6f676765722e,rev?*%
%TF.SameCoordinates,Original*%
%TF.FileFunction,Legend,Top*%
%TF.FilePolarity,Positive*%
%FSLAX46Y46*%
G04 Gerber Fmt 4.6, Leading zero omitted, Abs format (unit mm)*
G04 Created by KiCad (PCBNEW 8.0.5) date 2024-09-30 08:41:21*
%MOMM*%
%LPD*%
G01*
G04 APERTURE LIST*
%ADD10C,0.100000*%
%ADD11C,0.200000*%
%ADD12C,0.075000*%
%ADD13C,0.120000*%
%ADD14C,0.127000*%
G04 APERTURE END LIST*
D10*
X115124608Y-80358009D02*
X115291274Y-80858009D01*
X115291274Y-80858009D02*
X115457941Y-80358009D01*
X115910321Y-80810390D02*
X115886512Y-80834200D01*
X115886512Y-80834200D02*
X115815083Y-80858009D01*
X115815083Y-80858009D02*
X115767464Y-80858009D01*
X115767464Y-80858009D02*
X115696036Y-80834200D01*
X115696036Y-80834200D02*
X115648417Y-80786580D01*
X115648417Y-80786580D02*
X115624607Y-80738961D01*
X115624607Y-80738961D02*
X115600798Y-80643723D01*
X115600798Y-80643723D02*
X115600798Y-80572295D01*
X115600798Y-80572295D02*
X115624607Y-80477057D01*
X115624607Y-80477057D02*
X115648417Y-80429438D01*
X115648417Y-80429438D02*
X115696036Y-80381819D01*
X115696036Y-80381819D02*
X115767464Y-80358009D01*
X115767464Y-80358009D02*
X115815083Y-80358009D01*
X115815083Y-80358009D02*
X115886512Y-80381819D01*
X115886512Y-80381819D02*
X115910321Y-80405628D01*
X116410321Y-80810390D02*
X116386512Y-80834200D01*
X116386512Y-80834200D02*
X116315083Y-80858009D01*
X116315083Y-80858009D02*
X116267464Y-80858009D01*
X116267464Y-80858009D02*
X116196036Y-80834200D01*
X116196036Y-80834200D02*
X116148417Y-80786580D01*
X116148417Y-80786580D02*
X116124607Y-80738961D01*
X116124607Y-80738961D02*
X116100798Y-80643723D01*
X116100798Y-80643723D02*
X116100798Y-80572295D01*
X116100798Y-80572295D02*
X116124607Y-80477057D01*
X116124607Y-80477057D02*
X116148417Y-80429438D01*
X116148417Y-80429438D02*
X116196036Y-80381819D01*
X116196036Y-80381819D02*
X116267464Y-80358009D01*
X116267464Y-80358009D02*
X116315083Y-80358009D01*
X116315083Y-80358009D02*
X116386512Y-80381819D01*
X116386512Y-80381819D02*
X116410321Y-80405628D01*
X113070341Y-80432619D02*
X113022722Y-80408809D01*
X113022722Y-80408809D02*
X112951293Y-80408809D01*
X112951293Y-80408809D02*
X112879865Y-80432619D01*
X112879865Y-80432619D02*
X112832246Y-80480238D01*
X112832246Y-80480238D02*
X112808436Y-80527857D01*
X112808436Y-80527857D02*
X112784627Y-80623095D01*
X112784627Y-80623095D02*
X112784627Y-80694523D01*
X112784627Y-80694523D02*
X112808436Y-80789761D01*
X112808436Y-80789761D02*
X112832246Y-80837380D01*
X112832246Y-80837380D02*
X112879865Y-80885000D01*
X112879865Y-80885000D02*
X112951293Y-80908809D01*
X112951293Y-80908809D02*
X112998912Y-80908809D01*
X112998912Y-80908809D02*
X113070341Y-80885000D01*
X113070341Y-80885000D02*
X113094150Y-80861190D01*
X113094150Y-80861190D02*
X113094150Y-80694523D01*
X113094150Y-80694523D02*
X112998912Y-80694523D01*
X113308436Y-80908809D02*
X113308436Y-80408809D01*
X113308436Y-80408809D02*
X113594150Y-80908809D01*
X113594150Y-80908809D02*
X113594150Y-80408809D01*
X113832246Y-80908809D02*
X113832246Y-80408809D01*
X113832246Y-80408809D02*
X113951294Y-80408809D01*
X113951294Y-80408809D02*
X114022722Y-80432619D01*
X114022722Y-80432619D02*
X114070341Y-80480238D01*
X114070341Y-80480238D02*
X114094151Y-80527857D01*
X114094151Y-80527857D02*
X114117960Y-80623095D01*
X114117960Y-80623095D02*
X114117960Y-80694523D01*
X114117960Y-80694523D02*
X114094151Y-80789761D01*
X114094151Y-80789761D02*
X114070341Y-80837380D01*
X114070341Y-80837380D02*
X114022722Y-80885000D01*
X114022722Y-80885000D02*
X113951294Y-80908809D01*
X113951294Y-80908809D02*
X113832246Y-80908809D01*
X110170017Y-80408809D02*
X110503350Y-80408809D01*
X110503350Y-80408809D02*
X110289065Y-80908809D01*
X107942722Y-80256409D02*
X107847484Y-80256409D01*
X107847484Y-80256409D02*
X107799865Y-80280219D01*
X107799865Y-80280219D02*
X107776055Y-80304028D01*
X107776055Y-80304028D02*
X107728436Y-80375457D01*
X107728436Y-80375457D02*
X107704627Y-80470695D01*
X107704627Y-80470695D02*
X107704627Y-80661171D01*
X107704627Y-80661171D02*
X107728436Y-80708790D01*
X107728436Y-80708790D02*
X107752246Y-80732600D01*
X107752246Y-80732600D02*
X107799865Y-80756409D01*
X107799865Y-80756409D02*
X107895103Y-80756409D01*
X107895103Y-80756409D02*
X107942722Y-80732600D01*
X107942722Y-80732600D02*
X107966531Y-80708790D01*
X107966531Y-80708790D02*
X107990341Y-80661171D01*
X107990341Y-80661171D02*
X107990341Y-80542123D01*
X107990341Y-80542123D02*
X107966531Y-80494504D01*
X107966531Y-80494504D02*
X107942722Y-80470695D01*
X107942722Y-80470695D02*
X107895103Y-80446885D01*
X107895103Y-80446885D02*
X107799865Y-80446885D01*
X107799865Y-80446885D02*
X107752246Y-80470695D01*
X107752246Y-80470695D02*
X107728436Y-80494504D01*
X107728436Y-80494504D02*
X107704627Y-80542123D01*
X105426531Y-80256409D02*
X105188436Y-80256409D01*
X105188436Y-80256409D02*
X105164627Y-80494504D01*
X105164627Y-80494504D02*
X105188436Y-80470695D01*
X105188436Y-80470695D02*
X105236055Y-80446885D01*
X105236055Y-80446885D02*
X105355103Y-80446885D01*
X105355103Y-80446885D02*
X105402722Y-80470695D01*
X105402722Y-80470695D02*
X105426531Y-80494504D01*
X105426531Y-80494504D02*
X105450341Y-80542123D01*
X105450341Y-80542123D02*
X105450341Y-80661171D01*
X105450341Y-80661171D02*
X105426531Y-80708790D01*
X105426531Y-80708790D02*
X105402722Y-80732600D01*
X105402722Y-80732600D02*
X105355103Y-80756409D01*
X105355103Y-80756409D02*
X105236055Y-80756409D01*
X105236055Y-80756409D02*
X105188436Y-80732600D01*
X105188436Y-80732600D02*
X105164627Y-80708790D01*
X102862722Y-80423076D02*
X102862722Y-80756409D01*
X102743674Y-80232600D02*
X102624627Y-80589742D01*
X102624627Y-80589742D02*
X102934150Y-80589742D01*
X100010017Y-80256409D02*
X100319541Y-80256409D01*
X100319541Y-80256409D02*
X100152874Y-80446885D01*
X100152874Y-80446885D02*
X100224303Y-80446885D01*
X100224303Y-80446885D02*
X100271922Y-80470695D01*
X100271922Y-80470695D02*
X100295731Y-80494504D01*
X100295731Y-80494504D02*
X100319541Y-80542123D01*
X100319541Y-80542123D02*
X100319541Y-80661171D01*
X100319541Y-80661171D02*
X100295731Y-80708790D01*
X100295731Y-80708790D02*
X100271922Y-80732600D01*
X100271922Y-80732600D02*
X100224303Y-80756409D01*
X100224303Y-80756409D02*
X100081446Y-80756409D01*
X100081446Y-80756409D02*
X100033827Y-80732600D01*
X100033827Y-80732600D02*
X100010017Y-80708790D01*
X97443027Y-80354828D02*
X97466836Y-80331019D01*
X97466836Y-80331019D02*
X97514455Y-80307209D01*
X97514455Y-80307209D02*
X97633503Y-80307209D01*
X97633503Y-80307209D02*
X97681122Y-80331019D01*
X97681122Y-80331019D02*
X97704931Y-80354828D01*
X97704931Y-80354828D02*
X97728741Y-80402447D01*
X97728741Y-80402447D02*
X97728741Y-80450066D01*
X97728741Y-80450066D02*
X97704931Y-80521495D01*
X97704931Y-80521495D02*
X97419217Y-80807209D01*
X97419217Y-80807209D02*
X97728741Y-80807209D01*
X94934741Y-80858009D02*
X94649027Y-80858009D01*
X94791884Y-80858009D02*
X94791884Y-80358009D01*
X94791884Y-80358009D02*
X94744265Y-80429438D01*
X94744265Y-80429438D02*
X94696646Y-80477057D01*
X94696646Y-80477057D02*
X94649027Y-80500866D01*
X94124809Y-66028191D02*
X94624809Y-65861525D01*
X94624809Y-65861525D02*
X94124809Y-65694858D01*
X94577190Y-65242478D02*
X94601000Y-65266287D01*
X94601000Y-65266287D02*
X94624809Y-65337716D01*
X94624809Y-65337716D02*
X94624809Y-65385335D01*
X94624809Y-65385335D02*
X94601000Y-65456763D01*
X94601000Y-65456763D02*
X94553380Y-65504382D01*
X94553380Y-65504382D02*
X94505761Y-65528192D01*
X94505761Y-65528192D02*
X94410523Y-65552001D01*
X94410523Y-65552001D02*
X94339095Y-65552001D01*
X94339095Y-65552001D02*
X94243857Y-65528192D01*
X94243857Y-65528192D02*
X94196238Y-65504382D01*
X94196238Y-65504382D02*
X94148619Y-65456763D01*
X94148619Y-65456763D02*
X94124809Y-65385335D01*
X94124809Y-65385335D02*
X94124809Y-65337716D01*
X94124809Y-65337716D02*
X94148619Y-65266287D01*
X94148619Y-65266287D02*
X94172428Y-65242478D01*
X94577190Y-64742478D02*
X94601000Y-64766287D01*
X94601000Y-64766287D02*
X94624809Y-64837716D01*
X94624809Y-64837716D02*
X94624809Y-64885335D01*
X94624809Y-64885335D02*
X94601000Y-64956763D01*
X94601000Y-64956763D02*
X94553380Y-65004382D01*
X94553380Y-65004382D02*
X94505761Y-65028192D01*
X94505761Y-65028192D02*
X94410523Y-65052001D01*
X94410523Y-65052001D02*
X94339095Y-65052001D01*
X94339095Y-65052001D02*
X94243857Y-65028192D01*
X94243857Y-65028192D02*
X94196238Y-65004382D01*
X94196238Y-65004382D02*
X94148619Y-64956763D01*
X94148619Y-64956763D02*
X94124809Y-64885335D01*
X94124809Y-64885335D02*
X94124809Y-64837716D01*
X94124809Y-64837716D02*
X94148619Y-64766287D01*
X94148619Y-64766287D02*
X94172428Y-64742478D01*
X94148619Y-68742858D02*
X94124809Y-68790477D01*
X94124809Y-68790477D02*
X94124809Y-68861906D01*
X94124809Y-68861906D02*
X94148619Y-68933334D01*
X94148619Y-68933334D02*
X94196238Y-68980953D01*
X94196238Y-68980953D02*
X94243857Y-69004763D01*
X94243857Y-69004763D02*
X94339095Y-69028572D01*
X94339095Y-69028572D02*
X94410523Y-69028572D01*
X94410523Y-69028572D02*
X94505761Y-69004763D01*
X94505761Y-69004763D02*
X94553380Y-68980953D01*
X94553380Y-68980953D02*
X94601000Y-68933334D01*
X94601000Y-68933334D02*
X94624809Y-68861906D01*
X94624809Y-68861906D02*
X94624809Y-68814287D01*
X94624809Y-68814287D02*
X94601000Y-68742858D01*
X94601000Y-68742858D02*
X94577190Y-68719049D01*
X94577190Y-68719049D02*
X94410523Y-68719049D01*
X94410523Y-68719049D02*
X94410523Y-68814287D01*
X94624809Y-68504763D02*
X94124809Y-68504763D01*
X94124809Y-68504763D02*
X94624809Y-68219049D01*
X94624809Y-68219049D02*
X94124809Y-68219049D01*
X94624809Y-67980953D02*
X94124809Y-67980953D01*
X94124809Y-67980953D02*
X94124809Y-67861905D01*
X94124809Y-67861905D02*
X94148619Y-67790477D01*
X94148619Y-67790477D02*
X94196238Y-67742858D01*
X94196238Y-67742858D02*
X94243857Y-67719048D01*
X94243857Y-67719048D02*
X94339095Y-67695239D01*
X94339095Y-67695239D02*
X94410523Y-67695239D01*
X94410523Y-67695239D02*
X94505761Y-67719048D01*
X94505761Y-67719048D02*
X94553380Y-67742858D01*
X94553380Y-67742858D02*
X94601000Y-67790477D01*
X94601000Y-67790477D02*
X94624809Y-67861905D01*
X94624809Y-67861905D02*
X94624809Y-67980953D01*
X121749236Y-61300009D02*
X121749236Y-60800009D01*
X122273045Y-61252390D02*
X122249236Y-61276200D01*
X122249236Y-61276200D02*
X122177807Y-61300009D01*
X122177807Y-61300009D02*
X122130188Y-61300009D01*
X122130188Y-61300009D02*
X122058760Y-61276200D01*
X122058760Y-61276200D02*
X122011141Y-61228580D01*
X122011141Y-61228580D02*
X121987331Y-61180961D01*
X121987331Y-61180961D02*
X121963522Y-61085723D01*
X121963522Y-61085723D02*
X121963522Y-61014295D01*
X121963522Y-61014295D02*
X121987331Y-60919057D01*
X121987331Y-60919057D02*
X122011141Y-60871438D01*
X122011141Y-60871438D02*
X122058760Y-60823819D01*
X122058760Y-60823819D02*
X122130188Y-60800009D01*
X122130188Y-60800009D02*
X122177807Y-60800009D01*
X122177807Y-60800009D02*
X122249236Y-60823819D01*
X122249236Y-60823819D02*
X122273045Y-60847628D01*
X122463522Y-61276200D02*
X122534950Y-61300009D01*
X122534950Y-61300009D02*
X122653998Y-61300009D01*
X122653998Y-61300009D02*
X122701617Y-61276200D01*
X122701617Y-61276200D02*
X122725426Y-61252390D01*
X122725426Y-61252390D02*
X122749236Y-61204771D01*
X122749236Y-61204771D02*
X122749236Y-61157152D01*
X122749236Y-61157152D02*
X122725426Y-61109533D01*
X122725426Y-61109533D02*
X122701617Y-61085723D01*
X122701617Y-61085723D02*
X122653998Y-61061914D01*
X122653998Y-61061914D02*
X122558760Y-61038104D01*
X122558760Y-61038104D02*
X122511141Y-61014295D01*
X122511141Y-61014295D02*
X122487331Y-60990485D01*
X122487331Y-60990485D02*
X122463522Y-60942866D01*
X122463522Y-60942866D02*
X122463522Y-60895247D01*
X122463522Y-60895247D02*
X122487331Y-60847628D01*
X122487331Y-60847628D02*
X122511141Y-60823819D01*
X122511141Y-60823819D02*
X122558760Y-60800009D01*
X122558760Y-60800009D02*
X122677807Y-60800009D01*
X122677807Y-60800009D02*
X122749236Y-60823819D01*
X122963521Y-61300009D02*
X122963521Y-60800009D01*
X122963521Y-60800009D02*
X123153997Y-60800009D01*
X123153997Y-60800009D02*
X123201616Y-60823819D01*
X123201616Y-60823819D02*
X123225426Y-60847628D01*
X123225426Y-60847628D02*
X123249235Y-60895247D01*
X123249235Y-60895247D02*
X123249235Y-60966676D01*
X123249235Y-60966676D02*
X123225426Y-61014295D01*
X123225426Y-61014295D02*
X123201616Y-61038104D01*
X123201616Y-61038104D02*
X123153997Y-61061914D01*
X123153997Y-61061914D02*
X122963521Y-61061914D01*
X121666000Y-61620400D02*
X127406400Y-61620400D01*
X127406400Y-64414400D01*
X121666000Y-64414400D01*
X121666000Y-61620400D01*
X122054036Y-62484065D02*
X122054036Y-61984065D01*
X122054036Y-61984065D02*
X122220703Y-62341208D01*
X122220703Y-62341208D02*
X122387369Y-61984065D01*
X122387369Y-61984065D02*
X122387369Y-62484065D01*
X122720703Y-61984065D02*
X122815941Y-61984065D01*
X122815941Y-61984065D02*
X122863560Y-62007875D01*
X122863560Y-62007875D02*
X122911179Y-62055494D01*
X122911179Y-62055494D02*
X122934989Y-62150732D01*
X122934989Y-62150732D02*
X122934989Y-62317398D01*
X122934989Y-62317398D02*
X122911179Y-62412636D01*
X122911179Y-62412636D02*
X122863560Y-62460256D01*
X122863560Y-62460256D02*
X122815941Y-62484065D01*
X122815941Y-62484065D02*
X122720703Y-62484065D01*
X122720703Y-62484065D02*
X122673084Y-62460256D01*
X122673084Y-62460256D02*
X122625465Y-62412636D01*
X122625465Y-62412636D02*
X122601656Y-62317398D01*
X122601656Y-62317398D02*
X122601656Y-62150732D01*
X122601656Y-62150732D02*
X122625465Y-62055494D01*
X122625465Y-62055494D02*
X122673084Y-62007875D01*
X122673084Y-62007875D02*
X122720703Y-61984065D01*
X123125466Y-62460256D02*
X123196894Y-62484065D01*
X123196894Y-62484065D02*
X123315942Y-62484065D01*
X123315942Y-62484065D02*
X123363561Y-62460256D01*
X123363561Y-62460256D02*
X123387370Y-62436446D01*
X123387370Y-62436446D02*
X123411180Y-62388827D01*
X123411180Y-62388827D02*
X123411180Y-62341208D01*
X123411180Y-62341208D02*
X123387370Y-62293589D01*
X123387370Y-62293589D02*
X123363561Y-62269779D01*
X123363561Y-62269779D02*
X123315942Y-62245970D01*
X123315942Y-62245970D02*
X123220704Y-62222160D01*
X123220704Y-62222160D02*
X123173085Y-62198351D01*
X123173085Y-62198351D02*
X123149275Y-62174541D01*
X123149275Y-62174541D02*
X123125466Y-62126922D01*
X123125466Y-62126922D02*
X123125466Y-62079303D01*
X123125466Y-62079303D02*
X123149275Y-62031684D01*
X123149275Y-62031684D02*
X123173085Y-62007875D01*
X123173085Y-62007875D02*
X123220704Y-61984065D01*
X123220704Y-61984065D02*
X123339751Y-61984065D01*
X123339751Y-61984065D02*
X123411180Y-62007875D01*
X123625465Y-62484065D02*
X123625465Y-61984065D01*
X124744512Y-62650732D02*
X124744512Y-61936446D01*
X125744511Y-62007875D02*
X125696892Y-61984065D01*
X125696892Y-61984065D02*
X125625463Y-61984065D01*
X125625463Y-61984065D02*
X125554035Y-62007875D01*
X125554035Y-62007875D02*
X125506416Y-62055494D01*
X125506416Y-62055494D02*
X125482606Y-62103113D01*
X125482606Y-62103113D02*
X125458797Y-62198351D01*
X125458797Y-62198351D02*
X125458797Y-62269779D01*
X125458797Y-62269779D02*
X125482606Y-62365017D01*
X125482606Y-62365017D02*
X125506416Y-62412636D01*
X125506416Y-62412636D02*
X125554035Y-62460256D01*
X125554035Y-62460256D02*
X125625463Y-62484065D01*
X125625463Y-62484065D02*
X125673082Y-62484065D01*
X125673082Y-62484065D02*
X125744511Y-62460256D01*
X125744511Y-62460256D02*
X125768320Y-62436446D01*
X125768320Y-62436446D02*
X125768320Y-62269779D01*
X125768320Y-62269779D02*
X125673082Y-62269779D01*
X125982606Y-62484065D02*
X125982606Y-61984065D01*
X125982606Y-61984065D02*
X126268320Y-62484065D01*
X126268320Y-62484065D02*
X126268320Y-61984065D01*
X126506416Y-62484065D02*
X126506416Y-61984065D01*
X126506416Y-61984065D02*
X126625464Y-61984065D01*
X126625464Y-61984065D02*
X126696892Y-62007875D01*
X126696892Y-62007875D02*
X126744511Y-62055494D01*
X126744511Y-62055494D02*
X126768321Y-62103113D01*
X126768321Y-62103113D02*
X126792130Y-62198351D01*
X126792130Y-62198351D02*
X126792130Y-62269779D01*
X126792130Y-62269779D02*
X126768321Y-62365017D01*
X126768321Y-62365017D02*
X126744511Y-62412636D01*
X126744511Y-62412636D02*
X126696892Y-62460256D01*
X126696892Y-62460256D02*
X126625464Y-62484065D01*
X126625464Y-62484065D02*
X126506416Y-62484065D01*
X122030227Y-63265228D02*
X122101655Y-63289037D01*
X122101655Y-63289037D02*
X122220703Y-63289037D01*
X122220703Y-63289037D02*
X122268322Y-63265228D01*
X122268322Y-63265228D02*
X122292131Y-63241418D01*
X122292131Y-63241418D02*
X122315941Y-63193799D01*
X122315941Y-63193799D02*
X122315941Y-63146180D01*
X122315941Y-63146180D02*
X122292131Y-63098561D01*
X122292131Y-63098561D02*
X122268322Y-63074751D01*
X122268322Y-63074751D02*
X122220703Y-63050942D01*
X122220703Y-63050942D02*
X122125465Y-63027132D01*
X122125465Y-63027132D02*
X122077846Y-63003323D01*
X122077846Y-63003323D02*
X122054036Y-62979513D01*
X122054036Y-62979513D02*
X122030227Y-62931894D01*
X122030227Y-62931894D02*
X122030227Y-62884275D01*
X122030227Y-62884275D02*
X122054036Y-62836656D01*
X122054036Y-62836656D02*
X122077846Y-62812847D01*
X122077846Y-62812847D02*
X122125465Y-62789037D01*
X122125465Y-62789037D02*
X122244512Y-62789037D01*
X122244512Y-62789037D02*
X122315941Y-62812847D01*
X122815940Y-63241418D02*
X122792131Y-63265228D01*
X122792131Y-63265228D02*
X122720702Y-63289037D01*
X122720702Y-63289037D02*
X122673083Y-63289037D01*
X122673083Y-63289037D02*
X122601655Y-63265228D01*
X122601655Y-63265228D02*
X122554036Y-63217608D01*
X122554036Y-63217608D02*
X122530226Y-63169989D01*
X122530226Y-63169989D02*
X122506417Y-63074751D01*
X122506417Y-63074751D02*
X122506417Y-63003323D01*
X122506417Y-63003323D02*
X122530226Y-62908085D01*
X122530226Y-62908085D02*
X122554036Y-62860466D01*
X122554036Y-62860466D02*
X122601655Y-62812847D01*
X122601655Y-62812847D02*
X122673083Y-62789037D01*
X122673083Y-62789037D02*
X122720702Y-62789037D01*
X122720702Y-62789037D02*
X122792131Y-62812847D01*
X122792131Y-62812847D02*
X122815940Y-62836656D01*
X123030226Y-63289037D02*
X123030226Y-62789037D01*
X123315940Y-63289037D02*
X123101655Y-63003323D01*
X123315940Y-62789037D02*
X123030226Y-63074751D01*
X124815940Y-63455704D02*
X124815940Y-62741418D01*
X125554034Y-63289037D02*
X125554034Y-62789037D01*
X125554034Y-62789037D02*
X125720701Y-63146180D01*
X125720701Y-63146180D02*
X125887367Y-62789037D01*
X125887367Y-62789037D02*
X125887367Y-63289037D01*
X126125463Y-63289037D02*
X126125463Y-62789037D01*
X126339749Y-63265228D02*
X126411177Y-63289037D01*
X126411177Y-63289037D02*
X126530225Y-63289037D01*
X126530225Y-63289037D02*
X126577844Y-63265228D01*
X126577844Y-63265228D02*
X126601653Y-63241418D01*
X126601653Y-63241418D02*
X126625463Y-63193799D01*
X126625463Y-63193799D02*
X126625463Y-63146180D01*
X126625463Y-63146180D02*
X126601653Y-63098561D01*
X126601653Y-63098561D02*
X126577844Y-63074751D01*
X126577844Y-63074751D02*
X126530225Y-63050942D01*
X126530225Y-63050942D02*
X126434987Y-63027132D01*
X126434987Y-63027132D02*
X126387368Y-63003323D01*
X126387368Y-63003323D02*
X126363558Y-62979513D01*
X126363558Y-62979513D02*
X126339749Y-62931894D01*
X126339749Y-62931894D02*
X126339749Y-62884275D01*
X126339749Y-62884275D02*
X126363558Y-62836656D01*
X126363558Y-62836656D02*
X126387368Y-62812847D01*
X126387368Y-62812847D02*
X126434987Y-62789037D01*
X126434987Y-62789037D02*
X126554034Y-62789037D01*
X126554034Y-62789037D02*
X126625463Y-62812847D01*
X126934986Y-62789037D02*
X127030224Y-62789037D01*
X127030224Y-62789037D02*
X127077843Y-62812847D01*
X127077843Y-62812847D02*
X127125462Y-62860466D01*
X127125462Y-62860466D02*
X127149272Y-62955704D01*
X127149272Y-62955704D02*
X127149272Y-63122370D01*
X127149272Y-63122370D02*
X127125462Y-63217608D01*
X127125462Y-63217608D02*
X127077843Y-63265228D01*
X127077843Y-63265228D02*
X127030224Y-63289037D01*
X127030224Y-63289037D02*
X126934986Y-63289037D01*
X126934986Y-63289037D02*
X126887367Y-63265228D01*
X126887367Y-63265228D02*
X126839748Y-63217608D01*
X126839748Y-63217608D02*
X126815939Y-63122370D01*
X126815939Y-63122370D02*
X126815939Y-62955704D01*
X126815939Y-62955704D02*
X126839748Y-62860466D01*
X126839748Y-62860466D02*
X126887367Y-62812847D01*
X126887367Y-62812847D02*
X126934986Y-62789037D01*
X122339750Y-64094009D02*
X122173084Y-63855914D01*
X122054036Y-64094009D02*
X122054036Y-63594009D01*
X122054036Y-63594009D02*
X122244512Y-63594009D01*
X122244512Y-63594009D02*
X122292131Y-63617819D01*
X122292131Y-63617819D02*
X122315941Y-63641628D01*
X122315941Y-63641628D02*
X122339750Y-63689247D01*
X122339750Y-63689247D02*
X122339750Y-63760676D01*
X122339750Y-63760676D02*
X122315941Y-63808295D01*
X122315941Y-63808295D02*
X122292131Y-63832104D01*
X122292131Y-63832104D02*
X122244512Y-63855914D01*
X122244512Y-63855914D02*
X122054036Y-63855914D01*
X122554036Y-63832104D02*
X122720703Y-63832104D01*
X122792131Y-64094009D02*
X122554036Y-64094009D01*
X122554036Y-64094009D02*
X122554036Y-63594009D01*
X122554036Y-63594009D02*
X122792131Y-63594009D01*
X122982608Y-64070200D02*
X123054036Y-64094009D01*
X123054036Y-64094009D02*
X123173084Y-64094009D01*
X123173084Y-64094009D02*
X123220703Y-64070200D01*
X123220703Y-64070200D02*
X123244512Y-64046390D01*
X123244512Y-64046390D02*
X123268322Y-63998771D01*
X123268322Y-63998771D02*
X123268322Y-63951152D01*
X123268322Y-63951152D02*
X123244512Y-63903533D01*
X123244512Y-63903533D02*
X123220703Y-63879723D01*
X123220703Y-63879723D02*
X123173084Y-63855914D01*
X123173084Y-63855914D02*
X123077846Y-63832104D01*
X123077846Y-63832104D02*
X123030227Y-63808295D01*
X123030227Y-63808295D02*
X123006417Y-63784485D01*
X123006417Y-63784485D02*
X122982608Y-63736866D01*
X122982608Y-63736866D02*
X122982608Y-63689247D01*
X122982608Y-63689247D02*
X123006417Y-63641628D01*
X123006417Y-63641628D02*
X123030227Y-63617819D01*
X123030227Y-63617819D02*
X123077846Y-63594009D01*
X123077846Y-63594009D02*
X123196893Y-63594009D01*
X123196893Y-63594009D02*
X123268322Y-63617819D01*
X123482607Y-63832104D02*
X123649274Y-63832104D01*
X123720702Y-64094009D02*
X123482607Y-64094009D01*
X123482607Y-64094009D02*
X123482607Y-63594009D01*
X123482607Y-63594009D02*
X123720702Y-63594009D01*
X123863560Y-63594009D02*
X124149274Y-63594009D01*
X124006417Y-64094009D02*
X124006417Y-63594009D01*
X124815940Y-64260676D02*
X124815940Y-63546390D01*
X125815939Y-63617819D02*
X125768320Y-63594009D01*
X125768320Y-63594009D02*
X125696891Y-63594009D01*
X125696891Y-63594009D02*
X125625463Y-63617819D01*
X125625463Y-63617819D02*
X125577844Y-63665438D01*
X125577844Y-63665438D02*
X125554034Y-63713057D01*
X125554034Y-63713057D02*
X125530225Y-63808295D01*
X125530225Y-63808295D02*
X125530225Y-63879723D01*
X125530225Y-63879723D02*
X125554034Y-63974961D01*
X125554034Y-63974961D02*
X125577844Y-64022580D01*
X125577844Y-64022580D02*
X125625463Y-64070200D01*
X125625463Y-64070200D02*
X125696891Y-64094009D01*
X125696891Y-64094009D02*
X125744510Y-64094009D01*
X125744510Y-64094009D02*
X125815939Y-64070200D01*
X125815939Y-64070200D02*
X125839748Y-64046390D01*
X125839748Y-64046390D02*
X125839748Y-63879723D01*
X125839748Y-63879723D02*
X125744510Y-63879723D01*
X126054034Y-64094009D02*
X126054034Y-63594009D01*
X126054034Y-63594009D02*
X126339748Y-64094009D01*
X126339748Y-64094009D02*
X126339748Y-63594009D01*
X126577844Y-64094009D02*
X126577844Y-63594009D01*
X126577844Y-63594009D02*
X126696892Y-63594009D01*
X126696892Y-63594009D02*
X126768320Y-63617819D01*
X126768320Y-63617819D02*
X126815939Y-63665438D01*
X126815939Y-63665438D02*
X126839749Y-63713057D01*
X126839749Y-63713057D02*
X126863558Y-63808295D01*
X126863558Y-63808295D02*
X126863558Y-63879723D01*
X126863558Y-63879723D02*
X126839749Y-63974961D01*
X126839749Y-63974961D02*
X126815939Y-64022580D01*
X126815939Y-64022580D02*
X126768320Y-64070200D01*
X126768320Y-64070200D02*
X126696892Y-64094009D01*
X126696892Y-64094009D02*
X126577844Y-64094009D01*
D11*
X119292473Y-79928019D02*
X119292473Y-78928019D01*
X119292473Y-78928019D02*
X119530568Y-78928019D01*
X119530568Y-78928019D02*
X119673425Y-78975638D01*
X119673425Y-78975638D02*
X119768663Y-79070876D01*
X119768663Y-79070876D02*
X119816282Y-79166114D01*
X119816282Y-79166114D02*
X119863901Y-79356590D01*
X119863901Y-79356590D02*
X119863901Y-79499447D01*
X119863901Y-79499447D02*
X119816282Y-79689923D01*
X119816282Y-79689923D02*
X119768663Y-79785161D01*
X119768663Y-79785161D02*
X119673425Y-79880400D01*
X119673425Y-79880400D02*
X119530568Y-79928019D01*
X119530568Y-79928019D02*
X119292473Y-79928019D01*
X120721044Y-79928019D02*
X120721044Y-79404209D01*
X120721044Y-79404209D02*
X120673425Y-79308971D01*
X120673425Y-79308971D02*
X120578187Y-79261352D01*
X120578187Y-79261352D02*
X120387711Y-79261352D01*
X120387711Y-79261352D02*
X120292473Y-79308971D01*
X120721044Y-79880400D02*
X120625806Y-79928019D01*
X120625806Y-79928019D02*
X120387711Y-79928019D01*
X120387711Y-79928019D02*
X120292473Y-79880400D01*
X120292473Y-79880400D02*
X120244854Y-79785161D01*
X120244854Y-79785161D02*
X120244854Y-79689923D01*
X120244854Y-79689923D02*
X120292473Y-79594685D01*
X120292473Y-79594685D02*
X120387711Y-79547066D01*
X120387711Y-79547066D02*
X120625806Y-79547066D01*
X120625806Y-79547066D02*
X120721044Y-79499447D01*
X121054378Y-79261352D02*
X121435330Y-79261352D01*
X121197235Y-78928019D02*
X121197235Y-79785161D01*
X121197235Y-79785161D02*
X121244854Y-79880400D01*
X121244854Y-79880400D02*
X121340092Y-79928019D01*
X121340092Y-79928019D02*
X121435330Y-79928019D01*
X122197235Y-79928019D02*
X122197235Y-79404209D01*
X122197235Y-79404209D02*
X122149616Y-79308971D01*
X122149616Y-79308971D02*
X122054378Y-79261352D01*
X122054378Y-79261352D02*
X121863902Y-79261352D01*
X121863902Y-79261352D02*
X121768664Y-79308971D01*
X122197235Y-79880400D02*
X122101997Y-79928019D01*
X122101997Y-79928019D02*
X121863902Y-79928019D01*
X121863902Y-79928019D02*
X121768664Y-79880400D01*
X121768664Y-79880400D02*
X121721045Y-79785161D01*
X121721045Y-79785161D02*
X121721045Y-79689923D01*
X121721045Y-79689923D02*
X121768664Y-79594685D01*
X121768664Y-79594685D02*
X121863902Y-79547066D01*
X121863902Y-79547066D02*
X122101997Y-79547066D01*
X122101997Y-79547066D02*
X122197235Y-79499447D01*
X123911521Y-79928019D02*
X123435331Y-79928019D01*
X123435331Y-79928019D02*
X123435331Y-78928019D01*
X124387712Y-79928019D02*
X124292474Y-79880400D01*
X124292474Y-79880400D02*
X124244855Y-79832780D01*
X124244855Y-79832780D02*
X124197236Y-79737542D01*
X124197236Y-79737542D02*
X124197236Y-79451828D01*
X124197236Y-79451828D02*
X124244855Y-79356590D01*
X124244855Y-79356590D02*
X124292474Y-79308971D01*
X124292474Y-79308971D02*
X124387712Y-79261352D01*
X124387712Y-79261352D02*
X124530569Y-79261352D01*
X124530569Y-79261352D02*
X124625807Y-79308971D01*
X124625807Y-79308971D02*
X124673426Y-79356590D01*
X124673426Y-79356590D02*
X124721045Y-79451828D01*
X124721045Y-79451828D02*
X124721045Y-79737542D01*
X124721045Y-79737542D02*
X124673426Y-79832780D01*
X124673426Y-79832780D02*
X124625807Y-79880400D01*
X124625807Y-79880400D02*
X124530569Y-79928019D01*
X124530569Y-79928019D02*
X124387712Y-79928019D01*
X125578188Y-79261352D02*
X125578188Y-80070876D01*
X125578188Y-80070876D02*
X125530569Y-80166114D01*
X125530569Y-80166114D02*
X125482950Y-80213733D01*
X125482950Y-80213733D02*
X125387712Y-80261352D01*
X125387712Y-80261352D02*
X125244855Y-80261352D01*
X125244855Y-80261352D02*
X125149617Y-80213733D01*
X125578188Y-79880400D02*
X125482950Y-79928019D01*
X125482950Y-79928019D02*
X125292474Y-79928019D01*
X125292474Y-79928019D02*
X125197236Y-79880400D01*
X125197236Y-79880400D02*
X125149617Y-79832780D01*
X125149617Y-79832780D02*
X125101998Y-79737542D01*
X125101998Y-79737542D02*
X125101998Y-79451828D01*
X125101998Y-79451828D02*
X125149617Y-79356590D01*
X125149617Y-79356590D02*
X125197236Y-79308971D01*
X125197236Y-79308971D02*
X125292474Y-79261352D01*
X125292474Y-79261352D02*
X125482950Y-79261352D01*
X125482950Y-79261352D02*
X125578188Y-79308971D01*
X126482950Y-79261352D02*
X126482950Y-80070876D01*
X126482950Y-80070876D02*
X126435331Y-80166114D01*
X126435331Y-80166114D02*
X126387712Y-80213733D01*
X126387712Y-80213733D02*
X126292474Y-80261352D01*
X126292474Y-80261352D02*
X126149617Y-80261352D01*
X126149617Y-80261352D02*
X126054379Y-80213733D01*
X126482950Y-79880400D02*
X126387712Y-79928019D01*
X126387712Y-79928019D02*
X126197236Y-79928019D01*
X126197236Y-79928019D02*
X126101998Y-79880400D01*
X126101998Y-79880400D02*
X126054379Y-79832780D01*
X126054379Y-79832780D02*
X126006760Y-79737542D01*
X126006760Y-79737542D02*
X126006760Y-79451828D01*
X126006760Y-79451828D02*
X126054379Y-79356590D01*
X126054379Y-79356590D02*
X126101998Y-79308971D01*
X126101998Y-79308971D02*
X126197236Y-79261352D01*
X126197236Y-79261352D02*
X126387712Y-79261352D01*
X126387712Y-79261352D02*
X126482950Y-79308971D01*
X127340093Y-79880400D02*
X127244855Y-79928019D01*
X127244855Y-79928019D02*
X127054379Y-79928019D01*
X127054379Y-79928019D02*
X126959141Y-79880400D01*
X126959141Y-79880400D02*
X126911522Y-79785161D01*
X126911522Y-79785161D02*
X126911522Y-79404209D01*
X126911522Y-79404209D02*
X126959141Y-79308971D01*
X126959141Y-79308971D02*
X127054379Y-79261352D01*
X127054379Y-79261352D02*
X127244855Y-79261352D01*
X127244855Y-79261352D02*
X127340093Y-79308971D01*
X127340093Y-79308971D02*
X127387712Y-79404209D01*
X127387712Y-79404209D02*
X127387712Y-79499447D01*
X127387712Y-79499447D02*
X126911522Y-79594685D01*
X127816284Y-79928019D02*
X127816284Y-79261352D01*
X127816284Y-79451828D02*
X127863903Y-79356590D01*
X127863903Y-79356590D02*
X127911522Y-79308971D01*
X127911522Y-79308971D02*
X128006760Y-79261352D01*
X128006760Y-79261352D02*
X128101998Y-79261352D01*
D10*
X95616666Y-60768633D02*
X95616666Y-61335300D01*
X95616666Y-61335300D02*
X95650000Y-61401966D01*
X95650000Y-61401966D02*
X95683333Y-61435300D01*
X95683333Y-61435300D02*
X95750000Y-61468633D01*
X95750000Y-61468633D02*
X95883333Y-61468633D01*
X95883333Y-61468633D02*
X95950000Y-61435300D01*
X95950000Y-61435300D02*
X95983333Y-61401966D01*
X95983333Y-61401966D02*
X96016666Y-61335300D01*
X96016666Y-61335300D02*
X96016666Y-60768633D01*
X96283333Y-60768633D02*
X96716666Y-60768633D01*
X96716666Y-60768633D02*
X96483333Y-61035300D01*
X96483333Y-61035300D02*
X96583333Y-61035300D01*
X96583333Y-61035300D02*
X96649999Y-61068633D01*
X96649999Y-61068633D02*
X96683333Y-61101966D01*
X96683333Y-61101966D02*
X96716666Y-61168633D01*
X96716666Y-61168633D02*
X96716666Y-61335300D01*
X96716666Y-61335300D02*
X96683333Y-61401966D01*
X96683333Y-61401966D02*
X96649999Y-61435300D01*
X96649999Y-61435300D02*
X96583333Y-61468633D01*
X96583333Y-61468633D02*
X96383333Y-61468633D01*
X96383333Y-61468633D02*
X96316666Y-61435300D01*
X96316666Y-61435300D02*
X96283333Y-61401966D01*
X117866666Y-64776109D02*
X117700000Y-64538014D01*
X117580952Y-64776109D02*
X117580952Y-64276109D01*
X117580952Y-64276109D02*
X117771428Y-64276109D01*
X117771428Y-64276109D02*
X117819047Y-64299919D01*
X117819047Y-64299919D02*
X117842857Y-64323728D01*
X117842857Y-64323728D02*
X117866666Y-64371347D01*
X117866666Y-64371347D02*
X117866666Y-64442776D01*
X117866666Y-64442776D02*
X117842857Y-64490395D01*
X117842857Y-64490395D02*
X117819047Y-64514204D01*
X117819047Y-64514204D02*
X117771428Y-64538014D01*
X117771428Y-64538014D02*
X117580952Y-64538014D01*
X118295238Y-64276109D02*
X118200000Y-64276109D01*
X118200000Y-64276109D02*
X118152381Y-64299919D01*
X118152381Y-64299919D02*
X118128571Y-64323728D01*
X118128571Y-64323728D02*
X118080952Y-64395157D01*
X118080952Y-64395157D02*
X118057143Y-64490395D01*
X118057143Y-64490395D02*
X118057143Y-64680871D01*
X118057143Y-64680871D02*
X118080952Y-64728490D01*
X118080952Y-64728490D02*
X118104762Y-64752300D01*
X118104762Y-64752300D02*
X118152381Y-64776109D01*
X118152381Y-64776109D02*
X118247619Y-64776109D01*
X118247619Y-64776109D02*
X118295238Y-64752300D01*
X118295238Y-64752300D02*
X118319047Y-64728490D01*
X118319047Y-64728490D02*
X118342857Y-64680871D01*
X118342857Y-64680871D02*
X118342857Y-64561823D01*
X118342857Y-64561823D02*
X118319047Y-64514204D01*
X118319047Y-64514204D02*
X118295238Y-64490395D01*
X118295238Y-64490395D02*
X118247619Y-64466585D01*
X118247619Y-64466585D02*
X118152381Y-64466585D01*
X118152381Y-64466585D02*
X118104762Y-64490395D01*
X118104762Y-64490395D02*
X118080952Y-64514204D01*
X118080952Y-64514204D02*
X118057143Y-64561823D01*
X111166666Y-66068633D02*
X111166666Y-66635300D01*
X111166666Y-66635300D02*
X111200000Y-66701966D01*
X111200000Y-66701966D02*
X111233333Y-66735300D01*
X111233333Y-66735300D02*
X111300000Y-66768633D01*
X111300000Y-66768633D02*
X111433333Y-66768633D01*
X111433333Y-66768633D02*
X111500000Y-66735300D01*
X111500000Y-66735300D02*
X111533333Y-66701966D01*
X111533333Y-66701966D02*
X111566666Y-66635300D01*
X111566666Y-66635300D02*
X111566666Y-66068633D01*
X111866666Y-66135300D02*
X111899999Y-66101966D01*
X111899999Y-66101966D02*
X111966666Y-66068633D01*
X111966666Y-66068633D02*
X112133333Y-66068633D01*
X112133333Y-66068633D02*
X112199999Y-66101966D01*
X112199999Y-66101966D02*
X112233333Y-66135300D01*
X112233333Y-66135300D02*
X112266666Y-66201966D01*
X112266666Y-66201966D02*
X112266666Y-66268633D01*
X112266666Y-66268633D02*
X112233333Y-66368633D01*
X112233333Y-66368633D02*
X111833333Y-66768633D01*
X111833333Y-66768633D02*
X112266666Y-66768633D01*
X110766666Y-64776109D02*
X110600000Y-64538014D01*
X110480952Y-64776109D02*
X110480952Y-64276109D01*
X110480952Y-64276109D02*
X110671428Y-64276109D01*
X110671428Y-64276109D02*
X110719047Y-64299919D01*
X110719047Y-64299919D02*
X110742857Y-64323728D01*
X110742857Y-64323728D02*
X110766666Y-64371347D01*
X110766666Y-64371347D02*
X110766666Y-64442776D01*
X110766666Y-64442776D02*
X110742857Y-64490395D01*
X110742857Y-64490395D02*
X110719047Y-64514204D01*
X110719047Y-64514204D02*
X110671428Y-64538014D01*
X110671428Y-64538014D02*
X110480952Y-64538014D01*
X110957143Y-64323728D02*
X110980952Y-64299919D01*
X110980952Y-64299919D02*
X111028571Y-64276109D01*
X111028571Y-64276109D02*
X111147619Y-64276109D01*
X111147619Y-64276109D02*
X111195238Y-64299919D01*
X111195238Y-64299919D02*
X111219047Y-64323728D01*
X111219047Y-64323728D02*
X111242857Y-64371347D01*
X111242857Y-64371347D02*
X111242857Y-64418966D01*
X111242857Y-64418966D02*
X111219047Y-64490395D01*
X111219047Y-64490395D02*
X110933333Y-64776109D01*
X110933333Y-64776109D02*
X111242857Y-64776109D01*
X92107143Y-63094204D02*
X92178571Y-63118014D01*
X92178571Y-63118014D02*
X92202381Y-63141823D01*
X92202381Y-63141823D02*
X92226190Y-63189442D01*
X92226190Y-63189442D02*
X92226190Y-63260871D01*
X92226190Y-63260871D02*
X92202381Y-63308490D01*
X92202381Y-63308490D02*
X92178571Y-63332300D01*
X92178571Y-63332300D02*
X92130952Y-63356109D01*
X92130952Y-63356109D02*
X91940476Y-63356109D01*
X91940476Y-63356109D02*
X91940476Y-62856109D01*
X91940476Y-62856109D02*
X92107143Y-62856109D01*
X92107143Y-62856109D02*
X92154762Y-62879919D01*
X92154762Y-62879919D02*
X92178571Y-62903728D01*
X92178571Y-62903728D02*
X92202381Y-62951347D01*
X92202381Y-62951347D02*
X92202381Y-62998966D01*
X92202381Y-62998966D02*
X92178571Y-63046585D01*
X92178571Y-63046585D02*
X92154762Y-63070395D01*
X92154762Y-63070395D02*
X92107143Y-63094204D01*
X92107143Y-63094204D02*
X91940476Y-63094204D01*
X92369048Y-62856109D02*
X92654762Y-62856109D01*
X92511905Y-63356109D02*
X92511905Y-62856109D01*
X93083333Y-63356109D02*
X92797619Y-63356109D01*
X92940476Y-63356109D02*
X92940476Y-62856109D01*
X92940476Y-62856109D02*
X92892857Y-62927538D01*
X92892857Y-62927538D02*
X92845238Y-62975157D01*
X92845238Y-62975157D02*
X92797619Y-62998966D01*
X113616666Y-64776109D02*
X113450000Y-64538014D01*
X113330952Y-64776109D02*
X113330952Y-64276109D01*
X113330952Y-64276109D02*
X113521428Y-64276109D01*
X113521428Y-64276109D02*
X113569047Y-64299919D01*
X113569047Y-64299919D02*
X113592857Y-64323728D01*
X113592857Y-64323728D02*
X113616666Y-64371347D01*
X113616666Y-64371347D02*
X113616666Y-64442776D01*
X113616666Y-64442776D02*
X113592857Y-64490395D01*
X113592857Y-64490395D02*
X113569047Y-64514204D01*
X113569047Y-64514204D02*
X113521428Y-64538014D01*
X113521428Y-64538014D02*
X113330952Y-64538014D01*
X114092857Y-64776109D02*
X113807143Y-64776109D01*
X113950000Y-64776109D02*
X113950000Y-64276109D01*
X113950000Y-64276109D02*
X113902381Y-64347538D01*
X113902381Y-64347538D02*
X113854762Y-64395157D01*
X113854762Y-64395157D02*
X113807143Y-64418966D01*
X96616666Y-75218633D02*
X96616666Y-75785300D01*
X96616666Y-75785300D02*
X96650000Y-75851966D01*
X96650000Y-75851966D02*
X96683333Y-75885300D01*
X96683333Y-75885300D02*
X96750000Y-75918633D01*
X96750000Y-75918633D02*
X96883333Y-75918633D01*
X96883333Y-75918633D02*
X96950000Y-75885300D01*
X96950000Y-75885300D02*
X96983333Y-75851966D01*
X96983333Y-75851966D02*
X97016666Y-75785300D01*
X97016666Y-75785300D02*
X97016666Y-75218633D01*
X97716666Y-75918633D02*
X97316666Y-75918633D01*
X97516666Y-75918633D02*
X97516666Y-75218633D01*
X97516666Y-75218633D02*
X97449999Y-75318633D01*
X97449999Y-75318633D02*
X97383333Y-75385300D01*
X97383333Y-75385300D02*
X97316666Y-75418633D01*
X115566666Y-64776109D02*
X115400000Y-64538014D01*
X115280952Y-64776109D02*
X115280952Y-64276109D01*
X115280952Y-64276109D02*
X115471428Y-64276109D01*
X115471428Y-64276109D02*
X115519047Y-64299919D01*
X115519047Y-64299919D02*
X115542857Y-64323728D01*
X115542857Y-64323728D02*
X115566666Y-64371347D01*
X115566666Y-64371347D02*
X115566666Y-64442776D01*
X115566666Y-64442776D02*
X115542857Y-64490395D01*
X115542857Y-64490395D02*
X115519047Y-64514204D01*
X115519047Y-64514204D02*
X115471428Y-64538014D01*
X115471428Y-64538014D02*
X115280952Y-64538014D01*
X116019047Y-64276109D02*
X115780952Y-64276109D01*
X115780952Y-64276109D02*
X115757143Y-64514204D01*
X115757143Y-64514204D02*
X115780952Y-64490395D01*
X115780952Y-64490395D02*
X115828571Y-64466585D01*
X115828571Y-64466585D02*
X115947619Y-64466585D01*
X115947619Y-64466585D02*
X115995238Y-64490395D01*
X115995238Y-64490395D02*
X116019047Y-64514204D01*
X116019047Y-64514204D02*
X116042857Y-64561823D01*
X116042857Y-64561823D02*
X116042857Y-64680871D01*
X116042857Y-64680871D02*
X116019047Y-64728490D01*
X116019047Y-64728490D02*
X115995238Y-64752300D01*
X115995238Y-64752300D02*
X115947619Y-64776109D01*
X115947619Y-64776109D02*
X115828571Y-64776109D01*
X115828571Y-64776109D02*
X115780952Y-64752300D01*
X115780952Y-64752300D02*
X115757143Y-64728490D01*
X108316666Y-64728490D02*
X108292857Y-64752300D01*
X108292857Y-64752300D02*
X108221428Y-64776109D01*
X108221428Y-64776109D02*
X108173809Y-64776109D01*
X108173809Y-64776109D02*
X108102381Y-64752300D01*
X108102381Y-64752300D02*
X108054762Y-64704680D01*
X108054762Y-64704680D02*
X108030952Y-64657061D01*
X108030952Y-64657061D02*
X108007143Y-64561823D01*
X108007143Y-64561823D02*
X108007143Y-64490395D01*
X108007143Y-64490395D02*
X108030952Y-64395157D01*
X108030952Y-64395157D02*
X108054762Y-64347538D01*
X108054762Y-64347538D02*
X108102381Y-64299919D01*
X108102381Y-64299919D02*
X108173809Y-64276109D01*
X108173809Y-64276109D02*
X108221428Y-64276109D01*
X108221428Y-64276109D02*
X108292857Y-64299919D01*
X108292857Y-64299919D02*
X108316666Y-64323728D01*
X108792857Y-64776109D02*
X108507143Y-64776109D01*
X108650000Y-64776109D02*
X108650000Y-64276109D01*
X108650000Y-64276109D02*
X108602381Y-64347538D01*
X108602381Y-64347538D02*
X108554762Y-64395157D01*
X108554762Y-64395157D02*
X108507143Y-64418966D01*
X106616666Y-79568633D02*
X106616666Y-80068633D01*
X106616666Y-80068633D02*
X106583333Y-80168633D01*
X106583333Y-80168633D02*
X106516666Y-80235300D01*
X106516666Y-80235300D02*
X106416666Y-80268633D01*
X106416666Y-80268633D02*
X106350000Y-80268633D01*
X106883333Y-79568633D02*
X107316666Y-79568633D01*
X107316666Y-79568633D02*
X107083333Y-79835300D01*
X107083333Y-79835300D02*
X107183333Y-79835300D01*
X107183333Y-79835300D02*
X107249999Y-79868633D01*
X107249999Y-79868633D02*
X107283333Y-79901966D01*
X107283333Y-79901966D02*
X107316666Y-79968633D01*
X107316666Y-79968633D02*
X107316666Y-80135300D01*
X107316666Y-80135300D02*
X107283333Y-80201966D01*
X107283333Y-80201966D02*
X107249999Y-80235300D01*
X107249999Y-80235300D02*
X107183333Y-80268633D01*
X107183333Y-80268633D02*
X106983333Y-80268633D01*
X106983333Y-80268633D02*
X106916666Y-80235300D01*
X106916666Y-80235300D02*
X106883333Y-80201966D01*
X129316666Y-72118633D02*
X129316666Y-72618633D01*
X129316666Y-72618633D02*
X129283333Y-72718633D01*
X129283333Y-72718633D02*
X129216666Y-72785300D01*
X129216666Y-72785300D02*
X129116666Y-72818633D01*
X129116666Y-72818633D02*
X129050000Y-72818633D01*
X130016666Y-72818633D02*
X129616666Y-72818633D01*
X129816666Y-72818633D02*
X129816666Y-72118633D01*
X129816666Y-72118633D02*
X129749999Y-72218633D01*
X129749999Y-72218633D02*
X129683333Y-72285300D01*
X129683333Y-72285300D02*
X129616666Y-72318633D01*
X107442267Y-78369700D02*
X107442267Y-78703033D01*
X107208933Y-78003033D02*
X107442267Y-78369700D01*
X107442267Y-78369700D02*
X107675600Y-78003033D01*
X107875600Y-78069700D02*
X107908933Y-78036366D01*
X107908933Y-78036366D02*
X107975600Y-78003033D01*
X107975600Y-78003033D02*
X108142267Y-78003033D01*
X108142267Y-78003033D02*
X108208933Y-78036366D01*
X108208933Y-78036366D02*
X108242267Y-78069700D01*
X108242267Y-78069700D02*
X108275600Y-78136366D01*
X108275600Y-78136366D02*
X108275600Y-78203033D01*
X108275600Y-78203033D02*
X108242267Y-78303033D01*
X108242267Y-78303033D02*
X107842267Y-78703033D01*
X107842267Y-78703033D02*
X108275600Y-78703033D01*
X120316666Y-64776109D02*
X120150000Y-64538014D01*
X120030952Y-64776109D02*
X120030952Y-64276109D01*
X120030952Y-64276109D02*
X120221428Y-64276109D01*
X120221428Y-64276109D02*
X120269047Y-64299919D01*
X120269047Y-64299919D02*
X120292857Y-64323728D01*
X120292857Y-64323728D02*
X120316666Y-64371347D01*
X120316666Y-64371347D02*
X120316666Y-64442776D01*
X120316666Y-64442776D02*
X120292857Y-64490395D01*
X120292857Y-64490395D02*
X120269047Y-64514204D01*
X120269047Y-64514204D02*
X120221428Y-64538014D01*
X120221428Y-64538014D02*
X120030952Y-64538014D01*
X120483333Y-64276109D02*
X120816666Y-64276109D01*
X120816666Y-64276109D02*
X120602381Y-64776109D01*
X108583333Y-75901966D02*
X108550000Y-75935300D01*
X108550000Y-75935300D02*
X108450000Y-75968633D01*
X108450000Y-75968633D02*
X108383333Y-75968633D01*
X108383333Y-75968633D02*
X108283333Y-75935300D01*
X108283333Y-75935300D02*
X108216667Y-75868633D01*
X108216667Y-75868633D02*
X108183333Y-75801966D01*
X108183333Y-75801966D02*
X108150000Y-75668633D01*
X108150000Y-75668633D02*
X108150000Y-75568633D01*
X108150000Y-75568633D02*
X108183333Y-75435300D01*
X108183333Y-75435300D02*
X108216667Y-75368633D01*
X108216667Y-75368633D02*
X108283333Y-75301966D01*
X108283333Y-75301966D02*
X108383333Y-75268633D01*
X108383333Y-75268633D02*
X108450000Y-75268633D01*
X108450000Y-75268633D02*
X108550000Y-75301966D01*
X108550000Y-75301966D02*
X108583333Y-75335300D01*
X109216667Y-75268633D02*
X108883333Y-75268633D01*
X108883333Y-75268633D02*
X108850000Y-75601966D01*
X108850000Y-75601966D02*
X108883333Y-75568633D01*
X108883333Y-75568633D02*
X108950000Y-75535300D01*
X108950000Y-75535300D02*
X109116667Y-75535300D01*
X109116667Y-75535300D02*
X109183333Y-75568633D01*
X109183333Y-75568633D02*
X109216667Y-75601966D01*
X109216667Y-75601966D02*
X109250000Y-75668633D01*
X109250000Y-75668633D02*
X109250000Y-75835300D01*
X109250000Y-75835300D02*
X109216667Y-75901966D01*
X109216667Y-75901966D02*
X109183333Y-75935300D01*
X109183333Y-75935300D02*
X109116667Y-75968633D01*
X109116667Y-75968633D02*
X108950000Y-75968633D01*
X108950000Y-75968633D02*
X108883333Y-75935300D01*
X108883333Y-75935300D02*
X108850000Y-75901966D01*
X125633333Y-71168633D02*
X125400000Y-70835300D01*
X125233333Y-71168633D02*
X125233333Y-70468633D01*
X125233333Y-70468633D02*
X125500000Y-70468633D01*
X125500000Y-70468633D02*
X125566667Y-70501966D01*
X125566667Y-70501966D02*
X125600000Y-70535300D01*
X125600000Y-70535300D02*
X125633333Y-70601966D01*
X125633333Y-70601966D02*
X125633333Y-70701966D01*
X125633333Y-70701966D02*
X125600000Y-70768633D01*
X125600000Y-70768633D02*
X125566667Y-70801966D01*
X125566667Y-70801966D02*
X125500000Y-70835300D01*
X125500000Y-70835300D02*
X125233333Y-70835300D01*
X125866667Y-70468633D02*
X126300000Y-70468633D01*
X126300000Y-70468633D02*
X126066667Y-70735300D01*
X126066667Y-70735300D02*
X126166667Y-70735300D01*
X126166667Y-70735300D02*
X126233333Y-70768633D01*
X126233333Y-70768633D02*
X126266667Y-70801966D01*
X126266667Y-70801966D02*
X126300000Y-70868633D01*
X126300000Y-70868633D02*
X126300000Y-71035300D01*
X126300000Y-71035300D02*
X126266667Y-71101966D01*
X126266667Y-71101966D02*
X126233333Y-71135300D01*
X126233333Y-71135300D02*
X126166667Y-71168633D01*
X126166667Y-71168633D02*
X125966667Y-71168633D01*
X125966667Y-71168633D02*
X125900000Y-71135300D01*
X125900000Y-71135300D02*
X125866667Y-71101966D01*
X129052666Y-79628633D02*
X129052666Y-80128633D01*
X129052666Y-80128633D02*
X129019333Y-80228633D01*
X129019333Y-80228633D02*
X128952666Y-80295300D01*
X128952666Y-80295300D02*
X128852666Y-80328633D01*
X128852666Y-80328633D02*
X128786000Y-80328633D01*
X129352666Y-79695300D02*
X129385999Y-79661966D01*
X129385999Y-79661966D02*
X129452666Y-79628633D01*
X129452666Y-79628633D02*
X129619333Y-79628633D01*
X129619333Y-79628633D02*
X129685999Y-79661966D01*
X129685999Y-79661966D02*
X129719333Y-79695300D01*
X129719333Y-79695300D02*
X129752666Y-79761966D01*
X129752666Y-79761966D02*
X129752666Y-79828633D01*
X129752666Y-79828633D02*
X129719333Y-79928633D01*
X129719333Y-79928633D02*
X129319333Y-80328633D01*
X129319333Y-80328633D02*
X129752666Y-80328633D01*
X124933333Y-72118633D02*
X124933333Y-71418633D01*
X124933333Y-71418633D02*
X125100000Y-71418633D01*
X125100000Y-71418633D02*
X125200000Y-71451966D01*
X125200000Y-71451966D02*
X125266667Y-71518633D01*
X125266667Y-71518633D02*
X125300000Y-71585300D01*
X125300000Y-71585300D02*
X125333333Y-71718633D01*
X125333333Y-71718633D02*
X125333333Y-71818633D01*
X125333333Y-71818633D02*
X125300000Y-71951966D01*
X125300000Y-71951966D02*
X125266667Y-72018633D01*
X125266667Y-72018633D02*
X125200000Y-72085300D01*
X125200000Y-72085300D02*
X125100000Y-72118633D01*
X125100000Y-72118633D02*
X124933333Y-72118633D01*
X125600000Y-71485300D02*
X125633333Y-71451966D01*
X125633333Y-71451966D02*
X125700000Y-71418633D01*
X125700000Y-71418633D02*
X125866667Y-71418633D01*
X125866667Y-71418633D02*
X125933333Y-71451966D01*
X125933333Y-71451966D02*
X125966667Y-71485300D01*
X125966667Y-71485300D02*
X126000000Y-71551966D01*
X126000000Y-71551966D02*
X126000000Y-71618633D01*
X126000000Y-71618633D02*
X125966667Y-71718633D01*
X125966667Y-71718633D02*
X125566667Y-72118633D01*
X125566667Y-72118633D02*
X126000000Y-72118633D01*
X123483333Y-65318633D02*
X123483333Y-64618633D01*
X123483333Y-64618633D02*
X123650000Y-64618633D01*
X123650000Y-64618633D02*
X123750000Y-64651966D01*
X123750000Y-64651966D02*
X123816667Y-64718633D01*
X123816667Y-64718633D02*
X123850000Y-64785300D01*
X123850000Y-64785300D02*
X123883333Y-64918633D01*
X123883333Y-64918633D02*
X123883333Y-65018633D01*
X123883333Y-65018633D02*
X123850000Y-65151966D01*
X123850000Y-65151966D02*
X123816667Y-65218633D01*
X123816667Y-65218633D02*
X123750000Y-65285300D01*
X123750000Y-65285300D02*
X123650000Y-65318633D01*
X123650000Y-65318633D02*
X123483333Y-65318633D01*
X124550000Y-65318633D02*
X124150000Y-65318633D01*
X124350000Y-65318633D02*
X124350000Y-64618633D01*
X124350000Y-64618633D02*
X124283333Y-64718633D01*
X124283333Y-64718633D02*
X124216667Y-64785300D01*
X124216667Y-64785300D02*
X124150000Y-64818633D01*
D12*
X127439685Y-66757142D02*
X127439685Y-66947618D01*
X127439685Y-66947618D02*
X127139685Y-66947618D01*
X127282542Y-66623808D02*
X127282542Y-66490475D01*
X127439685Y-66433332D02*
X127439685Y-66623808D01*
X127439685Y-66623808D02*
X127139685Y-66623808D01*
X127139685Y-66623808D02*
X127139685Y-66433332D01*
X127439685Y-66261903D02*
X127139685Y-66261903D01*
X127139685Y-66261903D02*
X127139685Y-66166665D01*
X127139685Y-66166665D02*
X127153971Y-66109522D01*
X127153971Y-66109522D02*
X127182542Y-66071427D01*
X127182542Y-66071427D02*
X127211114Y-66052380D01*
X127211114Y-66052380D02*
X127268257Y-66033332D01*
X127268257Y-66033332D02*
X127311114Y-66033332D01*
X127311114Y-66033332D02*
X127368257Y-66052380D01*
X127368257Y-66052380D02*
X127396828Y-66071427D01*
X127396828Y-66071427D02*
X127425400Y-66109522D01*
X127425400Y-66109522D02*
X127439685Y-66166665D01*
X127439685Y-66166665D02*
X127439685Y-66261903D01*
D10*
X124433333Y-76651966D02*
X124400000Y-76685300D01*
X124400000Y-76685300D02*
X124300000Y-76718633D01*
X124300000Y-76718633D02*
X124233333Y-76718633D01*
X124233333Y-76718633D02*
X124133333Y-76685300D01*
X124133333Y-76685300D02*
X124066667Y-76618633D01*
X124066667Y-76618633D02*
X124033333Y-76551966D01*
X124033333Y-76551966D02*
X124000000Y-76418633D01*
X124000000Y-76418633D02*
X124000000Y-76318633D01*
X124000000Y-76318633D02*
X124033333Y-76185300D01*
X124033333Y-76185300D02*
X124066667Y-76118633D01*
X124066667Y-76118633D02*
X124133333Y-76051966D01*
X124133333Y-76051966D02*
X124233333Y-76018633D01*
X124233333Y-76018633D02*
X124300000Y-76018633D01*
X124300000Y-76018633D02*
X124400000Y-76051966D01*
X124400000Y-76051966D02*
X124433333Y-76085300D01*
X124666667Y-76018633D02*
X125100000Y-76018633D01*
X125100000Y-76018633D02*
X124866667Y-76285300D01*
X124866667Y-76285300D02*
X124966667Y-76285300D01*
X124966667Y-76285300D02*
X125033333Y-76318633D01*
X125033333Y-76318633D02*
X125066667Y-76351966D01*
X125066667Y-76351966D02*
X125100000Y-76418633D01*
X125100000Y-76418633D02*
X125100000Y-76585300D01*
X125100000Y-76585300D02*
X125066667Y-76651966D01*
X125066667Y-76651966D02*
X125033333Y-76685300D01*
X125033333Y-76685300D02*
X124966667Y-76718633D01*
X124966667Y-76718633D02*
X124766667Y-76718633D01*
X124766667Y-76718633D02*
X124700000Y-76685300D01*
X124700000Y-76685300D02*
X124666667Y-76651966D01*
X94764267Y-70343300D02*
X94764267Y-70676633D01*
X94530933Y-69976633D02*
X94764267Y-70343300D01*
X94764267Y-70343300D02*
X94997600Y-69976633D01*
X95597600Y-70676633D02*
X95197600Y-70676633D01*
X95397600Y-70676633D02*
X95397600Y-69976633D01*
X95397600Y-69976633D02*
X95330933Y-70076633D01*
X95330933Y-70076633D02*
X95264267Y-70143300D01*
X95264267Y-70143300D02*
X95197600Y-70176633D01*
X108583333Y-70901966D02*
X108550000Y-70935300D01*
X108550000Y-70935300D02*
X108450000Y-70968633D01*
X108450000Y-70968633D02*
X108383333Y-70968633D01*
X108383333Y-70968633D02*
X108283333Y-70935300D01*
X108283333Y-70935300D02*
X108216667Y-70868633D01*
X108216667Y-70868633D02*
X108183333Y-70801966D01*
X108183333Y-70801966D02*
X108150000Y-70668633D01*
X108150000Y-70668633D02*
X108150000Y-70568633D01*
X108150000Y-70568633D02*
X108183333Y-70435300D01*
X108183333Y-70435300D02*
X108216667Y-70368633D01*
X108216667Y-70368633D02*
X108283333Y-70301966D01*
X108283333Y-70301966D02*
X108383333Y-70268633D01*
X108383333Y-70268633D02*
X108450000Y-70268633D01*
X108450000Y-70268633D02*
X108550000Y-70301966D01*
X108550000Y-70301966D02*
X108583333Y-70335300D01*
X109183333Y-70501966D02*
X109183333Y-70968633D01*
X109016667Y-70235300D02*
X108850000Y-70735300D01*
X108850000Y-70735300D02*
X109283333Y-70735300D01*
X128303333Y-74218633D02*
X128070000Y-73885300D01*
X127903333Y-74218633D02*
X127903333Y-73518633D01*
X127903333Y-73518633D02*
X128170000Y-73518633D01*
X128170000Y-73518633D02*
X128236667Y-73551966D01*
X128236667Y-73551966D02*
X128270000Y-73585300D01*
X128270000Y-73585300D02*
X128303333Y-73651966D01*
X128303333Y-73651966D02*
X128303333Y-73751966D01*
X128303333Y-73751966D02*
X128270000Y-73818633D01*
X128270000Y-73818633D02*
X128236667Y-73851966D01*
X128236667Y-73851966D02*
X128170000Y-73885300D01*
X128170000Y-73885300D02*
X127903333Y-73885300D01*
X128903333Y-73751966D02*
X128903333Y-74218633D01*
X128736667Y-73485300D02*
X128570000Y-73985300D01*
X128570000Y-73985300D02*
X129003333Y-73985300D01*
X127666666Y-70868633D02*
X127666666Y-71368633D01*
X127666666Y-71368633D02*
X127633333Y-71468633D01*
X127633333Y-71468633D02*
X127566666Y-71535300D01*
X127566666Y-71535300D02*
X127466666Y-71568633D01*
X127466666Y-71568633D02*
X127400000Y-71568633D01*
X128299999Y-71101966D02*
X128299999Y-71568633D01*
X128133333Y-70835300D02*
X127966666Y-71335300D01*
X127966666Y-71335300D02*
X128399999Y-71335300D01*
X95216666Y-67468633D02*
X95216666Y-68035300D01*
X95216666Y-68035300D02*
X95250000Y-68101966D01*
X95250000Y-68101966D02*
X95283333Y-68135300D01*
X95283333Y-68135300D02*
X95350000Y-68168633D01*
X95350000Y-68168633D02*
X95483333Y-68168633D01*
X95483333Y-68168633D02*
X95550000Y-68135300D01*
X95550000Y-68135300D02*
X95583333Y-68101966D01*
X95583333Y-68101966D02*
X95616666Y-68035300D01*
X95616666Y-68035300D02*
X95616666Y-67468633D01*
X96249999Y-67701966D02*
X96249999Y-68168633D01*
X96083333Y-67435300D02*
X95916666Y-67935300D01*
X95916666Y-67935300D02*
X96349999Y-67935300D01*
X122233333Y-67951966D02*
X122200000Y-67985300D01*
X122200000Y-67985300D02*
X122100000Y-68018633D01*
X122100000Y-68018633D02*
X122033333Y-68018633D01*
X122033333Y-68018633D02*
X121933333Y-67985300D01*
X121933333Y-67985300D02*
X121866667Y-67918633D01*
X121866667Y-67918633D02*
X121833333Y-67851966D01*
X121833333Y-67851966D02*
X121800000Y-67718633D01*
X121800000Y-67718633D02*
X121800000Y-67618633D01*
X121800000Y-67618633D02*
X121833333Y-67485300D01*
X121833333Y-67485300D02*
X121866667Y-67418633D01*
X121866667Y-67418633D02*
X121933333Y-67351966D01*
X121933333Y-67351966D02*
X122033333Y-67318633D01*
X122033333Y-67318633D02*
X122100000Y-67318633D01*
X122100000Y-67318633D02*
X122200000Y-67351966D01*
X122200000Y-67351966D02*
X122233333Y-67385300D01*
X122500000Y-67385300D02*
X122533333Y-67351966D01*
X122533333Y-67351966D02*
X122600000Y-67318633D01*
X122600000Y-67318633D02*
X122766667Y-67318633D01*
X122766667Y-67318633D02*
X122833333Y-67351966D01*
X122833333Y-67351966D02*
X122866667Y-67385300D01*
X122866667Y-67385300D02*
X122900000Y-67451966D01*
X122900000Y-67451966D02*
X122900000Y-67518633D01*
X122900000Y-67518633D02*
X122866667Y-67618633D01*
X122866667Y-67618633D02*
X122466667Y-68018633D01*
X122466667Y-68018633D02*
X122900000Y-68018633D01*
D13*
%TO.C,U3*%
X98425000Y-61775000D02*
X98425000Y-62035000D01*
X98425000Y-67225000D02*
X98425000Y-66965000D01*
X101150000Y-61775000D02*
X98425000Y-61775000D01*
X101150000Y-61775000D02*
X103875000Y-61775000D01*
X101150000Y-67225000D02*
X98425000Y-67225000D01*
X101150000Y-67225000D02*
X103875000Y-67225000D01*
X103875000Y-61775000D02*
X103875000Y-62035000D01*
X103875000Y-67225000D02*
X103875000Y-66965000D01*
X97642500Y-62035000D02*
X97402500Y-61705000D01*
X97882500Y-61705000D01*
X97642500Y-62035000D01*
G36*
X97642500Y-62035000D02*
G01*
X97402500Y-61705000D01*
X97882500Y-61705000D01*
X97642500Y-62035000D01*
G37*
%TO.C,R6*%
X118773000Y-62260436D02*
X118773000Y-62714564D01*
X117303000Y-62260436D02*
X117303000Y-62714564D01*
D14*
%TO.C,U2*%
X112500000Y-67000000D02*
X112500000Y-67105000D01*
X112500000Y-67000000D02*
X112605000Y-67000000D01*
X112500000Y-74000000D02*
X112500000Y-73895000D01*
X112500000Y-74000000D02*
X112605000Y-74000000D01*
X119500000Y-67000000D02*
X119395000Y-67000000D01*
X119500000Y-67000000D02*
X119500000Y-67105000D01*
X119500000Y-74000000D02*
X119395000Y-74000000D01*
X119500000Y-74000000D02*
X119500000Y-73895000D01*
D11*
X110260000Y-67700000D02*
G75*
G02*
X110060000Y-67700000I-100000J0D01*
G01*
X110060000Y-67700000D02*
G75*
G02*
X110260000Y-67700000I100000J0D01*
G01*
D13*
%TO.C,R2*%
X111591000Y-62260436D02*
X111591000Y-62714564D01*
X110121000Y-62260436D02*
X110121000Y-62714564D01*
%TO.C,BT1*%
X91170000Y-64130000D02*
X92500000Y-64130000D01*
X91170000Y-65460000D02*
X91170000Y-64130000D01*
X91170000Y-66730000D02*
X91170000Y-69330000D01*
X91170000Y-66730000D02*
X93830000Y-66730000D01*
X91170000Y-69330000D02*
X93830000Y-69330000D01*
X93830000Y-66730000D02*
X93830000Y-69330000D01*
%TO.C,R1*%
X113985000Y-62260436D02*
X113985000Y-62714564D01*
X112515000Y-62260436D02*
X112515000Y-62714564D01*
D11*
%TO.C,U1*%
X97155000Y-74755000D02*
G75*
G02*
X96955000Y-74755000I-100000J0D01*
G01*
X96955000Y-74755000D02*
G75*
G02*
X97155000Y-74755000I100000J0D01*
G01*
D14*
X99500000Y-79770000D02*
X103500000Y-79770000D01*
X99500000Y-74730000D02*
X103500000Y-74730000D01*
D13*
%TO.C,R5*%
X116379000Y-62260436D02*
X116379000Y-62714564D01*
X114909000Y-62260436D02*
X114909000Y-62714564D01*
%TO.C,C1*%
X109167000Y-62206248D02*
X109167000Y-62728752D01*
X107697000Y-62206248D02*
X107697000Y-62728752D01*
%TO.C,J3*%
X93850000Y-83730000D02*
X93850000Y-82400000D01*
X95180000Y-83730000D02*
X93850000Y-83730000D01*
X96450000Y-81070000D02*
X116830000Y-81070000D01*
X96450000Y-83730000D02*
X96450000Y-81070000D01*
X96450000Y-83730000D02*
X116830000Y-83730000D01*
X116830000Y-83730000D02*
X116830000Y-81070000D01*
%TO.C,J1*%
X130610000Y-71210000D02*
X131940000Y-71210000D01*
X130610000Y-72540000D02*
X130610000Y-71210000D01*
X130610000Y-73810000D02*
X130610000Y-81490000D01*
X130610000Y-73810000D02*
X133270000Y-73810000D01*
X130610000Y-81490000D02*
X133270000Y-81490000D01*
X133270000Y-73810000D02*
X133270000Y-81490000D01*
%TO.C,Y2*%
X110625600Y-80184400D02*
X117875600Y-80184400D01*
X117875600Y-76584400D02*
X110625600Y-76584400D01*
X117875600Y-80184400D02*
X117875600Y-76584400D01*
%TO.C,R7*%
X121167000Y-62260436D02*
X121167000Y-62714564D01*
X119697000Y-62260436D02*
X119697000Y-62714564D01*
%TO.C,C5*%
X108911252Y-73365000D02*
X108388748Y-73365000D01*
X108911252Y-74835000D02*
X108388748Y-74835000D01*
%TO.C,R3*%
X125122936Y-68615000D02*
X125577064Y-68615000D01*
X125122936Y-70085000D02*
X125577064Y-70085000D01*
%TO.C,J2*%
X119080000Y-83730000D02*
X119080000Y-82400000D01*
X120410000Y-83730000D02*
X119080000Y-83730000D01*
X121680000Y-81070000D02*
X129360000Y-81070000D01*
X121680000Y-83730000D02*
X121680000Y-81070000D01*
X121680000Y-83730000D02*
X129360000Y-83730000D01*
X129360000Y-83730000D02*
X129360000Y-81070000D01*
%TO.C,D2*%
X122084300Y-73660000D02*
X124769300Y-73660000D01*
X124769300Y-71740000D02*
X122084300Y-71740000D01*
X124769300Y-73660000D02*
X124769300Y-71740000D01*
%TO.C,D1*%
X124312500Y-67560000D02*
X126997500Y-67560000D01*
X126997500Y-65640000D02*
X124312500Y-65640000D01*
X126997500Y-67560000D02*
X126997500Y-65640000D01*
%TO.C,C3*%
X122808748Y-74065000D02*
X123331252Y-74065000D01*
X122808748Y-75535000D02*
X123331252Y-75535000D01*
%TO.C,Y1*%
X92200000Y-70950000D02*
X92200000Y-78200000D01*
X95800000Y-70950000D02*
X92200000Y-70950000D01*
X95800000Y-78200000D02*
X95800000Y-70950000D01*
%TO.C,C4*%
X108911252Y-71265000D02*
X108388748Y-71265000D01*
X108911252Y-72735000D02*
X108388748Y-72735000D01*
%TO.C,R4*%
X126035000Y-73672936D02*
X126035000Y-74127064D01*
X127505000Y-73672936D02*
X127505000Y-74127064D01*
%TO.C,J4*%
X128070000Y-62490000D02*
X129400000Y-62490000D01*
X128070000Y-63820000D02*
X128070000Y-62490000D01*
X128070000Y-65090000D02*
X128070000Y-70230000D01*
X128070000Y-65090000D02*
X130670000Y-65090000D01*
X128070000Y-70230000D02*
X133270000Y-70230000D01*
X130670000Y-62490000D02*
X133270000Y-62490000D01*
X130670000Y-65090000D02*
X130670000Y-62490000D01*
X133270000Y-62490000D02*
X133270000Y-70230000D01*
%TO.C,U4*%
X97642500Y-68535000D02*
X97402500Y-68205000D01*
X97882500Y-68205000D01*
X97642500Y-68535000D01*
G36*
X97642500Y-68535000D02*
G01*
X97402500Y-68205000D01*
X97882500Y-68205000D01*
X97642500Y-68535000D01*
G37*
X103875000Y-73725000D02*
X103875000Y-73465000D01*
X103875000Y-68275000D02*
X103875000Y-68535000D01*
X101150000Y-73725000D02*
X103875000Y-73725000D01*
X101150000Y-73725000D02*
X98425000Y-73725000D01*
X101150000Y-68275000D02*
X103875000Y-68275000D01*
X101150000Y-68275000D02*
X98425000Y-68275000D01*
X98425000Y-73725000D02*
X98425000Y-73465000D01*
X98425000Y-68275000D02*
X98425000Y-68535000D01*
%TO.C,C2*%
X121635000Y-69638748D02*
X121635000Y-70161252D01*
X123105000Y-69638748D02*
X123105000Y-70161252D01*
%TD*%
M02*
