%TF.GenerationSoftware,KiCad,Pcbnew,8.0.5*%
%TF.CreationDate,2024-12-04T08:57:26+06:00*%
%TF.ProjectId,MCU Datalogger,4d435520-4461-4746-916c-6f676765722e,rev?*%
%TF.SameCoordinates,Original*%
%TF.FileFunction,Drillmap*%
%TF.FilePolarity,Positive*%
%FSLAX45Y45*%
G04 Gerber Fmt 4.5, Leading zero omitted, Abs format (unit mm)*
G04 Created by KiCad (PCBNEW 8.0.5) date 2024-12-04 08:57:26*
%MOMM*%
%LPD*%
G01*
G04 APERTURE LIST*
%ADD10C,0.050000*%
%ADD11C,0.200000*%
%ADD12C,0.210000*%
G04 APERTURE END LIST*
D10*
X9000000Y-8200000D02*
X9000000Y-6250000D01*
X9000000Y-6250000D02*
G75*
G02*
X9250000Y-6000000I0J250000D01*
G01*
X9250000Y-8450000D02*
G75*
G02*
X9000000Y-8200000I-250000J0D01*
G01*
X13500000Y-6225000D02*
X13500000Y-8225000D01*
X13500000Y-8225000D02*
G75*
G02*
X13250000Y-8475000I0J-250000D01*
G01*
X9250000Y-6000000D02*
X13251241Y-5999876D01*
X9250000Y-8450000D02*
X13250000Y-8450000D01*
X13250000Y-8475000D02*
X13250000Y-8450000D01*
X13251241Y-5999876D02*
G75*
G02*
X13500000Y-6225000I248759J24876D01*
G01*
D11*
D12*
X8895000Y-5895000D02*
X9105000Y-6105000D01*
X9105000Y-5895000D02*
X8895000Y-6105000D01*
X8895000Y-8345000D02*
X9105000Y-8555000D01*
X9105000Y-8345000D02*
X8895000Y-8555000D01*
X13395000Y-5870000D02*
X13605000Y-6080000D01*
X13605000Y-5870000D02*
X13395000Y-6080000D01*
X13395000Y-8370000D02*
X13605000Y-8580000D01*
X13605000Y-8370000D02*
X13395000Y-8580000D01*
D11*
X9008277Y-9038984D02*
X9008277Y-8838984D01*
X9008277Y-8838984D02*
X9055896Y-8838984D01*
X9055896Y-8838984D02*
X9084467Y-8848508D01*
X9084467Y-8848508D02*
X9103515Y-8867555D01*
X9103515Y-8867555D02*
X9113039Y-8886603D01*
X9113039Y-8886603D02*
X9122563Y-8924698D01*
X9122563Y-8924698D02*
X9122563Y-8953270D01*
X9122563Y-8953270D02*
X9113039Y-8991365D01*
X9113039Y-8991365D02*
X9103515Y-9010412D01*
X9103515Y-9010412D02*
X9084467Y-9029460D01*
X9084467Y-9029460D02*
X9055896Y-9038984D01*
X9055896Y-9038984D02*
X9008277Y-9038984D01*
X9208277Y-9038984D02*
X9208277Y-8905650D01*
X9208277Y-8943746D02*
X9217801Y-8924698D01*
X9217801Y-8924698D02*
X9227324Y-8915174D01*
X9227324Y-8915174D02*
X9246372Y-8905650D01*
X9246372Y-8905650D02*
X9265420Y-8905650D01*
X9332086Y-9038984D02*
X9332086Y-8905650D01*
X9332086Y-8838984D02*
X9322563Y-8848508D01*
X9322563Y-8848508D02*
X9332086Y-8858031D01*
X9332086Y-8858031D02*
X9341610Y-8848508D01*
X9341610Y-8848508D02*
X9332086Y-8838984D01*
X9332086Y-8838984D02*
X9332086Y-8858031D01*
X9455896Y-9038984D02*
X9436848Y-9029460D01*
X9436848Y-9029460D02*
X9427324Y-9010412D01*
X9427324Y-9010412D02*
X9427324Y-8838984D01*
X9560658Y-9038984D02*
X9541610Y-9029460D01*
X9541610Y-9029460D02*
X9532086Y-9010412D01*
X9532086Y-9010412D02*
X9532086Y-8838984D01*
X9789229Y-9038984D02*
X9789229Y-8838984D01*
X9789229Y-8838984D02*
X9855896Y-8981841D01*
X9855896Y-8981841D02*
X9922563Y-8838984D01*
X9922563Y-8838984D02*
X9922563Y-9038984D01*
X10103515Y-9038984D02*
X10103515Y-8934222D01*
X10103515Y-8934222D02*
X10093991Y-8915174D01*
X10093991Y-8915174D02*
X10074944Y-8905650D01*
X10074944Y-8905650D02*
X10036848Y-8905650D01*
X10036848Y-8905650D02*
X10017801Y-8915174D01*
X10103515Y-9029460D02*
X10084467Y-9038984D01*
X10084467Y-9038984D02*
X10036848Y-9038984D01*
X10036848Y-9038984D02*
X10017801Y-9029460D01*
X10017801Y-9029460D02*
X10008277Y-9010412D01*
X10008277Y-9010412D02*
X10008277Y-8991365D01*
X10008277Y-8991365D02*
X10017801Y-8972317D01*
X10017801Y-8972317D02*
X10036848Y-8962793D01*
X10036848Y-8962793D02*
X10084467Y-8962793D01*
X10084467Y-8962793D02*
X10103515Y-8953270D01*
X10198753Y-8905650D02*
X10198753Y-9105650D01*
X10198753Y-8915174D02*
X10217801Y-8905650D01*
X10217801Y-8905650D02*
X10255896Y-8905650D01*
X10255896Y-8905650D02*
X10274944Y-8915174D01*
X10274944Y-8915174D02*
X10284467Y-8924698D01*
X10284467Y-8924698D02*
X10293991Y-8943746D01*
X10293991Y-8943746D02*
X10293991Y-9000889D01*
X10293991Y-9000889D02*
X10284467Y-9019936D01*
X10284467Y-9019936D02*
X10274944Y-9029460D01*
X10274944Y-9029460D02*
X10255896Y-9038984D01*
X10255896Y-9038984D02*
X10217801Y-9038984D01*
X10217801Y-9038984D02*
X10198753Y-9029460D01*
X10379705Y-9019936D02*
X10389229Y-9029460D01*
X10389229Y-9029460D02*
X10379705Y-9038984D01*
X10379705Y-9038984D02*
X10370182Y-9029460D01*
X10370182Y-9029460D02*
X10379705Y-9019936D01*
X10379705Y-9019936D02*
X10379705Y-9038984D01*
X10379705Y-8915174D02*
X10389229Y-8924698D01*
X10389229Y-8924698D02*
X10379705Y-8934222D01*
X10379705Y-8934222D02*
X10370182Y-8924698D01*
X10370182Y-8924698D02*
X10379705Y-8915174D01*
X10379705Y-8915174D02*
X10379705Y-8934222D01*
X8547500Y-9267500D02*
X8747500Y-9467500D01*
X8747500Y-9267500D02*
X8547500Y-9467500D01*
X8998753Y-9278031D02*
X9008277Y-9268508D01*
X9008277Y-9268508D02*
X9027324Y-9258984D01*
X9027324Y-9258984D02*
X9074944Y-9258984D01*
X9074944Y-9258984D02*
X9093991Y-9268508D01*
X9093991Y-9268508D02*
X9103515Y-9278031D01*
X9103515Y-9278031D02*
X9113039Y-9297079D01*
X9113039Y-9297079D02*
X9113039Y-9316127D01*
X9113039Y-9316127D02*
X9103515Y-9344698D01*
X9103515Y-9344698D02*
X8989229Y-9458984D01*
X8989229Y-9458984D02*
X9113039Y-9458984D01*
X9198753Y-9439936D02*
X9208277Y-9449460D01*
X9208277Y-9449460D02*
X9198753Y-9458984D01*
X9198753Y-9458984D02*
X9189229Y-9449460D01*
X9189229Y-9449460D02*
X9198753Y-9439936D01*
X9198753Y-9439936D02*
X9198753Y-9458984D01*
X9398753Y-9458984D02*
X9284467Y-9458984D01*
X9341610Y-9458984D02*
X9341610Y-9258984D01*
X9341610Y-9258984D02*
X9322563Y-9287555D01*
X9322563Y-9287555D02*
X9303515Y-9306603D01*
X9303515Y-9306603D02*
X9284467Y-9316127D01*
X9522563Y-9258984D02*
X9541610Y-9258984D01*
X9541610Y-9258984D02*
X9560658Y-9268508D01*
X9560658Y-9268508D02*
X9570182Y-9278031D01*
X9570182Y-9278031D02*
X9579705Y-9297079D01*
X9579705Y-9297079D02*
X9589229Y-9335174D01*
X9589229Y-9335174D02*
X9589229Y-9382793D01*
X9589229Y-9382793D02*
X9579705Y-9420889D01*
X9579705Y-9420889D02*
X9570182Y-9439936D01*
X9570182Y-9439936D02*
X9560658Y-9449460D01*
X9560658Y-9449460D02*
X9541610Y-9458984D01*
X9541610Y-9458984D02*
X9522563Y-9458984D01*
X9522563Y-9458984D02*
X9503515Y-9449460D01*
X9503515Y-9449460D02*
X9493991Y-9439936D01*
X9493991Y-9439936D02*
X9484467Y-9420889D01*
X9484467Y-9420889D02*
X9474944Y-9382793D01*
X9474944Y-9382793D02*
X9474944Y-9335174D01*
X9474944Y-9335174D02*
X9484467Y-9297079D01*
X9484467Y-9297079D02*
X9493991Y-9278031D01*
X9493991Y-9278031D02*
X9503515Y-9268508D01*
X9503515Y-9268508D02*
X9522563Y-9258984D01*
X9713039Y-9258984D02*
X9732086Y-9258984D01*
X9732086Y-9258984D02*
X9751134Y-9268508D01*
X9751134Y-9268508D02*
X9760658Y-9278031D01*
X9760658Y-9278031D02*
X9770182Y-9297079D01*
X9770182Y-9297079D02*
X9779705Y-9335174D01*
X9779705Y-9335174D02*
X9779705Y-9382793D01*
X9779705Y-9382793D02*
X9770182Y-9420889D01*
X9770182Y-9420889D02*
X9760658Y-9439936D01*
X9760658Y-9439936D02*
X9751134Y-9449460D01*
X9751134Y-9449460D02*
X9732086Y-9458984D01*
X9732086Y-9458984D02*
X9713039Y-9458984D01*
X9713039Y-9458984D02*
X9693991Y-9449460D01*
X9693991Y-9449460D02*
X9684467Y-9439936D01*
X9684467Y-9439936D02*
X9674944Y-9420889D01*
X9674944Y-9420889D02*
X9665420Y-9382793D01*
X9665420Y-9382793D02*
X9665420Y-9335174D01*
X9665420Y-9335174D02*
X9674944Y-9297079D01*
X9674944Y-9297079D02*
X9684467Y-9278031D01*
X9684467Y-9278031D02*
X9693991Y-9268508D01*
X9693991Y-9268508D02*
X9713039Y-9258984D01*
X9865420Y-9458984D02*
X9865420Y-9325650D01*
X9865420Y-9344698D02*
X9874944Y-9335174D01*
X9874944Y-9335174D02*
X9893991Y-9325650D01*
X9893991Y-9325650D02*
X9922563Y-9325650D01*
X9922563Y-9325650D02*
X9941610Y-9335174D01*
X9941610Y-9335174D02*
X9951134Y-9354222D01*
X9951134Y-9354222D02*
X9951134Y-9458984D01*
X9951134Y-9354222D02*
X9960658Y-9335174D01*
X9960658Y-9335174D02*
X9979705Y-9325650D01*
X9979705Y-9325650D02*
X10008277Y-9325650D01*
X10008277Y-9325650D02*
X10027325Y-9335174D01*
X10027325Y-9335174D02*
X10036848Y-9354222D01*
X10036848Y-9354222D02*
X10036848Y-9458984D01*
X10132086Y-9458984D02*
X10132086Y-9325650D01*
X10132086Y-9344698D02*
X10141610Y-9335174D01*
X10141610Y-9335174D02*
X10160658Y-9325650D01*
X10160658Y-9325650D02*
X10189229Y-9325650D01*
X10189229Y-9325650D02*
X10208277Y-9335174D01*
X10208277Y-9335174D02*
X10217801Y-9354222D01*
X10217801Y-9354222D02*
X10217801Y-9458984D01*
X10217801Y-9354222D02*
X10227325Y-9335174D01*
X10227325Y-9335174D02*
X10246372Y-9325650D01*
X10246372Y-9325650D02*
X10274944Y-9325650D01*
X10274944Y-9325650D02*
X10293991Y-9335174D01*
X10293991Y-9335174D02*
X10303515Y-9354222D01*
X10303515Y-9354222D02*
X10303515Y-9458984D01*
X10693991Y-9249460D02*
X10522563Y-9506603D01*
X10951134Y-9258984D02*
X10970182Y-9258984D01*
X10970182Y-9258984D02*
X10989229Y-9268508D01*
X10989229Y-9268508D02*
X10998753Y-9278031D01*
X10998753Y-9278031D02*
X11008277Y-9297079D01*
X11008277Y-9297079D02*
X11017801Y-9335174D01*
X11017801Y-9335174D02*
X11017801Y-9382793D01*
X11017801Y-9382793D02*
X11008277Y-9420889D01*
X11008277Y-9420889D02*
X10998753Y-9439936D01*
X10998753Y-9439936D02*
X10989229Y-9449460D01*
X10989229Y-9449460D02*
X10970182Y-9458984D01*
X10970182Y-9458984D02*
X10951134Y-9458984D01*
X10951134Y-9458984D02*
X10932087Y-9449460D01*
X10932087Y-9449460D02*
X10922563Y-9439936D01*
X10922563Y-9439936D02*
X10913039Y-9420889D01*
X10913039Y-9420889D02*
X10903515Y-9382793D01*
X10903515Y-9382793D02*
X10903515Y-9335174D01*
X10903515Y-9335174D02*
X10913039Y-9297079D01*
X10913039Y-9297079D02*
X10922563Y-9278031D01*
X10922563Y-9278031D02*
X10932087Y-9268508D01*
X10932087Y-9268508D02*
X10951134Y-9258984D01*
X11103515Y-9439936D02*
X11113039Y-9449460D01*
X11113039Y-9449460D02*
X11103515Y-9458984D01*
X11103515Y-9458984D02*
X11093991Y-9449460D01*
X11093991Y-9449460D02*
X11103515Y-9439936D01*
X11103515Y-9439936D02*
X11103515Y-9458984D01*
X11236848Y-9258984D02*
X11255896Y-9258984D01*
X11255896Y-9258984D02*
X11274944Y-9268508D01*
X11274944Y-9268508D02*
X11284467Y-9278031D01*
X11284467Y-9278031D02*
X11293991Y-9297079D01*
X11293991Y-9297079D02*
X11303515Y-9335174D01*
X11303515Y-9335174D02*
X11303515Y-9382793D01*
X11303515Y-9382793D02*
X11293991Y-9420889D01*
X11293991Y-9420889D02*
X11284467Y-9439936D01*
X11284467Y-9439936D02*
X11274944Y-9449460D01*
X11274944Y-9449460D02*
X11255896Y-9458984D01*
X11255896Y-9458984D02*
X11236848Y-9458984D01*
X11236848Y-9458984D02*
X11217801Y-9449460D01*
X11217801Y-9449460D02*
X11208277Y-9439936D01*
X11208277Y-9439936D02*
X11198753Y-9420889D01*
X11198753Y-9420889D02*
X11189229Y-9382793D01*
X11189229Y-9382793D02*
X11189229Y-9335174D01*
X11189229Y-9335174D02*
X11198753Y-9297079D01*
X11198753Y-9297079D02*
X11208277Y-9278031D01*
X11208277Y-9278031D02*
X11217801Y-9268508D01*
X11217801Y-9268508D02*
X11236848Y-9258984D01*
X11417801Y-9344698D02*
X11398753Y-9335174D01*
X11398753Y-9335174D02*
X11389229Y-9325650D01*
X11389229Y-9325650D02*
X11379706Y-9306603D01*
X11379706Y-9306603D02*
X11379706Y-9297079D01*
X11379706Y-9297079D02*
X11389229Y-9278031D01*
X11389229Y-9278031D02*
X11398753Y-9268508D01*
X11398753Y-9268508D02*
X11417801Y-9258984D01*
X11417801Y-9258984D02*
X11455896Y-9258984D01*
X11455896Y-9258984D02*
X11474944Y-9268508D01*
X11474944Y-9268508D02*
X11484467Y-9278031D01*
X11484467Y-9278031D02*
X11493991Y-9297079D01*
X11493991Y-9297079D02*
X11493991Y-9306603D01*
X11493991Y-9306603D02*
X11484467Y-9325650D01*
X11484467Y-9325650D02*
X11474944Y-9335174D01*
X11474944Y-9335174D02*
X11455896Y-9344698D01*
X11455896Y-9344698D02*
X11417801Y-9344698D01*
X11417801Y-9344698D02*
X11398753Y-9354222D01*
X11398753Y-9354222D02*
X11389229Y-9363746D01*
X11389229Y-9363746D02*
X11379706Y-9382793D01*
X11379706Y-9382793D02*
X11379706Y-9420889D01*
X11379706Y-9420889D02*
X11389229Y-9439936D01*
X11389229Y-9439936D02*
X11398753Y-9449460D01*
X11398753Y-9449460D02*
X11417801Y-9458984D01*
X11417801Y-9458984D02*
X11455896Y-9458984D01*
X11455896Y-9458984D02*
X11474944Y-9449460D01*
X11474944Y-9449460D02*
X11484467Y-9439936D01*
X11484467Y-9439936D02*
X11493991Y-9420889D01*
X11493991Y-9420889D02*
X11493991Y-9382793D01*
X11493991Y-9382793D02*
X11484467Y-9363746D01*
X11484467Y-9363746D02*
X11474944Y-9354222D01*
X11474944Y-9354222D02*
X11455896Y-9344698D01*
X11570182Y-9278031D02*
X11579706Y-9268508D01*
X11579706Y-9268508D02*
X11598753Y-9258984D01*
X11598753Y-9258984D02*
X11646372Y-9258984D01*
X11646372Y-9258984D02*
X11665420Y-9268508D01*
X11665420Y-9268508D02*
X11674944Y-9278031D01*
X11674944Y-9278031D02*
X11684467Y-9297079D01*
X11684467Y-9297079D02*
X11684467Y-9316127D01*
X11684467Y-9316127D02*
X11674944Y-9344698D01*
X11674944Y-9344698D02*
X11560658Y-9458984D01*
X11560658Y-9458984D02*
X11684467Y-9458984D01*
X11751134Y-9258984D02*
X11884467Y-9258984D01*
X11884467Y-9258984D02*
X11798753Y-9458984D01*
X11951134Y-9258984D02*
X11951134Y-9297079D01*
X12027325Y-9258984D02*
X12027325Y-9297079D01*
X12322563Y-9535174D02*
X12313039Y-9525650D01*
X12313039Y-9525650D02*
X12293991Y-9497079D01*
X12293991Y-9497079D02*
X12284468Y-9478031D01*
X12284468Y-9478031D02*
X12274944Y-9449460D01*
X12274944Y-9449460D02*
X12265420Y-9401841D01*
X12265420Y-9401841D02*
X12265420Y-9363746D01*
X12265420Y-9363746D02*
X12274944Y-9316127D01*
X12274944Y-9316127D02*
X12284468Y-9287555D01*
X12284468Y-9287555D02*
X12293991Y-9268508D01*
X12293991Y-9268508D02*
X12313039Y-9239936D01*
X12313039Y-9239936D02*
X12322563Y-9230412D01*
X12484468Y-9325650D02*
X12484468Y-9458984D01*
X12436848Y-9249460D02*
X12389229Y-9392317D01*
X12389229Y-9392317D02*
X12513039Y-9392317D01*
X12741610Y-9458984D02*
X12741610Y-9258984D01*
X12827325Y-9458984D02*
X12827325Y-9354222D01*
X12827325Y-9354222D02*
X12817801Y-9335174D01*
X12817801Y-9335174D02*
X12798753Y-9325650D01*
X12798753Y-9325650D02*
X12770182Y-9325650D01*
X12770182Y-9325650D02*
X12751134Y-9335174D01*
X12751134Y-9335174D02*
X12741610Y-9344698D01*
X12951134Y-9458984D02*
X12932087Y-9449460D01*
X12932087Y-9449460D02*
X12922563Y-9439936D01*
X12922563Y-9439936D02*
X12913039Y-9420889D01*
X12913039Y-9420889D02*
X12913039Y-9363746D01*
X12913039Y-9363746D02*
X12922563Y-9344698D01*
X12922563Y-9344698D02*
X12932087Y-9335174D01*
X12932087Y-9335174D02*
X12951134Y-9325650D01*
X12951134Y-9325650D02*
X12979706Y-9325650D01*
X12979706Y-9325650D02*
X12998753Y-9335174D01*
X12998753Y-9335174D02*
X13008277Y-9344698D01*
X13008277Y-9344698D02*
X13017801Y-9363746D01*
X13017801Y-9363746D02*
X13017801Y-9420889D01*
X13017801Y-9420889D02*
X13008277Y-9439936D01*
X13008277Y-9439936D02*
X12998753Y-9449460D01*
X12998753Y-9449460D02*
X12979706Y-9458984D01*
X12979706Y-9458984D02*
X12951134Y-9458984D01*
X13132087Y-9458984D02*
X13113039Y-9449460D01*
X13113039Y-9449460D02*
X13103515Y-9430412D01*
X13103515Y-9430412D02*
X13103515Y-9258984D01*
X13284468Y-9449460D02*
X13265420Y-9458984D01*
X13265420Y-9458984D02*
X13227325Y-9458984D01*
X13227325Y-9458984D02*
X13208277Y-9449460D01*
X13208277Y-9449460D02*
X13198753Y-9430412D01*
X13198753Y-9430412D02*
X13198753Y-9354222D01*
X13198753Y-9354222D02*
X13208277Y-9335174D01*
X13208277Y-9335174D02*
X13227325Y-9325650D01*
X13227325Y-9325650D02*
X13265420Y-9325650D01*
X13265420Y-9325650D02*
X13284468Y-9335174D01*
X13284468Y-9335174D02*
X13293991Y-9354222D01*
X13293991Y-9354222D02*
X13293991Y-9373270D01*
X13293991Y-9373270D02*
X13198753Y-9392317D01*
X13370182Y-9449460D02*
X13389230Y-9458984D01*
X13389230Y-9458984D02*
X13427325Y-9458984D01*
X13427325Y-9458984D02*
X13446372Y-9449460D01*
X13446372Y-9449460D02*
X13455896Y-9430412D01*
X13455896Y-9430412D02*
X13455896Y-9420889D01*
X13455896Y-9420889D02*
X13446372Y-9401841D01*
X13446372Y-9401841D02*
X13427325Y-9392317D01*
X13427325Y-9392317D02*
X13398753Y-9392317D01*
X13398753Y-9392317D02*
X13379706Y-9382793D01*
X13379706Y-9382793D02*
X13370182Y-9363746D01*
X13370182Y-9363746D02*
X13370182Y-9354222D01*
X13370182Y-9354222D02*
X13379706Y-9335174D01*
X13379706Y-9335174D02*
X13398753Y-9325650D01*
X13398753Y-9325650D02*
X13427325Y-9325650D01*
X13427325Y-9325650D02*
X13446372Y-9335174D01*
X13522563Y-9535174D02*
X13532087Y-9525650D01*
X13532087Y-9525650D02*
X13551134Y-9497079D01*
X13551134Y-9497079D02*
X13560658Y-9478031D01*
X13560658Y-9478031D02*
X13570182Y-9449460D01*
X13570182Y-9449460D02*
X13579706Y-9401841D01*
X13579706Y-9401841D02*
X13579706Y-9363746D01*
X13579706Y-9363746D02*
X13570182Y-9316127D01*
X13570182Y-9316127D02*
X13560658Y-9287555D01*
X13560658Y-9287555D02*
X13551134Y-9268508D01*
X13551134Y-9268508D02*
X13532087Y-9239936D01*
X13532087Y-9239936D02*
X13522563Y-9230412D01*
X13884468Y-9535174D02*
X13874944Y-9525650D01*
X13874944Y-9525650D02*
X13855896Y-9497079D01*
X13855896Y-9497079D02*
X13846372Y-9478031D01*
X13846372Y-9478031D02*
X13836849Y-9449460D01*
X13836849Y-9449460D02*
X13827325Y-9401841D01*
X13827325Y-9401841D02*
X13827325Y-9363746D01*
X13827325Y-9363746D02*
X13836849Y-9316127D01*
X13836849Y-9316127D02*
X13846372Y-9287555D01*
X13846372Y-9287555D02*
X13855896Y-9268508D01*
X13855896Y-9268508D02*
X13874944Y-9239936D01*
X13874944Y-9239936D02*
X13884468Y-9230412D01*
X13960658Y-9325650D02*
X13960658Y-9458984D01*
X13960658Y-9344698D02*
X13970182Y-9335174D01*
X13970182Y-9335174D02*
X13989230Y-9325650D01*
X13989230Y-9325650D02*
X14017801Y-9325650D01*
X14017801Y-9325650D02*
X14036849Y-9335174D01*
X14036849Y-9335174D02*
X14046372Y-9354222D01*
X14046372Y-9354222D02*
X14046372Y-9458984D01*
X14170182Y-9458984D02*
X14151134Y-9449460D01*
X14151134Y-9449460D02*
X14141611Y-9439936D01*
X14141611Y-9439936D02*
X14132087Y-9420889D01*
X14132087Y-9420889D02*
X14132087Y-9363746D01*
X14132087Y-9363746D02*
X14141611Y-9344698D01*
X14141611Y-9344698D02*
X14151134Y-9335174D01*
X14151134Y-9335174D02*
X14170182Y-9325650D01*
X14170182Y-9325650D02*
X14198753Y-9325650D01*
X14198753Y-9325650D02*
X14217801Y-9335174D01*
X14217801Y-9335174D02*
X14227325Y-9344698D01*
X14227325Y-9344698D02*
X14236849Y-9363746D01*
X14236849Y-9363746D02*
X14236849Y-9420889D01*
X14236849Y-9420889D02*
X14227325Y-9439936D01*
X14227325Y-9439936D02*
X14217801Y-9449460D01*
X14217801Y-9449460D02*
X14198753Y-9458984D01*
X14198753Y-9458984D02*
X14170182Y-9458984D01*
X14293992Y-9325650D02*
X14370182Y-9325650D01*
X14322563Y-9258984D02*
X14322563Y-9430412D01*
X14322563Y-9430412D02*
X14332087Y-9449460D01*
X14332087Y-9449460D02*
X14351134Y-9458984D01*
X14351134Y-9458984D02*
X14370182Y-9458984D01*
X14589230Y-9325650D02*
X14589230Y-9525650D01*
X14589230Y-9335174D02*
X14608277Y-9325650D01*
X14608277Y-9325650D02*
X14646373Y-9325650D01*
X14646373Y-9325650D02*
X14665420Y-9335174D01*
X14665420Y-9335174D02*
X14674944Y-9344698D01*
X14674944Y-9344698D02*
X14684468Y-9363746D01*
X14684468Y-9363746D02*
X14684468Y-9420889D01*
X14684468Y-9420889D02*
X14674944Y-9439936D01*
X14674944Y-9439936D02*
X14665420Y-9449460D01*
X14665420Y-9449460D02*
X14646373Y-9458984D01*
X14646373Y-9458984D02*
X14608277Y-9458984D01*
X14608277Y-9458984D02*
X14589230Y-9449460D01*
X14798753Y-9458984D02*
X14779706Y-9449460D01*
X14779706Y-9449460D02*
X14770182Y-9430412D01*
X14770182Y-9430412D02*
X14770182Y-9258984D01*
X14960658Y-9458984D02*
X14960658Y-9354222D01*
X14960658Y-9354222D02*
X14951134Y-9335174D01*
X14951134Y-9335174D02*
X14932087Y-9325650D01*
X14932087Y-9325650D02*
X14893992Y-9325650D01*
X14893992Y-9325650D02*
X14874944Y-9335174D01*
X14960658Y-9449460D02*
X14941611Y-9458984D01*
X14941611Y-9458984D02*
X14893992Y-9458984D01*
X14893992Y-9458984D02*
X14874944Y-9449460D01*
X14874944Y-9449460D02*
X14865420Y-9430412D01*
X14865420Y-9430412D02*
X14865420Y-9411365D01*
X14865420Y-9411365D02*
X14874944Y-9392317D01*
X14874944Y-9392317D02*
X14893992Y-9382793D01*
X14893992Y-9382793D02*
X14941611Y-9382793D01*
X14941611Y-9382793D02*
X14960658Y-9373270D01*
X15027325Y-9325650D02*
X15103515Y-9325650D01*
X15055896Y-9258984D02*
X15055896Y-9430412D01*
X15055896Y-9430412D02*
X15065420Y-9449460D01*
X15065420Y-9449460D02*
X15084468Y-9458984D01*
X15084468Y-9458984D02*
X15103515Y-9458984D01*
X15246373Y-9449460D02*
X15227325Y-9458984D01*
X15227325Y-9458984D02*
X15189230Y-9458984D01*
X15189230Y-9458984D02*
X15170182Y-9449460D01*
X15170182Y-9449460D02*
X15160658Y-9430412D01*
X15160658Y-9430412D02*
X15160658Y-9354222D01*
X15160658Y-9354222D02*
X15170182Y-9335174D01*
X15170182Y-9335174D02*
X15189230Y-9325650D01*
X15189230Y-9325650D02*
X15227325Y-9325650D01*
X15227325Y-9325650D02*
X15246373Y-9335174D01*
X15246373Y-9335174D02*
X15255896Y-9354222D01*
X15255896Y-9354222D02*
X15255896Y-9373270D01*
X15255896Y-9373270D02*
X15160658Y-9392317D01*
X15427325Y-9458984D02*
X15427325Y-9258984D01*
X15427325Y-9449460D02*
X15408277Y-9458984D01*
X15408277Y-9458984D02*
X15370182Y-9458984D01*
X15370182Y-9458984D02*
X15351134Y-9449460D01*
X15351134Y-9449460D02*
X15341611Y-9439936D01*
X15341611Y-9439936D02*
X15332087Y-9420889D01*
X15332087Y-9420889D02*
X15332087Y-9363746D01*
X15332087Y-9363746D02*
X15341611Y-9344698D01*
X15341611Y-9344698D02*
X15351134Y-9335174D01*
X15351134Y-9335174D02*
X15370182Y-9325650D01*
X15370182Y-9325650D02*
X15408277Y-9325650D01*
X15408277Y-9325650D02*
X15427325Y-9335174D01*
X15503515Y-9535174D02*
X15513039Y-9525650D01*
X15513039Y-9525650D02*
X15532087Y-9497079D01*
X15532087Y-9497079D02*
X15541611Y-9478031D01*
X15541611Y-9478031D02*
X15551134Y-9449460D01*
X15551134Y-9449460D02*
X15560658Y-9401841D01*
X15560658Y-9401841D02*
X15560658Y-9363746D01*
X15560658Y-9363746D02*
X15551134Y-9316127D01*
X15551134Y-9316127D02*
X15541611Y-9287555D01*
X15541611Y-9287555D02*
X15532087Y-9268508D01*
X15532087Y-9268508D02*
X15513039Y-9239936D01*
X15513039Y-9239936D02*
X15503515Y-9230412D01*
M02*
