%TF.GenerationSoftware,KiCad,Pcbnew,8.0.5*%
%TF.CreationDate,2024-12-04T08:56:06+06:00*%
%TF.ProjectId,MCU Datalogger,4d435520-4461-4746-916c-6f676765722e,rev?*%
%TF.SameCoordinates,Original*%
%TF.FileFunction,Paste,Top*%
%TF.FilePolarity,Positive*%
%FSLAX46Y46*%
G04 Gerber Fmt 4.6, Leading zero omitted, Abs format (unit mm)*
G04 Created by KiCad (PCBNEW 8.0.5) date 2024-12-04 08:56:06*
%MOMM*%
%LPD*%
G01*
G04 APERTURE LIST*
G04 Aperture macros list*
%AMRoundRect*
0 Rectangle with rounded corners*
0 $1 Rounding radius*
0 $2 $3 $4 $5 $6 $7 $8 $9 X,Y pos of 4 corners*
0 Add a 4 corners polygon primitive as box body*
4,1,4,$2,$3,$4,$5,$6,$7,$8,$9,$2,$3,0*
0 Add four circle primitives for the rounded corners*
1,1,$1+$1,$2,$3*
1,1,$1+$1,$4,$5*
1,1,$1+$1,$6,$7*
1,1,$1+$1,$8,$9*
0 Add four rect primitives between the rounded corners*
20,1,$1+$1,$2,$3,$4,$5,0*
20,1,$1+$1,$4,$5,$6,$7,0*
20,1,$1+$1,$6,$7,$8,$9,0*
20,1,$1+$1,$8,$9,$2,$3,0*%
G04 Aperture macros list end*
%ADD10RoundRect,0.150000X-0.650000X-0.150000X0.650000X-0.150000X0.650000X0.150000X-0.650000X0.150000X0*%
%ADD11RoundRect,0.250000X-0.450000X0.262500X-0.450000X-0.262500X0.450000X-0.262500X0.450000X0.262500X0*%
%ADD12RoundRect,0.068750X-0.666250X-0.206250X0.666250X-0.206250X0.666250X0.206250X-0.666250X0.206250X0*%
%ADD13RoundRect,0.068750X-0.206250X-0.666250X0.206250X-0.666250X0.206250X0.666250X-0.206250X0.666250X0*%
%ADD14RoundRect,0.073750X-0.911250X-0.221250X0.911250X-0.221250X0.911250X0.221250X-0.911250X0.221250X0*%
%ADD15RoundRect,0.250000X-0.475000X0.250000X-0.475000X-0.250000X0.475000X-0.250000X0.475000X0.250000X0*%
%ADD16R,3.500000X2.400000*%
%ADD17RoundRect,0.250000X0.250000X0.475000X-0.250000X0.475000X-0.250000X-0.475000X0.250000X-0.475000X0*%
%ADD18RoundRect,0.250000X-0.262500X-0.450000X0.262500X-0.450000X0.262500X0.450000X-0.262500X0.450000X0*%
%ADD19RoundRect,0.243750X0.243750X0.456250X-0.243750X0.456250X-0.243750X-0.456250X0.243750X-0.456250X0*%
%ADD20RoundRect,0.250000X-0.250000X-0.475000X0.250000X-0.475000X0.250000X0.475000X-0.250000X0.475000X0*%
%ADD21R,2.400000X3.500000*%
G04 APERTURE END LIST*
D10*
%TO.C,U3*%
X104750000Y-62595000D03*
X104750000Y-63865000D03*
X104750000Y-65135000D03*
X104750000Y-66405000D03*
X97550000Y-66405000D03*
X97550000Y-65135000D03*
X97550000Y-63865000D03*
X97550000Y-62595000D03*
%TD*%
D11*
%TO.C,R6*%
X118038000Y-61575000D03*
X118038000Y-63400000D03*
%TD*%
D12*
%TO.C,U2*%
X111830000Y-67700000D03*
X111830000Y-68500000D03*
X111830000Y-69300000D03*
X111830000Y-70100000D03*
X111830000Y-70900000D03*
X111830000Y-71700000D03*
X111830000Y-72500000D03*
X111830000Y-73300000D03*
D13*
X113200000Y-74670000D03*
X114000000Y-74670000D03*
X114800000Y-74670000D03*
X115600000Y-74670000D03*
X116400000Y-74670000D03*
X117200000Y-74670000D03*
X118000000Y-74670000D03*
X118800000Y-74670000D03*
D12*
X120170000Y-73300000D03*
X120170000Y-72500000D03*
X120170000Y-71700000D03*
X120170000Y-70900000D03*
X120170000Y-70100000D03*
X120170000Y-69300000D03*
X120170000Y-68500000D03*
X120170000Y-67700000D03*
D13*
X118800000Y-66330000D03*
X118000000Y-66330000D03*
X117200000Y-66330000D03*
X116400000Y-66330000D03*
X115600000Y-66330000D03*
X114800000Y-66330000D03*
X114000000Y-66330000D03*
X113200000Y-66330000D03*
%TD*%
D11*
%TO.C,R2*%
X110856000Y-61575000D03*
X110856000Y-63400000D03*
%TD*%
%TO.C,R1*%
X113250000Y-61575000D03*
X113250000Y-63400000D03*
%TD*%
D14*
%TO.C,U1*%
X103975000Y-75345000D03*
X103975000Y-76615000D03*
X103975000Y-77885000D03*
X103975000Y-79155000D03*
X99025000Y-79155000D03*
X99025000Y-77885000D03*
X99025000Y-76615000D03*
X99025000Y-75345000D03*
%TD*%
D11*
%TO.C,R5*%
X115644000Y-61575000D03*
X115644000Y-63400000D03*
%TD*%
D15*
%TO.C,C1*%
X108432000Y-61517500D03*
X108432000Y-63417500D03*
%TD*%
D16*
%TO.C,Y2*%
X115925600Y-78384400D03*
X110725600Y-78384400D03*
%TD*%
D11*
%TO.C,R7*%
X120432000Y-61575000D03*
X120432000Y-63400000D03*
%TD*%
D17*
%TO.C,C5*%
X109600000Y-74100000D03*
X107700000Y-74100000D03*
%TD*%
D18*
%TO.C,R3*%
X124437500Y-69350000D03*
X126262500Y-69350000D03*
%TD*%
D19*
%TO.C,D2*%
X124127500Y-72796400D03*
X122252500Y-72796400D03*
%TD*%
%TO.C,D1*%
X126250000Y-66600000D03*
X124375000Y-66600000D03*
%TD*%
D20*
%TO.C,C3*%
X122225700Y-74896400D03*
X124125700Y-74896400D03*
%TD*%
D21*
%TO.C,Y1*%
X94000000Y-72900000D03*
X94000000Y-78100000D03*
%TD*%
D17*
%TO.C,C4*%
X109600000Y-72000000D03*
X107700000Y-72000000D03*
%TD*%
D11*
%TO.C,R4*%
X126949200Y-72987500D03*
X126949200Y-74812500D03*
%TD*%
D10*
%TO.C,U4*%
X97550000Y-69095000D03*
X97550000Y-70365000D03*
X97550000Y-71635000D03*
X97550000Y-72905000D03*
X104750000Y-72905000D03*
X104750000Y-71635000D03*
X104750000Y-70365000D03*
X104750000Y-69095000D03*
%TD*%
D15*
%TO.C,C2*%
X122475700Y-69046400D03*
X122475700Y-70946400D03*
%TD*%
M02*
