%TF.GenerationSoftware,KiCad,Pcbnew,8.0.5*%
%TF.CreationDate,2024-12-04T08:56:06+06:00*%
%TF.ProjectId,MCU Datalogger,4d435520-4461-4746-916c-6f676765722e,rev?*%
%TF.SameCoordinates,Original*%
%TF.FileFunction,Legend,Top*%
%TF.FilePolarity,Positive*%
%FSLAX46Y46*%
G04 Gerber Fmt 4.6, Leading zero omitted, Abs format (unit mm)*
G04 Created by KiCad (PCBNEW 8.0.5) date 2024-12-04 08:56:06*
%MOMM*%
%LPD*%
G01*
G04 APERTURE LIST*
%ADD10C,0.100000*%
%ADD11C,0.200000*%
%ADD12C,0.075000*%
%ADD13C,0.120000*%
%ADD14C,0.127000*%
G04 APERTURE END LIST*
D10*
X121666000Y-61620400D02*
X127406400Y-61620400D01*
X127406400Y-64414400D01*
X121666000Y-64414400D01*
X121666000Y-61620400D01*
D11*
X120105273Y-79064419D02*
X120105273Y-78064419D01*
X120105273Y-78064419D02*
X120343368Y-78064419D01*
X120343368Y-78064419D02*
X120486225Y-78112038D01*
X120486225Y-78112038D02*
X120581463Y-78207276D01*
X120581463Y-78207276D02*
X120629082Y-78302514D01*
X120629082Y-78302514D02*
X120676701Y-78492990D01*
X120676701Y-78492990D02*
X120676701Y-78635847D01*
X120676701Y-78635847D02*
X120629082Y-78826323D01*
X120629082Y-78826323D02*
X120581463Y-78921561D01*
X120581463Y-78921561D02*
X120486225Y-79016800D01*
X120486225Y-79016800D02*
X120343368Y-79064419D01*
X120343368Y-79064419D02*
X120105273Y-79064419D01*
X121533844Y-79064419D02*
X121533844Y-78540609D01*
X121533844Y-78540609D02*
X121486225Y-78445371D01*
X121486225Y-78445371D02*
X121390987Y-78397752D01*
X121390987Y-78397752D02*
X121200511Y-78397752D01*
X121200511Y-78397752D02*
X121105273Y-78445371D01*
X121533844Y-79016800D02*
X121438606Y-79064419D01*
X121438606Y-79064419D02*
X121200511Y-79064419D01*
X121200511Y-79064419D02*
X121105273Y-79016800D01*
X121105273Y-79016800D02*
X121057654Y-78921561D01*
X121057654Y-78921561D02*
X121057654Y-78826323D01*
X121057654Y-78826323D02*
X121105273Y-78731085D01*
X121105273Y-78731085D02*
X121200511Y-78683466D01*
X121200511Y-78683466D02*
X121438606Y-78683466D01*
X121438606Y-78683466D02*
X121533844Y-78635847D01*
X121867178Y-78397752D02*
X122248130Y-78397752D01*
X122010035Y-78064419D02*
X122010035Y-78921561D01*
X122010035Y-78921561D02*
X122057654Y-79016800D01*
X122057654Y-79016800D02*
X122152892Y-79064419D01*
X122152892Y-79064419D02*
X122248130Y-79064419D01*
X123010035Y-79064419D02*
X123010035Y-78540609D01*
X123010035Y-78540609D02*
X122962416Y-78445371D01*
X122962416Y-78445371D02*
X122867178Y-78397752D01*
X122867178Y-78397752D02*
X122676702Y-78397752D01*
X122676702Y-78397752D02*
X122581464Y-78445371D01*
X123010035Y-79016800D02*
X122914797Y-79064419D01*
X122914797Y-79064419D02*
X122676702Y-79064419D01*
X122676702Y-79064419D02*
X122581464Y-79016800D01*
X122581464Y-79016800D02*
X122533845Y-78921561D01*
X122533845Y-78921561D02*
X122533845Y-78826323D01*
X122533845Y-78826323D02*
X122581464Y-78731085D01*
X122581464Y-78731085D02*
X122676702Y-78683466D01*
X122676702Y-78683466D02*
X122914797Y-78683466D01*
X122914797Y-78683466D02*
X123010035Y-78635847D01*
X124724321Y-79064419D02*
X124248131Y-79064419D01*
X124248131Y-79064419D02*
X124248131Y-78064419D01*
X125200512Y-79064419D02*
X125105274Y-79016800D01*
X125105274Y-79016800D02*
X125057655Y-78969180D01*
X125057655Y-78969180D02*
X125010036Y-78873942D01*
X125010036Y-78873942D02*
X125010036Y-78588228D01*
X125010036Y-78588228D02*
X125057655Y-78492990D01*
X125057655Y-78492990D02*
X125105274Y-78445371D01*
X125105274Y-78445371D02*
X125200512Y-78397752D01*
X125200512Y-78397752D02*
X125343369Y-78397752D01*
X125343369Y-78397752D02*
X125438607Y-78445371D01*
X125438607Y-78445371D02*
X125486226Y-78492990D01*
X125486226Y-78492990D02*
X125533845Y-78588228D01*
X125533845Y-78588228D02*
X125533845Y-78873942D01*
X125533845Y-78873942D02*
X125486226Y-78969180D01*
X125486226Y-78969180D02*
X125438607Y-79016800D01*
X125438607Y-79016800D02*
X125343369Y-79064419D01*
X125343369Y-79064419D02*
X125200512Y-79064419D01*
X126390988Y-78397752D02*
X126390988Y-79207276D01*
X126390988Y-79207276D02*
X126343369Y-79302514D01*
X126343369Y-79302514D02*
X126295750Y-79350133D01*
X126295750Y-79350133D02*
X126200512Y-79397752D01*
X126200512Y-79397752D02*
X126057655Y-79397752D01*
X126057655Y-79397752D02*
X125962417Y-79350133D01*
X126390988Y-79016800D02*
X126295750Y-79064419D01*
X126295750Y-79064419D02*
X126105274Y-79064419D01*
X126105274Y-79064419D02*
X126010036Y-79016800D01*
X126010036Y-79016800D02*
X125962417Y-78969180D01*
X125962417Y-78969180D02*
X125914798Y-78873942D01*
X125914798Y-78873942D02*
X125914798Y-78588228D01*
X125914798Y-78588228D02*
X125962417Y-78492990D01*
X125962417Y-78492990D02*
X126010036Y-78445371D01*
X126010036Y-78445371D02*
X126105274Y-78397752D01*
X126105274Y-78397752D02*
X126295750Y-78397752D01*
X126295750Y-78397752D02*
X126390988Y-78445371D01*
X127295750Y-78397752D02*
X127295750Y-79207276D01*
X127295750Y-79207276D02*
X127248131Y-79302514D01*
X127248131Y-79302514D02*
X127200512Y-79350133D01*
X127200512Y-79350133D02*
X127105274Y-79397752D01*
X127105274Y-79397752D02*
X126962417Y-79397752D01*
X126962417Y-79397752D02*
X126867179Y-79350133D01*
X127295750Y-79016800D02*
X127200512Y-79064419D01*
X127200512Y-79064419D02*
X127010036Y-79064419D01*
X127010036Y-79064419D02*
X126914798Y-79016800D01*
X126914798Y-79016800D02*
X126867179Y-78969180D01*
X126867179Y-78969180D02*
X126819560Y-78873942D01*
X126819560Y-78873942D02*
X126819560Y-78588228D01*
X126819560Y-78588228D02*
X126867179Y-78492990D01*
X126867179Y-78492990D02*
X126914798Y-78445371D01*
X126914798Y-78445371D02*
X127010036Y-78397752D01*
X127010036Y-78397752D02*
X127200512Y-78397752D01*
X127200512Y-78397752D02*
X127295750Y-78445371D01*
X128152893Y-79016800D02*
X128057655Y-79064419D01*
X128057655Y-79064419D02*
X127867179Y-79064419D01*
X127867179Y-79064419D02*
X127771941Y-79016800D01*
X127771941Y-79016800D02*
X127724322Y-78921561D01*
X127724322Y-78921561D02*
X127724322Y-78540609D01*
X127724322Y-78540609D02*
X127771941Y-78445371D01*
X127771941Y-78445371D02*
X127867179Y-78397752D01*
X127867179Y-78397752D02*
X128057655Y-78397752D01*
X128057655Y-78397752D02*
X128152893Y-78445371D01*
X128152893Y-78445371D02*
X128200512Y-78540609D01*
X128200512Y-78540609D02*
X128200512Y-78635847D01*
X128200512Y-78635847D02*
X127724322Y-78731085D01*
X128629084Y-79064419D02*
X128629084Y-78397752D01*
X128629084Y-78588228D02*
X128676703Y-78492990D01*
X128676703Y-78492990D02*
X128724322Y-78445371D01*
X128724322Y-78445371D02*
X128819560Y-78397752D01*
X128819560Y-78397752D02*
X128914798Y-78397752D01*
D10*
X109916017Y-80358009D02*
X110249350Y-80358009D01*
X110249350Y-80358009D02*
X110035065Y-80858009D01*
X107942722Y-80358009D02*
X107847484Y-80358009D01*
X107847484Y-80358009D02*
X107799865Y-80381819D01*
X107799865Y-80381819D02*
X107776055Y-80405628D01*
X107776055Y-80405628D02*
X107728436Y-80477057D01*
X107728436Y-80477057D02*
X107704627Y-80572295D01*
X107704627Y-80572295D02*
X107704627Y-80762771D01*
X107704627Y-80762771D02*
X107728436Y-80810390D01*
X107728436Y-80810390D02*
X107752246Y-80834200D01*
X107752246Y-80834200D02*
X107799865Y-80858009D01*
X107799865Y-80858009D02*
X107895103Y-80858009D01*
X107895103Y-80858009D02*
X107942722Y-80834200D01*
X107942722Y-80834200D02*
X107966531Y-80810390D01*
X107966531Y-80810390D02*
X107990341Y-80762771D01*
X107990341Y-80762771D02*
X107990341Y-80643723D01*
X107990341Y-80643723D02*
X107966531Y-80596104D01*
X107966531Y-80596104D02*
X107942722Y-80572295D01*
X107942722Y-80572295D02*
X107895103Y-80548485D01*
X107895103Y-80548485D02*
X107799865Y-80548485D01*
X107799865Y-80548485D02*
X107752246Y-80572295D01*
X107752246Y-80572295D02*
X107728436Y-80596104D01*
X107728436Y-80596104D02*
X107704627Y-80643723D01*
X97443027Y-80405628D02*
X97466836Y-80381819D01*
X97466836Y-80381819D02*
X97514455Y-80358009D01*
X97514455Y-80358009D02*
X97633503Y-80358009D01*
X97633503Y-80358009D02*
X97681122Y-80381819D01*
X97681122Y-80381819D02*
X97704931Y-80405628D01*
X97704931Y-80405628D02*
X97728741Y-80453247D01*
X97728741Y-80453247D02*
X97728741Y-80500866D01*
X97728741Y-80500866D02*
X97704931Y-80572295D01*
X97704931Y-80572295D02*
X97419217Y-80858009D01*
X97419217Y-80858009D02*
X97728741Y-80858009D01*
X121749236Y-61300009D02*
X121749236Y-60800009D01*
X122273045Y-61252390D02*
X122249236Y-61276200D01*
X122249236Y-61276200D02*
X122177807Y-61300009D01*
X122177807Y-61300009D02*
X122130188Y-61300009D01*
X122130188Y-61300009D02*
X122058760Y-61276200D01*
X122058760Y-61276200D02*
X122011141Y-61228580D01*
X122011141Y-61228580D02*
X121987331Y-61180961D01*
X121987331Y-61180961D02*
X121963522Y-61085723D01*
X121963522Y-61085723D02*
X121963522Y-61014295D01*
X121963522Y-61014295D02*
X121987331Y-60919057D01*
X121987331Y-60919057D02*
X122011141Y-60871438D01*
X122011141Y-60871438D02*
X122058760Y-60823819D01*
X122058760Y-60823819D02*
X122130188Y-60800009D01*
X122130188Y-60800009D02*
X122177807Y-60800009D01*
X122177807Y-60800009D02*
X122249236Y-60823819D01*
X122249236Y-60823819D02*
X122273045Y-60847628D01*
X122463522Y-61276200D02*
X122534950Y-61300009D01*
X122534950Y-61300009D02*
X122653998Y-61300009D01*
X122653998Y-61300009D02*
X122701617Y-61276200D01*
X122701617Y-61276200D02*
X122725426Y-61252390D01*
X122725426Y-61252390D02*
X122749236Y-61204771D01*
X122749236Y-61204771D02*
X122749236Y-61157152D01*
X122749236Y-61157152D02*
X122725426Y-61109533D01*
X122725426Y-61109533D02*
X122701617Y-61085723D01*
X122701617Y-61085723D02*
X122653998Y-61061914D01*
X122653998Y-61061914D02*
X122558760Y-61038104D01*
X122558760Y-61038104D02*
X122511141Y-61014295D01*
X122511141Y-61014295D02*
X122487331Y-60990485D01*
X122487331Y-60990485D02*
X122463522Y-60942866D01*
X122463522Y-60942866D02*
X122463522Y-60895247D01*
X122463522Y-60895247D02*
X122487331Y-60847628D01*
X122487331Y-60847628D02*
X122511141Y-60823819D01*
X122511141Y-60823819D02*
X122558760Y-60800009D01*
X122558760Y-60800009D02*
X122677807Y-60800009D01*
X122677807Y-60800009D02*
X122749236Y-60823819D01*
X122963521Y-61300009D02*
X122963521Y-60800009D01*
X122963521Y-60800009D02*
X123153997Y-60800009D01*
X123153997Y-60800009D02*
X123201616Y-60823819D01*
X123201616Y-60823819D02*
X123225426Y-60847628D01*
X123225426Y-60847628D02*
X123249235Y-60895247D01*
X123249235Y-60895247D02*
X123249235Y-60966676D01*
X123249235Y-60966676D02*
X123225426Y-61014295D01*
X123225426Y-61014295D02*
X123201616Y-61038104D01*
X123201616Y-61038104D02*
X123153997Y-61061914D01*
X123153997Y-61061914D02*
X122963521Y-61061914D01*
X94480409Y-65875791D02*
X94980409Y-65709125D01*
X94980409Y-65709125D02*
X94480409Y-65542458D01*
X94932790Y-65090078D02*
X94956600Y-65113887D01*
X94956600Y-65113887D02*
X94980409Y-65185316D01*
X94980409Y-65185316D02*
X94980409Y-65232935D01*
X94980409Y-65232935D02*
X94956600Y-65304363D01*
X94956600Y-65304363D02*
X94908980Y-65351982D01*
X94908980Y-65351982D02*
X94861361Y-65375792D01*
X94861361Y-65375792D02*
X94766123Y-65399601D01*
X94766123Y-65399601D02*
X94694695Y-65399601D01*
X94694695Y-65399601D02*
X94599457Y-65375792D01*
X94599457Y-65375792D02*
X94551838Y-65351982D01*
X94551838Y-65351982D02*
X94504219Y-65304363D01*
X94504219Y-65304363D02*
X94480409Y-65232935D01*
X94480409Y-65232935D02*
X94480409Y-65185316D01*
X94480409Y-65185316D02*
X94504219Y-65113887D01*
X94504219Y-65113887D02*
X94528028Y-65090078D01*
X94932790Y-64590078D02*
X94956600Y-64613887D01*
X94956600Y-64613887D02*
X94980409Y-64685316D01*
X94980409Y-64685316D02*
X94980409Y-64732935D01*
X94980409Y-64732935D02*
X94956600Y-64804363D01*
X94956600Y-64804363D02*
X94908980Y-64851982D01*
X94908980Y-64851982D02*
X94861361Y-64875792D01*
X94861361Y-64875792D02*
X94766123Y-64899601D01*
X94766123Y-64899601D02*
X94694695Y-64899601D01*
X94694695Y-64899601D02*
X94599457Y-64875792D01*
X94599457Y-64875792D02*
X94551838Y-64851982D01*
X94551838Y-64851982D02*
X94504219Y-64804363D01*
X94504219Y-64804363D02*
X94480409Y-64732935D01*
X94480409Y-64732935D02*
X94480409Y-64685316D01*
X94480409Y-64685316D02*
X94504219Y-64613887D01*
X94504219Y-64613887D02*
X94528028Y-64590078D01*
X94504219Y-68996858D02*
X94480409Y-69044477D01*
X94480409Y-69044477D02*
X94480409Y-69115906D01*
X94480409Y-69115906D02*
X94504219Y-69187334D01*
X94504219Y-69187334D02*
X94551838Y-69234953D01*
X94551838Y-69234953D02*
X94599457Y-69258763D01*
X94599457Y-69258763D02*
X94694695Y-69282572D01*
X94694695Y-69282572D02*
X94766123Y-69282572D01*
X94766123Y-69282572D02*
X94861361Y-69258763D01*
X94861361Y-69258763D02*
X94908980Y-69234953D01*
X94908980Y-69234953D02*
X94956600Y-69187334D01*
X94956600Y-69187334D02*
X94980409Y-69115906D01*
X94980409Y-69115906D02*
X94980409Y-69068287D01*
X94980409Y-69068287D02*
X94956600Y-68996858D01*
X94956600Y-68996858D02*
X94932790Y-68973049D01*
X94932790Y-68973049D02*
X94766123Y-68973049D01*
X94766123Y-68973049D02*
X94766123Y-69068287D01*
X94980409Y-68758763D02*
X94480409Y-68758763D01*
X94480409Y-68758763D02*
X94980409Y-68473049D01*
X94980409Y-68473049D02*
X94480409Y-68473049D01*
X94980409Y-68234953D02*
X94480409Y-68234953D01*
X94480409Y-68234953D02*
X94480409Y-68115905D01*
X94480409Y-68115905D02*
X94504219Y-68044477D01*
X94504219Y-68044477D02*
X94551838Y-67996858D01*
X94551838Y-67996858D02*
X94599457Y-67973048D01*
X94599457Y-67973048D02*
X94694695Y-67949239D01*
X94694695Y-67949239D02*
X94766123Y-67949239D01*
X94766123Y-67949239D02*
X94861361Y-67973048D01*
X94861361Y-67973048D02*
X94908980Y-67996858D01*
X94908980Y-67996858D02*
X94956600Y-68044477D01*
X94956600Y-68044477D02*
X94980409Y-68115905D01*
X94980409Y-68115905D02*
X94980409Y-68234953D01*
X102862722Y-80524676D02*
X102862722Y-80858009D01*
X102743674Y-80334200D02*
X102624627Y-80691342D01*
X102624627Y-80691342D02*
X102934150Y-80691342D01*
X115023008Y-80358009D02*
X115189674Y-80858009D01*
X115189674Y-80858009D02*
X115356341Y-80358009D01*
X115808721Y-80810390D02*
X115784912Y-80834200D01*
X115784912Y-80834200D02*
X115713483Y-80858009D01*
X115713483Y-80858009D02*
X115665864Y-80858009D01*
X115665864Y-80858009D02*
X115594436Y-80834200D01*
X115594436Y-80834200D02*
X115546817Y-80786580D01*
X115546817Y-80786580D02*
X115523007Y-80738961D01*
X115523007Y-80738961D02*
X115499198Y-80643723D01*
X115499198Y-80643723D02*
X115499198Y-80572295D01*
X115499198Y-80572295D02*
X115523007Y-80477057D01*
X115523007Y-80477057D02*
X115546817Y-80429438D01*
X115546817Y-80429438D02*
X115594436Y-80381819D01*
X115594436Y-80381819D02*
X115665864Y-80358009D01*
X115665864Y-80358009D02*
X115713483Y-80358009D01*
X115713483Y-80358009D02*
X115784912Y-80381819D01*
X115784912Y-80381819D02*
X115808721Y-80405628D01*
X116308721Y-80810390D02*
X116284912Y-80834200D01*
X116284912Y-80834200D02*
X116213483Y-80858009D01*
X116213483Y-80858009D02*
X116165864Y-80858009D01*
X116165864Y-80858009D02*
X116094436Y-80834200D01*
X116094436Y-80834200D02*
X116046817Y-80786580D01*
X116046817Y-80786580D02*
X116023007Y-80738961D01*
X116023007Y-80738961D02*
X115999198Y-80643723D01*
X115999198Y-80643723D02*
X115999198Y-80572295D01*
X115999198Y-80572295D02*
X116023007Y-80477057D01*
X116023007Y-80477057D02*
X116046817Y-80429438D01*
X116046817Y-80429438D02*
X116094436Y-80381819D01*
X116094436Y-80381819D02*
X116165864Y-80358009D01*
X116165864Y-80358009D02*
X116213483Y-80358009D01*
X116213483Y-80358009D02*
X116284912Y-80381819D01*
X116284912Y-80381819D02*
X116308721Y-80405628D01*
X100010017Y-80358009D02*
X100319541Y-80358009D01*
X100319541Y-80358009D02*
X100152874Y-80548485D01*
X100152874Y-80548485D02*
X100224303Y-80548485D01*
X100224303Y-80548485D02*
X100271922Y-80572295D01*
X100271922Y-80572295D02*
X100295731Y-80596104D01*
X100295731Y-80596104D02*
X100319541Y-80643723D01*
X100319541Y-80643723D02*
X100319541Y-80762771D01*
X100319541Y-80762771D02*
X100295731Y-80810390D01*
X100295731Y-80810390D02*
X100271922Y-80834200D01*
X100271922Y-80834200D02*
X100224303Y-80858009D01*
X100224303Y-80858009D02*
X100081446Y-80858009D01*
X100081446Y-80858009D02*
X100033827Y-80834200D01*
X100033827Y-80834200D02*
X100010017Y-80810390D01*
X112663941Y-80381819D02*
X112616322Y-80358009D01*
X112616322Y-80358009D02*
X112544893Y-80358009D01*
X112544893Y-80358009D02*
X112473465Y-80381819D01*
X112473465Y-80381819D02*
X112425846Y-80429438D01*
X112425846Y-80429438D02*
X112402036Y-80477057D01*
X112402036Y-80477057D02*
X112378227Y-80572295D01*
X112378227Y-80572295D02*
X112378227Y-80643723D01*
X112378227Y-80643723D02*
X112402036Y-80738961D01*
X112402036Y-80738961D02*
X112425846Y-80786580D01*
X112425846Y-80786580D02*
X112473465Y-80834200D01*
X112473465Y-80834200D02*
X112544893Y-80858009D01*
X112544893Y-80858009D02*
X112592512Y-80858009D01*
X112592512Y-80858009D02*
X112663941Y-80834200D01*
X112663941Y-80834200D02*
X112687750Y-80810390D01*
X112687750Y-80810390D02*
X112687750Y-80643723D01*
X112687750Y-80643723D02*
X112592512Y-80643723D01*
X112902036Y-80858009D02*
X112902036Y-80358009D01*
X112902036Y-80358009D02*
X113187750Y-80858009D01*
X113187750Y-80858009D02*
X113187750Y-80358009D01*
X113425846Y-80858009D02*
X113425846Y-80358009D01*
X113425846Y-80358009D02*
X113544894Y-80358009D01*
X113544894Y-80358009D02*
X113616322Y-80381819D01*
X113616322Y-80381819D02*
X113663941Y-80429438D01*
X113663941Y-80429438D02*
X113687751Y-80477057D01*
X113687751Y-80477057D02*
X113711560Y-80572295D01*
X113711560Y-80572295D02*
X113711560Y-80643723D01*
X113711560Y-80643723D02*
X113687751Y-80738961D01*
X113687751Y-80738961D02*
X113663941Y-80786580D01*
X113663941Y-80786580D02*
X113616322Y-80834200D01*
X113616322Y-80834200D02*
X113544894Y-80858009D01*
X113544894Y-80858009D02*
X113425846Y-80858009D01*
X105426531Y-80358009D02*
X105188436Y-80358009D01*
X105188436Y-80358009D02*
X105164627Y-80596104D01*
X105164627Y-80596104D02*
X105188436Y-80572295D01*
X105188436Y-80572295D02*
X105236055Y-80548485D01*
X105236055Y-80548485D02*
X105355103Y-80548485D01*
X105355103Y-80548485D02*
X105402722Y-80572295D01*
X105402722Y-80572295D02*
X105426531Y-80596104D01*
X105426531Y-80596104D02*
X105450341Y-80643723D01*
X105450341Y-80643723D02*
X105450341Y-80762771D01*
X105450341Y-80762771D02*
X105426531Y-80810390D01*
X105426531Y-80810390D02*
X105402722Y-80834200D01*
X105402722Y-80834200D02*
X105355103Y-80858009D01*
X105355103Y-80858009D02*
X105236055Y-80858009D01*
X105236055Y-80858009D02*
X105188436Y-80834200D01*
X105188436Y-80834200D02*
X105164627Y-80810390D01*
X122054036Y-62484065D02*
X122054036Y-61984065D01*
X122054036Y-61984065D02*
X122220703Y-62341208D01*
X122220703Y-62341208D02*
X122387369Y-61984065D01*
X122387369Y-61984065D02*
X122387369Y-62484065D01*
X122720703Y-61984065D02*
X122815941Y-61984065D01*
X122815941Y-61984065D02*
X122863560Y-62007875D01*
X122863560Y-62007875D02*
X122911179Y-62055494D01*
X122911179Y-62055494D02*
X122934989Y-62150732D01*
X122934989Y-62150732D02*
X122934989Y-62317398D01*
X122934989Y-62317398D02*
X122911179Y-62412636D01*
X122911179Y-62412636D02*
X122863560Y-62460256D01*
X122863560Y-62460256D02*
X122815941Y-62484065D01*
X122815941Y-62484065D02*
X122720703Y-62484065D01*
X122720703Y-62484065D02*
X122673084Y-62460256D01*
X122673084Y-62460256D02*
X122625465Y-62412636D01*
X122625465Y-62412636D02*
X122601656Y-62317398D01*
X122601656Y-62317398D02*
X122601656Y-62150732D01*
X122601656Y-62150732D02*
X122625465Y-62055494D01*
X122625465Y-62055494D02*
X122673084Y-62007875D01*
X122673084Y-62007875D02*
X122720703Y-61984065D01*
X123125466Y-62460256D02*
X123196894Y-62484065D01*
X123196894Y-62484065D02*
X123315942Y-62484065D01*
X123315942Y-62484065D02*
X123363561Y-62460256D01*
X123363561Y-62460256D02*
X123387370Y-62436446D01*
X123387370Y-62436446D02*
X123411180Y-62388827D01*
X123411180Y-62388827D02*
X123411180Y-62341208D01*
X123411180Y-62341208D02*
X123387370Y-62293589D01*
X123387370Y-62293589D02*
X123363561Y-62269779D01*
X123363561Y-62269779D02*
X123315942Y-62245970D01*
X123315942Y-62245970D02*
X123220704Y-62222160D01*
X123220704Y-62222160D02*
X123173085Y-62198351D01*
X123173085Y-62198351D02*
X123149275Y-62174541D01*
X123149275Y-62174541D02*
X123125466Y-62126922D01*
X123125466Y-62126922D02*
X123125466Y-62079303D01*
X123125466Y-62079303D02*
X123149275Y-62031684D01*
X123149275Y-62031684D02*
X123173085Y-62007875D01*
X123173085Y-62007875D02*
X123220704Y-61984065D01*
X123220704Y-61984065D02*
X123339751Y-61984065D01*
X123339751Y-61984065D02*
X123411180Y-62007875D01*
X123625465Y-62484065D02*
X123625465Y-61984065D01*
X124744512Y-62650732D02*
X124744512Y-61936446D01*
X125744511Y-62007875D02*
X125696892Y-61984065D01*
X125696892Y-61984065D02*
X125625463Y-61984065D01*
X125625463Y-61984065D02*
X125554035Y-62007875D01*
X125554035Y-62007875D02*
X125506416Y-62055494D01*
X125506416Y-62055494D02*
X125482606Y-62103113D01*
X125482606Y-62103113D02*
X125458797Y-62198351D01*
X125458797Y-62198351D02*
X125458797Y-62269779D01*
X125458797Y-62269779D02*
X125482606Y-62365017D01*
X125482606Y-62365017D02*
X125506416Y-62412636D01*
X125506416Y-62412636D02*
X125554035Y-62460256D01*
X125554035Y-62460256D02*
X125625463Y-62484065D01*
X125625463Y-62484065D02*
X125673082Y-62484065D01*
X125673082Y-62484065D02*
X125744511Y-62460256D01*
X125744511Y-62460256D02*
X125768320Y-62436446D01*
X125768320Y-62436446D02*
X125768320Y-62269779D01*
X125768320Y-62269779D02*
X125673082Y-62269779D01*
X125982606Y-62484065D02*
X125982606Y-61984065D01*
X125982606Y-61984065D02*
X126268320Y-62484065D01*
X126268320Y-62484065D02*
X126268320Y-61984065D01*
X126506416Y-62484065D02*
X126506416Y-61984065D01*
X126506416Y-61984065D02*
X126625464Y-61984065D01*
X126625464Y-61984065D02*
X126696892Y-62007875D01*
X126696892Y-62007875D02*
X126744511Y-62055494D01*
X126744511Y-62055494D02*
X126768321Y-62103113D01*
X126768321Y-62103113D02*
X126792130Y-62198351D01*
X126792130Y-62198351D02*
X126792130Y-62269779D01*
X126792130Y-62269779D02*
X126768321Y-62365017D01*
X126768321Y-62365017D02*
X126744511Y-62412636D01*
X126744511Y-62412636D02*
X126696892Y-62460256D01*
X126696892Y-62460256D02*
X126625464Y-62484065D01*
X126625464Y-62484065D02*
X126506416Y-62484065D01*
X122030227Y-63265228D02*
X122101655Y-63289037D01*
X122101655Y-63289037D02*
X122220703Y-63289037D01*
X122220703Y-63289037D02*
X122268322Y-63265228D01*
X122268322Y-63265228D02*
X122292131Y-63241418D01*
X122292131Y-63241418D02*
X122315941Y-63193799D01*
X122315941Y-63193799D02*
X122315941Y-63146180D01*
X122315941Y-63146180D02*
X122292131Y-63098561D01*
X122292131Y-63098561D02*
X122268322Y-63074751D01*
X122268322Y-63074751D02*
X122220703Y-63050942D01*
X122220703Y-63050942D02*
X122125465Y-63027132D01*
X122125465Y-63027132D02*
X122077846Y-63003323D01*
X122077846Y-63003323D02*
X122054036Y-62979513D01*
X122054036Y-62979513D02*
X122030227Y-62931894D01*
X122030227Y-62931894D02*
X122030227Y-62884275D01*
X122030227Y-62884275D02*
X122054036Y-62836656D01*
X122054036Y-62836656D02*
X122077846Y-62812847D01*
X122077846Y-62812847D02*
X122125465Y-62789037D01*
X122125465Y-62789037D02*
X122244512Y-62789037D01*
X122244512Y-62789037D02*
X122315941Y-62812847D01*
X122815940Y-63241418D02*
X122792131Y-63265228D01*
X122792131Y-63265228D02*
X122720702Y-63289037D01*
X122720702Y-63289037D02*
X122673083Y-63289037D01*
X122673083Y-63289037D02*
X122601655Y-63265228D01*
X122601655Y-63265228D02*
X122554036Y-63217608D01*
X122554036Y-63217608D02*
X122530226Y-63169989D01*
X122530226Y-63169989D02*
X122506417Y-63074751D01*
X122506417Y-63074751D02*
X122506417Y-63003323D01*
X122506417Y-63003323D02*
X122530226Y-62908085D01*
X122530226Y-62908085D02*
X122554036Y-62860466D01*
X122554036Y-62860466D02*
X122601655Y-62812847D01*
X122601655Y-62812847D02*
X122673083Y-62789037D01*
X122673083Y-62789037D02*
X122720702Y-62789037D01*
X122720702Y-62789037D02*
X122792131Y-62812847D01*
X122792131Y-62812847D02*
X122815940Y-62836656D01*
X123030226Y-63289037D02*
X123030226Y-62789037D01*
X123315940Y-63289037D02*
X123101655Y-63003323D01*
X123315940Y-62789037D02*
X123030226Y-63074751D01*
X124815940Y-63455704D02*
X124815940Y-62741418D01*
X125554034Y-63289037D02*
X125554034Y-62789037D01*
X125554034Y-62789037D02*
X125720701Y-63146180D01*
X125720701Y-63146180D02*
X125887367Y-62789037D01*
X125887367Y-62789037D02*
X125887367Y-63289037D01*
X126125463Y-63289037D02*
X126125463Y-62789037D01*
X126339749Y-63265228D02*
X126411177Y-63289037D01*
X126411177Y-63289037D02*
X126530225Y-63289037D01*
X126530225Y-63289037D02*
X126577844Y-63265228D01*
X126577844Y-63265228D02*
X126601653Y-63241418D01*
X126601653Y-63241418D02*
X126625463Y-63193799D01*
X126625463Y-63193799D02*
X126625463Y-63146180D01*
X126625463Y-63146180D02*
X126601653Y-63098561D01*
X126601653Y-63098561D02*
X126577844Y-63074751D01*
X126577844Y-63074751D02*
X126530225Y-63050942D01*
X126530225Y-63050942D02*
X126434987Y-63027132D01*
X126434987Y-63027132D02*
X126387368Y-63003323D01*
X126387368Y-63003323D02*
X126363558Y-62979513D01*
X126363558Y-62979513D02*
X126339749Y-62931894D01*
X126339749Y-62931894D02*
X126339749Y-62884275D01*
X126339749Y-62884275D02*
X126363558Y-62836656D01*
X126363558Y-62836656D02*
X126387368Y-62812847D01*
X126387368Y-62812847D02*
X126434987Y-62789037D01*
X126434987Y-62789037D02*
X126554034Y-62789037D01*
X126554034Y-62789037D02*
X126625463Y-62812847D01*
X126934986Y-62789037D02*
X127030224Y-62789037D01*
X127030224Y-62789037D02*
X127077843Y-62812847D01*
X127077843Y-62812847D02*
X127125462Y-62860466D01*
X127125462Y-62860466D02*
X127149272Y-62955704D01*
X127149272Y-62955704D02*
X127149272Y-63122370D01*
X127149272Y-63122370D02*
X127125462Y-63217608D01*
X127125462Y-63217608D02*
X127077843Y-63265228D01*
X127077843Y-63265228D02*
X127030224Y-63289037D01*
X127030224Y-63289037D02*
X126934986Y-63289037D01*
X126934986Y-63289037D02*
X126887367Y-63265228D01*
X126887367Y-63265228D02*
X126839748Y-63217608D01*
X126839748Y-63217608D02*
X126815939Y-63122370D01*
X126815939Y-63122370D02*
X126815939Y-62955704D01*
X126815939Y-62955704D02*
X126839748Y-62860466D01*
X126839748Y-62860466D02*
X126887367Y-62812847D01*
X126887367Y-62812847D02*
X126934986Y-62789037D01*
X122339750Y-64094009D02*
X122173084Y-63855914D01*
X122054036Y-64094009D02*
X122054036Y-63594009D01*
X122054036Y-63594009D02*
X122244512Y-63594009D01*
X122244512Y-63594009D02*
X122292131Y-63617819D01*
X122292131Y-63617819D02*
X122315941Y-63641628D01*
X122315941Y-63641628D02*
X122339750Y-63689247D01*
X122339750Y-63689247D02*
X122339750Y-63760676D01*
X122339750Y-63760676D02*
X122315941Y-63808295D01*
X122315941Y-63808295D02*
X122292131Y-63832104D01*
X122292131Y-63832104D02*
X122244512Y-63855914D01*
X122244512Y-63855914D02*
X122054036Y-63855914D01*
X122554036Y-63832104D02*
X122720703Y-63832104D01*
X122792131Y-64094009D02*
X122554036Y-64094009D01*
X122554036Y-64094009D02*
X122554036Y-63594009D01*
X122554036Y-63594009D02*
X122792131Y-63594009D01*
X122982608Y-64070200D02*
X123054036Y-64094009D01*
X123054036Y-64094009D02*
X123173084Y-64094009D01*
X123173084Y-64094009D02*
X123220703Y-64070200D01*
X123220703Y-64070200D02*
X123244512Y-64046390D01*
X123244512Y-64046390D02*
X123268322Y-63998771D01*
X123268322Y-63998771D02*
X123268322Y-63951152D01*
X123268322Y-63951152D02*
X123244512Y-63903533D01*
X123244512Y-63903533D02*
X123220703Y-63879723D01*
X123220703Y-63879723D02*
X123173084Y-63855914D01*
X123173084Y-63855914D02*
X123077846Y-63832104D01*
X123077846Y-63832104D02*
X123030227Y-63808295D01*
X123030227Y-63808295D02*
X123006417Y-63784485D01*
X123006417Y-63784485D02*
X122982608Y-63736866D01*
X122982608Y-63736866D02*
X122982608Y-63689247D01*
X122982608Y-63689247D02*
X123006417Y-63641628D01*
X123006417Y-63641628D02*
X123030227Y-63617819D01*
X123030227Y-63617819D02*
X123077846Y-63594009D01*
X123077846Y-63594009D02*
X123196893Y-63594009D01*
X123196893Y-63594009D02*
X123268322Y-63617819D01*
X123482607Y-63832104D02*
X123649274Y-63832104D01*
X123720702Y-64094009D02*
X123482607Y-64094009D01*
X123482607Y-64094009D02*
X123482607Y-63594009D01*
X123482607Y-63594009D02*
X123720702Y-63594009D01*
X123863560Y-63594009D02*
X124149274Y-63594009D01*
X124006417Y-64094009D02*
X124006417Y-63594009D01*
X124815940Y-64260676D02*
X124815940Y-63546390D01*
X125815939Y-63617819D02*
X125768320Y-63594009D01*
X125768320Y-63594009D02*
X125696891Y-63594009D01*
X125696891Y-63594009D02*
X125625463Y-63617819D01*
X125625463Y-63617819D02*
X125577844Y-63665438D01*
X125577844Y-63665438D02*
X125554034Y-63713057D01*
X125554034Y-63713057D02*
X125530225Y-63808295D01*
X125530225Y-63808295D02*
X125530225Y-63879723D01*
X125530225Y-63879723D02*
X125554034Y-63974961D01*
X125554034Y-63974961D02*
X125577844Y-64022580D01*
X125577844Y-64022580D02*
X125625463Y-64070200D01*
X125625463Y-64070200D02*
X125696891Y-64094009D01*
X125696891Y-64094009D02*
X125744510Y-64094009D01*
X125744510Y-64094009D02*
X125815939Y-64070200D01*
X125815939Y-64070200D02*
X125839748Y-64046390D01*
X125839748Y-64046390D02*
X125839748Y-63879723D01*
X125839748Y-63879723D02*
X125744510Y-63879723D01*
X126054034Y-64094009D02*
X126054034Y-63594009D01*
X126054034Y-63594009D02*
X126339748Y-64094009D01*
X126339748Y-64094009D02*
X126339748Y-63594009D01*
X126577844Y-64094009D02*
X126577844Y-63594009D01*
X126577844Y-63594009D02*
X126696892Y-63594009D01*
X126696892Y-63594009D02*
X126768320Y-63617819D01*
X126768320Y-63617819D02*
X126815939Y-63665438D01*
X126815939Y-63665438D02*
X126839749Y-63713057D01*
X126839749Y-63713057D02*
X126863558Y-63808295D01*
X126863558Y-63808295D02*
X126863558Y-63879723D01*
X126863558Y-63879723D02*
X126839749Y-63974961D01*
X126839749Y-63974961D02*
X126815939Y-64022580D01*
X126815939Y-64022580D02*
X126768320Y-64070200D01*
X126768320Y-64070200D02*
X126696892Y-64094009D01*
X126696892Y-64094009D02*
X126577844Y-64094009D01*
X94934741Y-80858009D02*
X94649027Y-80858009D01*
X94791884Y-80858009D02*
X94791884Y-80358009D01*
X94791884Y-80358009D02*
X94744265Y-80429438D01*
X94744265Y-80429438D02*
X94696646Y-80477057D01*
X94696646Y-80477057D02*
X94649027Y-80500866D01*
X95834266Y-61289833D02*
X95834266Y-61856500D01*
X95834266Y-61856500D02*
X95867600Y-61923166D01*
X95867600Y-61923166D02*
X95900933Y-61956500D01*
X95900933Y-61956500D02*
X95967600Y-61989833D01*
X95967600Y-61989833D02*
X96100933Y-61989833D01*
X96100933Y-61989833D02*
X96167600Y-61956500D01*
X96167600Y-61956500D02*
X96200933Y-61923166D01*
X96200933Y-61923166D02*
X96234266Y-61856500D01*
X96234266Y-61856500D02*
X96234266Y-61289833D01*
X96500933Y-61289833D02*
X96934266Y-61289833D01*
X96934266Y-61289833D02*
X96700933Y-61556500D01*
X96700933Y-61556500D02*
X96800933Y-61556500D01*
X96800933Y-61556500D02*
X96867599Y-61589833D01*
X96867599Y-61589833D02*
X96900933Y-61623166D01*
X96900933Y-61623166D02*
X96934266Y-61689833D01*
X96934266Y-61689833D02*
X96934266Y-61856500D01*
X96934266Y-61856500D02*
X96900933Y-61923166D01*
X96900933Y-61923166D02*
X96867599Y-61956500D01*
X96867599Y-61956500D02*
X96800933Y-61989833D01*
X96800933Y-61989833D02*
X96600933Y-61989833D01*
X96600933Y-61989833D02*
X96534266Y-61956500D01*
X96534266Y-61956500D02*
X96500933Y-61923166D01*
X117866666Y-64843709D02*
X117700000Y-64605614D01*
X117580952Y-64843709D02*
X117580952Y-64343709D01*
X117580952Y-64343709D02*
X117771428Y-64343709D01*
X117771428Y-64343709D02*
X117819047Y-64367519D01*
X117819047Y-64367519D02*
X117842857Y-64391328D01*
X117842857Y-64391328D02*
X117866666Y-64438947D01*
X117866666Y-64438947D02*
X117866666Y-64510376D01*
X117866666Y-64510376D02*
X117842857Y-64557995D01*
X117842857Y-64557995D02*
X117819047Y-64581804D01*
X117819047Y-64581804D02*
X117771428Y-64605614D01*
X117771428Y-64605614D02*
X117580952Y-64605614D01*
X118295238Y-64343709D02*
X118200000Y-64343709D01*
X118200000Y-64343709D02*
X118152381Y-64367519D01*
X118152381Y-64367519D02*
X118128571Y-64391328D01*
X118128571Y-64391328D02*
X118080952Y-64462757D01*
X118080952Y-64462757D02*
X118057143Y-64557995D01*
X118057143Y-64557995D02*
X118057143Y-64748471D01*
X118057143Y-64748471D02*
X118080952Y-64796090D01*
X118080952Y-64796090D02*
X118104762Y-64819900D01*
X118104762Y-64819900D02*
X118152381Y-64843709D01*
X118152381Y-64843709D02*
X118247619Y-64843709D01*
X118247619Y-64843709D02*
X118295238Y-64819900D01*
X118295238Y-64819900D02*
X118319047Y-64796090D01*
X118319047Y-64796090D02*
X118342857Y-64748471D01*
X118342857Y-64748471D02*
X118342857Y-64629423D01*
X118342857Y-64629423D02*
X118319047Y-64581804D01*
X118319047Y-64581804D02*
X118295238Y-64557995D01*
X118295238Y-64557995D02*
X118247619Y-64534185D01*
X118247619Y-64534185D02*
X118152381Y-64534185D01*
X118152381Y-64534185D02*
X118104762Y-64557995D01*
X118104762Y-64557995D02*
X118080952Y-64581804D01*
X118080952Y-64581804D02*
X118057143Y-64629423D01*
X111090476Y-66014895D02*
X111090476Y-66662514D01*
X111090476Y-66662514D02*
X111128571Y-66738704D01*
X111128571Y-66738704D02*
X111166666Y-66776800D01*
X111166666Y-66776800D02*
X111242857Y-66814895D01*
X111242857Y-66814895D02*
X111395238Y-66814895D01*
X111395238Y-66814895D02*
X111471428Y-66776800D01*
X111471428Y-66776800D02*
X111509523Y-66738704D01*
X111509523Y-66738704D02*
X111547619Y-66662514D01*
X111547619Y-66662514D02*
X111547619Y-66014895D01*
X111890475Y-66091085D02*
X111928571Y-66052990D01*
X111928571Y-66052990D02*
X112004761Y-66014895D01*
X112004761Y-66014895D02*
X112195237Y-66014895D01*
X112195237Y-66014895D02*
X112271428Y-66052990D01*
X112271428Y-66052990D02*
X112309523Y-66091085D01*
X112309523Y-66091085D02*
X112347618Y-66167276D01*
X112347618Y-66167276D02*
X112347618Y-66243466D01*
X112347618Y-66243466D02*
X112309523Y-66357752D01*
X112309523Y-66357752D02*
X111852380Y-66814895D01*
X111852380Y-66814895D02*
X112347618Y-66814895D01*
X110813066Y-64843709D02*
X110646400Y-64605614D01*
X110527352Y-64843709D02*
X110527352Y-64343709D01*
X110527352Y-64343709D02*
X110717828Y-64343709D01*
X110717828Y-64343709D02*
X110765447Y-64367519D01*
X110765447Y-64367519D02*
X110789257Y-64391328D01*
X110789257Y-64391328D02*
X110813066Y-64438947D01*
X110813066Y-64438947D02*
X110813066Y-64510376D01*
X110813066Y-64510376D02*
X110789257Y-64557995D01*
X110789257Y-64557995D02*
X110765447Y-64581804D01*
X110765447Y-64581804D02*
X110717828Y-64605614D01*
X110717828Y-64605614D02*
X110527352Y-64605614D01*
X111003543Y-64391328D02*
X111027352Y-64367519D01*
X111027352Y-64367519D02*
X111074971Y-64343709D01*
X111074971Y-64343709D02*
X111194019Y-64343709D01*
X111194019Y-64343709D02*
X111241638Y-64367519D01*
X111241638Y-64367519D02*
X111265447Y-64391328D01*
X111265447Y-64391328D02*
X111289257Y-64438947D01*
X111289257Y-64438947D02*
X111289257Y-64486566D01*
X111289257Y-64486566D02*
X111265447Y-64557995D01*
X111265447Y-64557995D02*
X110979733Y-64843709D01*
X110979733Y-64843709D02*
X111289257Y-64843709D01*
X92113943Y-63210204D02*
X92185371Y-63234014D01*
X92185371Y-63234014D02*
X92209181Y-63257823D01*
X92209181Y-63257823D02*
X92232990Y-63305442D01*
X92232990Y-63305442D02*
X92232990Y-63376871D01*
X92232990Y-63376871D02*
X92209181Y-63424490D01*
X92209181Y-63424490D02*
X92185371Y-63448300D01*
X92185371Y-63448300D02*
X92137752Y-63472109D01*
X92137752Y-63472109D02*
X91947276Y-63472109D01*
X91947276Y-63472109D02*
X91947276Y-62972109D01*
X91947276Y-62972109D02*
X92113943Y-62972109D01*
X92113943Y-62972109D02*
X92161562Y-62995919D01*
X92161562Y-62995919D02*
X92185371Y-63019728D01*
X92185371Y-63019728D02*
X92209181Y-63067347D01*
X92209181Y-63067347D02*
X92209181Y-63114966D01*
X92209181Y-63114966D02*
X92185371Y-63162585D01*
X92185371Y-63162585D02*
X92161562Y-63186395D01*
X92161562Y-63186395D02*
X92113943Y-63210204D01*
X92113943Y-63210204D02*
X91947276Y-63210204D01*
X92375848Y-62972109D02*
X92661562Y-62972109D01*
X92518705Y-63472109D02*
X92518705Y-62972109D01*
X93090133Y-63472109D02*
X92804419Y-63472109D01*
X92947276Y-63472109D02*
X92947276Y-62972109D01*
X92947276Y-62972109D02*
X92899657Y-63043538D01*
X92899657Y-63043538D02*
X92852038Y-63091157D01*
X92852038Y-63091157D02*
X92804419Y-63114966D01*
X112540266Y-64792909D02*
X112373600Y-64554814D01*
X112254552Y-64792909D02*
X112254552Y-64292909D01*
X112254552Y-64292909D02*
X112445028Y-64292909D01*
X112445028Y-64292909D02*
X112492647Y-64316719D01*
X112492647Y-64316719D02*
X112516457Y-64340528D01*
X112516457Y-64340528D02*
X112540266Y-64388147D01*
X112540266Y-64388147D02*
X112540266Y-64459576D01*
X112540266Y-64459576D02*
X112516457Y-64507195D01*
X112516457Y-64507195D02*
X112492647Y-64531004D01*
X112492647Y-64531004D02*
X112445028Y-64554814D01*
X112445028Y-64554814D02*
X112254552Y-64554814D01*
X113016457Y-64792909D02*
X112730743Y-64792909D01*
X112873600Y-64792909D02*
X112873600Y-64292909D01*
X112873600Y-64292909D02*
X112825981Y-64364338D01*
X112825981Y-64364338D02*
X112778362Y-64411957D01*
X112778362Y-64411957D02*
X112730743Y-64435766D01*
X96545466Y-73786633D02*
X96545466Y-74353300D01*
X96545466Y-74353300D02*
X96578800Y-74419966D01*
X96578800Y-74419966D02*
X96612133Y-74453300D01*
X96612133Y-74453300D02*
X96678800Y-74486633D01*
X96678800Y-74486633D02*
X96812133Y-74486633D01*
X96812133Y-74486633D02*
X96878800Y-74453300D01*
X96878800Y-74453300D02*
X96912133Y-74419966D01*
X96912133Y-74419966D02*
X96945466Y-74353300D01*
X96945466Y-74353300D02*
X96945466Y-73786633D01*
X97645466Y-74486633D02*
X97245466Y-74486633D01*
X97445466Y-74486633D02*
X97445466Y-73786633D01*
X97445466Y-73786633D02*
X97378799Y-73886633D01*
X97378799Y-73886633D02*
X97312133Y-73953300D01*
X97312133Y-73953300D02*
X97245466Y-73986633D01*
X115566666Y-64843709D02*
X115400000Y-64605614D01*
X115280952Y-64843709D02*
X115280952Y-64343709D01*
X115280952Y-64343709D02*
X115471428Y-64343709D01*
X115471428Y-64343709D02*
X115519047Y-64367519D01*
X115519047Y-64367519D02*
X115542857Y-64391328D01*
X115542857Y-64391328D02*
X115566666Y-64438947D01*
X115566666Y-64438947D02*
X115566666Y-64510376D01*
X115566666Y-64510376D02*
X115542857Y-64557995D01*
X115542857Y-64557995D02*
X115519047Y-64581804D01*
X115519047Y-64581804D02*
X115471428Y-64605614D01*
X115471428Y-64605614D02*
X115280952Y-64605614D01*
X116019047Y-64343709D02*
X115780952Y-64343709D01*
X115780952Y-64343709D02*
X115757143Y-64581804D01*
X115757143Y-64581804D02*
X115780952Y-64557995D01*
X115780952Y-64557995D02*
X115828571Y-64534185D01*
X115828571Y-64534185D02*
X115947619Y-64534185D01*
X115947619Y-64534185D02*
X115995238Y-64557995D01*
X115995238Y-64557995D02*
X116019047Y-64581804D01*
X116019047Y-64581804D02*
X116042857Y-64629423D01*
X116042857Y-64629423D02*
X116042857Y-64748471D01*
X116042857Y-64748471D02*
X116019047Y-64796090D01*
X116019047Y-64796090D02*
X115995238Y-64819900D01*
X115995238Y-64819900D02*
X115947619Y-64843709D01*
X115947619Y-64843709D02*
X115828571Y-64843709D01*
X115828571Y-64843709D02*
X115780952Y-64819900D01*
X115780952Y-64819900D02*
X115757143Y-64796090D01*
X108316666Y-64796090D02*
X108292857Y-64819900D01*
X108292857Y-64819900D02*
X108221428Y-64843709D01*
X108221428Y-64843709D02*
X108173809Y-64843709D01*
X108173809Y-64843709D02*
X108102381Y-64819900D01*
X108102381Y-64819900D02*
X108054762Y-64772280D01*
X108054762Y-64772280D02*
X108030952Y-64724661D01*
X108030952Y-64724661D02*
X108007143Y-64629423D01*
X108007143Y-64629423D02*
X108007143Y-64557995D01*
X108007143Y-64557995D02*
X108030952Y-64462757D01*
X108030952Y-64462757D02*
X108054762Y-64415138D01*
X108054762Y-64415138D02*
X108102381Y-64367519D01*
X108102381Y-64367519D02*
X108173809Y-64343709D01*
X108173809Y-64343709D02*
X108221428Y-64343709D01*
X108221428Y-64343709D02*
X108292857Y-64367519D01*
X108292857Y-64367519D02*
X108316666Y-64391328D01*
X108792857Y-64843709D02*
X108507143Y-64843709D01*
X108650000Y-64843709D02*
X108650000Y-64343709D01*
X108650000Y-64343709D02*
X108602381Y-64415138D01*
X108602381Y-64415138D02*
X108554762Y-64462757D01*
X108554762Y-64462757D02*
X108507143Y-64486566D01*
X92324266Y-81813033D02*
X92324266Y-82313033D01*
X92324266Y-82313033D02*
X92290933Y-82413033D01*
X92290933Y-82413033D02*
X92224266Y-82479700D01*
X92224266Y-82479700D02*
X92124266Y-82513033D01*
X92124266Y-82513033D02*
X92057600Y-82513033D01*
X92590933Y-81813033D02*
X93024266Y-81813033D01*
X93024266Y-81813033D02*
X92790933Y-82079700D01*
X92790933Y-82079700D02*
X92890933Y-82079700D01*
X92890933Y-82079700D02*
X92957599Y-82113033D01*
X92957599Y-82113033D02*
X92990933Y-82146366D01*
X92990933Y-82146366D02*
X93024266Y-82213033D01*
X93024266Y-82213033D02*
X93024266Y-82379700D01*
X93024266Y-82379700D02*
X92990933Y-82446366D01*
X92990933Y-82446366D02*
X92957599Y-82479700D01*
X92957599Y-82479700D02*
X92890933Y-82513033D01*
X92890933Y-82513033D02*
X92690933Y-82513033D01*
X92690933Y-82513033D02*
X92624266Y-82479700D01*
X92624266Y-82479700D02*
X92590933Y-82446366D01*
X129316666Y-71145033D02*
X129316666Y-71645033D01*
X129316666Y-71645033D02*
X129283333Y-71745033D01*
X129283333Y-71745033D02*
X129216666Y-71811700D01*
X129216666Y-71811700D02*
X129116666Y-71845033D01*
X129116666Y-71845033D02*
X129050000Y-71845033D01*
X130016666Y-71845033D02*
X129616666Y-71845033D01*
X129816666Y-71845033D02*
X129816666Y-71145033D01*
X129816666Y-71145033D02*
X129749999Y-71245033D01*
X129749999Y-71245033D02*
X129683333Y-71311700D01*
X129683333Y-71311700D02*
X129616666Y-71345033D01*
X111071067Y-75931300D02*
X111071067Y-76264633D01*
X110837733Y-75564633D02*
X111071067Y-75931300D01*
X111071067Y-75931300D02*
X111304400Y-75564633D01*
X111504400Y-75631300D02*
X111537733Y-75597966D01*
X111537733Y-75597966D02*
X111604400Y-75564633D01*
X111604400Y-75564633D02*
X111771067Y-75564633D01*
X111771067Y-75564633D02*
X111837733Y-75597966D01*
X111837733Y-75597966D02*
X111871067Y-75631300D01*
X111871067Y-75631300D02*
X111904400Y-75697966D01*
X111904400Y-75697966D02*
X111904400Y-75764633D01*
X111904400Y-75764633D02*
X111871067Y-75864633D01*
X111871067Y-75864633D02*
X111471067Y-76264633D01*
X111471067Y-76264633D02*
X111904400Y-76264633D01*
X120316666Y-64843709D02*
X120150000Y-64605614D01*
X120030952Y-64843709D02*
X120030952Y-64343709D01*
X120030952Y-64343709D02*
X120221428Y-64343709D01*
X120221428Y-64343709D02*
X120269047Y-64367519D01*
X120269047Y-64367519D02*
X120292857Y-64391328D01*
X120292857Y-64391328D02*
X120316666Y-64438947D01*
X120316666Y-64438947D02*
X120316666Y-64510376D01*
X120316666Y-64510376D02*
X120292857Y-64557995D01*
X120292857Y-64557995D02*
X120269047Y-64581804D01*
X120269047Y-64581804D02*
X120221428Y-64605614D01*
X120221428Y-64605614D02*
X120030952Y-64605614D01*
X120483333Y-64343709D02*
X120816666Y-64343709D01*
X120816666Y-64343709D02*
X120602381Y-64843709D01*
X108544533Y-75842366D02*
X108511200Y-75875700D01*
X108511200Y-75875700D02*
X108411200Y-75909033D01*
X108411200Y-75909033D02*
X108344533Y-75909033D01*
X108344533Y-75909033D02*
X108244533Y-75875700D01*
X108244533Y-75875700D02*
X108177867Y-75809033D01*
X108177867Y-75809033D02*
X108144533Y-75742366D01*
X108144533Y-75742366D02*
X108111200Y-75609033D01*
X108111200Y-75609033D02*
X108111200Y-75509033D01*
X108111200Y-75509033D02*
X108144533Y-75375700D01*
X108144533Y-75375700D02*
X108177867Y-75309033D01*
X108177867Y-75309033D02*
X108244533Y-75242366D01*
X108244533Y-75242366D02*
X108344533Y-75209033D01*
X108344533Y-75209033D02*
X108411200Y-75209033D01*
X108411200Y-75209033D02*
X108511200Y-75242366D01*
X108511200Y-75242366D02*
X108544533Y-75275700D01*
X109177867Y-75209033D02*
X108844533Y-75209033D01*
X108844533Y-75209033D02*
X108811200Y-75542366D01*
X108811200Y-75542366D02*
X108844533Y-75509033D01*
X108844533Y-75509033D02*
X108911200Y-75475700D01*
X108911200Y-75475700D02*
X109077867Y-75475700D01*
X109077867Y-75475700D02*
X109144533Y-75509033D01*
X109144533Y-75509033D02*
X109177867Y-75542366D01*
X109177867Y-75542366D02*
X109211200Y-75609033D01*
X109211200Y-75609033D02*
X109211200Y-75775700D01*
X109211200Y-75775700D02*
X109177867Y-75842366D01*
X109177867Y-75842366D02*
X109144533Y-75875700D01*
X109144533Y-75875700D02*
X109077867Y-75909033D01*
X109077867Y-75909033D02*
X108911200Y-75909033D01*
X108911200Y-75909033D02*
X108844533Y-75875700D01*
X108844533Y-75875700D02*
X108811200Y-75842366D01*
X125359333Y-71168633D02*
X125126000Y-70835300D01*
X124959333Y-71168633D02*
X124959333Y-70468633D01*
X124959333Y-70468633D02*
X125226000Y-70468633D01*
X125226000Y-70468633D02*
X125292667Y-70501966D01*
X125292667Y-70501966D02*
X125326000Y-70535300D01*
X125326000Y-70535300D02*
X125359333Y-70601966D01*
X125359333Y-70601966D02*
X125359333Y-70701966D01*
X125359333Y-70701966D02*
X125326000Y-70768633D01*
X125326000Y-70768633D02*
X125292667Y-70801966D01*
X125292667Y-70801966D02*
X125226000Y-70835300D01*
X125226000Y-70835300D02*
X124959333Y-70835300D01*
X125592667Y-70468633D02*
X126026000Y-70468633D01*
X126026000Y-70468633D02*
X125792667Y-70735300D01*
X125792667Y-70735300D02*
X125892667Y-70735300D01*
X125892667Y-70735300D02*
X125959333Y-70768633D01*
X125959333Y-70768633D02*
X125992667Y-70801966D01*
X125992667Y-70801966D02*
X126026000Y-70868633D01*
X126026000Y-70868633D02*
X126026000Y-71035300D01*
X126026000Y-71035300D02*
X125992667Y-71101966D01*
X125992667Y-71101966D02*
X125959333Y-71135300D01*
X125959333Y-71135300D02*
X125892667Y-71168633D01*
X125892667Y-71168633D02*
X125692667Y-71168633D01*
X125692667Y-71168633D02*
X125626000Y-71135300D01*
X125626000Y-71135300D02*
X125592667Y-71101966D01*
X117724266Y-81813033D02*
X117724266Y-82313033D01*
X117724266Y-82313033D02*
X117690933Y-82413033D01*
X117690933Y-82413033D02*
X117624266Y-82479700D01*
X117624266Y-82479700D02*
X117524266Y-82513033D01*
X117524266Y-82513033D02*
X117457600Y-82513033D01*
X118024266Y-81879700D02*
X118057599Y-81846366D01*
X118057599Y-81846366D02*
X118124266Y-81813033D01*
X118124266Y-81813033D02*
X118290933Y-81813033D01*
X118290933Y-81813033D02*
X118357599Y-81846366D01*
X118357599Y-81846366D02*
X118390933Y-81879700D01*
X118390933Y-81879700D02*
X118424266Y-81946366D01*
X118424266Y-81946366D02*
X118424266Y-82013033D01*
X118424266Y-82013033D02*
X118390933Y-82113033D01*
X118390933Y-82113033D02*
X117990933Y-82513033D01*
X117990933Y-82513033D02*
X118424266Y-82513033D01*
X125794633Y-73262266D02*
X125094633Y-73262266D01*
X125094633Y-73262266D02*
X125094633Y-73095599D01*
X125094633Y-73095599D02*
X125127966Y-72995599D01*
X125127966Y-72995599D02*
X125194633Y-72928933D01*
X125194633Y-72928933D02*
X125261300Y-72895599D01*
X125261300Y-72895599D02*
X125394633Y-72862266D01*
X125394633Y-72862266D02*
X125494633Y-72862266D01*
X125494633Y-72862266D02*
X125627966Y-72895599D01*
X125627966Y-72895599D02*
X125694633Y-72928933D01*
X125694633Y-72928933D02*
X125761300Y-72995599D01*
X125761300Y-72995599D02*
X125794633Y-73095599D01*
X125794633Y-73095599D02*
X125794633Y-73262266D01*
X125161300Y-72595599D02*
X125127966Y-72562266D01*
X125127966Y-72562266D02*
X125094633Y-72495599D01*
X125094633Y-72495599D02*
X125094633Y-72328933D01*
X125094633Y-72328933D02*
X125127966Y-72262266D01*
X125127966Y-72262266D02*
X125161300Y-72228933D01*
X125161300Y-72228933D02*
X125227966Y-72195599D01*
X125227966Y-72195599D02*
X125294633Y-72195599D01*
X125294633Y-72195599D02*
X125394633Y-72228933D01*
X125394633Y-72228933D02*
X125794633Y-72628933D01*
X125794633Y-72628933D02*
X125794633Y-72195599D01*
D12*
X125015657Y-65412885D02*
X124825181Y-65412885D01*
X124825181Y-65412885D02*
X124825181Y-65112885D01*
X125148991Y-65255742D02*
X125282324Y-65255742D01*
X125339467Y-65412885D02*
X125148991Y-65412885D01*
X125148991Y-65412885D02*
X125148991Y-65112885D01*
X125148991Y-65112885D02*
X125339467Y-65112885D01*
X125510896Y-65412885D02*
X125510896Y-65112885D01*
X125510896Y-65112885D02*
X125606134Y-65112885D01*
X125606134Y-65112885D02*
X125663277Y-65127171D01*
X125663277Y-65127171D02*
X125701372Y-65155742D01*
X125701372Y-65155742D02*
X125720419Y-65184314D01*
X125720419Y-65184314D02*
X125739467Y-65241457D01*
X125739467Y-65241457D02*
X125739467Y-65284314D01*
X125739467Y-65284314D02*
X125720419Y-65341457D01*
X125720419Y-65341457D02*
X125701372Y-65370028D01*
X125701372Y-65370028D02*
X125663277Y-65398600D01*
X125663277Y-65398600D02*
X125606134Y-65412885D01*
X125606134Y-65412885D02*
X125510896Y-65412885D01*
D10*
X124539033Y-76748366D02*
X124505700Y-76781700D01*
X124505700Y-76781700D02*
X124405700Y-76815033D01*
X124405700Y-76815033D02*
X124339033Y-76815033D01*
X124339033Y-76815033D02*
X124239033Y-76781700D01*
X124239033Y-76781700D02*
X124172367Y-76715033D01*
X124172367Y-76715033D02*
X124139033Y-76648366D01*
X124139033Y-76648366D02*
X124105700Y-76515033D01*
X124105700Y-76515033D02*
X124105700Y-76415033D01*
X124105700Y-76415033D02*
X124139033Y-76281700D01*
X124139033Y-76281700D02*
X124172367Y-76215033D01*
X124172367Y-76215033D02*
X124239033Y-76148366D01*
X124239033Y-76148366D02*
X124339033Y-76115033D01*
X124339033Y-76115033D02*
X124405700Y-76115033D01*
X124405700Y-76115033D02*
X124505700Y-76148366D01*
X124505700Y-76148366D02*
X124539033Y-76181700D01*
X124772367Y-76115033D02*
X125205700Y-76115033D01*
X125205700Y-76115033D02*
X124972367Y-76381700D01*
X124972367Y-76381700D02*
X125072367Y-76381700D01*
X125072367Y-76381700D02*
X125139033Y-76415033D01*
X125139033Y-76415033D02*
X125172367Y-76448366D01*
X125172367Y-76448366D02*
X125205700Y-76515033D01*
X125205700Y-76515033D02*
X125205700Y-76681700D01*
X125205700Y-76681700D02*
X125172367Y-76748366D01*
X125172367Y-76748366D02*
X125139033Y-76781700D01*
X125139033Y-76781700D02*
X125072367Y-76815033D01*
X125072367Y-76815033D02*
X124872367Y-76815033D01*
X124872367Y-76815033D02*
X124805700Y-76781700D01*
X124805700Y-76781700D02*
X124772367Y-76748366D01*
X91106667Y-71410100D02*
X91106667Y-71743433D01*
X90873333Y-71043433D02*
X91106667Y-71410100D01*
X91106667Y-71410100D02*
X91340000Y-71043433D01*
X91940000Y-71743433D02*
X91540000Y-71743433D01*
X91740000Y-71743433D02*
X91740000Y-71043433D01*
X91740000Y-71043433D02*
X91673333Y-71143433D01*
X91673333Y-71143433D02*
X91606667Y-71210100D01*
X91606667Y-71210100D02*
X91540000Y-71243433D01*
X108583333Y-70813166D02*
X108550000Y-70846500D01*
X108550000Y-70846500D02*
X108450000Y-70879833D01*
X108450000Y-70879833D02*
X108383333Y-70879833D01*
X108383333Y-70879833D02*
X108283333Y-70846500D01*
X108283333Y-70846500D02*
X108216667Y-70779833D01*
X108216667Y-70779833D02*
X108183333Y-70713166D01*
X108183333Y-70713166D02*
X108150000Y-70579833D01*
X108150000Y-70579833D02*
X108150000Y-70479833D01*
X108150000Y-70479833D02*
X108183333Y-70346500D01*
X108183333Y-70346500D02*
X108216667Y-70279833D01*
X108216667Y-70279833D02*
X108283333Y-70213166D01*
X108283333Y-70213166D02*
X108383333Y-70179833D01*
X108383333Y-70179833D02*
X108450000Y-70179833D01*
X108450000Y-70179833D02*
X108550000Y-70213166D01*
X108550000Y-70213166D02*
X108583333Y-70246500D01*
X109183333Y-70413166D02*
X109183333Y-70879833D01*
X109016667Y-70146500D02*
X108850000Y-70646500D01*
X108850000Y-70646500D02*
X109283333Y-70646500D01*
X128458133Y-73419833D02*
X128224800Y-73086500D01*
X128058133Y-73419833D02*
X128058133Y-72719833D01*
X128058133Y-72719833D02*
X128324800Y-72719833D01*
X128324800Y-72719833D02*
X128391467Y-72753166D01*
X128391467Y-72753166D02*
X128424800Y-72786500D01*
X128424800Y-72786500D02*
X128458133Y-72853166D01*
X128458133Y-72853166D02*
X128458133Y-72953166D01*
X128458133Y-72953166D02*
X128424800Y-73019833D01*
X128424800Y-73019833D02*
X128391467Y-73053166D01*
X128391467Y-73053166D02*
X128324800Y-73086500D01*
X128324800Y-73086500D02*
X128058133Y-73086500D01*
X129058133Y-72953166D02*
X129058133Y-73419833D01*
X128891467Y-72686500D02*
X128724800Y-73186500D01*
X128724800Y-73186500D02*
X129158133Y-73186500D01*
X127985866Y-60985033D02*
X127985866Y-61485033D01*
X127985866Y-61485033D02*
X127952533Y-61585033D01*
X127952533Y-61585033D02*
X127885866Y-61651700D01*
X127885866Y-61651700D02*
X127785866Y-61685033D01*
X127785866Y-61685033D02*
X127719200Y-61685033D01*
X128619199Y-61218366D02*
X128619199Y-61685033D01*
X128452533Y-60951700D02*
X128285866Y-61451700D01*
X128285866Y-61451700D02*
X128719199Y-61451700D01*
X95935866Y-67792233D02*
X95935866Y-68358900D01*
X95935866Y-68358900D02*
X95969200Y-68425566D01*
X95969200Y-68425566D02*
X96002533Y-68458900D01*
X96002533Y-68458900D02*
X96069200Y-68492233D01*
X96069200Y-68492233D02*
X96202533Y-68492233D01*
X96202533Y-68492233D02*
X96269200Y-68458900D01*
X96269200Y-68458900D02*
X96302533Y-68425566D01*
X96302533Y-68425566D02*
X96335866Y-68358900D01*
X96335866Y-68358900D02*
X96335866Y-67792233D01*
X96969199Y-68025566D02*
X96969199Y-68492233D01*
X96802533Y-67758900D02*
X96635866Y-68258900D01*
X96635866Y-68258900D02*
X97069199Y-68258900D01*
X122339033Y-68048366D02*
X122305700Y-68081700D01*
X122305700Y-68081700D02*
X122205700Y-68115033D01*
X122205700Y-68115033D02*
X122139033Y-68115033D01*
X122139033Y-68115033D02*
X122039033Y-68081700D01*
X122039033Y-68081700D02*
X121972367Y-68015033D01*
X121972367Y-68015033D02*
X121939033Y-67948366D01*
X121939033Y-67948366D02*
X121905700Y-67815033D01*
X121905700Y-67815033D02*
X121905700Y-67715033D01*
X121905700Y-67715033D02*
X121939033Y-67581700D01*
X121939033Y-67581700D02*
X121972367Y-67515033D01*
X121972367Y-67515033D02*
X122039033Y-67448366D01*
X122039033Y-67448366D02*
X122139033Y-67415033D01*
X122139033Y-67415033D02*
X122205700Y-67415033D01*
X122205700Y-67415033D02*
X122305700Y-67448366D01*
X122305700Y-67448366D02*
X122339033Y-67481700D01*
X122605700Y-67481700D02*
X122639033Y-67448366D01*
X122639033Y-67448366D02*
X122705700Y-67415033D01*
X122705700Y-67415033D02*
X122872367Y-67415033D01*
X122872367Y-67415033D02*
X122939033Y-67448366D01*
X122939033Y-67448366D02*
X122972367Y-67481700D01*
X122972367Y-67481700D02*
X123005700Y-67548366D01*
X123005700Y-67548366D02*
X123005700Y-67615033D01*
X123005700Y-67615033D02*
X122972367Y-67715033D01*
X122972367Y-67715033D02*
X122572367Y-68115033D01*
X122572367Y-68115033D02*
X123005700Y-68115033D01*
D13*
%TO.C,U3*%
X97642500Y-62035000D02*
X97402500Y-61705000D01*
X97882500Y-61705000D01*
X97642500Y-62035000D01*
G36*
X97642500Y-62035000D02*
G01*
X97402500Y-61705000D01*
X97882500Y-61705000D01*
X97642500Y-62035000D01*
G37*
X103875000Y-67225000D02*
X103875000Y-66965000D01*
X103875000Y-61775000D02*
X103875000Y-62035000D01*
X101150000Y-67225000D02*
X103875000Y-67225000D01*
X101150000Y-67225000D02*
X98425000Y-67225000D01*
X101150000Y-61775000D02*
X103875000Y-61775000D01*
X101150000Y-61775000D02*
X98425000Y-61775000D01*
X98425000Y-67225000D02*
X98425000Y-66965000D01*
X98425000Y-61775000D02*
X98425000Y-62035000D01*
%TO.C,R6*%
X117303000Y-62260436D02*
X117303000Y-62714564D01*
X118773000Y-62260436D02*
X118773000Y-62714564D01*
D14*
%TO.C,U2*%
X112500000Y-67000000D02*
X112500000Y-67105000D01*
X112500000Y-67000000D02*
X112605000Y-67000000D01*
X112500000Y-74000000D02*
X112500000Y-73895000D01*
X112500000Y-74000000D02*
X112605000Y-74000000D01*
X119500000Y-67000000D02*
X119395000Y-67000000D01*
X119500000Y-67000000D02*
X119500000Y-67105000D01*
X119500000Y-74000000D02*
X119395000Y-74000000D01*
X119500000Y-74000000D02*
X119500000Y-73895000D01*
D11*
X110260000Y-67700000D02*
G75*
G02*
X110060000Y-67700000I-100000J0D01*
G01*
X110060000Y-67700000D02*
G75*
G02*
X110260000Y-67700000I100000J0D01*
G01*
D13*
%TO.C,R2*%
X110121000Y-62260436D02*
X110121000Y-62714564D01*
X111591000Y-62260436D02*
X111591000Y-62714564D01*
%TO.C,BT1*%
X91170000Y-64130000D02*
X92500000Y-64130000D01*
X91170000Y-65460000D02*
X91170000Y-64130000D01*
X91170000Y-66730000D02*
X91170000Y-69330000D01*
X91170000Y-66730000D02*
X93830000Y-66730000D01*
X91170000Y-69330000D02*
X93830000Y-69330000D01*
X93830000Y-66730000D02*
X93830000Y-69330000D01*
%TO.C,R1*%
X112515000Y-62260436D02*
X112515000Y-62714564D01*
X113985000Y-62260436D02*
X113985000Y-62714564D01*
D11*
%TO.C,U1*%
X97155000Y-74755000D02*
G75*
G02*
X96955000Y-74755000I-100000J0D01*
G01*
X96955000Y-74755000D02*
G75*
G02*
X97155000Y-74755000I100000J0D01*
G01*
D14*
X99500000Y-79770000D02*
X103500000Y-79770000D01*
X99500000Y-74730000D02*
X103500000Y-74730000D01*
D13*
%TO.C,R5*%
X114909000Y-62260436D02*
X114909000Y-62714564D01*
X116379000Y-62260436D02*
X116379000Y-62714564D01*
%TO.C,C1*%
X107697000Y-62206248D02*
X107697000Y-62728752D01*
X109167000Y-62206248D02*
X109167000Y-62728752D01*
%TO.C,J3*%
X93850000Y-83730000D02*
X93850000Y-82400000D01*
X95180000Y-83730000D02*
X93850000Y-83730000D01*
X96450000Y-81070000D02*
X116830000Y-81070000D01*
X96450000Y-83730000D02*
X96450000Y-81070000D01*
X96450000Y-83730000D02*
X116830000Y-83730000D01*
X116830000Y-83730000D02*
X116830000Y-81070000D01*
%TO.C,J1*%
X130610000Y-71210000D02*
X131940000Y-71210000D01*
X130610000Y-72540000D02*
X130610000Y-71210000D01*
X130610000Y-73810000D02*
X130610000Y-81490000D01*
X130610000Y-73810000D02*
X133270000Y-73810000D01*
X130610000Y-81490000D02*
X133270000Y-81490000D01*
X133270000Y-73810000D02*
X133270000Y-81490000D01*
%TO.C,Y2*%
X110625600Y-80184400D02*
X117875600Y-80184400D01*
X117875600Y-76584400D02*
X110625600Y-76584400D01*
X117875600Y-80184400D02*
X117875600Y-76584400D01*
%TO.C,R7*%
X119697000Y-62260436D02*
X119697000Y-62714564D01*
X121167000Y-62260436D02*
X121167000Y-62714564D01*
%TO.C,C5*%
X108911252Y-73365000D02*
X108388748Y-73365000D01*
X108911252Y-74835000D02*
X108388748Y-74835000D01*
%TO.C,R3*%
X125122936Y-68615000D02*
X125577064Y-68615000D01*
X125122936Y-70085000D02*
X125577064Y-70085000D01*
%TO.C,J2*%
X119080000Y-83730000D02*
X119080000Y-82400000D01*
X120410000Y-83730000D02*
X119080000Y-83730000D01*
X121680000Y-81070000D02*
X129360000Y-81070000D01*
X121680000Y-83730000D02*
X121680000Y-81070000D01*
X121680000Y-83730000D02*
X129360000Y-83730000D01*
X129360000Y-83730000D02*
X129360000Y-81070000D01*
%TO.C,D2*%
X122190000Y-73756400D02*
X124875000Y-73756400D01*
X124875000Y-71836400D02*
X122190000Y-71836400D01*
X124875000Y-73756400D02*
X124875000Y-71836400D01*
%TO.C,D1*%
X124312500Y-67560000D02*
X126997500Y-67560000D01*
X126997500Y-65640000D02*
X124312500Y-65640000D01*
X126997500Y-67560000D02*
X126997500Y-65640000D01*
%TO.C,C3*%
X122914448Y-74161400D02*
X123436952Y-74161400D01*
X122914448Y-75631400D02*
X123436952Y-75631400D01*
%TO.C,Y1*%
X92200000Y-70950000D02*
X92200000Y-78200000D01*
X95800000Y-70950000D02*
X92200000Y-70950000D01*
X95800000Y-78200000D02*
X95800000Y-70950000D01*
%TO.C,C4*%
X108911252Y-71265000D02*
X108388748Y-71265000D01*
X108911252Y-72735000D02*
X108388748Y-72735000D01*
%TO.C,R4*%
X126214200Y-73672936D02*
X126214200Y-74127064D01*
X127684200Y-73672936D02*
X127684200Y-74127064D01*
%TO.C,J4*%
X128070000Y-62490000D02*
X129400000Y-62490000D01*
X128070000Y-63820000D02*
X128070000Y-62490000D01*
X128070000Y-65090000D02*
X128070000Y-70230000D01*
X128070000Y-65090000D02*
X130670000Y-65090000D01*
X128070000Y-70230000D02*
X133270000Y-70230000D01*
X130670000Y-62490000D02*
X133270000Y-62490000D01*
X130670000Y-65090000D02*
X130670000Y-62490000D01*
X133270000Y-62490000D02*
X133270000Y-70230000D01*
%TO.C,U4*%
X98425000Y-68275000D02*
X98425000Y-68535000D01*
X98425000Y-73725000D02*
X98425000Y-73465000D01*
X101150000Y-68275000D02*
X98425000Y-68275000D01*
X101150000Y-68275000D02*
X103875000Y-68275000D01*
X101150000Y-73725000D02*
X98425000Y-73725000D01*
X101150000Y-73725000D02*
X103875000Y-73725000D01*
X103875000Y-68275000D02*
X103875000Y-68535000D01*
X103875000Y-73725000D02*
X103875000Y-73465000D01*
X97642500Y-68535000D02*
X97402500Y-68205000D01*
X97882500Y-68205000D01*
X97642500Y-68535000D01*
G36*
X97642500Y-68535000D02*
G01*
X97402500Y-68205000D01*
X97882500Y-68205000D01*
X97642500Y-68535000D01*
G37*
%TO.C,C2*%
X121740700Y-69735148D02*
X121740700Y-70257652D01*
X123210700Y-69735148D02*
X123210700Y-70257652D01*
%TD*%
M02*
