M48
; DRILL file {KiCad 8.0.5} date 2024-12-04T08:57:24+0600
; FORMAT={-:-/ absolute / inch / decimal}
; #@! TF.CreationDate,2024-12-04T08:57:24+06:00
; #@! TF.GenerationSoftware,Kicad,Pcbnew,8.0.5
; #@! TF.FileFunction,Plated,1,4,PTH
FMAT,2
INCH
; #@! TA.AperFunction,Plated,PTH,ViaDrill
T1C0.0118
; #@! TA.AperFunction,Plated,PTH,ViaDrill
T2C0.0157
; #@! TA.AperFunction,Plated,PTH,ComponentDrill
T3C0.0394
%
G90
G05
T1
X3.782Y-2.464
X3.782Y-2.514
X3.782Y-2.564
X3.892Y-2.726
X3.892Y-2.82
X4.04Y-2.544
X4.054Y-2.872
X4.064Y-2.464
X4.07Y-2.72
X4.15Y-3.016
X4.164Y-2.654
X4.214Y-2.422
X4.218Y-2.638
X4.23Y-2.774
X4.294Y-2.638
X4.322Y-2.57
X4.352Y-2.76
X4.362Y-3.028
X4.366Y-2.394
X4.404Y-2.93
X4.456Y-2.822
X4.46Y-2.394
X4.46Y-2.538
X4.464Y-2.694
X4.466Y-2.854
X4.488Y-2.662
X4.522Y-2.552
X4.554Y-2.394
X4.5827Y-2.552
X4.594Y-2.992
X4.612Y-2.662
X4.616Y-2.808
X4.646Y-2.394
X4.656Y-2.86
X4.66Y-2.686
X4.672Y-2.818
X4.68Y-2.712
X4.722Y-2.942
X4.742Y-2.396
X4.768Y-2.938
X4.804Y-2.622
X4.812Y-3.022
X4.85Y-2.626
X5.016Y-2.68
T2
X3.782Y-2.614
X3.782Y-2.76
X3.824Y-3.116
X3.892Y-2.87
X4.064Y-2.508
X4.068Y-2.776
X4.22Y-2.498
X4.284Y-2.752
X4.324Y-2.732
X4.68Y-2.76
X4.898Y-2.79
X4.932Y-2.948
X5.052Y-2.912
T3
X3.6417Y-2.5772
X3.6417Y-2.6772
X3.7472Y-3.2441
X3.8472Y-3.2441
X3.9472Y-3.2441
X4.0472Y-3.2441
X4.1472Y-3.2441
X4.2472Y-3.2441
X4.3472Y-3.2441
X4.4472Y-3.2441
X4.5472Y-3.2441
X4.7406Y-3.2441
X4.8406Y-3.2441
X4.9406Y-3.2441
X5.0406Y-3.2441
X5.0945Y-2.5126
X5.0945Y-2.6126
X5.0945Y-2.7126
X5.1945Y-2.5126
X5.1945Y-2.6126
X5.1945Y-2.7126
X5.1945Y-2.8559
X5.1945Y-2.9559
X5.1945Y-3.0559
X5.1945Y-3.1559
M30
