%TF.GenerationSoftware,KiCad,Pcbnew,8.0.5*%
%TF.CreationDate,2024-12-04T08:56:06+06:00*%
%TF.ProjectId,MCU Datalogger,4d435520-4461-4746-916c-6f676765722e,rev?*%
%TF.SameCoordinates,Original*%
%TF.FileFunction,Copper,L2,Inr*%
%TF.FilePolarity,Positive*%
%FSLAX46Y46*%
G04 Gerber Fmt 4.6, Leading zero omitted, Abs format (unit mm)*
G04 Created by KiCad (PCBNEW 8.0.5) date 2024-12-04 08:56:06*
%MOMM*%
%LPD*%
G01*
G04 APERTURE LIST*
%TA.AperFunction,ComponentPad*%
%ADD10R,1.700000X1.700000*%
%TD*%
%TA.AperFunction,ComponentPad*%
%ADD11O,1.700000X1.700000*%
%TD*%
%TA.AperFunction,ViaPad*%
%ADD12C,0.900000*%
%TD*%
%TA.AperFunction,ViaPad*%
%ADD13C,0.600000*%
%TD*%
%TA.AperFunction,Conductor*%
%ADD14C,0.200000*%
%TD*%
G04 APERTURE END LIST*
D10*
%TO.N,/VCC*%
%TO.C,BT1*%
X92500000Y-65460000D03*
D11*
%TO.N,GND*%
X92500000Y-68000000D03*
%TD*%
D10*
%TO.N,/D2*%
%TO.C,J3*%
X95180000Y-82400000D03*
D11*
%TO.N,/D3*%
X97720000Y-82400000D03*
%TO.N,/D4*%
X100260000Y-82400000D03*
%TO.N,/D5*%
X102800000Y-82400000D03*
%TO.N,/D6*%
X105340000Y-82400000D03*
%TO.N,/D7*%
X107880000Y-82400000D03*
%TO.N,/D8*%
X110420000Y-82400000D03*
%TO.N,GND*%
X112960000Y-82400000D03*
%TO.N,/VCC*%
X115500000Y-82400000D03*
%TD*%
D10*
%TO.N,GND*%
%TO.C,J1*%
X131940000Y-72540000D03*
D11*
%TO.N,/VCC*%
X131940000Y-75080000D03*
%TO.N,/SDA*%
X131940000Y-77620000D03*
%TO.N,/SCK*%
X131940000Y-80160000D03*
%TD*%
D10*
%TO.N,GND*%
%TO.C,J2*%
X120410000Y-82400000D03*
D11*
%TO.N,/VCC*%
X122950000Y-82400000D03*
%TO.N,/RX*%
X125490000Y-82400000D03*
%TO.N,/TX*%
X128030000Y-82400000D03*
%TD*%
D10*
%TO.N,/MOSI*%
%TO.C,J4*%
X129400000Y-63820000D03*
D11*
%TO.N,GND*%
X131940000Y-63820000D03*
%TO.N,/SCK*%
X129400000Y-66360000D03*
%TO.N,/MISO*%
X131940000Y-66360000D03*
%TO.N,/RESET*%
X129400000Y-68900000D03*
%TO.N,GND*%
X131940000Y-68900000D03*
%TD*%
D12*
%TO.N,GND*%
X124409200Y-70866000D03*
X109829600Y-69392800D03*
D13*
%TO.N,/SDA*%
X117144800Y-67614800D03*
X109067600Y-67005200D03*
X107137200Y-67005200D03*
X105765600Y-67411600D03*
%TO.N,Net-(U1-SQW{slash}~INT)*%
X109778800Y-65278000D03*
X105410000Y-76606400D03*
D12*
%TO.N,GND*%
X108813600Y-69900800D03*
X97129600Y-79146400D03*
D13*
%TO.N,/VCC*%
X102971600Y-72948800D03*
D12*
%TO.N,GND*%
X98856800Y-72898000D03*
X96062800Y-70104000D03*
D13*
%TO.N,/VCC*%
X98856800Y-69240400D03*
X98856800Y-71628000D03*
X103378000Y-69088000D03*
D12*
%TO.N,GND*%
X103327200Y-70510400D03*
D13*
%TO.N,/VCC*%
X110540800Y-70104000D03*
X113182400Y-71678800D03*
X118668800Y-71577200D03*
D12*
%TO.N,GND*%
X118872000Y-70104000D03*
D13*
%TO.N,/VCC*%
X121107200Y-74625200D03*
D12*
%TO.N,GND*%
X125272800Y-74879200D03*
X128320800Y-73964800D03*
D13*
%TO.N,/VCC*%
X120446800Y-60858400D03*
X118008400Y-60807600D03*
X115671600Y-60807600D03*
X113284000Y-60807600D03*
X110896400Y-60807600D03*
X107035600Y-61518800D03*
D12*
%TO.N,GND*%
X107188000Y-63449200D03*
X103225600Y-63703200D03*
X96062800Y-66395600D03*
D13*
%TO.N,Net-(U2-PB6)*%
X116687600Y-75996800D03*
X113436400Y-72491600D03*
%TO.N,Net-(U2-PB7)*%
X110794800Y-76911200D03*
X111861600Y-74422000D03*
%TO.N,/VCC*%
X103225600Y-62585600D03*
X96062800Y-62585600D03*
X96062800Y-63855600D03*
X96062800Y-65125600D03*
%TO.N,/SCK*%
X122224800Y-76758800D03*
X119938800Y-74726800D03*
%TO.N,/MOSI*%
X117246400Y-71323200D03*
X122021600Y-66598800D03*
%TO.N,/RESET*%
X118872000Y-68884800D03*
X127406400Y-68072000D03*
%TO.N,Net-(U1-~{INTA})*%
X113284000Y-64465200D03*
X102616000Y-64617600D03*
%TO.N,/SCK*%
X116400000Y-64820800D03*
X114858800Y-64820800D03*
%TO.N,/RX*%
X113385600Y-68427600D03*
%TO.N,/TX*%
X113995200Y-67614800D03*
%TO.N,/SCK*%
X118364000Y-68224400D03*
X123190000Y-66700400D03*
X118262400Y-72644000D03*
%TO.N,/D4*%
X107442000Y-70459600D03*
%TD*%
D14*
%TO.N,/SDA*%
X116535200Y-67005200D02*
X117144800Y-67614800D01*
X109067600Y-67005200D02*
X116535200Y-67005200D01*
%TO.N,/MOSI*%
X121716800Y-66903600D02*
X122021600Y-66598800D01*
X118821200Y-66903600D02*
X121716800Y-66903600D01*
X117500400Y-68224400D02*
X118821200Y-66903600D01*
X117500400Y-71069200D02*
X117500400Y-68224400D01*
%TO.N,/SDA*%
X106730800Y-67411600D02*
X107137200Y-67005200D01*
X105765600Y-67411600D02*
X106730800Y-67411600D01*
%TO.N,Net-(U1-SQW{slash}~INT)*%
X106476800Y-68580000D02*
X106476800Y-75539600D01*
X109778800Y-65278000D02*
X106476800Y-68580000D01*
X106476800Y-75539600D02*
X105410000Y-76606400D01*
%TO.N,/SCK*%
X117906800Y-72288400D02*
X117906800Y-68681600D01*
X118262400Y-72644000D02*
X117906800Y-72288400D01*
X117906800Y-68681600D02*
X118364000Y-68224400D01*
%TO.N,Net-(U2-PB6)*%
X116687600Y-74726800D02*
X116687600Y-75996800D01*
X115316000Y-73355200D02*
X116687600Y-74726800D01*
X114300000Y-73355200D02*
X115316000Y-73355200D01*
X113436400Y-72491600D02*
X114300000Y-73355200D01*
%TO.N,Net-(U2-PB7)*%
X110794800Y-76911200D02*
X111861600Y-75844400D01*
X111861600Y-75844400D02*
X111861600Y-74422000D01*
%TO.N,/SCK*%
X122224800Y-76758800D02*
X121716800Y-76758800D01*
X121716800Y-76758800D02*
X119888000Y-74930000D01*
%TO.N,/RESET*%
X119151400Y-68503800D02*
X118872000Y-68783200D01*
X119583200Y-68072000D02*
X119151400Y-68503800D01*
%TO.N,/SCK*%
X122529600Y-67614800D02*
X123190000Y-66954400D01*
X118973600Y-67614800D02*
X122529600Y-67614800D01*
X118364000Y-68224400D02*
X118973600Y-67614800D01*
%TO.N,/RESET*%
X127406400Y-68072000D02*
X119583200Y-68072000D01*
%TO.N,Net-(U1-~{INTA})*%
X102616000Y-64617600D02*
X113131600Y-64617600D01*
%TO.N,/SCK*%
X114858800Y-64820800D02*
X116400000Y-64820800D01*
%TO.N,/RX*%
X125490000Y-79617600D02*
X125490000Y-82400000D01*
X123850400Y-77978000D02*
X125490000Y-79617600D01*
X121310400Y-77978000D02*
X123850400Y-77978000D01*
X113385600Y-70053200D02*
X121310400Y-77978000D01*
X113385600Y-68427600D02*
X113385600Y-70053200D01*
%TO.N,/TX*%
X128030000Y-79414400D02*
X128030000Y-82400000D01*
X126187200Y-77571600D02*
X128030000Y-79414400D01*
X121767600Y-77571600D02*
X126187200Y-77571600D01*
X113995200Y-69799200D02*
X121767600Y-77571600D01*
X113995200Y-67614800D02*
X113995200Y-69799200D01*
%TO.N,/D4*%
X100260000Y-80994400D02*
X100260000Y-82400000D01*
X101142800Y-80111600D02*
X100260000Y-80994400D01*
X106730800Y-80111600D02*
X101142800Y-80111600D01*
X107442000Y-79400400D02*
X106730800Y-80111600D01*
X107442000Y-70459600D02*
X107442000Y-79400400D01*
%TD*%
M02*
