%TF.GenerationSoftware,KiCad,Pcbnew,8.0.5*%
%TF.CreationDate,2024-12-04T08:57:26+06:00*%
%TF.ProjectId,MCU Datalogger,4d435520-4461-4746-916c-6f676765722e,rev?*%
%TF.SameCoordinates,Original*%
%TF.FileFunction,Drillmap*%
%TF.FilePolarity,Positive*%
%FSLAX45Y45*%
G04 Gerber Fmt 4.5, Leading zero omitted, Abs format (unit mm)*
G04 Created by KiCad (PCBNEW 8.0.5) date 2024-12-04 08:57:26*
%MOMM*%
%LPD*%
G01*
G04 APERTURE LIST*
%ADD10C,0.050000*%
%ADD11C,0.200000*%
%ADD12C,0.100000*%
G04 APERTURE END LIST*
D10*
X9000000Y-8200000D02*
X9000000Y-6250000D01*
X9000000Y-6250000D02*
G75*
G02*
X9250000Y-6000000I0J250000D01*
G01*
X9250000Y-8450000D02*
G75*
G02*
X9000000Y-8200000I-250000J0D01*
G01*
X13500000Y-6225000D02*
X13500000Y-8225000D01*
X13500000Y-8225000D02*
G75*
G02*
X13250000Y-8475000I0J-250000D01*
G01*
X9250000Y-6000000D02*
X13251241Y-5999876D01*
X9250000Y-8450000D02*
X13250000Y-8450000D01*
X13250000Y-8475000D02*
X13250000Y-8450000D01*
X13251241Y-5999876D02*
G75*
G02*
X13500000Y-6225000I248759J24876D01*
G01*
D11*
D12*
X9591280Y-6243560D02*
X9621280Y-6273560D01*
X9621280Y-6243560D02*
X9591280Y-6273560D01*
X9591280Y-6370560D02*
X9621280Y-6400560D01*
X9621280Y-6370560D02*
X9591280Y-6400560D01*
X9591280Y-6497560D02*
X9621280Y-6527560D01*
X9621280Y-6497560D02*
X9591280Y-6527560D01*
X9870680Y-6909040D02*
X9900680Y-6939040D01*
X9900680Y-6909040D02*
X9870680Y-6939040D01*
X9870680Y-7147800D02*
X9900680Y-7177800D01*
X9900680Y-7147800D02*
X9870680Y-7177800D01*
X10246600Y-6446760D02*
X10276600Y-6476760D01*
X10276600Y-6446760D02*
X10246600Y-6476760D01*
X10282160Y-7279880D02*
X10312160Y-7309880D01*
X10312160Y-7279880D02*
X10282160Y-7309880D01*
X10307560Y-6243560D02*
X10337560Y-6273560D01*
X10337560Y-6243560D02*
X10307560Y-6273560D01*
X10322800Y-6893800D02*
X10352800Y-6923800D01*
X10352800Y-6893800D02*
X10322800Y-6923800D01*
X10526000Y-7645640D02*
X10556000Y-7675640D01*
X10556000Y-7645640D02*
X10526000Y-7675640D01*
X10561560Y-6726160D02*
X10591560Y-6756160D01*
X10591560Y-6726160D02*
X10561560Y-6756160D01*
X10688560Y-6136880D02*
X10718560Y-6166880D01*
X10718560Y-6136880D02*
X10688560Y-6166880D01*
X10698720Y-6685520D02*
X10728720Y-6715520D01*
X10728720Y-6685520D02*
X10698720Y-6715520D01*
X10729200Y-7030960D02*
X10759200Y-7060960D01*
X10759200Y-7030960D02*
X10729200Y-7060960D01*
X10891760Y-6685520D02*
X10921760Y-6715520D01*
X10921760Y-6685520D02*
X10891760Y-6715520D01*
X10962880Y-6512800D02*
X10992880Y-6542800D01*
X10992880Y-6512800D02*
X10962880Y-6542800D01*
X11039080Y-6995400D02*
X11069080Y-7025400D01*
X11069080Y-6995400D02*
X11039080Y-7025400D01*
X11064480Y-7676120D02*
X11094480Y-7706120D01*
X11094480Y-7676120D02*
X11064480Y-7706120D01*
X11074640Y-6065760D02*
X11104640Y-6095760D01*
X11104640Y-6065760D02*
X11074640Y-6095760D01*
X11171160Y-7427200D02*
X11201160Y-7457200D01*
X11201160Y-7427200D02*
X11171160Y-7457200D01*
X11303240Y-7152880D02*
X11333240Y-7182880D01*
X11333240Y-7152880D02*
X11303240Y-7182880D01*
X11313400Y-6065760D02*
X11343400Y-6095760D01*
X11343400Y-6065760D02*
X11313400Y-6095760D01*
X11313400Y-6431520D02*
X11343400Y-6461520D01*
X11343400Y-6431520D02*
X11313400Y-6461520D01*
X11323560Y-6827760D02*
X11353560Y-6857760D01*
X11353560Y-6827760D02*
X11323560Y-6857760D01*
X11328640Y-7234160D02*
X11358640Y-7264160D01*
X11358640Y-7234160D02*
X11328640Y-7264160D01*
X11384520Y-6746480D02*
X11414520Y-6776480D01*
X11414520Y-6746480D02*
X11384520Y-6776480D01*
X11470880Y-6467080D02*
X11500880Y-6497080D01*
X11500880Y-6467080D02*
X11470880Y-6497080D01*
X11552160Y-6065760D02*
X11582160Y-6095760D01*
X11582160Y-6065760D02*
X11552160Y-6095760D01*
X11625000Y-6467080D02*
X11655000Y-6497080D01*
X11655000Y-6467080D02*
X11625000Y-6497080D01*
X11653760Y-7584680D02*
X11683760Y-7614680D01*
X11683760Y-7584680D02*
X11653760Y-7614680D01*
X11699480Y-6746480D02*
X11729480Y-6776480D01*
X11729480Y-6746480D02*
X11699480Y-6776480D01*
X11709640Y-7117320D02*
X11739640Y-7147320D01*
X11739640Y-7117320D02*
X11709640Y-7147320D01*
X11785840Y-6065760D02*
X11815840Y-6095760D01*
X11815840Y-6065760D02*
X11785840Y-6095760D01*
X11811240Y-7249400D02*
X11841240Y-7279400D01*
X11841240Y-7249400D02*
X11811240Y-7279400D01*
X11821400Y-6807440D02*
X11851400Y-6837440D01*
X11851400Y-6807440D02*
X11821400Y-6837440D01*
X11851880Y-7142720D02*
X11881880Y-7172720D01*
X11881880Y-7142720D02*
X11851880Y-7172720D01*
X11872200Y-6873480D02*
X11902200Y-6903480D01*
X11902200Y-6873480D02*
X11872200Y-6903480D01*
X11978880Y-7457680D02*
X12008880Y-7487680D01*
X12008880Y-7457680D02*
X11978880Y-7487680D01*
X12029680Y-6070840D02*
X12059680Y-6100840D01*
X12059680Y-6070840D02*
X12029680Y-6100840D01*
X12095720Y-7447520D02*
X12125720Y-7477520D01*
X12125720Y-7447520D02*
X12095720Y-7477520D01*
X12187160Y-6644880D02*
X12217160Y-6674880D01*
X12217160Y-6644880D02*
X12187160Y-6674880D01*
X12207480Y-7660880D02*
X12237480Y-7690880D01*
X12237480Y-7660880D02*
X12207480Y-7690880D01*
X12304000Y-6655040D02*
X12334000Y-6685040D01*
X12334000Y-6655040D02*
X12304000Y-6685040D01*
X12725640Y-6792200D02*
X12755640Y-6822200D01*
X12755640Y-6792200D02*
X12725640Y-6822200D01*
X9626280Y-6639560D02*
G75*
G02*
X9586280Y-6639560I-20000J0D01*
G01*
X9586280Y-6639560D02*
G75*
G02*
X9626280Y-6639560I20000J0D01*
G01*
X9626280Y-7010400D02*
G75*
G02*
X9586280Y-7010400I-20000J0D01*
G01*
X9586280Y-7010400D02*
G75*
G02*
X9626280Y-7010400I20000J0D01*
G01*
X9732960Y-7914640D02*
G75*
G02*
X9692960Y-7914640I-20000J0D01*
G01*
X9692960Y-7914640D02*
G75*
G02*
X9732960Y-7914640I20000J0D01*
G01*
X9905680Y-7289800D02*
G75*
G02*
X9865680Y-7289800I-20000J0D01*
G01*
X9865680Y-7289800D02*
G75*
G02*
X9905680Y-7289800I20000J0D01*
G01*
X10342560Y-6370320D02*
G75*
G02*
X10302560Y-6370320I-20000J0D01*
G01*
X10302560Y-6370320D02*
G75*
G02*
X10342560Y-6370320I20000J0D01*
G01*
X10352720Y-7051040D02*
G75*
G02*
X10312720Y-7051040I-20000J0D01*
G01*
X10312720Y-7051040D02*
G75*
G02*
X10352720Y-7051040I20000J0D01*
G01*
X10738800Y-6344920D02*
G75*
G02*
X10698800Y-6344920I-20000J0D01*
G01*
X10698800Y-6344920D02*
G75*
G02*
X10738800Y-6344920I20000J0D01*
G01*
X10901360Y-6990080D02*
G75*
G02*
X10861360Y-6990080I-20000J0D01*
G01*
X10861360Y-6990080D02*
G75*
G02*
X10901360Y-6990080I20000J0D01*
G01*
X11002960Y-6939280D02*
G75*
G02*
X10962960Y-6939280I-20000J0D01*
G01*
X10962960Y-6939280D02*
G75*
G02*
X11002960Y-6939280I20000J0D01*
G01*
X11907200Y-7010400D02*
G75*
G02*
X11867200Y-7010400I-20000J0D01*
G01*
X11867200Y-7010400D02*
G75*
G02*
X11907200Y-7010400I20000J0D01*
G01*
X12460920Y-7086600D02*
G75*
G02*
X12420920Y-7086600I-20000J0D01*
G01*
X12420920Y-7086600D02*
G75*
G02*
X12460920Y-7086600I20000J0D01*
G01*
X12547280Y-7487920D02*
G75*
G02*
X12507280Y-7487920I-20000J0D01*
G01*
X12507280Y-7487920D02*
G75*
G02*
X12547280Y-7487920I20000J0D01*
G01*
X12852080Y-7396480D02*
G75*
G02*
X12812080Y-7396480I-20000J0D01*
G01*
X12812080Y-7396480D02*
G75*
G02*
X12852080Y-7396480I20000J0D01*
G01*
X9250000Y-6496000D02*
X9250000Y-6596000D01*
X9200000Y-6546000D02*
X9300000Y-6546000D01*
X9250000Y-6750000D02*
X9250000Y-6850000D01*
X9200000Y-6800000D02*
X9300000Y-6800000D01*
X9518000Y-8190000D02*
X9518000Y-8290000D01*
X9468000Y-8240000D02*
X9568000Y-8240000D01*
X9772000Y-8190000D02*
X9772000Y-8290000D01*
X9722000Y-8240000D02*
X9822000Y-8240000D01*
X10026000Y-8190000D02*
X10026000Y-8290000D01*
X9976000Y-8240000D02*
X10076000Y-8240000D01*
X10280000Y-8190000D02*
X10280000Y-8290000D01*
X10230000Y-8240000D02*
X10330000Y-8240000D01*
X10534000Y-8190000D02*
X10534000Y-8290000D01*
X10484000Y-8240000D02*
X10584000Y-8240000D01*
X10788000Y-8190000D02*
X10788000Y-8290000D01*
X10738000Y-8240000D02*
X10838000Y-8240000D01*
X11042000Y-8190000D02*
X11042000Y-8290000D01*
X10992000Y-8240000D02*
X11092000Y-8240000D01*
X11296000Y-8190000D02*
X11296000Y-8290000D01*
X11246000Y-8240000D02*
X11346000Y-8240000D01*
X11550000Y-8190000D02*
X11550000Y-8290000D01*
X11500000Y-8240000D02*
X11600000Y-8240000D01*
X12041000Y-8190000D02*
X12041000Y-8290000D01*
X11991000Y-8240000D02*
X12091000Y-8240000D01*
X12295000Y-8190000D02*
X12295000Y-8290000D01*
X12245000Y-8240000D02*
X12345000Y-8240000D01*
X12549000Y-8190000D02*
X12549000Y-8290000D01*
X12499000Y-8240000D02*
X12599000Y-8240000D01*
X12803000Y-8190000D02*
X12803000Y-8290000D01*
X12753000Y-8240000D02*
X12853000Y-8240000D01*
X12940000Y-6332000D02*
X12940000Y-6432000D01*
X12890000Y-6382000D02*
X12990000Y-6382000D01*
X12940000Y-6586000D02*
X12940000Y-6686000D01*
X12890000Y-6636000D02*
X12990000Y-6636000D01*
X12940000Y-6840000D02*
X12940000Y-6940000D01*
X12890000Y-6890000D02*
X12990000Y-6890000D01*
X13194000Y-6332000D02*
X13194000Y-6432000D01*
X13144000Y-6382000D02*
X13244000Y-6382000D01*
X13194000Y-6586000D02*
X13194000Y-6686000D01*
X13144000Y-6636000D02*
X13244000Y-6636000D01*
X13194000Y-6840000D02*
X13194000Y-6940000D01*
X13144000Y-6890000D02*
X13244000Y-6890000D01*
X13194000Y-7204000D02*
X13194000Y-7304000D01*
X13144000Y-7254000D02*
X13244000Y-7254000D01*
X13194000Y-7458000D02*
X13194000Y-7558000D01*
X13144000Y-7508000D02*
X13244000Y-7508000D01*
X13194000Y-7712000D02*
X13194000Y-7812000D01*
X13144000Y-7762000D02*
X13244000Y-7762000D01*
X13194000Y-7966000D02*
X13194000Y-8066000D01*
X13144000Y-8016000D02*
X13244000Y-8016000D01*
D11*
X9008277Y-9038984D02*
X9008277Y-8838984D01*
X9008277Y-8838984D02*
X9055896Y-8838984D01*
X9055896Y-8838984D02*
X9084467Y-8848508D01*
X9084467Y-8848508D02*
X9103515Y-8867555D01*
X9103515Y-8867555D02*
X9113039Y-8886603D01*
X9113039Y-8886603D02*
X9122563Y-8924698D01*
X9122563Y-8924698D02*
X9122563Y-8953270D01*
X9122563Y-8953270D02*
X9113039Y-8991365D01*
X9113039Y-8991365D02*
X9103515Y-9010412D01*
X9103515Y-9010412D02*
X9084467Y-9029460D01*
X9084467Y-9029460D02*
X9055896Y-9038984D01*
X9055896Y-9038984D02*
X9008277Y-9038984D01*
X9208277Y-9038984D02*
X9208277Y-8905650D01*
X9208277Y-8943746D02*
X9217801Y-8924698D01*
X9217801Y-8924698D02*
X9227324Y-8915174D01*
X9227324Y-8915174D02*
X9246372Y-8905650D01*
X9246372Y-8905650D02*
X9265420Y-8905650D01*
X9332086Y-9038984D02*
X9332086Y-8905650D01*
X9332086Y-8838984D02*
X9322563Y-8848508D01*
X9322563Y-8848508D02*
X9332086Y-8858031D01*
X9332086Y-8858031D02*
X9341610Y-8848508D01*
X9341610Y-8848508D02*
X9332086Y-8838984D01*
X9332086Y-8838984D02*
X9332086Y-8858031D01*
X9455896Y-9038984D02*
X9436848Y-9029460D01*
X9436848Y-9029460D02*
X9427324Y-9010412D01*
X9427324Y-9010412D02*
X9427324Y-8838984D01*
X9560658Y-9038984D02*
X9541610Y-9029460D01*
X9541610Y-9029460D02*
X9532086Y-9010412D01*
X9532086Y-9010412D02*
X9532086Y-8838984D01*
X9789229Y-9038984D02*
X9789229Y-8838984D01*
X9789229Y-8838984D02*
X9855896Y-8981841D01*
X9855896Y-8981841D02*
X9922563Y-8838984D01*
X9922563Y-8838984D02*
X9922563Y-9038984D01*
X10103515Y-9038984D02*
X10103515Y-8934222D01*
X10103515Y-8934222D02*
X10093991Y-8915174D01*
X10093991Y-8915174D02*
X10074944Y-8905650D01*
X10074944Y-8905650D02*
X10036848Y-8905650D01*
X10036848Y-8905650D02*
X10017801Y-8915174D01*
X10103515Y-9029460D02*
X10084467Y-9038984D01*
X10084467Y-9038984D02*
X10036848Y-9038984D01*
X10036848Y-9038984D02*
X10017801Y-9029460D01*
X10017801Y-9029460D02*
X10008277Y-9010412D01*
X10008277Y-9010412D02*
X10008277Y-8991365D01*
X10008277Y-8991365D02*
X10017801Y-8972317D01*
X10017801Y-8972317D02*
X10036848Y-8962793D01*
X10036848Y-8962793D02*
X10084467Y-8962793D01*
X10084467Y-8962793D02*
X10103515Y-8953270D01*
X10198753Y-8905650D02*
X10198753Y-9105650D01*
X10198753Y-8915174D02*
X10217801Y-8905650D01*
X10217801Y-8905650D02*
X10255896Y-8905650D01*
X10255896Y-8905650D02*
X10274944Y-8915174D01*
X10274944Y-8915174D02*
X10284467Y-8924698D01*
X10284467Y-8924698D02*
X10293991Y-8943746D01*
X10293991Y-8943746D02*
X10293991Y-9000889D01*
X10293991Y-9000889D02*
X10284467Y-9019936D01*
X10284467Y-9019936D02*
X10274944Y-9029460D01*
X10274944Y-9029460D02*
X10255896Y-9038984D01*
X10255896Y-9038984D02*
X10217801Y-9038984D01*
X10217801Y-9038984D02*
X10198753Y-9029460D01*
X10379705Y-9019936D02*
X10389229Y-9029460D01*
X10389229Y-9029460D02*
X10379705Y-9038984D01*
X10379705Y-9038984D02*
X10370182Y-9029460D01*
X10370182Y-9029460D02*
X10379705Y-9019936D01*
X10379705Y-9019936D02*
X10379705Y-9038984D01*
X10379705Y-8915174D02*
X10389229Y-8924698D01*
X10389229Y-8924698D02*
X10379705Y-8934222D01*
X10379705Y-8934222D02*
X10370182Y-8924698D01*
X10370182Y-8924698D02*
X10379705Y-8915174D01*
X10379705Y-8915174D02*
X10379705Y-8934222D01*
D12*
X8717500Y-9352500D02*
X8747500Y-9382500D01*
X8747500Y-9352500D02*
X8717500Y-9382500D01*
D11*
X9046372Y-9258984D02*
X9065420Y-9258984D01*
X9065420Y-9258984D02*
X9084467Y-9268508D01*
X9084467Y-9268508D02*
X9093991Y-9278031D01*
X9093991Y-9278031D02*
X9103515Y-9297079D01*
X9103515Y-9297079D02*
X9113039Y-9335174D01*
X9113039Y-9335174D02*
X9113039Y-9382793D01*
X9113039Y-9382793D02*
X9103515Y-9420889D01*
X9103515Y-9420889D02*
X9093991Y-9439936D01*
X9093991Y-9439936D02*
X9084467Y-9449460D01*
X9084467Y-9449460D02*
X9065420Y-9458984D01*
X9065420Y-9458984D02*
X9046372Y-9458984D01*
X9046372Y-9458984D02*
X9027324Y-9449460D01*
X9027324Y-9449460D02*
X9017801Y-9439936D01*
X9017801Y-9439936D02*
X9008277Y-9420889D01*
X9008277Y-9420889D02*
X8998753Y-9382793D01*
X8998753Y-9382793D02*
X8998753Y-9335174D01*
X8998753Y-9335174D02*
X9008277Y-9297079D01*
X9008277Y-9297079D02*
X9017801Y-9278031D01*
X9017801Y-9278031D02*
X9027324Y-9268508D01*
X9027324Y-9268508D02*
X9046372Y-9258984D01*
X9198753Y-9439936D02*
X9208277Y-9449460D01*
X9208277Y-9449460D02*
X9198753Y-9458984D01*
X9198753Y-9458984D02*
X9189229Y-9449460D01*
X9189229Y-9449460D02*
X9198753Y-9439936D01*
X9198753Y-9439936D02*
X9198753Y-9458984D01*
X9274944Y-9258984D02*
X9398753Y-9258984D01*
X9398753Y-9258984D02*
X9332086Y-9335174D01*
X9332086Y-9335174D02*
X9360658Y-9335174D01*
X9360658Y-9335174D02*
X9379705Y-9344698D01*
X9379705Y-9344698D02*
X9389229Y-9354222D01*
X9389229Y-9354222D02*
X9398753Y-9373270D01*
X9398753Y-9373270D02*
X9398753Y-9420889D01*
X9398753Y-9420889D02*
X9389229Y-9439936D01*
X9389229Y-9439936D02*
X9379705Y-9449460D01*
X9379705Y-9449460D02*
X9360658Y-9458984D01*
X9360658Y-9458984D02*
X9303515Y-9458984D01*
X9303515Y-9458984D02*
X9284467Y-9449460D01*
X9284467Y-9449460D02*
X9274944Y-9439936D01*
X9522563Y-9258984D02*
X9541610Y-9258984D01*
X9541610Y-9258984D02*
X9560658Y-9268508D01*
X9560658Y-9268508D02*
X9570182Y-9278031D01*
X9570182Y-9278031D02*
X9579705Y-9297079D01*
X9579705Y-9297079D02*
X9589229Y-9335174D01*
X9589229Y-9335174D02*
X9589229Y-9382793D01*
X9589229Y-9382793D02*
X9579705Y-9420889D01*
X9579705Y-9420889D02*
X9570182Y-9439936D01*
X9570182Y-9439936D02*
X9560658Y-9449460D01*
X9560658Y-9449460D02*
X9541610Y-9458984D01*
X9541610Y-9458984D02*
X9522563Y-9458984D01*
X9522563Y-9458984D02*
X9503515Y-9449460D01*
X9503515Y-9449460D02*
X9493991Y-9439936D01*
X9493991Y-9439936D02*
X9484467Y-9420889D01*
X9484467Y-9420889D02*
X9474944Y-9382793D01*
X9474944Y-9382793D02*
X9474944Y-9335174D01*
X9474944Y-9335174D02*
X9484467Y-9297079D01*
X9484467Y-9297079D02*
X9493991Y-9278031D01*
X9493991Y-9278031D02*
X9503515Y-9268508D01*
X9503515Y-9268508D02*
X9522563Y-9258984D01*
X9713039Y-9258984D02*
X9732086Y-9258984D01*
X9732086Y-9258984D02*
X9751134Y-9268508D01*
X9751134Y-9268508D02*
X9760658Y-9278031D01*
X9760658Y-9278031D02*
X9770182Y-9297079D01*
X9770182Y-9297079D02*
X9779705Y-9335174D01*
X9779705Y-9335174D02*
X9779705Y-9382793D01*
X9779705Y-9382793D02*
X9770182Y-9420889D01*
X9770182Y-9420889D02*
X9760658Y-9439936D01*
X9760658Y-9439936D02*
X9751134Y-9449460D01*
X9751134Y-9449460D02*
X9732086Y-9458984D01*
X9732086Y-9458984D02*
X9713039Y-9458984D01*
X9713039Y-9458984D02*
X9693991Y-9449460D01*
X9693991Y-9449460D02*
X9684467Y-9439936D01*
X9684467Y-9439936D02*
X9674944Y-9420889D01*
X9674944Y-9420889D02*
X9665420Y-9382793D01*
X9665420Y-9382793D02*
X9665420Y-9335174D01*
X9665420Y-9335174D02*
X9674944Y-9297079D01*
X9674944Y-9297079D02*
X9684467Y-9278031D01*
X9684467Y-9278031D02*
X9693991Y-9268508D01*
X9693991Y-9268508D02*
X9713039Y-9258984D01*
X9865420Y-9458984D02*
X9865420Y-9325650D01*
X9865420Y-9344698D02*
X9874944Y-9335174D01*
X9874944Y-9335174D02*
X9893991Y-9325650D01*
X9893991Y-9325650D02*
X9922563Y-9325650D01*
X9922563Y-9325650D02*
X9941610Y-9335174D01*
X9941610Y-9335174D02*
X9951134Y-9354222D01*
X9951134Y-9354222D02*
X9951134Y-9458984D01*
X9951134Y-9354222D02*
X9960658Y-9335174D01*
X9960658Y-9335174D02*
X9979705Y-9325650D01*
X9979705Y-9325650D02*
X10008277Y-9325650D01*
X10008277Y-9325650D02*
X10027325Y-9335174D01*
X10027325Y-9335174D02*
X10036848Y-9354222D01*
X10036848Y-9354222D02*
X10036848Y-9458984D01*
X10132086Y-9458984D02*
X10132086Y-9325650D01*
X10132086Y-9344698D02*
X10141610Y-9335174D01*
X10141610Y-9335174D02*
X10160658Y-9325650D01*
X10160658Y-9325650D02*
X10189229Y-9325650D01*
X10189229Y-9325650D02*
X10208277Y-9335174D01*
X10208277Y-9335174D02*
X10217801Y-9354222D01*
X10217801Y-9354222D02*
X10217801Y-9458984D01*
X10217801Y-9354222D02*
X10227325Y-9335174D01*
X10227325Y-9335174D02*
X10246372Y-9325650D01*
X10246372Y-9325650D02*
X10274944Y-9325650D01*
X10274944Y-9325650D02*
X10293991Y-9335174D01*
X10293991Y-9335174D02*
X10303515Y-9354222D01*
X10303515Y-9354222D02*
X10303515Y-9458984D01*
X10693991Y-9249460D02*
X10522563Y-9506603D01*
X10951134Y-9258984D02*
X10970182Y-9258984D01*
X10970182Y-9258984D02*
X10989229Y-9268508D01*
X10989229Y-9268508D02*
X10998753Y-9278031D01*
X10998753Y-9278031D02*
X11008277Y-9297079D01*
X11008277Y-9297079D02*
X11017801Y-9335174D01*
X11017801Y-9335174D02*
X11017801Y-9382793D01*
X11017801Y-9382793D02*
X11008277Y-9420889D01*
X11008277Y-9420889D02*
X10998753Y-9439936D01*
X10998753Y-9439936D02*
X10989229Y-9449460D01*
X10989229Y-9449460D02*
X10970182Y-9458984D01*
X10970182Y-9458984D02*
X10951134Y-9458984D01*
X10951134Y-9458984D02*
X10932087Y-9449460D01*
X10932087Y-9449460D02*
X10922563Y-9439936D01*
X10922563Y-9439936D02*
X10913039Y-9420889D01*
X10913039Y-9420889D02*
X10903515Y-9382793D01*
X10903515Y-9382793D02*
X10903515Y-9335174D01*
X10903515Y-9335174D02*
X10913039Y-9297079D01*
X10913039Y-9297079D02*
X10922563Y-9278031D01*
X10922563Y-9278031D02*
X10932087Y-9268508D01*
X10932087Y-9268508D02*
X10951134Y-9258984D01*
X11103515Y-9439936D02*
X11113039Y-9449460D01*
X11113039Y-9449460D02*
X11103515Y-9458984D01*
X11103515Y-9458984D02*
X11093991Y-9449460D01*
X11093991Y-9449460D02*
X11103515Y-9439936D01*
X11103515Y-9439936D02*
X11103515Y-9458984D01*
X11236848Y-9258984D02*
X11255896Y-9258984D01*
X11255896Y-9258984D02*
X11274944Y-9268508D01*
X11274944Y-9268508D02*
X11284467Y-9278031D01*
X11284467Y-9278031D02*
X11293991Y-9297079D01*
X11293991Y-9297079D02*
X11303515Y-9335174D01*
X11303515Y-9335174D02*
X11303515Y-9382793D01*
X11303515Y-9382793D02*
X11293991Y-9420889D01*
X11293991Y-9420889D02*
X11284467Y-9439936D01*
X11284467Y-9439936D02*
X11274944Y-9449460D01*
X11274944Y-9449460D02*
X11255896Y-9458984D01*
X11255896Y-9458984D02*
X11236848Y-9458984D01*
X11236848Y-9458984D02*
X11217801Y-9449460D01*
X11217801Y-9449460D02*
X11208277Y-9439936D01*
X11208277Y-9439936D02*
X11198753Y-9420889D01*
X11198753Y-9420889D02*
X11189229Y-9382793D01*
X11189229Y-9382793D02*
X11189229Y-9335174D01*
X11189229Y-9335174D02*
X11198753Y-9297079D01*
X11198753Y-9297079D02*
X11208277Y-9278031D01*
X11208277Y-9278031D02*
X11217801Y-9268508D01*
X11217801Y-9268508D02*
X11236848Y-9258984D01*
X11493991Y-9458984D02*
X11379706Y-9458984D01*
X11436848Y-9458984D02*
X11436848Y-9258984D01*
X11436848Y-9258984D02*
X11417801Y-9287555D01*
X11417801Y-9287555D02*
X11398753Y-9306603D01*
X11398753Y-9306603D02*
X11379706Y-9316127D01*
X11684467Y-9458984D02*
X11570182Y-9458984D01*
X11627325Y-9458984D02*
X11627325Y-9258984D01*
X11627325Y-9258984D02*
X11608277Y-9287555D01*
X11608277Y-9287555D02*
X11589229Y-9306603D01*
X11589229Y-9306603D02*
X11570182Y-9316127D01*
X11798753Y-9344698D02*
X11779706Y-9335174D01*
X11779706Y-9335174D02*
X11770182Y-9325650D01*
X11770182Y-9325650D02*
X11760658Y-9306603D01*
X11760658Y-9306603D02*
X11760658Y-9297079D01*
X11760658Y-9297079D02*
X11770182Y-9278031D01*
X11770182Y-9278031D02*
X11779706Y-9268508D01*
X11779706Y-9268508D02*
X11798753Y-9258984D01*
X11798753Y-9258984D02*
X11836848Y-9258984D01*
X11836848Y-9258984D02*
X11855896Y-9268508D01*
X11855896Y-9268508D02*
X11865420Y-9278031D01*
X11865420Y-9278031D02*
X11874944Y-9297079D01*
X11874944Y-9297079D02*
X11874944Y-9306603D01*
X11874944Y-9306603D02*
X11865420Y-9325650D01*
X11865420Y-9325650D02*
X11855896Y-9335174D01*
X11855896Y-9335174D02*
X11836848Y-9344698D01*
X11836848Y-9344698D02*
X11798753Y-9344698D01*
X11798753Y-9344698D02*
X11779706Y-9354222D01*
X11779706Y-9354222D02*
X11770182Y-9363746D01*
X11770182Y-9363746D02*
X11760658Y-9382793D01*
X11760658Y-9382793D02*
X11760658Y-9420889D01*
X11760658Y-9420889D02*
X11770182Y-9439936D01*
X11770182Y-9439936D02*
X11779706Y-9449460D01*
X11779706Y-9449460D02*
X11798753Y-9458984D01*
X11798753Y-9458984D02*
X11836848Y-9458984D01*
X11836848Y-9458984D02*
X11855896Y-9449460D01*
X11855896Y-9449460D02*
X11865420Y-9439936D01*
X11865420Y-9439936D02*
X11874944Y-9420889D01*
X11874944Y-9420889D02*
X11874944Y-9382793D01*
X11874944Y-9382793D02*
X11865420Y-9363746D01*
X11865420Y-9363746D02*
X11855896Y-9354222D01*
X11855896Y-9354222D02*
X11836848Y-9344698D01*
X11951134Y-9258984D02*
X11951134Y-9297079D01*
X12027325Y-9258984D02*
X12027325Y-9297079D01*
X12322563Y-9535174D02*
X12313039Y-9525650D01*
X12313039Y-9525650D02*
X12293991Y-9497079D01*
X12293991Y-9497079D02*
X12284468Y-9478031D01*
X12284468Y-9478031D02*
X12274944Y-9449460D01*
X12274944Y-9449460D02*
X12265420Y-9401841D01*
X12265420Y-9401841D02*
X12265420Y-9363746D01*
X12265420Y-9363746D02*
X12274944Y-9316127D01*
X12274944Y-9316127D02*
X12284468Y-9287555D01*
X12284468Y-9287555D02*
X12293991Y-9268508D01*
X12293991Y-9268508D02*
X12313039Y-9239936D01*
X12313039Y-9239936D02*
X12322563Y-9230412D01*
X12484468Y-9325650D02*
X12484468Y-9458984D01*
X12436848Y-9249460D02*
X12389229Y-9392317D01*
X12389229Y-9392317D02*
X12513039Y-9392317D01*
X12674944Y-9325650D02*
X12674944Y-9458984D01*
X12627325Y-9249460D02*
X12579706Y-9392317D01*
X12579706Y-9392317D02*
X12703515Y-9392317D01*
X12932087Y-9458984D02*
X12932087Y-9258984D01*
X13017801Y-9458984D02*
X13017801Y-9354222D01*
X13017801Y-9354222D02*
X13008277Y-9335174D01*
X13008277Y-9335174D02*
X12989230Y-9325650D01*
X12989230Y-9325650D02*
X12960658Y-9325650D01*
X12960658Y-9325650D02*
X12941610Y-9335174D01*
X12941610Y-9335174D02*
X12932087Y-9344698D01*
X13141610Y-9458984D02*
X13122563Y-9449460D01*
X13122563Y-9449460D02*
X13113039Y-9439936D01*
X13113039Y-9439936D02*
X13103515Y-9420889D01*
X13103515Y-9420889D02*
X13103515Y-9363746D01*
X13103515Y-9363746D02*
X13113039Y-9344698D01*
X13113039Y-9344698D02*
X13122563Y-9335174D01*
X13122563Y-9335174D02*
X13141610Y-9325650D01*
X13141610Y-9325650D02*
X13170182Y-9325650D01*
X13170182Y-9325650D02*
X13189230Y-9335174D01*
X13189230Y-9335174D02*
X13198753Y-9344698D01*
X13198753Y-9344698D02*
X13208277Y-9363746D01*
X13208277Y-9363746D02*
X13208277Y-9420889D01*
X13208277Y-9420889D02*
X13198753Y-9439936D01*
X13198753Y-9439936D02*
X13189230Y-9449460D01*
X13189230Y-9449460D02*
X13170182Y-9458984D01*
X13170182Y-9458984D02*
X13141610Y-9458984D01*
X13322563Y-9458984D02*
X13303515Y-9449460D01*
X13303515Y-9449460D02*
X13293991Y-9430412D01*
X13293991Y-9430412D02*
X13293991Y-9258984D01*
X13474944Y-9449460D02*
X13455896Y-9458984D01*
X13455896Y-9458984D02*
X13417801Y-9458984D01*
X13417801Y-9458984D02*
X13398753Y-9449460D01*
X13398753Y-9449460D02*
X13389230Y-9430412D01*
X13389230Y-9430412D02*
X13389230Y-9354222D01*
X13389230Y-9354222D02*
X13398753Y-9335174D01*
X13398753Y-9335174D02*
X13417801Y-9325650D01*
X13417801Y-9325650D02*
X13455896Y-9325650D01*
X13455896Y-9325650D02*
X13474944Y-9335174D01*
X13474944Y-9335174D02*
X13484468Y-9354222D01*
X13484468Y-9354222D02*
X13484468Y-9373270D01*
X13484468Y-9373270D02*
X13389230Y-9392317D01*
X13560658Y-9449460D02*
X13579706Y-9458984D01*
X13579706Y-9458984D02*
X13617801Y-9458984D01*
X13617801Y-9458984D02*
X13636849Y-9449460D01*
X13636849Y-9449460D02*
X13646372Y-9430412D01*
X13646372Y-9430412D02*
X13646372Y-9420889D01*
X13646372Y-9420889D02*
X13636849Y-9401841D01*
X13636849Y-9401841D02*
X13617801Y-9392317D01*
X13617801Y-9392317D02*
X13589230Y-9392317D01*
X13589230Y-9392317D02*
X13570182Y-9382793D01*
X13570182Y-9382793D02*
X13560658Y-9363746D01*
X13560658Y-9363746D02*
X13560658Y-9354222D01*
X13560658Y-9354222D02*
X13570182Y-9335174D01*
X13570182Y-9335174D02*
X13589230Y-9325650D01*
X13589230Y-9325650D02*
X13617801Y-9325650D01*
X13617801Y-9325650D02*
X13636849Y-9335174D01*
X13713039Y-9535174D02*
X13722563Y-9525650D01*
X13722563Y-9525650D02*
X13741611Y-9497079D01*
X13741611Y-9497079D02*
X13751134Y-9478031D01*
X13751134Y-9478031D02*
X13760658Y-9449460D01*
X13760658Y-9449460D02*
X13770182Y-9401841D01*
X13770182Y-9401841D02*
X13770182Y-9363746D01*
X13770182Y-9363746D02*
X13760658Y-9316127D01*
X13760658Y-9316127D02*
X13751134Y-9287555D01*
X13751134Y-9287555D02*
X13741611Y-9268508D01*
X13741611Y-9268508D02*
X13722563Y-9239936D01*
X13722563Y-9239936D02*
X13713039Y-9230412D01*
D12*
X8747500Y-9631500D02*
G75*
G02*
X8707500Y-9631500I-20000J0D01*
G01*
X8707500Y-9631500D02*
G75*
G02*
X8747500Y-9631500I20000J0D01*
G01*
D11*
X9046372Y-9522984D02*
X9065420Y-9522984D01*
X9065420Y-9522984D02*
X9084467Y-9532508D01*
X9084467Y-9532508D02*
X9093991Y-9542031D01*
X9093991Y-9542031D02*
X9103515Y-9561079D01*
X9103515Y-9561079D02*
X9113039Y-9599174D01*
X9113039Y-9599174D02*
X9113039Y-9646793D01*
X9113039Y-9646793D02*
X9103515Y-9684889D01*
X9103515Y-9684889D02*
X9093991Y-9703936D01*
X9093991Y-9703936D02*
X9084467Y-9713460D01*
X9084467Y-9713460D02*
X9065420Y-9722984D01*
X9065420Y-9722984D02*
X9046372Y-9722984D01*
X9046372Y-9722984D02*
X9027324Y-9713460D01*
X9027324Y-9713460D02*
X9017801Y-9703936D01*
X9017801Y-9703936D02*
X9008277Y-9684889D01*
X9008277Y-9684889D02*
X8998753Y-9646793D01*
X8998753Y-9646793D02*
X8998753Y-9599174D01*
X8998753Y-9599174D02*
X9008277Y-9561079D01*
X9008277Y-9561079D02*
X9017801Y-9542031D01*
X9017801Y-9542031D02*
X9027324Y-9532508D01*
X9027324Y-9532508D02*
X9046372Y-9522984D01*
X9198753Y-9703936D02*
X9208277Y-9713460D01*
X9208277Y-9713460D02*
X9198753Y-9722984D01*
X9198753Y-9722984D02*
X9189229Y-9713460D01*
X9189229Y-9713460D02*
X9198753Y-9703936D01*
X9198753Y-9703936D02*
X9198753Y-9722984D01*
X9379705Y-9589650D02*
X9379705Y-9722984D01*
X9332086Y-9513460D02*
X9284467Y-9656317D01*
X9284467Y-9656317D02*
X9408277Y-9656317D01*
X9522563Y-9522984D02*
X9541610Y-9522984D01*
X9541610Y-9522984D02*
X9560658Y-9532508D01*
X9560658Y-9532508D02*
X9570182Y-9542031D01*
X9570182Y-9542031D02*
X9579705Y-9561079D01*
X9579705Y-9561079D02*
X9589229Y-9599174D01*
X9589229Y-9599174D02*
X9589229Y-9646793D01*
X9589229Y-9646793D02*
X9579705Y-9684889D01*
X9579705Y-9684889D02*
X9570182Y-9703936D01*
X9570182Y-9703936D02*
X9560658Y-9713460D01*
X9560658Y-9713460D02*
X9541610Y-9722984D01*
X9541610Y-9722984D02*
X9522563Y-9722984D01*
X9522563Y-9722984D02*
X9503515Y-9713460D01*
X9503515Y-9713460D02*
X9493991Y-9703936D01*
X9493991Y-9703936D02*
X9484467Y-9684889D01*
X9484467Y-9684889D02*
X9474944Y-9646793D01*
X9474944Y-9646793D02*
X9474944Y-9599174D01*
X9474944Y-9599174D02*
X9484467Y-9561079D01*
X9484467Y-9561079D02*
X9493991Y-9542031D01*
X9493991Y-9542031D02*
X9503515Y-9532508D01*
X9503515Y-9532508D02*
X9522563Y-9522984D01*
X9713039Y-9522984D02*
X9732086Y-9522984D01*
X9732086Y-9522984D02*
X9751134Y-9532508D01*
X9751134Y-9532508D02*
X9760658Y-9542031D01*
X9760658Y-9542031D02*
X9770182Y-9561079D01*
X9770182Y-9561079D02*
X9779705Y-9599174D01*
X9779705Y-9599174D02*
X9779705Y-9646793D01*
X9779705Y-9646793D02*
X9770182Y-9684889D01*
X9770182Y-9684889D02*
X9760658Y-9703936D01*
X9760658Y-9703936D02*
X9751134Y-9713460D01*
X9751134Y-9713460D02*
X9732086Y-9722984D01*
X9732086Y-9722984D02*
X9713039Y-9722984D01*
X9713039Y-9722984D02*
X9693991Y-9713460D01*
X9693991Y-9713460D02*
X9684467Y-9703936D01*
X9684467Y-9703936D02*
X9674944Y-9684889D01*
X9674944Y-9684889D02*
X9665420Y-9646793D01*
X9665420Y-9646793D02*
X9665420Y-9599174D01*
X9665420Y-9599174D02*
X9674944Y-9561079D01*
X9674944Y-9561079D02*
X9684467Y-9542031D01*
X9684467Y-9542031D02*
X9693991Y-9532508D01*
X9693991Y-9532508D02*
X9713039Y-9522984D01*
X9865420Y-9722984D02*
X9865420Y-9589650D01*
X9865420Y-9608698D02*
X9874944Y-9599174D01*
X9874944Y-9599174D02*
X9893991Y-9589650D01*
X9893991Y-9589650D02*
X9922563Y-9589650D01*
X9922563Y-9589650D02*
X9941610Y-9599174D01*
X9941610Y-9599174D02*
X9951134Y-9618222D01*
X9951134Y-9618222D02*
X9951134Y-9722984D01*
X9951134Y-9618222D02*
X9960658Y-9599174D01*
X9960658Y-9599174D02*
X9979705Y-9589650D01*
X9979705Y-9589650D02*
X10008277Y-9589650D01*
X10008277Y-9589650D02*
X10027325Y-9599174D01*
X10027325Y-9599174D02*
X10036848Y-9618222D01*
X10036848Y-9618222D02*
X10036848Y-9722984D01*
X10132086Y-9722984D02*
X10132086Y-9589650D01*
X10132086Y-9608698D02*
X10141610Y-9599174D01*
X10141610Y-9599174D02*
X10160658Y-9589650D01*
X10160658Y-9589650D02*
X10189229Y-9589650D01*
X10189229Y-9589650D02*
X10208277Y-9599174D01*
X10208277Y-9599174D02*
X10217801Y-9618222D01*
X10217801Y-9618222D02*
X10217801Y-9722984D01*
X10217801Y-9618222D02*
X10227325Y-9599174D01*
X10227325Y-9599174D02*
X10246372Y-9589650D01*
X10246372Y-9589650D02*
X10274944Y-9589650D01*
X10274944Y-9589650D02*
X10293991Y-9599174D01*
X10293991Y-9599174D02*
X10303515Y-9618222D01*
X10303515Y-9618222D02*
X10303515Y-9722984D01*
X10693991Y-9513460D02*
X10522563Y-9770603D01*
X10951134Y-9522984D02*
X10970182Y-9522984D01*
X10970182Y-9522984D02*
X10989229Y-9532508D01*
X10989229Y-9532508D02*
X10998753Y-9542031D01*
X10998753Y-9542031D02*
X11008277Y-9561079D01*
X11008277Y-9561079D02*
X11017801Y-9599174D01*
X11017801Y-9599174D02*
X11017801Y-9646793D01*
X11017801Y-9646793D02*
X11008277Y-9684889D01*
X11008277Y-9684889D02*
X10998753Y-9703936D01*
X10998753Y-9703936D02*
X10989229Y-9713460D01*
X10989229Y-9713460D02*
X10970182Y-9722984D01*
X10970182Y-9722984D02*
X10951134Y-9722984D01*
X10951134Y-9722984D02*
X10932087Y-9713460D01*
X10932087Y-9713460D02*
X10922563Y-9703936D01*
X10922563Y-9703936D02*
X10913039Y-9684889D01*
X10913039Y-9684889D02*
X10903515Y-9646793D01*
X10903515Y-9646793D02*
X10903515Y-9599174D01*
X10903515Y-9599174D02*
X10913039Y-9561079D01*
X10913039Y-9561079D02*
X10922563Y-9542031D01*
X10922563Y-9542031D02*
X10932087Y-9532508D01*
X10932087Y-9532508D02*
X10951134Y-9522984D01*
X11103515Y-9703936D02*
X11113039Y-9713460D01*
X11113039Y-9713460D02*
X11103515Y-9722984D01*
X11103515Y-9722984D02*
X11093991Y-9713460D01*
X11093991Y-9713460D02*
X11103515Y-9703936D01*
X11103515Y-9703936D02*
X11103515Y-9722984D01*
X11236848Y-9522984D02*
X11255896Y-9522984D01*
X11255896Y-9522984D02*
X11274944Y-9532508D01*
X11274944Y-9532508D02*
X11284467Y-9542031D01*
X11284467Y-9542031D02*
X11293991Y-9561079D01*
X11293991Y-9561079D02*
X11303515Y-9599174D01*
X11303515Y-9599174D02*
X11303515Y-9646793D01*
X11303515Y-9646793D02*
X11293991Y-9684889D01*
X11293991Y-9684889D02*
X11284467Y-9703936D01*
X11284467Y-9703936D02*
X11274944Y-9713460D01*
X11274944Y-9713460D02*
X11255896Y-9722984D01*
X11255896Y-9722984D02*
X11236848Y-9722984D01*
X11236848Y-9722984D02*
X11217801Y-9713460D01*
X11217801Y-9713460D02*
X11208277Y-9703936D01*
X11208277Y-9703936D02*
X11198753Y-9684889D01*
X11198753Y-9684889D02*
X11189229Y-9646793D01*
X11189229Y-9646793D02*
X11189229Y-9599174D01*
X11189229Y-9599174D02*
X11198753Y-9561079D01*
X11198753Y-9561079D02*
X11208277Y-9542031D01*
X11208277Y-9542031D02*
X11217801Y-9532508D01*
X11217801Y-9532508D02*
X11236848Y-9522984D01*
X11493991Y-9722984D02*
X11379706Y-9722984D01*
X11436848Y-9722984D02*
X11436848Y-9522984D01*
X11436848Y-9522984D02*
X11417801Y-9551555D01*
X11417801Y-9551555D02*
X11398753Y-9570603D01*
X11398753Y-9570603D02*
X11379706Y-9580127D01*
X11674944Y-9522984D02*
X11579706Y-9522984D01*
X11579706Y-9522984D02*
X11570182Y-9618222D01*
X11570182Y-9618222D02*
X11579706Y-9608698D01*
X11579706Y-9608698D02*
X11598753Y-9599174D01*
X11598753Y-9599174D02*
X11646372Y-9599174D01*
X11646372Y-9599174D02*
X11665420Y-9608698D01*
X11665420Y-9608698D02*
X11674944Y-9618222D01*
X11674944Y-9618222D02*
X11684467Y-9637270D01*
X11684467Y-9637270D02*
X11684467Y-9684889D01*
X11684467Y-9684889D02*
X11674944Y-9703936D01*
X11674944Y-9703936D02*
X11665420Y-9713460D01*
X11665420Y-9713460D02*
X11646372Y-9722984D01*
X11646372Y-9722984D02*
X11598753Y-9722984D01*
X11598753Y-9722984D02*
X11579706Y-9713460D01*
X11579706Y-9713460D02*
X11570182Y-9703936D01*
X11751134Y-9522984D02*
X11884467Y-9522984D01*
X11884467Y-9522984D02*
X11798753Y-9722984D01*
X11951134Y-9522984D02*
X11951134Y-9561079D01*
X12027325Y-9522984D02*
X12027325Y-9561079D01*
X12322563Y-9799174D02*
X12313039Y-9789650D01*
X12313039Y-9789650D02*
X12293991Y-9761079D01*
X12293991Y-9761079D02*
X12284468Y-9742031D01*
X12284468Y-9742031D02*
X12274944Y-9713460D01*
X12274944Y-9713460D02*
X12265420Y-9665841D01*
X12265420Y-9665841D02*
X12265420Y-9627746D01*
X12265420Y-9627746D02*
X12274944Y-9580127D01*
X12274944Y-9580127D02*
X12284468Y-9551555D01*
X12284468Y-9551555D02*
X12293991Y-9532508D01*
X12293991Y-9532508D02*
X12313039Y-9503936D01*
X12313039Y-9503936D02*
X12322563Y-9494412D01*
X12503515Y-9722984D02*
X12389229Y-9722984D01*
X12446372Y-9722984D02*
X12446372Y-9522984D01*
X12446372Y-9522984D02*
X12427325Y-9551555D01*
X12427325Y-9551555D02*
X12408277Y-9570603D01*
X12408277Y-9570603D02*
X12389229Y-9580127D01*
X12570182Y-9522984D02*
X12693991Y-9522984D01*
X12693991Y-9522984D02*
X12627325Y-9599174D01*
X12627325Y-9599174D02*
X12655896Y-9599174D01*
X12655896Y-9599174D02*
X12674944Y-9608698D01*
X12674944Y-9608698D02*
X12684468Y-9618222D01*
X12684468Y-9618222D02*
X12693991Y-9637270D01*
X12693991Y-9637270D02*
X12693991Y-9684889D01*
X12693991Y-9684889D02*
X12684468Y-9703936D01*
X12684468Y-9703936D02*
X12674944Y-9713460D01*
X12674944Y-9713460D02*
X12655896Y-9722984D01*
X12655896Y-9722984D02*
X12598753Y-9722984D01*
X12598753Y-9722984D02*
X12579706Y-9713460D01*
X12579706Y-9713460D02*
X12570182Y-9703936D01*
X12932087Y-9722984D02*
X12932087Y-9522984D01*
X13017801Y-9722984D02*
X13017801Y-9618222D01*
X13017801Y-9618222D02*
X13008277Y-9599174D01*
X13008277Y-9599174D02*
X12989230Y-9589650D01*
X12989230Y-9589650D02*
X12960658Y-9589650D01*
X12960658Y-9589650D02*
X12941610Y-9599174D01*
X12941610Y-9599174D02*
X12932087Y-9608698D01*
X13141610Y-9722984D02*
X13122563Y-9713460D01*
X13122563Y-9713460D02*
X13113039Y-9703936D01*
X13113039Y-9703936D02*
X13103515Y-9684889D01*
X13103515Y-9684889D02*
X13103515Y-9627746D01*
X13103515Y-9627746D02*
X13113039Y-9608698D01*
X13113039Y-9608698D02*
X13122563Y-9599174D01*
X13122563Y-9599174D02*
X13141610Y-9589650D01*
X13141610Y-9589650D02*
X13170182Y-9589650D01*
X13170182Y-9589650D02*
X13189230Y-9599174D01*
X13189230Y-9599174D02*
X13198753Y-9608698D01*
X13198753Y-9608698D02*
X13208277Y-9627746D01*
X13208277Y-9627746D02*
X13208277Y-9684889D01*
X13208277Y-9684889D02*
X13198753Y-9703936D01*
X13198753Y-9703936D02*
X13189230Y-9713460D01*
X13189230Y-9713460D02*
X13170182Y-9722984D01*
X13170182Y-9722984D02*
X13141610Y-9722984D01*
X13322563Y-9722984D02*
X13303515Y-9713460D01*
X13303515Y-9713460D02*
X13293991Y-9694412D01*
X13293991Y-9694412D02*
X13293991Y-9522984D01*
X13474944Y-9713460D02*
X13455896Y-9722984D01*
X13455896Y-9722984D02*
X13417801Y-9722984D01*
X13417801Y-9722984D02*
X13398753Y-9713460D01*
X13398753Y-9713460D02*
X13389230Y-9694412D01*
X13389230Y-9694412D02*
X13389230Y-9618222D01*
X13389230Y-9618222D02*
X13398753Y-9599174D01*
X13398753Y-9599174D02*
X13417801Y-9589650D01*
X13417801Y-9589650D02*
X13455896Y-9589650D01*
X13455896Y-9589650D02*
X13474944Y-9599174D01*
X13474944Y-9599174D02*
X13484468Y-9618222D01*
X13484468Y-9618222D02*
X13484468Y-9637270D01*
X13484468Y-9637270D02*
X13389230Y-9656317D01*
X13560658Y-9713460D02*
X13579706Y-9722984D01*
X13579706Y-9722984D02*
X13617801Y-9722984D01*
X13617801Y-9722984D02*
X13636849Y-9713460D01*
X13636849Y-9713460D02*
X13646372Y-9694412D01*
X13646372Y-9694412D02*
X13646372Y-9684889D01*
X13646372Y-9684889D02*
X13636849Y-9665841D01*
X13636849Y-9665841D02*
X13617801Y-9656317D01*
X13617801Y-9656317D02*
X13589230Y-9656317D01*
X13589230Y-9656317D02*
X13570182Y-9646793D01*
X13570182Y-9646793D02*
X13560658Y-9627746D01*
X13560658Y-9627746D02*
X13560658Y-9618222D01*
X13560658Y-9618222D02*
X13570182Y-9599174D01*
X13570182Y-9599174D02*
X13589230Y-9589650D01*
X13589230Y-9589650D02*
X13617801Y-9589650D01*
X13617801Y-9589650D02*
X13636849Y-9599174D01*
X13713039Y-9799174D02*
X13722563Y-9789650D01*
X13722563Y-9789650D02*
X13741611Y-9761079D01*
X13741611Y-9761079D02*
X13751134Y-9742031D01*
X13751134Y-9742031D02*
X13760658Y-9713460D01*
X13760658Y-9713460D02*
X13770182Y-9665841D01*
X13770182Y-9665841D02*
X13770182Y-9627746D01*
X13770182Y-9627746D02*
X13760658Y-9580127D01*
X13760658Y-9580127D02*
X13751134Y-9551555D01*
X13751134Y-9551555D02*
X13741611Y-9532508D01*
X13741611Y-9532508D02*
X13722563Y-9503936D01*
X13722563Y-9503936D02*
X13713039Y-9494412D01*
D12*
X8697500Y-9845500D02*
X8697500Y-9945500D01*
X8647500Y-9895500D02*
X8747500Y-9895500D01*
D11*
X9113039Y-9986984D02*
X8998753Y-9986984D01*
X9055896Y-9986984D02*
X9055896Y-9786984D01*
X9055896Y-9786984D02*
X9036848Y-9815555D01*
X9036848Y-9815555D02*
X9017801Y-9834603D01*
X9017801Y-9834603D02*
X8998753Y-9844127D01*
X9198753Y-9967936D02*
X9208277Y-9977460D01*
X9208277Y-9977460D02*
X9198753Y-9986984D01*
X9198753Y-9986984D02*
X9189229Y-9977460D01*
X9189229Y-9977460D02*
X9198753Y-9967936D01*
X9198753Y-9967936D02*
X9198753Y-9986984D01*
X9332086Y-9786984D02*
X9351134Y-9786984D01*
X9351134Y-9786984D02*
X9370182Y-9796508D01*
X9370182Y-9796508D02*
X9379705Y-9806031D01*
X9379705Y-9806031D02*
X9389229Y-9825079D01*
X9389229Y-9825079D02*
X9398753Y-9863174D01*
X9398753Y-9863174D02*
X9398753Y-9910793D01*
X9398753Y-9910793D02*
X9389229Y-9948889D01*
X9389229Y-9948889D02*
X9379705Y-9967936D01*
X9379705Y-9967936D02*
X9370182Y-9977460D01*
X9370182Y-9977460D02*
X9351134Y-9986984D01*
X9351134Y-9986984D02*
X9332086Y-9986984D01*
X9332086Y-9986984D02*
X9313039Y-9977460D01*
X9313039Y-9977460D02*
X9303515Y-9967936D01*
X9303515Y-9967936D02*
X9293991Y-9948889D01*
X9293991Y-9948889D02*
X9284467Y-9910793D01*
X9284467Y-9910793D02*
X9284467Y-9863174D01*
X9284467Y-9863174D02*
X9293991Y-9825079D01*
X9293991Y-9825079D02*
X9303515Y-9806031D01*
X9303515Y-9806031D02*
X9313039Y-9796508D01*
X9313039Y-9796508D02*
X9332086Y-9786984D01*
X9522563Y-9786984D02*
X9541610Y-9786984D01*
X9541610Y-9786984D02*
X9560658Y-9796508D01*
X9560658Y-9796508D02*
X9570182Y-9806031D01*
X9570182Y-9806031D02*
X9579705Y-9825079D01*
X9579705Y-9825079D02*
X9589229Y-9863174D01*
X9589229Y-9863174D02*
X9589229Y-9910793D01*
X9589229Y-9910793D02*
X9579705Y-9948889D01*
X9579705Y-9948889D02*
X9570182Y-9967936D01*
X9570182Y-9967936D02*
X9560658Y-9977460D01*
X9560658Y-9977460D02*
X9541610Y-9986984D01*
X9541610Y-9986984D02*
X9522563Y-9986984D01*
X9522563Y-9986984D02*
X9503515Y-9977460D01*
X9503515Y-9977460D02*
X9493991Y-9967936D01*
X9493991Y-9967936D02*
X9484467Y-9948889D01*
X9484467Y-9948889D02*
X9474944Y-9910793D01*
X9474944Y-9910793D02*
X9474944Y-9863174D01*
X9474944Y-9863174D02*
X9484467Y-9825079D01*
X9484467Y-9825079D02*
X9493991Y-9806031D01*
X9493991Y-9806031D02*
X9503515Y-9796508D01*
X9503515Y-9796508D02*
X9522563Y-9786984D01*
X9713039Y-9786984D02*
X9732086Y-9786984D01*
X9732086Y-9786984D02*
X9751134Y-9796508D01*
X9751134Y-9796508D02*
X9760658Y-9806031D01*
X9760658Y-9806031D02*
X9770182Y-9825079D01*
X9770182Y-9825079D02*
X9779705Y-9863174D01*
X9779705Y-9863174D02*
X9779705Y-9910793D01*
X9779705Y-9910793D02*
X9770182Y-9948889D01*
X9770182Y-9948889D02*
X9760658Y-9967936D01*
X9760658Y-9967936D02*
X9751134Y-9977460D01*
X9751134Y-9977460D02*
X9732086Y-9986984D01*
X9732086Y-9986984D02*
X9713039Y-9986984D01*
X9713039Y-9986984D02*
X9693991Y-9977460D01*
X9693991Y-9977460D02*
X9684467Y-9967936D01*
X9684467Y-9967936D02*
X9674944Y-9948889D01*
X9674944Y-9948889D02*
X9665420Y-9910793D01*
X9665420Y-9910793D02*
X9665420Y-9863174D01*
X9665420Y-9863174D02*
X9674944Y-9825079D01*
X9674944Y-9825079D02*
X9684467Y-9806031D01*
X9684467Y-9806031D02*
X9693991Y-9796508D01*
X9693991Y-9796508D02*
X9713039Y-9786984D01*
X9865420Y-9986984D02*
X9865420Y-9853650D01*
X9865420Y-9872698D02*
X9874944Y-9863174D01*
X9874944Y-9863174D02*
X9893991Y-9853650D01*
X9893991Y-9853650D02*
X9922563Y-9853650D01*
X9922563Y-9853650D02*
X9941610Y-9863174D01*
X9941610Y-9863174D02*
X9951134Y-9882222D01*
X9951134Y-9882222D02*
X9951134Y-9986984D01*
X9951134Y-9882222D02*
X9960658Y-9863174D01*
X9960658Y-9863174D02*
X9979705Y-9853650D01*
X9979705Y-9853650D02*
X10008277Y-9853650D01*
X10008277Y-9853650D02*
X10027325Y-9863174D01*
X10027325Y-9863174D02*
X10036848Y-9882222D01*
X10036848Y-9882222D02*
X10036848Y-9986984D01*
X10132086Y-9986984D02*
X10132086Y-9853650D01*
X10132086Y-9872698D02*
X10141610Y-9863174D01*
X10141610Y-9863174D02*
X10160658Y-9853650D01*
X10160658Y-9853650D02*
X10189229Y-9853650D01*
X10189229Y-9853650D02*
X10208277Y-9863174D01*
X10208277Y-9863174D02*
X10217801Y-9882222D01*
X10217801Y-9882222D02*
X10217801Y-9986984D01*
X10217801Y-9882222D02*
X10227325Y-9863174D01*
X10227325Y-9863174D02*
X10246372Y-9853650D01*
X10246372Y-9853650D02*
X10274944Y-9853650D01*
X10274944Y-9853650D02*
X10293991Y-9863174D01*
X10293991Y-9863174D02*
X10303515Y-9882222D01*
X10303515Y-9882222D02*
X10303515Y-9986984D01*
X10693991Y-9777460D02*
X10522563Y-10034603D01*
X10951134Y-9786984D02*
X10970182Y-9786984D01*
X10970182Y-9786984D02*
X10989229Y-9796508D01*
X10989229Y-9796508D02*
X10998753Y-9806031D01*
X10998753Y-9806031D02*
X11008277Y-9825079D01*
X11008277Y-9825079D02*
X11017801Y-9863174D01*
X11017801Y-9863174D02*
X11017801Y-9910793D01*
X11017801Y-9910793D02*
X11008277Y-9948889D01*
X11008277Y-9948889D02*
X10998753Y-9967936D01*
X10998753Y-9967936D02*
X10989229Y-9977460D01*
X10989229Y-9977460D02*
X10970182Y-9986984D01*
X10970182Y-9986984D02*
X10951134Y-9986984D01*
X10951134Y-9986984D02*
X10932087Y-9977460D01*
X10932087Y-9977460D02*
X10922563Y-9967936D01*
X10922563Y-9967936D02*
X10913039Y-9948889D01*
X10913039Y-9948889D02*
X10903515Y-9910793D01*
X10903515Y-9910793D02*
X10903515Y-9863174D01*
X10903515Y-9863174D02*
X10913039Y-9825079D01*
X10913039Y-9825079D02*
X10922563Y-9806031D01*
X10922563Y-9806031D02*
X10932087Y-9796508D01*
X10932087Y-9796508D02*
X10951134Y-9786984D01*
X11103515Y-9967936D02*
X11113039Y-9977460D01*
X11113039Y-9977460D02*
X11103515Y-9986984D01*
X11103515Y-9986984D02*
X11093991Y-9977460D01*
X11093991Y-9977460D02*
X11103515Y-9967936D01*
X11103515Y-9967936D02*
X11103515Y-9986984D01*
X11236848Y-9786984D02*
X11255896Y-9786984D01*
X11255896Y-9786984D02*
X11274944Y-9796508D01*
X11274944Y-9796508D02*
X11284467Y-9806031D01*
X11284467Y-9806031D02*
X11293991Y-9825079D01*
X11293991Y-9825079D02*
X11303515Y-9863174D01*
X11303515Y-9863174D02*
X11303515Y-9910793D01*
X11303515Y-9910793D02*
X11293991Y-9948889D01*
X11293991Y-9948889D02*
X11284467Y-9967936D01*
X11284467Y-9967936D02*
X11274944Y-9977460D01*
X11274944Y-9977460D02*
X11255896Y-9986984D01*
X11255896Y-9986984D02*
X11236848Y-9986984D01*
X11236848Y-9986984D02*
X11217801Y-9977460D01*
X11217801Y-9977460D02*
X11208277Y-9967936D01*
X11208277Y-9967936D02*
X11198753Y-9948889D01*
X11198753Y-9948889D02*
X11189229Y-9910793D01*
X11189229Y-9910793D02*
X11189229Y-9863174D01*
X11189229Y-9863174D02*
X11198753Y-9825079D01*
X11198753Y-9825079D02*
X11208277Y-9806031D01*
X11208277Y-9806031D02*
X11217801Y-9796508D01*
X11217801Y-9796508D02*
X11236848Y-9786984D01*
X11370182Y-9786984D02*
X11493991Y-9786984D01*
X11493991Y-9786984D02*
X11427325Y-9863174D01*
X11427325Y-9863174D02*
X11455896Y-9863174D01*
X11455896Y-9863174D02*
X11474944Y-9872698D01*
X11474944Y-9872698D02*
X11484467Y-9882222D01*
X11484467Y-9882222D02*
X11493991Y-9901270D01*
X11493991Y-9901270D02*
X11493991Y-9948889D01*
X11493991Y-9948889D02*
X11484467Y-9967936D01*
X11484467Y-9967936D02*
X11474944Y-9977460D01*
X11474944Y-9977460D02*
X11455896Y-9986984D01*
X11455896Y-9986984D02*
X11398753Y-9986984D01*
X11398753Y-9986984D02*
X11379706Y-9977460D01*
X11379706Y-9977460D02*
X11370182Y-9967936D01*
X11589229Y-9986984D02*
X11627325Y-9986984D01*
X11627325Y-9986984D02*
X11646372Y-9977460D01*
X11646372Y-9977460D02*
X11655896Y-9967936D01*
X11655896Y-9967936D02*
X11674944Y-9939365D01*
X11674944Y-9939365D02*
X11684467Y-9901270D01*
X11684467Y-9901270D02*
X11684467Y-9825079D01*
X11684467Y-9825079D02*
X11674944Y-9806031D01*
X11674944Y-9806031D02*
X11665420Y-9796508D01*
X11665420Y-9796508D02*
X11646372Y-9786984D01*
X11646372Y-9786984D02*
X11608277Y-9786984D01*
X11608277Y-9786984D02*
X11589229Y-9796508D01*
X11589229Y-9796508D02*
X11579706Y-9806031D01*
X11579706Y-9806031D02*
X11570182Y-9825079D01*
X11570182Y-9825079D02*
X11570182Y-9872698D01*
X11570182Y-9872698D02*
X11579706Y-9891746D01*
X11579706Y-9891746D02*
X11589229Y-9901270D01*
X11589229Y-9901270D02*
X11608277Y-9910793D01*
X11608277Y-9910793D02*
X11646372Y-9910793D01*
X11646372Y-9910793D02*
X11665420Y-9901270D01*
X11665420Y-9901270D02*
X11674944Y-9891746D01*
X11674944Y-9891746D02*
X11684467Y-9872698D01*
X11855896Y-9853650D02*
X11855896Y-9986984D01*
X11808277Y-9777460D02*
X11760658Y-9920317D01*
X11760658Y-9920317D02*
X11884467Y-9920317D01*
X11951134Y-9786984D02*
X11951134Y-9825079D01*
X12027325Y-9786984D02*
X12027325Y-9825079D01*
X12322563Y-10063174D02*
X12313039Y-10053650D01*
X12313039Y-10053650D02*
X12293991Y-10025079D01*
X12293991Y-10025079D02*
X12284468Y-10006031D01*
X12284468Y-10006031D02*
X12274944Y-9977460D01*
X12274944Y-9977460D02*
X12265420Y-9929841D01*
X12265420Y-9929841D02*
X12265420Y-9891746D01*
X12265420Y-9891746D02*
X12274944Y-9844127D01*
X12274944Y-9844127D02*
X12284468Y-9815555D01*
X12284468Y-9815555D02*
X12293991Y-9796508D01*
X12293991Y-9796508D02*
X12313039Y-9767936D01*
X12313039Y-9767936D02*
X12322563Y-9758412D01*
X12389229Y-9806031D02*
X12398753Y-9796508D01*
X12398753Y-9796508D02*
X12417801Y-9786984D01*
X12417801Y-9786984D02*
X12465420Y-9786984D01*
X12465420Y-9786984D02*
X12484468Y-9796508D01*
X12484468Y-9796508D02*
X12493991Y-9806031D01*
X12493991Y-9806031D02*
X12503515Y-9825079D01*
X12503515Y-9825079D02*
X12503515Y-9844127D01*
X12503515Y-9844127D02*
X12493991Y-9872698D01*
X12493991Y-9872698D02*
X12379706Y-9986984D01*
X12379706Y-9986984D02*
X12503515Y-9986984D01*
X12684468Y-9786984D02*
X12589229Y-9786984D01*
X12589229Y-9786984D02*
X12579706Y-9882222D01*
X12579706Y-9882222D02*
X12589229Y-9872698D01*
X12589229Y-9872698D02*
X12608277Y-9863174D01*
X12608277Y-9863174D02*
X12655896Y-9863174D01*
X12655896Y-9863174D02*
X12674944Y-9872698D01*
X12674944Y-9872698D02*
X12684468Y-9882222D01*
X12684468Y-9882222D02*
X12693991Y-9901270D01*
X12693991Y-9901270D02*
X12693991Y-9948889D01*
X12693991Y-9948889D02*
X12684468Y-9967936D01*
X12684468Y-9967936D02*
X12674944Y-9977460D01*
X12674944Y-9977460D02*
X12655896Y-9986984D01*
X12655896Y-9986984D02*
X12608277Y-9986984D01*
X12608277Y-9986984D02*
X12589229Y-9977460D01*
X12589229Y-9977460D02*
X12579706Y-9967936D01*
X12932087Y-9986984D02*
X12932087Y-9786984D01*
X13017801Y-9986984D02*
X13017801Y-9882222D01*
X13017801Y-9882222D02*
X13008277Y-9863174D01*
X13008277Y-9863174D02*
X12989230Y-9853650D01*
X12989230Y-9853650D02*
X12960658Y-9853650D01*
X12960658Y-9853650D02*
X12941610Y-9863174D01*
X12941610Y-9863174D02*
X12932087Y-9872698D01*
X13141610Y-9986984D02*
X13122563Y-9977460D01*
X13122563Y-9977460D02*
X13113039Y-9967936D01*
X13113039Y-9967936D02*
X13103515Y-9948889D01*
X13103515Y-9948889D02*
X13103515Y-9891746D01*
X13103515Y-9891746D02*
X13113039Y-9872698D01*
X13113039Y-9872698D02*
X13122563Y-9863174D01*
X13122563Y-9863174D02*
X13141610Y-9853650D01*
X13141610Y-9853650D02*
X13170182Y-9853650D01*
X13170182Y-9853650D02*
X13189230Y-9863174D01*
X13189230Y-9863174D02*
X13198753Y-9872698D01*
X13198753Y-9872698D02*
X13208277Y-9891746D01*
X13208277Y-9891746D02*
X13208277Y-9948889D01*
X13208277Y-9948889D02*
X13198753Y-9967936D01*
X13198753Y-9967936D02*
X13189230Y-9977460D01*
X13189230Y-9977460D02*
X13170182Y-9986984D01*
X13170182Y-9986984D02*
X13141610Y-9986984D01*
X13322563Y-9986984D02*
X13303515Y-9977460D01*
X13303515Y-9977460D02*
X13293991Y-9958412D01*
X13293991Y-9958412D02*
X13293991Y-9786984D01*
X13474944Y-9977460D02*
X13455896Y-9986984D01*
X13455896Y-9986984D02*
X13417801Y-9986984D01*
X13417801Y-9986984D02*
X13398753Y-9977460D01*
X13398753Y-9977460D02*
X13389230Y-9958412D01*
X13389230Y-9958412D02*
X13389230Y-9882222D01*
X13389230Y-9882222D02*
X13398753Y-9863174D01*
X13398753Y-9863174D02*
X13417801Y-9853650D01*
X13417801Y-9853650D02*
X13455896Y-9853650D01*
X13455896Y-9853650D02*
X13474944Y-9863174D01*
X13474944Y-9863174D02*
X13484468Y-9882222D01*
X13484468Y-9882222D02*
X13484468Y-9901270D01*
X13484468Y-9901270D02*
X13389230Y-9920317D01*
X13560658Y-9977460D02*
X13579706Y-9986984D01*
X13579706Y-9986984D02*
X13617801Y-9986984D01*
X13617801Y-9986984D02*
X13636849Y-9977460D01*
X13636849Y-9977460D02*
X13646372Y-9958412D01*
X13646372Y-9958412D02*
X13646372Y-9948889D01*
X13646372Y-9948889D02*
X13636849Y-9929841D01*
X13636849Y-9929841D02*
X13617801Y-9920317D01*
X13617801Y-9920317D02*
X13589230Y-9920317D01*
X13589230Y-9920317D02*
X13570182Y-9910793D01*
X13570182Y-9910793D02*
X13560658Y-9891746D01*
X13560658Y-9891746D02*
X13560658Y-9882222D01*
X13560658Y-9882222D02*
X13570182Y-9863174D01*
X13570182Y-9863174D02*
X13589230Y-9853650D01*
X13589230Y-9853650D02*
X13617801Y-9853650D01*
X13617801Y-9853650D02*
X13636849Y-9863174D01*
X13713039Y-10063174D02*
X13722563Y-10053650D01*
X13722563Y-10053650D02*
X13741611Y-10025079D01*
X13741611Y-10025079D02*
X13751134Y-10006031D01*
X13751134Y-10006031D02*
X13760658Y-9977460D01*
X13760658Y-9977460D02*
X13770182Y-9929841D01*
X13770182Y-9929841D02*
X13770182Y-9891746D01*
X13770182Y-9891746D02*
X13760658Y-9844127D01*
X13760658Y-9844127D02*
X13751134Y-9815555D01*
X13751134Y-9815555D02*
X13741611Y-9796508D01*
X13741611Y-9796508D02*
X13722563Y-9767936D01*
X13722563Y-9767936D02*
X13713039Y-9758412D01*
M02*
