%TF.GenerationSoftware,KiCad,Pcbnew,8.0.5*%
%TF.CreationDate,2024-12-04T08:56:06+06:00*%
%TF.ProjectId,MCU Datalogger,4d435520-4461-4746-916c-6f676765722e,rev?*%
%TF.SameCoordinates,Original*%
%TF.FileFunction,Copper,L1,Top*%
%TF.FilePolarity,Positive*%
%FSLAX46Y46*%
G04 Gerber Fmt 4.6, Leading zero omitted, Abs format (unit mm)*
G04 Created by KiCad (PCBNEW 8.0.5) date 2024-12-04 08:56:06*
%MOMM*%
%LPD*%
G01*
G04 APERTURE LIST*
G04 Aperture macros list*
%AMRoundRect*
0 Rectangle with rounded corners*
0 $1 Rounding radius*
0 $2 $3 $4 $5 $6 $7 $8 $9 X,Y pos of 4 corners*
0 Add a 4 corners polygon primitive as box body*
4,1,4,$2,$3,$4,$5,$6,$7,$8,$9,$2,$3,0*
0 Add four circle primitives for the rounded corners*
1,1,$1+$1,$2,$3*
1,1,$1+$1,$4,$5*
1,1,$1+$1,$6,$7*
1,1,$1+$1,$8,$9*
0 Add four rect primitives between the rounded corners*
20,1,$1+$1,$2,$3,$4,$5,0*
20,1,$1+$1,$4,$5,$6,$7,0*
20,1,$1+$1,$6,$7,$8,$9,0*
20,1,$1+$1,$8,$9,$2,$3,0*%
G04 Aperture macros list end*
%TA.AperFunction,SMDPad,CuDef*%
%ADD10RoundRect,0.150000X-0.650000X-0.150000X0.650000X-0.150000X0.650000X0.150000X-0.650000X0.150000X0*%
%TD*%
%TA.AperFunction,SMDPad,CuDef*%
%ADD11RoundRect,0.250000X-0.450000X0.262500X-0.450000X-0.262500X0.450000X-0.262500X0.450000X0.262500X0*%
%TD*%
%TA.AperFunction,SMDPad,CuDef*%
%ADD12RoundRect,0.068750X-0.666250X-0.206250X0.666250X-0.206250X0.666250X0.206250X-0.666250X0.206250X0*%
%TD*%
%TA.AperFunction,SMDPad,CuDef*%
%ADD13RoundRect,0.068750X-0.206250X-0.666250X0.206250X-0.666250X0.206250X0.666250X-0.206250X0.666250X0*%
%TD*%
%TA.AperFunction,ComponentPad*%
%ADD14R,1.700000X1.700000*%
%TD*%
%TA.AperFunction,ComponentPad*%
%ADD15O,1.700000X1.700000*%
%TD*%
%TA.AperFunction,SMDPad,CuDef*%
%ADD16RoundRect,0.073750X-0.911250X-0.221250X0.911250X-0.221250X0.911250X0.221250X-0.911250X0.221250X0*%
%TD*%
%TA.AperFunction,SMDPad,CuDef*%
%ADD17RoundRect,0.250000X-0.475000X0.250000X-0.475000X-0.250000X0.475000X-0.250000X0.475000X0.250000X0*%
%TD*%
%TA.AperFunction,SMDPad,CuDef*%
%ADD18R,3.500000X2.400000*%
%TD*%
%TA.AperFunction,SMDPad,CuDef*%
%ADD19RoundRect,0.250000X0.250000X0.475000X-0.250000X0.475000X-0.250000X-0.475000X0.250000X-0.475000X0*%
%TD*%
%TA.AperFunction,SMDPad,CuDef*%
%ADD20RoundRect,0.250000X-0.262500X-0.450000X0.262500X-0.450000X0.262500X0.450000X-0.262500X0.450000X0*%
%TD*%
%TA.AperFunction,SMDPad,CuDef*%
%ADD21RoundRect,0.243750X0.243750X0.456250X-0.243750X0.456250X-0.243750X-0.456250X0.243750X-0.456250X0*%
%TD*%
%TA.AperFunction,SMDPad,CuDef*%
%ADD22RoundRect,0.250000X-0.250000X-0.475000X0.250000X-0.475000X0.250000X0.475000X-0.250000X0.475000X0*%
%TD*%
%TA.AperFunction,SMDPad,CuDef*%
%ADD23R,2.400000X3.500000*%
%TD*%
%TA.AperFunction,ViaPad*%
%ADD24C,0.900000*%
%TD*%
%TA.AperFunction,ViaPad*%
%ADD25C,0.600000*%
%TD*%
%TA.AperFunction,Conductor*%
%ADD26C,0.200000*%
%TD*%
%TA.AperFunction,Conductor*%
%ADD27C,0.350000*%
%TD*%
G04 APERTURE END LIST*
D10*
%TO.P,U3,8,VCC*%
%TO.N,/VCC*%
X104750000Y-62595000D03*
%TO.P,U3,7,WP*%
%TO.N,GND*%
X104750000Y-63865000D03*
%TO.P,U3,6,SCL*%
%TO.N,/SCK*%
X104750000Y-65135000D03*
%TO.P,U3,5,SDA*%
%TO.N,/SDA*%
X104750000Y-66405000D03*
%TO.P,U3,4,GND*%
%TO.N,GND*%
X97550000Y-66405000D03*
%TO.P,U3,3,A2*%
%TO.N,/VCC*%
X97550000Y-65135000D03*
%TO.P,U3,2,A1*%
X97550000Y-63865000D03*
%TO.P,U3,1,A0*%
X97550000Y-62595000D03*
%TD*%
D11*
%TO.P,R6,1*%
%TO.N,/VCC*%
X118038000Y-61575000D03*
%TO.P,R6,2*%
%TO.N,/SCK*%
X118038000Y-63400000D03*
%TD*%
D12*
%TO.P,U2,1,PD3*%
%TO.N,/D3*%
X111830000Y-67700000D03*
%TO.P,U2,2,PD4*%
%TO.N,/D4*%
X111830000Y-68500000D03*
%TO.P,U2,3,GND*%
%TO.N,GND*%
X111830000Y-69300000D03*
%TO.P,U2,4,VCC*%
%TO.N,/VCC*%
X111830000Y-70100000D03*
%TO.P,U2,5,GND*%
%TO.N,GND*%
X111830000Y-70900000D03*
%TO.P,U2,6,VCC*%
%TO.N,/VCC*%
X111830000Y-71700000D03*
%TO.P,U2,7,PB6*%
%TO.N,Net-(U2-PB6)*%
X111830000Y-72500000D03*
%TO.P,U2,8,PB7*%
%TO.N,Net-(U2-PB7)*%
X111830000Y-73300000D03*
D13*
%TO.P,U2,9,PD5*%
%TO.N,/D5*%
X113200000Y-74670000D03*
%TO.P,U2,10,PD6*%
%TO.N,/D6*%
X114000000Y-74670000D03*
%TO.P,U2,11,PD7*%
%TO.N,/D7*%
X114800000Y-74670000D03*
%TO.P,U2,12,PB0*%
%TO.N,/D8*%
X115600000Y-74670000D03*
%TO.P,U2,13,PB1*%
%TO.N,unconnected-(U2-PB1-Pad13)*%
X116400000Y-74670000D03*
%TO.P,U2,14,PB2*%
%TO.N,unconnected-(U2-PB2-Pad14)*%
X117200000Y-74670000D03*
%TO.P,U2,15,PB3*%
%TO.N,/MOSI*%
X118000000Y-74670000D03*
%TO.P,U2,16,PB4*%
%TO.N,/MISO*%
X118800000Y-74670000D03*
D12*
%TO.P,U2,17,PB5*%
%TO.N,/SCK*%
X120170000Y-73300000D03*
%TO.P,U2,18,AVCC*%
%TO.N,/VCC*%
X120170000Y-72500000D03*
%TO.P,U2,19,ADC6*%
%TO.N,unconnected-(U2-ADC6-Pad19)*%
X120170000Y-71700000D03*
%TO.P,U2,20,AREF*%
%TO.N,Net-(U2-AREF)*%
X120170000Y-70900000D03*
%TO.P,U2,21,GND*%
%TO.N,GND*%
X120170000Y-70100000D03*
%TO.P,U2,22,ADC7*%
%TO.N,unconnected-(U2-ADC7-Pad22)*%
X120170000Y-69300000D03*
%TO.P,U2,23,PC0*%
%TO.N,unconnected-(U2-PC0-Pad23)*%
X120170000Y-68500000D03*
%TO.P,U2,24,PC1*%
%TO.N,unconnected-(U2-PC1-Pad24)*%
X120170000Y-67700000D03*
D13*
%TO.P,U2,25,PC2*%
%TO.N,unconnected-(U2-PC2-Pad25)*%
X118800000Y-66330000D03*
%TO.P,U2,26,PC3*%
%TO.N,unconnected-(U2-PC3-Pad26)*%
X118000000Y-66330000D03*
%TO.P,U2,27,PC4*%
%TO.N,/SDA*%
X117200000Y-66330000D03*
%TO.P,U2,28,PC5*%
%TO.N,/SCK*%
X116400000Y-66330000D03*
%TO.P,U2,29,PC6/~{RESET}*%
%TO.N,/RESET*%
X115600000Y-66330000D03*
%TO.P,U2,30,PD0*%
%TO.N,/RX*%
X114800000Y-66330000D03*
%TO.P,U2,31,PD1*%
%TO.N,/TX*%
X114000000Y-66330000D03*
%TO.P,U2,32,PD2*%
%TO.N,/D2*%
X113200000Y-66330000D03*
%TD*%
D11*
%TO.P,R2,1*%
%TO.N,/VCC*%
X110856000Y-61575000D03*
%TO.P,R2,2*%
%TO.N,Net-(U1-SQW{slash}~INT)*%
X110856000Y-63400000D03*
%TD*%
D14*
%TO.P,BT1,1,+*%
%TO.N,/VCC*%
X92500000Y-65460000D03*
D15*
%TO.P,BT1,2,-*%
%TO.N,GND*%
X92500000Y-68000000D03*
%TD*%
D11*
%TO.P,R1,1*%
%TO.N,/VCC*%
X113250000Y-61575000D03*
%TO.P,R1,2*%
%TO.N,Net-(U1-~{INTA})*%
X113250000Y-63400000D03*
%TD*%
D16*
%TO.P,U1,8,VCC*%
%TO.N,/VCC*%
X103975000Y-75345000D03*
%TO.P,U1,7,SQW/~INT*%
%TO.N,Net-(U1-SQW{slash}~INT)*%
X103975000Y-76615000D03*
%TO.P,U1,6,SCL*%
%TO.N,/SCK*%
X103975000Y-77885000D03*
%TO.P,U1,5,SDA*%
%TO.N,/SDA*%
X103975000Y-79155000D03*
%TO.P,U1,4,GND*%
%TO.N,GND*%
X99025000Y-79155000D03*
%TO.P,U1,3,~{INTA}*%
%TO.N,Net-(U1-~{INTA})*%
X99025000Y-77885000D03*
%TO.P,U1,2,X2*%
%TO.N,Net-(U1-X2)*%
X99025000Y-76615000D03*
%TO.P,U1,1,X1*%
%TO.N,Net-(U1-X1)*%
X99025000Y-75345000D03*
%TD*%
D11*
%TO.P,R5,1*%
%TO.N,/VCC*%
X115644000Y-61575000D03*
%TO.P,R5,2*%
%TO.N,/RESET*%
X115644000Y-63400000D03*
%TD*%
D17*
%TO.P,C1,1*%
%TO.N,/VCC*%
X108432000Y-61517500D03*
%TO.P,C1,2*%
%TO.N,GND*%
X108432000Y-63417500D03*
%TD*%
D14*
%TO.P,J3,1,Pin_1*%
%TO.N,/D2*%
X95180000Y-82400000D03*
D15*
%TO.P,J3,2,Pin_2*%
%TO.N,/D3*%
X97720000Y-82400000D03*
%TO.P,J3,3,Pin_3*%
%TO.N,/D4*%
X100260000Y-82400000D03*
%TO.P,J3,4,Pin_4*%
%TO.N,/D5*%
X102800000Y-82400000D03*
%TO.P,J3,5,Pin_5*%
%TO.N,/D6*%
X105340000Y-82400000D03*
%TO.P,J3,6,Pin_6*%
%TO.N,/D7*%
X107880000Y-82400000D03*
%TO.P,J3,7,Pin_7*%
%TO.N,/D8*%
X110420000Y-82400000D03*
%TO.P,J3,8,Pin_8*%
%TO.N,GND*%
X112960000Y-82400000D03*
%TO.P,J3,9,Pin_9*%
%TO.N,/VCC*%
X115500000Y-82400000D03*
%TD*%
D14*
%TO.P,J1,1,Pin_1*%
%TO.N,GND*%
X131940000Y-72540000D03*
D15*
%TO.P,J1,2,Pin_2*%
%TO.N,/VCC*%
X131940000Y-75080000D03*
%TO.P,J1,3,Pin_3*%
%TO.N,/SDA*%
X131940000Y-77620000D03*
%TO.P,J1,4,Pin_4*%
%TO.N,/SCK*%
X131940000Y-80160000D03*
%TD*%
D18*
%TO.P,Y2,1,1*%
%TO.N,Net-(U2-PB6)*%
X115925600Y-78384400D03*
%TO.P,Y2,2,2*%
%TO.N,Net-(U2-PB7)*%
X110725600Y-78384400D03*
%TD*%
D11*
%TO.P,R7,1*%
%TO.N,/VCC*%
X120432000Y-61575000D03*
%TO.P,R7,2*%
%TO.N,/SDA*%
X120432000Y-63400000D03*
%TD*%
D19*
%TO.P,C5,1*%
%TO.N,Net-(U2-PB7)*%
X109600000Y-74100000D03*
%TO.P,C5,2*%
%TO.N,GND*%
X107700000Y-74100000D03*
%TD*%
D20*
%TO.P,R3,1*%
%TO.N,GND*%
X124437500Y-69350000D03*
%TO.P,R3,2*%
%TO.N,Net-(D1-K)*%
X126262500Y-69350000D03*
%TD*%
D14*
%TO.P,J2,1,Pin_1*%
%TO.N,GND*%
X120410000Y-82400000D03*
D15*
%TO.P,J2,2,Pin_2*%
%TO.N,/VCC*%
X122950000Y-82400000D03*
%TO.P,J2,3,Pin_3*%
%TO.N,/RX*%
X125490000Y-82400000D03*
%TO.P,J2,4,Pin_4*%
%TO.N,/TX*%
X128030000Y-82400000D03*
%TD*%
D21*
%TO.P,D2,1,K*%
%TO.N,Net-(D2-K)*%
X124127500Y-72796400D03*
%TO.P,D2,2,A*%
%TO.N,/VCC*%
X122252500Y-72796400D03*
%TD*%
%TO.P,D1,1,K*%
%TO.N,Net-(D1-K)*%
X126250000Y-66600000D03*
%TO.P,D1,2,A*%
%TO.N,/SCK*%
X124375000Y-66600000D03*
%TD*%
D22*
%TO.P,C3,1*%
%TO.N,/VCC*%
X122225700Y-74896400D03*
%TO.P,C3,2*%
%TO.N,GND*%
X124125700Y-74896400D03*
%TD*%
D23*
%TO.P,Y1,1,1*%
%TO.N,Net-(U1-X1)*%
X94000000Y-72900000D03*
%TO.P,Y1,2,2*%
%TO.N,Net-(U1-X2)*%
X94000000Y-78100000D03*
%TD*%
D19*
%TO.P,C4,1*%
%TO.N,Net-(U2-PB6)*%
X109600000Y-72000000D03*
%TO.P,C4,2*%
%TO.N,GND*%
X107700000Y-72000000D03*
%TD*%
D11*
%TO.P,R4,1*%
%TO.N,Net-(D2-K)*%
X126949200Y-72987500D03*
%TO.P,R4,2*%
%TO.N,GND*%
X126949200Y-74812500D03*
%TD*%
D14*
%TO.P,J4,1,Pin_1*%
%TO.N,/MOSI*%
X129400000Y-63820000D03*
D15*
%TO.P,J4,2,Pin_2*%
%TO.N,GND*%
X131940000Y-63820000D03*
%TO.P,J4,3,Pin_3*%
%TO.N,/SCK*%
X129400000Y-66360000D03*
%TO.P,J4,4,Pin_4*%
%TO.N,/MISO*%
X131940000Y-66360000D03*
%TO.P,J4,5,Pin_5*%
%TO.N,/RESET*%
X129400000Y-68900000D03*
%TO.P,J4,6,Pin_6*%
%TO.N,GND*%
X131940000Y-68900000D03*
%TD*%
D10*
%TO.P,U4,1,A0*%
%TO.N,/VCC*%
X97550000Y-69095000D03*
%TO.P,U4,2,A1*%
%TO.N,GND*%
X97550000Y-70365000D03*
%TO.P,U4,3,A2*%
%TO.N,/VCC*%
X97550000Y-71635000D03*
%TO.P,U4,4,GND*%
%TO.N,GND*%
X97550000Y-72905000D03*
%TO.P,U4,5,SDA*%
%TO.N,/SDA*%
X104750000Y-72905000D03*
%TO.P,U4,6,SCL*%
%TO.N,/SCK*%
X104750000Y-71635000D03*
%TO.P,U4,7,WP*%
%TO.N,GND*%
X104750000Y-70365000D03*
%TO.P,U4,8,VCC*%
%TO.N,/VCC*%
X104750000Y-69095000D03*
%TD*%
D17*
%TO.P,C2,1*%
%TO.N,GND*%
X122475700Y-69046400D03*
%TO.P,C2,2*%
%TO.N,Net-(U2-AREF)*%
X122475700Y-70946400D03*
%TD*%
D24*
%TO.N,GND*%
X124409200Y-70866000D03*
X109829600Y-69392800D03*
D25*
%TO.N,/SDA*%
X117144800Y-67614800D03*
X109067600Y-67005200D03*
X107137200Y-67005200D03*
X105765600Y-67411600D03*
%TO.N,Net-(U1-SQW{slash}~INT)*%
X109778800Y-65278000D03*
X105410000Y-76606400D03*
D24*
%TO.N,GND*%
X108813600Y-69900800D03*
X97129600Y-79146400D03*
D25*
%TO.N,/VCC*%
X102971600Y-72948800D03*
D24*
%TO.N,GND*%
X98856800Y-72898000D03*
X96062800Y-70104000D03*
D25*
%TO.N,/VCC*%
X98856800Y-69240400D03*
X98856800Y-71628000D03*
X103378000Y-69088000D03*
D24*
%TO.N,GND*%
X103327200Y-70510400D03*
D25*
%TO.N,/VCC*%
X110540800Y-70104000D03*
X113182400Y-71678800D03*
X118668800Y-71577200D03*
D24*
%TO.N,GND*%
X118872000Y-70104000D03*
D25*
%TO.N,/VCC*%
X121107200Y-74625200D03*
D24*
%TO.N,GND*%
X125272800Y-74879200D03*
X128320800Y-73964800D03*
D25*
%TO.N,/VCC*%
X120446800Y-60858400D03*
X118008400Y-60807600D03*
X115671600Y-60807600D03*
X113284000Y-60807600D03*
X110896400Y-60807600D03*
X107035600Y-61518800D03*
D24*
%TO.N,GND*%
X107188000Y-63449200D03*
X103225600Y-63703200D03*
X96062800Y-66395600D03*
D25*
%TO.N,Net-(U2-PB6)*%
X116687600Y-75996800D03*
X113436400Y-72491600D03*
%TO.N,Net-(U2-PB7)*%
X110794800Y-76911200D03*
X111861600Y-74422000D03*
%TO.N,/VCC*%
X103225600Y-62585600D03*
X96062800Y-62585600D03*
X96062800Y-63855600D03*
X96062800Y-65125600D03*
%TO.N,/SCK*%
X122224800Y-76758800D03*
X119938800Y-74726800D03*
%TO.N,/MOSI*%
X117246400Y-71323200D03*
X122021600Y-66598800D03*
%TO.N,/RESET*%
X118872000Y-68884800D03*
X127406400Y-68072000D03*
%TO.N,Net-(U1-~{INTA})*%
X113284000Y-64465200D03*
X102616000Y-64617600D03*
%TO.N,/SCK*%
X116400000Y-64820800D03*
X114858800Y-64820800D03*
%TO.N,/RX*%
X113385600Y-68427600D03*
%TO.N,/TX*%
X113995200Y-67614800D03*
%TO.N,/SCK*%
X118364000Y-68224400D03*
X123190000Y-66700400D03*
X118262400Y-72644000D03*
%TO.N,/D4*%
X107442000Y-70459600D03*
%TD*%
D26*
%TO.N,/VCC*%
X122225700Y-72823200D02*
X122252500Y-72796400D01*
X122225700Y-74896400D02*
X122225700Y-72823200D01*
D27*
%TO.N,GND*%
X107700000Y-74100000D02*
X107700000Y-72000000D01*
X121422100Y-70100000D02*
X122475700Y-69046400D01*
X120170000Y-70100000D02*
X121422100Y-70100000D01*
X124133900Y-69046400D02*
X124437500Y-69350000D01*
X122475700Y-69046400D02*
X124133900Y-69046400D01*
X124437500Y-70837700D02*
X124409200Y-70866000D01*
X124437500Y-69350000D02*
X124437500Y-70837700D01*
X109922400Y-69300000D02*
X109829600Y-69392800D01*
X111830000Y-69300000D02*
X109922400Y-69300000D01*
X109778800Y-70408800D02*
X109778800Y-70256400D01*
X109778800Y-70256400D02*
X109778800Y-69443600D01*
X109982000Y-70612000D02*
X109778800Y-70408800D01*
X110270000Y-70900000D02*
X109982000Y-70612000D01*
X109778800Y-69443600D02*
X109829600Y-69392800D01*
X111830000Y-70900000D02*
X110270000Y-70900000D01*
D26*
%TO.N,/SDA*%
X117200000Y-67559600D02*
X117200000Y-66330000D01*
X117144800Y-67614800D02*
X117200000Y-67559600D01*
%TO.N,/SCK*%
X116400000Y-67835200D02*
X116400000Y-66330000D01*
X118364000Y-68224400D02*
X116789200Y-68224400D01*
X116789200Y-68224400D02*
X116400000Y-67835200D01*
%TO.N,/RESET*%
X115600000Y-67644800D02*
X115600000Y-66330000D01*
X116840000Y-68884800D02*
X115600000Y-67644800D01*
X118872000Y-68884800D02*
X116840000Y-68884800D01*
%TO.N,/SDA*%
X107137200Y-67005200D02*
X109067600Y-67005200D01*
%TO.N,/D2*%
X95180000Y-82162800D02*
X95180000Y-82400000D01*
X105308400Y-80111600D02*
X97231200Y-80111600D01*
X106426000Y-66852800D02*
X106426000Y-78994000D01*
X97231200Y-80111600D02*
X95180000Y-82162800D01*
X106948800Y-66330000D02*
X106426000Y-66852800D01*
X113200000Y-66330000D02*
X106948800Y-66330000D01*
X106426000Y-78994000D02*
X105308400Y-80111600D01*
%TO.N,Net-(U1-SQW{slash}~INT)*%
X109778800Y-64477200D02*
X110856000Y-63400000D01*
X109778800Y-65278000D02*
X109778800Y-64477200D01*
%TO.N,/SDA*%
X105968800Y-67614800D02*
X105765600Y-67411600D01*
X105968800Y-67623800D02*
X105968800Y-67614800D01*
%TO.N,/SCK*%
X114554000Y-65125600D02*
X114858800Y-64820800D01*
X112826800Y-65125600D02*
X114554000Y-65125600D01*
X112064800Y-65887600D02*
X112826800Y-65125600D01*
X106172000Y-65887600D02*
X112064800Y-65887600D01*
X105419400Y-65135000D02*
X106172000Y-65887600D01*
X104750000Y-65135000D02*
X105419400Y-65135000D01*
%TO.N,Net-(U1-SQW{slash}~INT)*%
X105401400Y-76615000D02*
X105410000Y-76606400D01*
X103975000Y-76615000D02*
X105401400Y-76615000D01*
D27*
%TO.N,GND*%
X108813600Y-70764400D02*
X108813600Y-69900800D01*
X108762800Y-70815200D02*
X108813600Y-70764400D01*
X107700000Y-72000000D02*
X107700000Y-71878000D01*
X107700000Y-71878000D02*
X108762800Y-70815200D01*
D26*
%TO.N,/SDA*%
X106019600Y-78536800D02*
X105401400Y-79155000D01*
X104750000Y-72905000D02*
X106019600Y-74174600D01*
X106019600Y-74174600D02*
X106019600Y-78536800D01*
X105401400Y-79155000D02*
X103975000Y-79155000D01*
D27*
%TO.N,GND*%
X97138200Y-79155000D02*
X97129600Y-79146400D01*
X99025000Y-79155000D02*
X97138200Y-79155000D01*
D26*
%TO.N,/VCC*%
X102971600Y-73863200D02*
X102971600Y-72948800D01*
X103327200Y-74218800D02*
X102971600Y-73863200D01*
X103975000Y-74866600D02*
X103327200Y-74218800D01*
X103975000Y-75345000D02*
X103975000Y-74866600D01*
D27*
%TO.N,GND*%
X98849800Y-72905000D02*
X98856800Y-72898000D01*
X97550000Y-72905000D02*
X98849800Y-72905000D01*
X96323800Y-70365000D02*
X96062800Y-70104000D01*
X97550000Y-70365000D02*
X96323800Y-70365000D01*
D26*
%TO.N,/VCC*%
X98711400Y-69095000D02*
X98856800Y-69240400D01*
X97550000Y-69095000D02*
X98711400Y-69095000D01*
X98849800Y-71635000D02*
X98856800Y-71628000D01*
X97550000Y-71635000D02*
X98849800Y-71635000D01*
X103385000Y-69095000D02*
X103378000Y-69088000D01*
X104750000Y-69095000D02*
X103385000Y-69095000D01*
D27*
%TO.N,GND*%
X103472600Y-70365000D02*
X103327200Y-70510400D01*
X104750000Y-70365000D02*
X103472600Y-70365000D01*
D26*
%TO.N,/SCK*%
X102209600Y-77622400D02*
X102209600Y-72440800D01*
X102209600Y-72440800D02*
X103015400Y-71635000D01*
X103015400Y-71635000D02*
X104750000Y-71635000D01*
X102463600Y-77876400D02*
X102209600Y-77622400D01*
X103966400Y-77876400D02*
X102463600Y-77876400D01*
X103975000Y-77885000D02*
X103966400Y-77876400D01*
X102260400Y-66700400D02*
X103825800Y-65135000D01*
X102260400Y-70866000D02*
X102260400Y-66700400D01*
X103029400Y-71635000D02*
X102260400Y-70866000D01*
X103825800Y-65135000D02*
X104750000Y-65135000D01*
X104750000Y-71635000D02*
X103029400Y-71635000D01*
%TO.N,/VCC*%
X110544800Y-70100000D02*
X110540800Y-70104000D01*
X111830000Y-70100000D02*
X110544800Y-70100000D01*
X113161200Y-71700000D02*
X113182400Y-71678800D01*
X111830000Y-71700000D02*
X113161200Y-71700000D01*
X119236000Y-72500000D02*
X118872000Y-72136000D01*
X118668800Y-71932800D02*
X118668800Y-71577200D01*
X118872000Y-72136000D02*
X118668800Y-71932800D01*
X120170000Y-72500000D02*
X119236000Y-72500000D01*
D27*
%TO.N,GND*%
X118876000Y-70100000D02*
X118872000Y-70104000D01*
X120170000Y-70100000D02*
X118876000Y-70100000D01*
D26*
%TO.N,/MOSI*%
X117246400Y-71323200D02*
X117246400Y-72694800D01*
X118000000Y-73448400D02*
X118000000Y-74670000D01*
X117246400Y-72694800D02*
X118000000Y-73448400D01*
%TO.N,/VCC*%
X121259600Y-74777600D02*
X121107200Y-74625200D01*
X121378400Y-74896400D02*
X121259600Y-74777600D01*
X122225700Y-74896400D02*
X121378400Y-74896400D01*
D27*
%TO.N,GND*%
X125255600Y-74896400D02*
X125272800Y-74879200D01*
X124125700Y-74896400D02*
X125255600Y-74896400D01*
X128320800Y-74371200D02*
X128320800Y-73964800D01*
X128117600Y-74574400D02*
X128320800Y-74371200D01*
X127879500Y-74812500D02*
X128117600Y-74574400D01*
X126770000Y-74812500D02*
X127879500Y-74812500D01*
D26*
%TO.N,/VCC*%
X120432000Y-60873200D02*
X120446800Y-60858400D01*
X120432000Y-61575000D02*
X120432000Y-60873200D01*
X118038000Y-60837200D02*
X118008400Y-60807600D01*
X118038000Y-61575000D02*
X118038000Y-60837200D01*
X115644000Y-60835200D02*
X115671600Y-60807600D01*
X115644000Y-61575000D02*
X115644000Y-60835200D01*
X113250000Y-60841600D02*
X113284000Y-60807600D01*
X113250000Y-61575000D02*
X113250000Y-60841600D01*
X110856000Y-60848000D02*
X110896400Y-60807600D01*
X110856000Y-61575000D02*
X110856000Y-60848000D01*
X107036900Y-61517500D02*
X107035600Y-61518800D01*
X108432000Y-61517500D02*
X107036900Y-61517500D01*
D27*
%TO.N,GND*%
X107219700Y-63417500D02*
X107188000Y-63449200D01*
X108432000Y-63417500D02*
X107219700Y-63417500D01*
X103387400Y-63865000D02*
X103225600Y-63703200D01*
X104750000Y-63865000D02*
X103387400Y-63865000D01*
X96072200Y-66405000D02*
X96062800Y-66395600D01*
X97550000Y-66405000D02*
X96072200Y-66405000D01*
D26*
%TO.N,Net-(U2-PB6)*%
X116687600Y-77622400D02*
X116687600Y-75996800D01*
X115925600Y-78384400D02*
X116687600Y-77622400D01*
X113428000Y-72500000D02*
X113436400Y-72491600D01*
X111830000Y-72500000D02*
X113428000Y-72500000D01*
X110752400Y-72500000D02*
X111830000Y-72500000D01*
X110252400Y-72000000D02*
X110752400Y-72500000D01*
X109600000Y-72000000D02*
X110252400Y-72000000D01*
%TO.N,/D8*%
X115600000Y-75611200D02*
X115600000Y-74670000D01*
X113639600Y-76708000D02*
X114503200Y-76708000D01*
X112725200Y-80822800D02*
X113182400Y-80365600D01*
X110896400Y-80822800D02*
X112725200Y-80822800D01*
X110420000Y-81299200D02*
X110896400Y-80822800D01*
X113182400Y-77165200D02*
X113639600Y-76708000D01*
X114503200Y-76708000D02*
X115600000Y-75611200D01*
X110420000Y-82400000D02*
X110420000Y-81299200D01*
X113182400Y-80365600D02*
X113182400Y-77165200D01*
%TO.N,Net-(U2-PB7)*%
X111963200Y-74218800D02*
X111963200Y-74320400D01*
X111963200Y-74320400D02*
X111861600Y-74422000D01*
X111963200Y-73433200D02*
X111963200Y-74218800D01*
X111830000Y-73300000D02*
X111963200Y-73433200D01*
X111030000Y-74100000D02*
X111830000Y-73300000D01*
X109600000Y-74100000D02*
X111030000Y-74100000D01*
%TO.N,/VCC*%
X103235000Y-62595000D02*
X103225600Y-62585600D01*
X104750000Y-62595000D02*
X103235000Y-62595000D01*
X96072200Y-62595000D02*
X96062800Y-62585600D01*
X97550000Y-62595000D02*
X96072200Y-62595000D01*
X96072200Y-63865000D02*
X96062800Y-63855600D01*
X97550000Y-63865000D02*
X96072200Y-63865000D01*
X96072200Y-65135000D02*
X96062800Y-65125600D01*
X97550000Y-65135000D02*
X96072200Y-65135000D01*
%TO.N,Net-(D2-K)*%
X126578900Y-72796400D02*
X126770000Y-72987500D01*
X124127500Y-72796400D02*
X126578900Y-72796400D01*
%TO.N,/SCK*%
X119938800Y-73531200D02*
X120170000Y-73300000D01*
X119938800Y-74726800D02*
X119938800Y-73531200D01*
X126796800Y-76758800D02*
X122224800Y-76758800D01*
X127152400Y-77114400D02*
X126796800Y-76758800D01*
X130198000Y-80160000D02*
X127152400Y-77114400D01*
X131940000Y-80160000D02*
X130198000Y-80160000D01*
%TO.N,/SDA*%
X122631200Y-63449200D02*
X120481200Y-63449200D01*
X120481200Y-63449200D02*
X120432000Y-63400000D01*
X124409200Y-61671200D02*
X122631200Y-63449200D01*
X134010400Y-62534800D02*
X133146800Y-61671200D01*
X133146800Y-61671200D02*
X124409200Y-61671200D01*
X133149200Y-77620000D02*
X134010400Y-76758800D01*
X134010400Y-76758800D02*
X134010400Y-62534800D01*
X131940000Y-77620000D02*
X133149200Y-77620000D01*
%TO.N,/MOSI*%
X122021600Y-66192400D02*
X122021600Y-66598800D01*
X123393200Y-64820800D02*
X122021600Y-66192400D01*
X128399200Y-64820800D02*
X123393200Y-64820800D01*
X129400000Y-63820000D02*
X128399200Y-64820800D01*
%TO.N,/SCK*%
X124409200Y-66565800D02*
X124375000Y-66600000D01*
X127254000Y-65227200D02*
X124612400Y-65227200D01*
X124612400Y-65227200D02*
X124409200Y-65430400D01*
X128386800Y-66360000D02*
X127254000Y-65227200D01*
X124409200Y-65430400D02*
X124409200Y-66565800D01*
X129400000Y-66360000D02*
X128386800Y-66360000D01*
X118918400Y-73300000D02*
X120170000Y-73300000D01*
X118262400Y-72644000D02*
X118918400Y-73300000D01*
%TO.N,/RESET*%
X128572000Y-68072000D02*
X127406400Y-68072000D01*
X129400000Y-68900000D02*
X128572000Y-68072000D01*
%TO.N,/MISO*%
X131940000Y-66891200D02*
X131940000Y-66360000D01*
X130708400Y-73456800D02*
X130708400Y-68122800D01*
X128066800Y-76098400D02*
X130708400Y-73456800D01*
X120228400Y-76098400D02*
X128066800Y-76098400D01*
X118800000Y-74670000D02*
X120228400Y-76098400D01*
X130708400Y-68122800D02*
X131940000Y-66891200D01*
%TO.N,Net-(U2-AREF)*%
X122429300Y-70900000D02*
X122475700Y-70946400D01*
X120170000Y-70900000D02*
X122429300Y-70900000D01*
%TO.N,Net-(U1-~{INTA})*%
X113284000Y-63434000D02*
X113250000Y-63400000D01*
X113284000Y-64465200D02*
X113284000Y-63434000D01*
X100981800Y-77885000D02*
X101549200Y-77317600D01*
X99025000Y-77885000D02*
X100981800Y-77885000D01*
X101549200Y-77317600D02*
X101549200Y-65684400D01*
X101549200Y-65684400D02*
X102616000Y-64617600D01*
%TO.N,Net-(U1-X1)*%
X97239800Y-75345000D02*
X94794800Y-72900000D01*
X94794800Y-72900000D02*
X94000000Y-72900000D01*
X99025000Y-75345000D02*
X97239800Y-75345000D01*
%TO.N,Net-(U1-X2)*%
X98035400Y-76615000D02*
X96550400Y-78100000D01*
X96550400Y-78100000D02*
X94000000Y-78100000D01*
X99025000Y-76615000D02*
X98035400Y-76615000D01*
%TO.N,/SCK*%
X116400000Y-66330000D02*
X116400000Y-64820800D01*
X116400000Y-64820800D02*
X116400000Y-64651200D01*
%TO.N,/SDA*%
X105816400Y-72796400D02*
X104858600Y-72796400D01*
X105968800Y-72644000D02*
X105816400Y-72796400D01*
X105968800Y-67623800D02*
X105968800Y-72644000D01*
X104750000Y-66405000D02*
X105968800Y-67623800D01*
X104858600Y-72796400D02*
X104750000Y-72905000D01*
%TO.N,/RX*%
X114096800Y-68427600D02*
X113385600Y-68427600D01*
X114800000Y-67724400D02*
X114096800Y-68427600D01*
X114800000Y-66330000D02*
X114800000Y-67724400D01*
%TO.N,/TX*%
X114000000Y-67610000D02*
X113995200Y-67614800D01*
X114000000Y-66330000D02*
X114000000Y-67610000D01*
%TO.N,/SCK*%
X123190000Y-66700400D02*
X124274600Y-66700400D01*
X124274600Y-66700400D02*
X124375000Y-66600000D01*
%TO.N,/SDA*%
X120432000Y-64022800D02*
X120432000Y-63400000D01*
X117500400Y-64770000D02*
X119684800Y-64770000D01*
X119684800Y-64770000D02*
X120432000Y-64022800D01*
X117200000Y-65070400D02*
X117500400Y-64770000D01*
X117200000Y-66330000D02*
X117200000Y-65070400D01*
%TO.N,/SCK*%
X117449600Y-64363600D02*
X118038000Y-63775200D01*
X116687600Y-64363600D02*
X117449600Y-64363600D01*
X118038000Y-63775200D02*
X118038000Y-63400000D01*
X116400000Y-64651200D02*
X116687600Y-64363600D01*
%TO.N,/RESET*%
X115600000Y-63444000D02*
X115644000Y-63400000D01*
X115600000Y-66330000D02*
X115600000Y-63444000D01*
%TO.N,Net-(D1-K)*%
X126262500Y-66612500D02*
X126250000Y-66600000D01*
X126262500Y-69350000D02*
X126262500Y-66612500D01*
%TO.N,/D7*%
X114147600Y-76301600D02*
X114800000Y-75649200D01*
X114800000Y-75649200D02*
X114800000Y-74670000D01*
X108102400Y-82177600D02*
X108102400Y-76708000D01*
X108102400Y-76708000D02*
X108508800Y-76301600D01*
X107880000Y-82400000D02*
X108102400Y-82177600D01*
X108508800Y-76301600D02*
X114147600Y-76301600D01*
%TO.N,/D6*%
X108305600Y-75844400D02*
X113842800Y-75844400D01*
X107696000Y-76454000D02*
X108305600Y-75844400D01*
X114000000Y-75687200D02*
X114000000Y-74670000D01*
X107696000Y-79959200D02*
X107696000Y-76454000D01*
X113842800Y-75844400D02*
X114000000Y-75687200D01*
X105340000Y-82400000D02*
X105340000Y-82315200D01*
X105340000Y-82315200D02*
X107696000Y-79959200D01*
%TO.N,/D4*%
X107238800Y-70256400D02*
X107442000Y-70459600D01*
X107238800Y-68783200D02*
X107238800Y-70256400D01*
X107522000Y-68500000D02*
X107238800Y-68783200D01*
X111830000Y-68500000D02*
X107522000Y-68500000D01*
%TO.N,/D3*%
X97739200Y-82380800D02*
X97720000Y-82400000D01*
X97739200Y-81127600D02*
X97739200Y-82380800D01*
X98348800Y-80518000D02*
X97739200Y-81127600D01*
X105562400Y-80518000D02*
X98348800Y-80518000D01*
X106832400Y-79248000D02*
X105562400Y-80518000D01*
X106826000Y-79241600D02*
X106832400Y-79248000D01*
X107306000Y-67700000D02*
X106826000Y-68180000D01*
X106826000Y-68180000D02*
X106826000Y-79241600D01*
X111830000Y-67700000D02*
X107306000Y-67700000D01*
%TO.N,/D5*%
X107289600Y-79705200D02*
X107289600Y-76200000D01*
X107289600Y-76200000D02*
X108051600Y-75438000D01*
X108051600Y-75438000D02*
X113116000Y-75438000D01*
X106070400Y-80924400D02*
X107289600Y-79705200D01*
X104275600Y-80924400D02*
X106070400Y-80924400D01*
X102800000Y-82400000D02*
X104275600Y-80924400D01*
X113116000Y-75438000D02*
X113116000Y-74754000D01*
X113116000Y-74754000D02*
X113200000Y-74670000D01*
%TD*%
M02*
